<?xml version="1.0" encoding="utf-8"?>
<!-- Generator: Adobe Illustrator 23.0.3, SVG Export Plug-In . SVG Version: 6.00 Build 0)  -->
<svg version="1.1" id="圖層_1" xmlns="http://www.w3.org/2000/svg" xmlns:xlink="http://www.w3.org/1999/xlink" x="0px" y="0px"
	 viewBox="0 0 1024 768" style="enable-background:new 0 0 1024 768;" xml:space="preserve">
<style type="text/css">
	.st0{fill-rule:evenodd;clip-rule:evenodd;fill:none;}
	.st1{fill-rule:evenodd;clip-rule:evenodd;fill:#48C0DC;}
	.st2{fill-rule:evenodd;clip-rule:evenodd;fill:#FFFFFF;}
	.st3{fill:#FFFFFF;}
</style>
<g id="react-group-174">
	<g id="react-group-175">
		<rect id="react-rect-177" y="0" class="st0" width="1024" height="768"/>
		<path id="react-path-178" class="st1" d="M402.2,498.2c-1.2-17.8,7.2-36.9,18.5-50.3c4.8-5.7,10.5-10.8,17.4-13.8
			c3.3-1.4,6.8-2.3,10.3-2.5c1.4-0.1,6.8-0.2,7.5,1c0.4,0.7-0.8,3.7-0.9,4.4c-0.6,2.8-1.1,5.7-1.7,8.5c-1.4,7.7-2.8,15.3-3.8,23.1
			c-3.1,23.5,1.9,47.4,5.8,70.6C435.8,534.1,403.8,521.8,402.2,498.2 M439.2,338c-18.8,8.3-36.6,19.7-52.7,32.2
			c-26.2,20.3-50,46.6-59.4,79c-5.1,17.7-4.7,36.3-2.7,54.4c1.7,15.8,5.4,31.6,12.3,46c13.7,28.5,39.7,46.5,68.6,57.5
			c19,7.2,39,11.8,59,15.3c2.7,0.5,5.2,1.5,7.6,0.1c1.3-0.7,2.4-2.2,3.3-3.3c2.6-3.1,4.8-6.5,6.9-9.9c3-4.9,5.7-10,8.2-15.2
			c0.7,0.7,1.5,1.4,2.3,2c35.1,30.3,85.5,47.2,131.3,34.9c15.2-4.1,35.6-13.4,40-30.3c4.5-17.5,5.6-38.2,2.4-56
			c-1.7-9.5-5-19.4-12.4-26c-3.4-3.1-4.8-2-8.9-1c-3.6,0.8-7.2,1.5-10.9,2.1c-18.8,3-38.5,4.5-57.4,1.7c-7.5-1.1-15.9-2.9-22-7.6
			c-6.1-4.7-6.7-11.4-6.6-18.8c0.4-17.5,9.1-32.5,19.9-45.8c11.6-14.3,24.8-27.2,35-42.6c12.3-18.6,18.6-39.9,18.2-62.3
			c-7.6,2.2-15.4,4-23.1,5.7c-31.5,7-64.5,12-96.8,7.7C480.2,354.9,457.8,349,439.2,338"/>
		<g id="react-group-176" transform="translate(100.999906, 37.000000)">
			<path id="react-path-179" class="st2" d="M11,86.3c-6.6-2.6,10.4-7.1,12.2-7.4c7.1-1.5,14.4-1.9,21.6-1.6
				c7.7,0.3,15.3,1.3,22.9,1.8c3.1,0.2,7,0.1,9.9,1.1c0.9,0.3,0.6,1.4,1.5,1.3c1.2,0,1.9-1.5,2.7-2.2c0.6,0.6,1.2,1.2,1.9,1.8
				c6.3-7.2-5-10.6-10.2-12.5C65.7,65.7,58,63.5,50.2,61c-5.3-1.7-12.5-3.3-16.7-7.2c-5.2-4.7,1.9-5.3,5.5-5.4
				c2.5-0.1,5-0.3,7.5,0.2c1.4,0.3,2.8,1.1,4.3,1.2c1.3,0.1,2.7-0.7,4-0.8c1.7-0.2,5-0.2,6.6,0.6c1.1,0.5,0.7,1.6,2.1,2.1
				c0.6,0.2,2.7-0.3,3.5-0.2c5.8,0.6,11.8,3.4,17.5,4.9c3.3,0.8,10.6,3.2,13.6,0c5.7-5.9-18.5-17.7-21.8-19.3c-2-1-12.5-5.7-5.7-6.9
				c1.7-0.3,3.7-0.4,4.6,0.6c1.1,1.1,0.4,3,2.1,3.6c1.3,0.5,2.1-0.7,3.5-0.1c0.7,0.3,1.4,1.7,1.9,2.2c1.2,1.2,3.3,3.2,5.1,3.1
				c0.9-0.1,1.5-1.4,2.4-1.3c0.7,0.2,0.8,1.3,1.3,1.7c1.6,0.9,3.4,1.5,5.2,2.5c2.5,1.3,5,2.1,7.5,3.3c2.6,1.3,4.5,3.5,7.4,4.3
				c2.1,0.6,3.2,0.6,4.9,2.1c1.9,1.6,2.7,3,5.2,3.7c1.5,0.4,2.3-0.1,3.5,1.1c0.6,0.6,0.4,1.7,1.1,2.3c1.2,1.1,3.4,1.1,4.8,2.2
				c1.9,1.4,2.6,4.1,4.6,5.4c1.3,0.9,2.1,0.9,3.1,2.1c1.2,1.4,0.3,1.4,2.3,2.4c1,0.5,1.2-0.2,2.3,0.9c1,0.9,0.9,2.7,1.7,3.8
				c0.8,1.2,2.2,2,3.3,2.9c1.8,1.5,2.8,3,4.4,4.7c1.4,1.5,4.8,3,4.1,5.5c-0.8,2.5-5.3,3.5-3.8,7.1c1.4,3.4,8.6,0,11.4-0.2
				c1.8-0.1,3.8-0.1,5.6-0.5c0.5-0.2,1-0.3,1.5-0.5c0.9-1.1,1.6-1.1,2.1,0c1.8,0,3.4,0.3,5.2-0.1c0.9-0.2,1.4-0.8,2.5-0.9
				c1.2-0.1,2.1,0.6,3.5,0.3c3.1-0.5,3.9-1.5,5.1,1.9c-1.2-2.6-8.2,0.7-10,1.7c-1.3,0.7-1.7,1.5-2.9,1.7c-0.4,0.1-1.2-0.6-1.8-0.5
				c-0.6,0.1-1.6,0.6-2.2,0.9c-8.8,3.9-17.7,8.3-24.8,14.7c-3.4,3.1-5.9,6.3-8.6,10.1c-1.5,2.1-1.9,4.2-4.1,5.5
				c-3.3,1.9-8.1,2.6-11.7,3.8c-4.6,1.5-9.1,3.1-13.7,4.4c-7.9,2.3-19.1,4.6-27.3,2.6c-7.6-1.8,1.8-17,3.6-21c1-2.1,1.8-4.2,2.5-6.4
				c0.6-2,1.6-3.3,2.3-5.1c1.6-4-1.7-6.8-4.3-9.3c-7.3-7-15.8-5.1-25.1-6.5c-9.2-1.4-18.5-1.8-27.8-2c-3.3-0.1-6.1-1.5-9.6-1.8
				C19.8,88.4,15.3,87.9,11,86.3L11,86.3z M73.5,160.2c0.3-2.8-2.3-7.8,1.6-9c1.5-0.5,8.1,0.1,6.6,2.5c2.1,1,5.1-0.6,6.7,1.7
				c0.3-1,0.4-1.9,0.3-3c2.5,1.4,2.5,2,5.2,2.2c1.4,0.1,3.1,0.3,4.7,0.2c2.2-0.1,5.4-0.3,4.4-2.9c1.3,0.4,2.8,1.5,4.2,1.4
				c1.5-0.1,1.8-1.1,3-1.6c1.4-0.6,5.9-3,6.8-1.4c3.2-4.1,11.4-4.9,15.9-7.4c1.4-0.8,6.5-4.4,8-2.8c1.4,1.4-3.1,8.9-3.8,10.7
				c-2.6,6.3-4.1,13-3.6,19.8c0.8,12,5,25,10.3,35.7c4.7,9.3,11.8,17.5,20.7,22.9c2,1.2,4,0.9,6.2,1.5c2.8,0.7,4.6,1.9,7.6,1.8
				c2.7-0.1,4.6-0.6,6.9-1.4c2.1-0.8,3.2-0.7,5.5-0.7c1.1,0,2.4,0.5,3.3,0.5c1.5,0,2.1-0.3,3.6-0.8c2.6-0.8,5.2-0.7,7.8-0.9
				c5.7-0.4,11.4-1.5,16.9-2.8c12.2-2.9,23.1-7.6,34.3-13.1c10.9-5.5,20-13.3,30.2-20c8.6-5.6,17.6-10.6,25.3-17.4
				c2.2-2,4.6-2.1,6.9-3.8c1.9-1.4,3.1-2.9,5.3-4c1.4-0.7,4.7-1.3,5.7-2.2c1.1-1,0.6-2.8,1.6-3.8c2.5,5.3,8.7-2.3,12.2-3.3
				c5.8-1.8,11.7-1.2,17.6-1.6c1.7-0.1,4.8-1.3,6.4-0.5c2,1,1.6,2.8,2,4.7c1.3,5.4,6.2,9.4,10.7,12.2c7.7,4.7,16.8,9.2,25.8,8.3
				c0.2-0.4,0.5-0.7,1-0.7c0.5-0.3,1-0.1,1.4,0.4c0.1,0,1.9-0.4,1.8-0.4c2.2,0.1,4.9,0.6,7.4,0.3c6.3-0.7,11.7-4.1,17.4-6.7
				c-1,2.6,1.4,5.7,3.5,6.8c1.7,0.9,5.1,0,6.2,1.5c1.1,1.3,0.3,5.3,0.2,6.8c0,3.5-0.1,7,0.1,10.5c0.6,14,4.6,25.6,14.2,35.9
				c4,4.3,9,8,15.2,6.6c5.5-1.3,10.2-5.4,13.8-9.5c8.8-10,12.2-23,15.4-35.6c3.6,5,6.2,10.9,7.8,16.9c0.7,2.5,2,3.2,3,5.2
				c1.1,2.2,0.7,4,2.1,6.3c1.4,2.2,1.4,4.3,2,6.9c0.7,3.1,1.9,5.9,2.6,9c0.5,2.3,0.5,4.6,1.3,6.9c0.7,1.8,2.7,3.8,2.9,5.8
				c0.1,1.5-1.1,2.3-1.1,3.6c0.1,0.9,0.8,0.9,1.1,1.5c0.8,2,1.3,2.1,1.3,4.7c0.1,6,1.1,11.9,1.7,17.9c0.3,2.6,0.9,5.7,0.2,8.3
				c-0.2,0.5-1.9,4.9-2,5c-0.8,0.7-3.4,1.6-4.5,2c-2.9,1-3,0.7-4.2,3.6c-2.6-1.9-2-1-3.7-0.2c-1.8,0.8-3.8,1-5.8,1.6
				c-5.7,1.6-11.3,2.2-17.1,3.4c-11.4,2.3-22.9,2.9-34.2,5.4c-5.5,1.2-11,1.4-16.6,1.7c-2.4,0.1-4.9-0.3-7.2,0.3
				c-0.4,0.1-1,0.8-1.3,0.8c-0.8,0-1.3-0.5-2-0.5c-3,0.1-6.5,0.4-10-0.4c-1.9-0.4-3.9-0.4-5.9-0.2c-0.9,0.1-1.9,0.1-2.7,0.6
				c-0.4,0.2-1.1,1.5-1.6,1.5c-0.2,0-1.6-1.7-1.9-1.8c-1.5,4.5-2-0.6-5-0.8c-1.3-0.1-2.5,0.7-3.9,0.6c-1.6-0.1-3-1.1-4.7-1.1
				c-1.8,0-3,0.5-4.6,0.3c-2.3-0.2-4.9-1.9-7.4-2.5c-8.9-2.1-17.5-3.2-26-7c-2.7-1.2-6.2-3.5-7.5-6.3c-1.2-2.6,0.4-5.3,1.4-7.7
				c6.4-16.5,9.4-35.2,8.4-52.9c-0.5-8.8-2.8-16.9-6.2-25.1c-2.8-6.8-5.7-14.8-12.3-18.9c-3.1,6.5,2.6,16,4.8,22.2
				c1.3,3.6,2.5,7.3,3.6,11c0.8,2.8,2.5,6.5,1.1,9.5c-1,2.1-3.6,3.3-5.5,4.5c-3.1,2-6.1,4.2-9.1,6.3c-2.7,1.8-5.2,3.7-7.7,5.7
				c-3,2.4-6.4,3.3-9.6,5.2c-12.1,7.3-24.1,13.8-37.4,18.9c-11.9,4.6-23.6,9.7-35.8,12.7c-6.6,1.6-14,3-20.7,4.1
				c-6.4,1-13.2,0.4-19.6,0.7c-14.5,0.6-29.1-0.8-42.9-5.5c-13.2-4.5-25.3-11.8-36.4-20.1c-5.6-4.1-9.3-9.1-14-14.1
				c-4.6-4.9-9.6-9.8-12.9-15.7c-6.5-11.5-12.8-22.8-16.7-35.5c-2.2-7.2-3.7-14.6-5.8-21.9c-1.1-3.7-0.7-7-1.2-10.8
				C74.6,166,73.1,163.4,73.5,160.2L73.5,160.2z M375.6,321c3.7,1.1,2.4,3.9-1,3.3c-2.8-0.5-4.8-3.7-6.7-5.5
				C370.5,319.5,373.1,320.2,375.6,321L375.6,321z M501.3,322.2c-2,1.8-4.1,4.7-6.6,5.8c-3.1,1.2-4.2-1-6.1-3.1
				C492.4,322.4,497,322.8,501.3,322.2L501.3,322.2z M358.1,437.6c-3.3,2.9-4.6-3.1-4.3-5.2c0.1-1,1.1-5.7,1.8-6.2
				c2.1-1.3,3,3.1,3.6,4.5C360.6,433.9,360.9,435,358.1,437.6L358.1,437.6z M342.3,422.9c-2.5,9.2-2.1,18.7-1.6,28.1
				c0.5,9.6,1.5,19,3.3,28.4c0.7,3.5,1.5,6.8,2.6,10.2c0.5,1.6,1.5,4.2-0.6,5c-2.8,1-9-3.8-11.1-5.2c-1.8-1.2-3.6-2.4-5.3-3.7
				c-1.8-1.3-4-1.9-5.7-3.2c-2.3-1.7-3.1-4.9-5.3-6.8c-2.5-2.1-4.6-3.3-5.9-6.5c-2.5-6.4-4.7-11.8-3.5-18.9
				c1.3-7.3,4.6-14.6,8.1-21.1c6.4-12.3,14.9-27.1,29.8-29.7c-0.4,4.1-1.6,8.1-2.7,12C343.2,415.3,343.2,419.3,342.3,422.9
				L342.3,422.9z M354.7,465.5c0.2,0.7,2.4,3,0.9,3.6C353.5,469.9,354.5,466,354.7,465.5L354.7,465.5z M345.9,308.1
				c2.2,0.9,4.6,3.3,6.8,4.4c2.3,1.2,5.1,2.2,7.1,3.9c3.6,3,2.7,7.8,5,11.6c1.2,2.1,2.4,2.4,0.4,4.7c-1.5,1.7-3.9,2.7-5.7,4.1
				c-3,2.3-8.1,7.9-3.8,11.7c3.3,2.8,9.4-2,12.3-3.6c1.9-1.1,4.5-3.2,6.9-2.6c1.8,0.5,3.2,2.9,4.6,4.1c2.9,2.5,7.2,4.8,9.1,0.1
				c2.3-5.4-2.6-9.5-5.8-13.1c2.3-2,3.3-4.7,5.2-6.7c1.4-1.5,1.9-1.2,3.8-0.8c6.6,1.2,12.9,1.7,19.7,1.7c2.7,0,6.4-1,8.7,0.7
				c1.2,0.9,2.5,3.8,3.1,5.3c2,5-4.2,8.4-7.3,11.8c-2.5,2.6-6.5,11.4,0.6,10.3c5.4-0.9,8.7-6.4,13.5-8.3c5-2,7.5,7.2,12.3,4.1
				c2.9-1.9,2.2-7.2,1.2-9.9c-0.8-2.1-2.2-3.1-1.3-5.2c0.7-1.9,4.2-4.5,5.7-5.8c4.6-4.1,11-3.1,16.7-3.5c4.8-0.3,13.6-3.3,16.5,1.6
				c0.8,1.4,2.3,4.4,2.5,6.1c0.4,3.4-2.8,5.3-4.9,7.4c-2.9,2.9-6.9,7.6-6.7,12c0.2,5.1,4.3,4.2,7.7,2.5c1.9-0.9,3.8-2.1,5.5-3.3
				c1.7-1.3,3.6-4.1,5.7-4.6c2.4-0.6,3.2,1.3,4.7,2.8c1.8,1.8,6.1,3.3,6.9,5.8c0.6,2-1.8,6.1-2.7,7.8c-1.4,2.7-3.7,4.8-5.5,7.2
				c-3.7,5.2-7,10.7-11.9,15c-10,8.7-22,14.3-29.8,25.6c-2.9,4.2-5.3,12.3-10.7,12.6c-4.7,0.2-6.5,2.3-10.4,4.7
				c-4,2.5-5.5,1.2-8.2-2c-1.6-1.8-4.7-6.6-7.7-6.2c-5.6,0.7-0.8,9.5,0.5,11.6c3,5,3.2,6.7-1.1,11c-2.7,2.6-6.5,5.8-7.7,9.5
				c-1.5,4.7,2.7,5.9,6.5,4.4c2.3-0.9,4.4-2.5,6.4-4c1.7-1.3,3.7-4,5.8-4.4c4.4-0.9,6.1,7.5,10.8,5c4.5-2.4,1.8-8.8,0.5-11.9
				c-0.9-2.1-1.5-1.9,0.1-4c0.8-1,2.9-2.7,3.9-1.4c0.7,1-0.8,4.4-1,5.5c-0.5,2.9-0.3,5.9-0.3,8.9c0,6.5,0.8,11.3,3,17.2
				c0.7,1.8,3.7,6.6,3.1,8.5c-0.8,2.2-3.7,2.4-5.6,2.6c-3.4,0.5-6.7,1-10.1,1.2c-1.8,0.1-3.8-0.2-4.8,1.6c-2.2,3.8,3,8.2,6.1,8.9
				c3.8,0.9,12.2-2.4,14.5,1.6c1.9,3.4-1.3,9-0.4,12.8c2,7.7,7.1-1.8,7.8-4.9c1-5.1-1-11.9,6.3-12c5.2-0.1,10.6,3.8,15.4,5.6
				c6.9,2.6,13.7,3.8,21.1,4.2c3.1,0.2,6.1,0.3,9.2,0.1c3.4-0.2,6.6-1.4,9.9-1.6c3.3-0.2,3.3,0.5,3.6,3.5c0.2,2.1-0.2,4.3,1.1,6.2
				c2.3,3.5,5.2,2,6.1-1.5c0.7-2.9-0.7-7.7,1-10.1c1.1-1.5,3.2-1.5,4.8-2c3.2-1,5.8-2.9,8.8-4.4c1.5-0.7,5.3-3.2,7-2.8
				c2.2,0.6,3,6.3,3.4,8.1c1.4,5.8,3.1,11.6,4.2,17.5c0.7,3.5,0.9,7.2,1.6,10.7c0.5,2.5,0.3,4.9,0.6,7.2c0.3,2.4,1.7,2.9,1.3,5.3
				c-0.5,2.3-1.5,4.1-1.7,6.7c-0.4,7.3-1.4,14.3-3.8,21.2c-1.6,4.7-3.3,10.2-7.1,13.7c-2.8,2.6-6.7,3.7-10,5.3
				c-2.2,1.1-4.6,2.3-7.1,2.4c-3,0.1-4.2-1.9-7-2.5c-1.7-0.4-3.8,0.3-5.2-1c-2.9-2.5,1.2-12.7-3.4-13.8c-4-1-3.6,7.5-3.9,9.6
				c-0.8,6.8-5.2,5.3-10.5,7c-1.9,0.6-4.2,1.3-5.2,3.2c-1,2,0.2,2.9-2.6,3.1c-1.7,0.1-3.4-0.9-5.2-0.9c-0.9,0-1.7,0.3-2.6,0.3
				c-2.9,0-4.6-1.7-7.2-2.5c-2.9-0.9-6.3-0.9-9.3-1.7c-3.5-0.9-7-2-10.5-3c-5.5-1.6-12.3-1.8-13.6-8.2c-0.5-2.4-0.8-12.2-5.5-8.6
				c-3.6,2.7,1.3,11-5.2,8.4c-5.5-2.2-10.9-5.6-15.8-9c-2.1-1.4-10.1-5.1-9.2-8.2c0.5-1.7,7.9-6.6,9.7-6.5c3.7,0.2,6.9,8.6,10.9,4.4
				c2.1-2.1,1.9-7.2,0.8-9.7c-1.4-3.1-3-3.9-0.1-6.7c1.4-1.3,3.2-2.1,4.6-3.5c2.3-2.5,3.4-7.4-0.4-9c-4.2-1.9-8.2,3.2-11.3,5
				c-5,2.9-6.8-0.9-10.1-4.6c-1.9-2.1-6.8-7.2-8-1.6c-0.6,2.9,1.9,7.2,3.2,9.6c1,1.9,2.9,3.7,2.5,6c-0.4,2.3-3.6,4.1-5.2,5.6
				c-3.7,3.8-5,6.1-9.4,1.4c-4.5-4.8-8.3-10.1-11.8-15.6c-3.4-5.4-6.2-10.9-9.5-16.3c-1.4-2.3-1.7-4.8-2.9-7.1
				c-0.9-1.8-3.1-2.2-3.7-3.4c-0.6-1.2-0.2-3.9-0.7-5.3c-0.9-2.7-3.2-4.2-4.1-6.7c4.4,0,9.1,2.1,13.5,2.7c3,0.4,6.2-0.2,7.1,2.7
				c0.9,2.8-2.3,8.4,1.1,10.6c1.9,1.2,3-0.3,4.1-1.8c2.7-3.7,1.7-10.5,6.3-11.9c3-0.9,6.5-0.6,7.3-4.4c0.8-3.5-1.7-5.8-4.8-6.7
				c-3.1-0.8-5.8,0.2-7.4-3.1c-1.1-2.2-0.2-8.2-3.5-8.9c-3.8-0.8-2.6,5.8-2.7,7.7c-0.2,4.4-2.6,4-6.3,4.2c-4.1,0.2-8.1,0.3-12.2,0.2
				c-4.8-0.2-4.9,0.4-5.6-4.4c-0.5-3.5-1.4-6.9-1.8-10.5c-0.5-4.5-2.2-7-0.9-11.4c-3.4,1.1-5.8-0.4-3.9-4.3c1.4-3.1,6.7-3.9,9.6-5.2
				c3.7-1.7,6.6-4.4,10.2-1.4c2.1,1.7,3.7,4.5,6.4,5.3c3.4,0.9,5.5-2.1,5.4-5.3c-0.2-3.4-2.5-5.4-4.3-8c-2.4-3.4,0.5-4.1,2.1-7.1
				c1.2-2.2,1.9-6.9,0.2-9c-3.9-5.1-8.3,4.8-12.6,3.7c-2.9-0.7-5.6-5.2-8.1-6.9c-2.3-1.6-3.2-1.3-3-4.1c0.3-3.6,2.2-7.4,2.9-11
				c0.7-3.8,2-7.5,2.8-11.3c0.7-3.3,0.5-5.5,4.7-4.1c3.4,1.1,6.6,2,10.2,2.5c3,0.4,7.8,0.1,8.8,3.5c0.7,2.4-0.5,5,0.4,7.5
				c1.3,3.6,3.7,3.8,5.7,0.3c1.4-2.4,1.1-5.3,2.2-7.9c2.3-5.2,10.5-2.7,11-8.8c0.6-6.9-7-4.5-10.5-6.8c-2.3-1.5-3.2-15.3-7.3-9.7
				c-1.2,1.6-1,4.3-1.1,6.1c0,2.1,0.5,3.5-1,4.3c-2,1.1-7.3,0.6-9.9,0.7c-7,0.4-5.9-2.6-3.9-8.1c2.3-6.1-2.9-11.6-7-15.9
				c-2.3-2.4-13.4-8.7-13.8-2.5c-0.2,2.6,0.8,6.3,1.8,8.5c1.2,2.7,3.8,5,3.7,8.1c-0.1,3.6-3.4,7.8-4.8,11.1
				c-1.2,2.7-1.7,3.9-4.5,4.8c-5.3,1.7-13.5-0.3-17.4,4.2c0.2-2-0.5-4.6,1.2-6c1.6-1.4,4.2-0.9,6.1-1.2c5.6-1.1,3.4-6.3-0.8-7.7
				c-1.7-0.6-3.8-0.5-4.9-2.1c-1.2-1.7-0.7-4.7-0.8-6.6c-0.1-2.7-1.2-12.4-5.6-8.1c-3.5,3.4-0.3,9.5-2.2,13.4
				c-1.5,3-7.5,2.3-10.4,2.5c-5.4,0.4-10.6,0.2-16,0c-4.1-0.2-6.4,3.2-3.2,6.5c6.2,6.2,17.4,2.6,25.1,4.1c4.3,0.8,3.6,3.7,3.2,7.3
				c-0.4,4.8-2.3,7.4-5.3,11.2c-3.3,4.2-7,8.3-9.6,12.9c-1.5,2.6-2.7,7.6-6.4,5.4c-2.2-1.3-4.1-7.3-7.5-5.2
				c-3.7,2.3-0.3,8.8,1.1,11.3c0.9,1.6,2,2.5,1.2,4.3c-0.8,1.8-4.5,3.7-5.9,4.8c-3.2,2.7-7.9,6-9.3,10.2c-1,3-0.3,7.5,3.5,7.1
				c3.8-0.5,8.2-3.8,11.7-5.2c0,6.1-0.3,12.3,1.5,18.2c0.6,1.9,5.2,8.9,4.1,10.6c-1.6,2.5-9-0.9-11.6,0c-4.4,1.6-1.9,6.8,1.3,8.4
				c7.2,3.7,19.1-1.6,24.6,5.7c2.7,3.5-0.5,9,2.3,12.1c3.9,4.3,5.6-3.1,6.5-5.6c4.2,2,8.2,5.5,12.7,6.6c1.9,0.5,4.4,0.7,6.2,1.1
				c1.4,0.2,2.3,0.1,3.7,0.2c4.4,0.4,5.8,4.2,7.5,7.6c2,4.1,4.2,8,5.3,12.4c-3.8-0.3-5.6-4.6-8.3-6.6c-3.8-2.7-5.5,0.2-4.9,4.1
				c0.4,3.1,4.5,7.2,3.7,10.1c-0.7,2.7-5.1,4.6-7.1,6.3c-2.6,2.2-4.7,4.7-4.1,8.4c0.5,3.4,2.8,4,5.9,3.1c3.9-1.2,7.4-4.1,11-5.8
				c3.6-1.8,4.6,0.3,7.1,2.9c2.8,2.9,5.3,4.6,8.9,2.1c2.8-1.9,2.2-1.5,4.4,1.2c2.3,2.9,4.7,4.3,3.1,8.1c-1.7,3.9-4.3,7.5-5.8,11.5
				c-1.3,3.4-1.2,6-5.4,6c-4.1,0-8.7-1-12.7-2c-4.6-1.2-9.4-1.9-14-3.2c-4.1-1.1-7.9-3.1-11.9-4.5c-4.5-1.6-9.6-2.1-13.9-4.2
				c-3.6-1.8-6.9-3-10.7-4.4c-4-1.5-8.9-2.1-12.5-4.3c-2.7-1.7-4.7-4.5-7.9-5.4c2.1-1.6,6.7-6.7,9.6-6.4c2.2,0.2,3.8,3.7,5.2,5.3
				c1.8,2.1,4.1,4.7,6.9,2.5c2.5-2,1.9-6.3,0.5-8.7c-1.4-2.6-4.9-4.2-4.7-7.5c0.2-2.9,3.6-5.5,4.4-8.4c1.7-5.7-1.4-10.5-6.3-5.9
				c-3.1,2.9-4.7,6.8-8.4,2.9c-1.8-1.9-5.7-9.1-9.1-5.8c-1.6,1.6-0.8,5.1-0.2,7c0.7,2.2,3.7,4.8,3.9,6.9c0.2,2.6-3.6,4.2-5.3,5.5
				c-2.4,1.9-4.6,5.1-7.7,5.9c0-1.2-2.5-1.8-3.3-2.4c-1.6-1.2-2.8-2.8-4.5-4c-2.6-1.9-5.7-3.7-8.1-5.5c-1.6-1.3-2-3.4-3-5.3
				c-1.5-2.9-5.1-4.4-7-7.1c-2.3-3.3-5.2-6.6-7.4-9.9c-1.6-2.3-1.5-4.6-3.2-6.8c-1-1.2-1.7-2.5-2.9-3.4c-0.9-0.7-1.7-0.9-2.3-1.4
				c0.7,0.4-0.6-2.9-0.6-1.5c0-1.1-0.6-1.3,0-3c0.3,0.7,0.5,1.4,0.8,2.2c1.1-0.8,1-2.3,1.2-3.5c-2.2,0.4-3.8-4.6-4.9-6.4
				c3.2-1.3,2.6-6.9,2.3-9.6c-0.5-4.9-0.6-9.6-0.9-14.5c-0.1-2.1,0-4.8-0.4-6.9c-0.4-1.9-0.4-2.2-0.3-3.9c0-0.5,0.6-0.9,0.5-1.5
				c-0.1-0.9-1.4-1.1-1.7-1.9c-0.7-2-0.3-0.6,0.9-2c2.1-2.5,2.1-9.2,6.5-7.4c2.8,1.1,5.4,4.8,7.9,6.6c7,5.1,10.5-1.7,6.3-7.7
				c-1.8-2.6-7.9-6.2-7.3-9.8c0.5-3.3,5.3-4.7,6.3-7.9c1.1-3.3-1-7.1-4.7-7c-3.7,0.1-5.9,3.6-8.8,5.2c-4.2,2.2-2.4-1.9-1.6-4.5
				c1.2-3.7,2.5-7.4,4-11c1.4-3.4,2.4-7.3,4.8-10c1.6-1.8,2.4-4.2,3.9-6c2.1-2.3,11.9-3.1,13.8-0.1c1.5,2.4-1,6.9,0.4,9.8
				c1.7,3.5,4.3,2.4,5.8-0.7c2.8-5.6-0.2-10.6,7.8-10.9c2.8-0.1,5.5-0.3,6.1-3.7c0.6-3.3-1.8-5.5-4.7-6.2c-2.6-0.6-5.4,0.4-7.1-2.2
				c-1.6-2.3-2-8.8-2.3-11.6c-0.4-4,2.4-6.9,5.1-9.6c2.1-2.1,3.6-4.8,6.1-6.2c4.3-2.4,7.1-7.6,11.5-9.1c2.1-0.7,4.3-1.3,6-2.9
				c1.1-1,1.5-2.5,2.6-3.5c0.5-0.4,4-1.8,4.5-1.3c0.9,0.9-13.1,11.6-14.7,13.9c-1.4,2-2.5,5.8-1.1,8.1c1.8,2.9,5,0.8,7.4-0.3
				c3.5-1.6,6.9-3.4,9.9-5.9c1.3-1.1,3.8-4.6,5.6-4.6c4.4,0.1,5.7,10.9,11.5,9c3.4-1.1,2.9-6.1,1.9-8.6c-1.2-2.7-5-4.7-5.1-7.7
				c-0.1-3,3.4-6.2,4.3-9.1c1-3.3,0.2-6-1.9-8.6c4.3-2.7,11.9-7.7,17.1-7.6c2.1,0.1,2.6,2.3,4.6,2.3
				C343.5,309.6,344.2,307.4,345.9,308.1L345.9,308.1z M309.6,322.9c-0.7-2.4,0.6-2.6,2.6-1.6C311.3,321.8,310.5,322.3,309.6,322.9
				L309.6,322.9z M261.8,368.9c1,5-3.9,4.9-7.4,5.3c2.8-2.3,0.9-2,1-4.6c2.9,1.1,1.6-2.9,2.8-3.9C260,363.9,261.4,367.1,261.8,368.9
				L261.8,368.9z M398.5,583.1c-4.6-2.4-9.8-3.6-15-3.8c1.4-2.6,3.1-5.2,4-8.1c0.6-1.6,0.5-3.5,2.7-3.7c5.2-0.4,4.5,8.8,4.7,11.6
				C397.6,577,397.6,580.7,398.5,583.1L398.5,583.1z M396.8,615.9c0.5,1.5,0.5,2.2,2,2.8c0.6,0.2,0.9-1.3,1.9-0.8
				c0.8,0.3,1,1.6,1.7,2c2,1,2,0,3.8-0.9c0.6,1.6,1,2.5,2.7,3.1c1.2,0.4,3.1-0.5,4.2,0.2c0.7,0.5,0.7,2,1.4,2.8
				c1.1,1.1,3.2,1.4,4.7,1.2c4.9-0.9,0-9.3-2.4-11.1c-2.8-2.1-8.2-3.6-10-6.7c-1.3-2.2,0.4-4,1.5-6.1c3.3-6.1,6.8-0.7,11.9-0.2
				c7.7,0.8,0.1-6.9-2.4-8.5c-2.8-1.8-5.9-3.1-7.8-5.9c-0.7-1.1-3-5.3-0.6-5.9c1.2-0.3,7.9,4.8,9.4,5.5c3.4,1.6,6.7,3.3,10.1,4.9
				c3.1,1.5,6.2,2.1,9.2,3.8c3.3,1.8,6.8,2.9,10.4,3.8c3.8,1,7.5,1.6,11.4,2c3.1,0.4,4.7,1,4.5,4.5c-0.3,3.8-1.4,5.7-0.5,9.6
				c0.4,1.7,1.2,6.6-1,2.8c-1.7,8.1-4,19.8-10.8,25.5c-2.7,2.3-6.2,3.6-8.8,6c-1.3,1.2-2,1.9-3.8,2.6c-1.2,0.5-1.2,0.1-2.2,0.8
				c-0.3,0.2,0,2.1,0,2.4c-1.9-3.3-12.1,4.8-15,5.7c-3.6,1.1-7.3,2.7-11,3.2c-2.3,0.3-5.3-0.6-5.8,2.6c-1.2-3.3-5.4-1.7-8.1-2.8
				c-1.9-0.8-3.4-2.3-5.5-2.7c-1.6-0.3-3,0.3-4.6-0.1c-1.6-0.4-2.4-1.4-4.2-1.6c-2.2-0.3-4.2-0.5-6.4-0.9c-3.4-0.7-6.3-1.6-9.7-2.5
				c-3.3-0.9-7.2-2-10.5-1.2c-1.3,0.3-1.8,0.7-3,0.7c-1.3-0.1-2.9-1.1-4.5-1.2c-2.8-0.1-5.1,0.5-5.9-2.2c-0.5-1.7,0.7-4.4,0.9-6.1
				c0.2-1.9,0.1-3.8,0-5.7c-0.1-6.7,0-14.9,4.5-20.3c2.2-2.7,4.7-4.7,8-5.5c1.4-0.3,1.9,0,3.4-0.5c0.5-0.7,1.1-1,1.9-1
				c0.6,0.1,1.3,0.2,1.9,0.3c1.6-0.4,1.5-0.8,3.1-0.9c0.9-0.1,2.7-0.2,3.5-0.2c3.5,0,7.7-0.1,11.2,0.7c2.9,0.6,5.5,0.1,8.1,1
				C392.3,615.5,393.8,618.2,396.8,615.9L396.8,615.9z M503.2,591.1c-1.2-0.1-9.1-0.8-4.6-2.2c1.3-0.4,3.2,0.8,4.5,1
				c3.1,0.6,5.8-0.1,8.9-0.2C509.4,591.6,506.2,591.4,503.2,591.1L503.2,591.1z M511.4,329.6c-0.2,5.9-2.1,12.6-5.2,17.5
				c-1.3-2.1-3.8-4.3-4.2-6.8c-0.4-2.9,2.2-4.8,3.6-7c1.5-2.4,2.5-5.2,2.2-8c-0.2-1.7-1.6-3.7-0.3-5.2
				C512.4,314.5,511.5,328.5,511.4,329.6L511.4,329.6z M522,181.9c-4.4-0.5-8.2-0.6-12.3-2.1c-3.7-1.4-5.6-1.1-6-5.7
				c-0.7-9.2-2.3-18-4.2-27c-0.9-4.1-2.5-8.8-2.5-12.9c0-3.4,2.2-2.7,5.3-2.7c7.7,0.2,15.9-0.2,23.4,1.7c6.7,1.6,14.2,2.4,20.9,2.2
				c2.6-0.1,4,2.2,7.1,2.8c3.5,0.8,7.1,0.9,10.5,1.7c3.6,0.8,7.8,1.3,11.2,2.8c1.3,0.6,2.5,1.7,3.9,2.1c1.7,0.5,2.5-0.2,4.1-0.3
				c1.8-0.1,6.2,0.6,7.9,1.3c0.7,0.3,1.9,1.8,2.6,2.3c1.1,1,1.8,1,2.3,2.5c1,3-1.4,8.6-2,11.6c-0.9,4.2-1.8,8.4-2.8,12.7
				c-2,8.7-4.2,17.5-6.2,26.2c-9.9-4.7-19.7-9.6-30.3-12.8C544.2,185.2,533.1,183.1,522,181.9L522,181.9z M580.6,274.7
				c4.2-0.6,3.2-11.6,3.3-14.7c0.2-2.9,0.1-6.3,3.6-6.5c3.5-0.2,7.3,3,10.3,4.3c-3,5.3-6.6,10.5-9.3,15.9
				c-2.7,5.5-6.4,10.3-8.9,15.9c-2.6,6-6.4,11.4-9.6,17.1c-1.8,3.1-3.5,6.3-5.3,9.4c-1.2,2-2.8,6.3-4.7,7.6
				c-1.6,1.1-2.5,0.6-4.7-0.3c-2.1-0.9-4.1-1.8-4.1-4.3c-0.1-2.3,2.1-5.1,3.1-7.1c1.4-2.9,2.6-6,4-9c5.8-12.7,13.1-24.6,19.7-37
				C578.1,267.6,577.8,275.1,580.6,274.7L580.6,274.7z M571.8,330.4c-1.5-1.8-1.1-1.8,0-3.9c0.6-1.2,1.3-2.3,2-3.5
				c1.5-2.5,3.1-4.8,4.1-7.5c1.8-4.7,4.5-7.7,7.2-11.9c2.9-4.3,4.3-9.2,7.4-13.5c1.7-2.3,1.7-3.8,2.6-6.4c0.8-2.2,2.6-4.2,3.8-6.2
				c1.4-2.2,2.8-4.4,3.7-6.8c0.4-1.1,0.4-3.3,1.4-4.1c2.7-2.1,8.5,3.8,10.6,5.3c4.5,3.2,8.9,6.6,13.3,9.9
				c9.8,7.1,20.1,13.8,30.4,20.2c5.9,3.7,21.2,8.7,18.6,17.9c-1.3,4.7-6.1,9.4-8.9,13.2c-3.1,4.1-6.1,8.8-9.7,12.5
				c-0.9,0.9-2.5,1.7-3.1,2.7c-0.5,0.9-0.3,1.6-0.6,2.4c-0.8,2.2-2.1,4-2.8,6.3c-0.8,2.7-0.9,10.1-4.5,9.9c-3.2-0.1-9.2-5-12-6.3
				c-5.2-2.6-10.6-5.2-15.9-7.5c-10.4-4.6-20.6-9.1-30.8-14.1c-3.1-1.5-6.3-2.8-9.4-4.3C577.1,333.5,573.4,332.4,571.8,330.4
				L571.8,330.4z M659.5,366.2c-2.6-1.8,10.1-17.8,12-18.8c8.9-4.9,17.6-12.4,14.5-23.6c-1.3-4.9-2.6-10.4-4.8-14.9
				c-2.4-4.9-6.9-8.2-11.2-11.5c-10.1-7.8-20.5-15.1-31-22.4c4.5-4,11.4-6.5,14-12.3c1.4-3.3,0.6-5.8-0.4-9c-1.2-4-0.9-5.2,3-6.4
				c2.9-0.9,4.1-2.2,7.1-2.5c4.2-0.4,7.7-2,11.6-3.5c3.2-1.2,6-0.6,9.5-0.8c2.5-0.2,8,1.5,8.9-1.9c1.1,0.9,2.1,1.9,3.2,2.8
				c1.9-2.6,1.4-0.6,3.6-0.3c1.4,0.2,5.8-1,7.1-1.9c0.2,0.8,0.3,1.7,0.5,2.5c-0.2,0.2,3.2-0.1,3-0.1c2,0.5,3.6,2,5.6,2.7
				c2.2,0.7,4.4,1.1,6.6,1.1c1,0,2.1-0.4,3.1-0.2c0.5,0.1,0.6,1.1,0.9,1.2c0.8,0.3,1.8,0,2.6,0.3c0.6,0.2,1.2,1,1.8,1.3
				c1.8,0.9,4.1,0.1,5.4,2c0.8,1.3,0.4,4.4,0.5,5.7c0.2,2.4,0.4,4.9,0.9,7.3c1.9,10.1,6.9,19.5,13.1,27.5c2.5,3.2,5.3,7,8.2,9.6
				c1.3,1.2,2.6,1.9,3.5,3.5c0.7,1.2,0.5,3,2.4,1.8c0.5,2.3,1.2,1.4,2.7,2.3c1.7,1,1.6,2.1,2.8,3.3c0.5,0.5,1.2,0.8,1.6,1.2
				c0.6,0.6,1.4,1.4,2.3,2.5c1.1,1.2,3.2,1.8,4.2,3.1c0.7,1,0.4,2.2,0.9,3.2c1.5,2.5,4.7,2.6,6.4,4.8c0.4,0.5,1,1.2,1.4,1.5
				c-0.3-0.3,1.3,1.3,1.3,1.1c0.3,0.5,0.6,1.3,0.9,1.7c2.2,1.9,2.4,3.2,3.9,5.7c2.2,3.5,3.4,0.8,5.8,1.7c0.5,0.2,4.4,5,4.5,5.4
				c0.3,3.4-5.9-0.6-6.9-1c-3.8-1.7-7.6-3.5-11.3-5.2c-8-3.8-16.1-7.7-23.7-12.3c-3.5-2.1-7.2-4.3-10.4-7c-2.5-2.1-4.1-5.3-7.3-6.5
				c-3.4-1.3-7.6-1.8-7.6,3.1c0,3.2,2.9,6.2,5,8.5c10.8,11.8,23.7,22.5,32.6,36c1.4,2.1,9.1,14.7,1.6,11.5
				c-6.3-2.7-11.4-7.6-17.1-11.2c-13.7-8.6-25.5-22.1-36.5-33.8c-3.1-3.3-6.2-6.7-9-10.2c-1.8-2.2-3.2-4.9-5.4-6.8
				c-2.1-1.9-5.5-3.2-7.8-0.9c-2.1,2.1-1.3,5.7-0.8,8.2c2.2,12.6,7.9,32.1-4.1,41.8c-6,4.9-14.5,5-21.5,7.4
				c-1.5,0.5-2.9,1.6-4.6,1.7c-0.6,0-1.4-0.6-2.2-0.6C664.4,365.2,661.5,367.6,659.5,366.2L659.5,366.2z M676.8,379.7
				c-1.1-0.7-6.9-0.6-5.8-3.1c0.5-1.1,3.5-0.7,4.3-0.4C677.3,377,677.4,377.5,676.8,379.7L676.8,379.7z M588.5,223.8
				c0.3-2,0.2-4.9,1.1-6.7c-0.4-1.8,0.2-2.4,1.6-1.7c0.8,0.2,1.4,0.6,2,1.1c2.8,1.7,5.3,4.3,8.1,6.2c4,2.6,7.7,5.5,11.2,8.7
				c6.8,6.2,13.3,13.2,19.1,20.2c0.9,1.1,2.7,5.2,4.2,5.1c0.8-0.1,2.4-3.5,3.3-4.1c0.6-0.4,3.5-1.6,4.3-1.5c3.2,0.5-0.6,6.5-1.6,7.6
				c-2.7,2.7-5,4.3-6.9,7.8c-2.1,3.9-2.9,4.7-6.6,2.1c-3.3-2.3-6.3-5-9.7-7.3c-1.9-1.3-4-1.9-5.8-3.3c-1.3-1-2.2-2.4-3.7-3.1
				c-3.5-1.7-7.2-2.8-10.7-4.6c-2-1-4-2-6-2.9c-1.4-0.6-4.1-1-5.3-2.2c-2-2-1.1-4.3-0.8-7C587,233.3,587.8,228.6,588.5,223.8
				L588.5,223.8z M716.9,217.5c4.1,4.2,9.4,7.2,12.9,12.1c-17.3-2.9-34.7-8.9-52.5-5c-8.7,1.9-17.7,5.9-25.2,10.7
				c-1.2,0.8-2.3,2-3.6,2.6c-1.8,0.9-3.5,0.3-5.3,1c-2.6,1-6.8,4.2-8.4,6.5c-8.4-11.6-17.3-22.9-29.2-31.1c-2.8-1.9-5.7-3.8-8.6-5.5
				c-2.1-1.2-4.7-2.1-5.4-4.7c-0.5-2.1,0.9-5.1,1.5-7.1c0.9-3.1,1.5-6.3,2.2-9.4c1.7-7.7,3.3-15.5,5-23.2c0.7-3.1,0.9-11,4.7-12.3
				c2.3-0.7,4.5,1.3,6.5,2.2c1,0.4,2.3,0.9,3.4,1.1c-0.1,0.6,0.1,0.9,0.7,0.8c0.4-0.2,0.8-0.4,1.2-0.7c2.8,0.9,5.5,2.6,8.4,3.6
				c0.5,0.5,0.9,0.4,1.4-0.1c0.6,0.7,1.2,1.3,1.9,1.9c1.3,0.4,1.6,0.1,2.4-1.1c1.6,2.6,6.1,3.7,8.8,4.7c0.9,0.3,1.7,0.4,2.5,0.6
				c1.8,0.5,1,0.4,2.5,1.6c1.8,1.5,4,1.6,5.9,2.8c1.1,0.7,1.8,1.9,2.9,2.5c1.6,0.9,3,0.1,4.6,0.8c1.4,0.7,1.6,2,2.5,3
				c2.1,2.5,4.3,1.5,7.2,2.8c2.4,1.1,3.3,3.1,5,4.4c1.8,1.3,4.1,1.9,6,3.2c0.8,0.6,1.5,1.8,2.4,2.1c1.4,0.5,1.9,0,2.9,0.5
				c0.5,0.2,1,0.7,1.4,1c1.6,1.1,3.6,3.4,5.4,5.1c3.3,3.1,6.7,5.8,10,8.8c1.5,1.4,2.9,3,4.5,4.3c1.6,1.4,3.6,0.9,5,1.9
				c0.8,0.6,1.3,2.2,2,3.1C713.6,214.9,715.4,216.1,716.9,217.5L716.9,217.5z M597.6,86.8c2.9,9.5,3.6,18.5,3,28.3
				c-0.2,3.5,0.8,18-3.3,18.9c-2.4,0.5-6-1.8-8.2-2.6c-3.3-1.1-6.4-1.5-9.8-2.1c-3.4-0.6-7.2-1.6-10.8-2.5
				c-4.8-1.2-9.5-2.3-14.3-3.4c7.5-10,9.6-20,9.3-32.5c-0.4-12.7-3.3-25.2-3.4-37.9c-0.1-5.8,5-4.1,9.2-2.3
				c4.9,2.1,9.2,5.4,12.9,9.1C589.5,67.2,594.6,76.9,597.6,86.8L597.6,86.8z M523.7,105.9c3.6,4.4,7.3,8.7,10.9,13.1
				c-10.9,0-22-2.5-32.8-1c-2.5,0.3-6,2-8-0.2c-1.8-2-2.2-8.4-2.3-10.8c-0.6-7.3,2.7-18.1,11.7-16.9
				C512.4,91.4,518.2,99.2,523.7,105.9L523.7,105.9z M479.2,132.7c2.5-0.4,9.4-1.8,10.7,1.2c2.2,5.1,2.2,12.2,3.3,17.6
				c1.2,6.4,2.5,12.8,3.3,19.2c0.5,3.8,2.8,9.6-2.2,10.1c-1.3,0.1-4.7-0.8-4.7,1.7c0,1.9,3.2,1.9,4.4,2.1c4.7,0.9,3.9,3.5,3.7,7.7
				c-0.2,4.7-0.4,9.3-1.5,13.9c-2.1,8.6-6.3,18.7-13.5,24.3c-8.5,6.7-15.6,1.1-21.4-5.9c-6.6-8-9.1-18-9.8-28.1
				c-0.2-2.7-1.8-10.1-0.3-12.5c1.7-2.7,5.7-1.8,8.4-2.4c7.7-1.4,15.5-10.1,17.9-17.3c3.2-9.4,0.4-17.6-3.3-26.2
				C472.4,133.8,475.4,133.2,479.2,132.7L479.2,132.7z M469.9,151.8c1.4,8.5-2.2,16.6-9.8,20.9c-3.9,2.2-6.7,1.2-10.7,0.9
				c-0.7-0.1-1.9,0.9-2.4,0.5c-1.1-0.8-0.6-3-0.5-4.1c0.8-9.3,6.4-16.4,11.4-23.9c1.9-2.8,3.8-6.3,7.6-4.2
				C469,143.9,469.3,148.3,469.9,151.8L469.9,151.8z M440,172.8c-6-2.7-0.3-16.7,1.7-20.6c1.9-3.6,3.9-7.2,6.3-10.5
				c0.9-1.3,3.6-5,5-5.4c2.8-0.8,4.1,1.6,3.4,3.5c-1.4,3.6-5.5,7.3-7.5,10.7C444.6,157.4,440.8,164.6,440,172.8L440,172.8z
				 M465,91.5c0.5,7.9-1.9,14.6-1.6,22.3c0.1,3.7-0.4,6.4-2.2,9.6c-1.8,3.1-2.5,2.7-6,2.2c2.4-5.9,1.1-7.7-2-13
				c-1.7-3-2.7-6.2-3.9-9.4c-1-2.9-1.9-5.2-5.2-4.2c-1.2,0.4-1.3,1.3-2.7,1c-1.4-0.3-2.6-2.9-3.4-3.9c-2.1-2.8-5.2-7.5-9.3-5.9
				c-2,0.8-1.2,1.8-3.6,0.9c-1.8-0.7-3.6-3.2-5-4.6c-1.6-1.5-3.9-4.5-6-2.6c-1.7,1.5-1.2,5.2-1.5,7.2c-5.8-3-10.7-6.3-16.1-0.6
				c-0.8,0.8-0.6,1.5-1.6,2.1c-0.9,0.6-2.2,0.5-3.2,1.3c-1.3,1-2.9,4.4-4.6,4.5c-4.4,0.2,2.1-9.9,2.9-11.4c3.1-6.3,6.5-13.2,11-18.6
				c4.4-5.3,9.7-10.1,16.8-10.9c8.1-0.8,17.3-0.4,25,2.1c5.7,1.9,12.8,4.1,16.6,9C464.6,75,464.6,83.8,465,91.5L465,91.5z
				 M383.1,128.2c1.3-2.4,3.9-5.2,2.3-8.1c3.5,1,3.6,0.8,4.5,4.3c4.5-2.7,6.9-7.9,12.4-9c0.2,3.1-0.2,7,1.6,9.7
				c2.2,3.4,5.9,1.2,8.3,3.5c0.7,0.7,0.2,2.3,1,3c0.9,0.8,2.7,0.4,3.9,0.9c3,1.1,5.6,4.4,8.6,5.3c1.4,0.4,1.4,0,2.7,0
				c0.7-1,1.4-0.9,2,0c0.7,0.5,1.4,1,2,1.6c2.8,2.4,3.9,4.3,2.4,7.8c-0.5,1.3-1.7,2.4-1.9,3.8c-0.2,1.2,0.5,2.4,0.2,3.5
				c-0.5,0.3-1,0.5-1.5,0.8c-0.2,0.7-0.3,1.3-0.1,2c-0.1,1.5,0.4,2.7,0.1,4.2c-0.8,3.6-4.1,5.4-6.9,7.4c-3.7,2.6-7.8,2.1-12.1,2.9
				c-8.3,1.5-17.1,1.5-25-1.8c-3.3-1.4-6.8-3-8.5-6.3c-1.8-3.4-2-8.1-2-11.8C377.1,144.2,379.4,134.9,383.1,128.2L383.1,128.2z
				 M378.9,96.3c-1.8-0.3-1-3.6,0-4.9V96.3z M374.2,103.2c6.8,0,3.7,3.3-0.2,5.9c-3.3,2.3-7.5,8.3-0.9,9.6
				c-4.8,6.2-6.9,15.6-4.1,23.1c1.5,4-0.4,4.5-4.2,4.9c-3.1,0.3-5.4,0.1-7.3-2.6c-5-7-2.2-16.5,0.5-23.7
				C360.4,113.9,365.8,103.2,374.2,103.2L374.2,103.2z M566.2,487.7c-0.9-2.3,1-2.8,2.8-3.5c3.1-1.3,4.3-2.1,6.6,0.5
				c3.3,3.8,5.7,8.4,7.2,13.1c1.2,3.9,2.6,10,0.4,13.7c-0.6,1.1-2.9,3.9-3.9,4.6c-0.6,0.4-1.7,0.6-2.3,1c-1,0.6-1.4,1.7-2.6,2.3
				c-2-4.9-1-10.7-2.6-15.8C570.2,498.2,568.2,493,566.2,487.7L566.2,487.7z M581.2,529.1c-1.8-3.6,10.5-9.6,12.2-12.8
				c1.7-3.2,1.7-7.9,1-11.4c-0.7-3.3-0.9-6.5-2-9.8c-1.4-4.3-3.1-8.6-5.9-12.2c-1.9-2.4-4.9-4.1-1.2-6.1c3.5-1.9,9.5-1.7,13.4-2
				c2.6-0.2,8-2,10.4-0.7c2.3,1.3,3.2,5.2,4.1,7.5c1.5,3.6,3.5,7,5.6,10.3c5.2,8.2,11.6,15.7,18.9,22.1c3.6,3.2,7.5,6.2,11.4,8.9
				c3.1,2.1,8.1,3.5,10.4,6.5c0.8,1.1,0.7,2.8,1.8,3.7c0.8,0.6,2.8,0.6,3.9,1.2c2.1,1.2,6.3,4.2,6.8,6.6c0.8-0.3,1.6-0.5,2.4-0.8
				c-0.2,1.1,2.7,5,3.6,5.9c1.5,1.5,3.3,1,4.9,2.1c1.1,0.8,1.4,2.1,2.4,2.9c1.4,1.1,3.3,1.2,4.7,2.3c1.2,0.9,1.8,2.2,2.7,3.3
				c2.6,3.1,5.9,5.6,8.7,8.5c4.9,5.1,8.9,12.7,7,19.9c-0.8,3.1-2.8,5-5.5,6.6c-1.3,0.8-2.8,1.3-3.9,2.3c-1.3,1.1-2,2.9-3.8,3.4
				c0.5-2.3-2.4-0.9-3.7-0.7c-2.2,0.3-4.5,0.1-6.7,0.1c-1.4,0-3.6,0.6-4.8,0.4c-1.5-0.3-0.8-0.8-1.8-1.3c-4.2-1.9-9.2-2.2-13.5-3.8
				c-4.7-1.8-8.7-4.6-13.1-6.8c-7.6-3.7-16-7.6-22.8-12.7c-4.5-3.4-1.1-7.5,0.7-11.7c0.7-1.8,5.1-10.7,2.3-12
				c-2.9-1.4-6.3,7.8-7,9.4c-0.8,1.9-1.4,4.3-2.6,6.1c-1.4,2.1-4.1,2.3-5.2-0.6c-0.9-2.3,1.5-5.4,2.2-7.4c0.7-2,1.3-4.2,1.8-6.3
				c0.6-2.5,2.9-11-1.6-11.3c-5.1-0.3-9.2,15.9-10.5,19.1c-1.9-1.2-3.8-2-5.6-3.3c-0.9-0.7-1.4-1.6-2.6-2.1c-3.3-1.4-5.4-0.8-7.7-4
				c-2.3-3.1-3.7-6.9-5.5-10.3C585.7,535,582.8,532.3,581.2,529.1L581.2,529.1z M727.7,593.5c-4.3,5.9-12.1,8.8-19,10.2
				c13.4-7.6,13.1-25.8,7-38.1c-3.5-7.1-9.9-11.1-16-15.8c-6.8-5.2-13.5-10.7-20.3-15.8c-13.4-10.2-26.8-20.6-39.2-32
				c-5.9-5.4-11.6-11.2-15.5-18.3c-3.7-6.6-4-15.2-8.7-21.2c8.1,0.9,11,9,15,15.1c4.7,7.2,9.9,13.9,15.9,20.1
				c11.8,12.2,25.5,21.9,38.8,32.3c11.5,9,25.5,15.2,35.4,26.3C729.1,565.6,736,582.2,727.7,593.5L727.7,593.5z M0.4,81.3
				c-2.8,5.6,1.2,12,6,14.9c5.7,3.4,12.7,4.4,19.1,6c7.5,1.9,15.1,3.6,22.9,4.1c7.9,0.5,16,0,23.7,2c-1.6,5.3-3.3,10.5-4.9,15.8
				c-0.7,2.1-1.1,7.8-3.7,8.2c-2.2,0.3-6-3.8-6.1,1c-0.1,1.5,1.5,3.1,1.9,4.5c0.5,1.8,0.2,3.6,0.2,5.4c-0.2,4.6-0.7,9.4-0.4,14
				c0.1,1.8,0.6,3.4,1,5.1c0.4,1.9-0.2,3.8,0.2,5.6c0.4,1.5,1.3,1.9,1.4,3.7c0.1,1.6-0.7,3.1-0.6,4.8c0.3,3.5,1.4,6.9,1.8,10.5
				c0.3,3.2,0.1,7.5,1.4,10.5c0.5,1.1,1.8,1.8,2.2,2.9c0.5,1.3,0,2.6,0.1,4c0.1,3.1,1.2,7.2,2.9,9.8c0.7,1,1.1,1.2,1.6,2.1
				c0.1,0.3,0.8,2.4,0.9,2.8c0.2,1.2,0.1,1.9,0.5,3c0.1,0.3,1.2,1.8,1.5,2.4c1.2,2.2,1.5,5,2.9,6.9c0.6,0.8,1.5,1.1,2,2
				c0.2,0.4-0.2,1.3,0,1.7c0.3,0.6,1.1,0.9,1.4,1.4c1.6,2.8,2.2,6.2,4.2,8.9c1.5,2.1,4.8,3.1,5.7,5.5c0.2,0.5-0.5,1.3-0.2,2
				c0.5,1.3,1.8,2.8,2.6,3.9c1.9,2.5,4.9,3.4,6.3,6.2c1.5,2.9,2.5,5.6,6.6,5c-1,4.2,5.3,6.9,7.8,9.1c1.7,1.5,2.6,3.7,4.3,5.1
				c2,1.8,5.1,2.9,7.4,4.4c2.6,1.7,4.9,2.5,7.6,3.7c0.9,0.4,1.6,1.2,2.4,1.5c0.5,0.3,1.1,0,1.7,0.4c2.3,1.6,3.7,3.4,6.5,4.4
				c2.3,0.8,4.5,1.2,6.8,2.1c1.8,0.7,3.8,0.6,5.4,1.2c0.7,0.3,1.1,1.1,1.8,1.4c0.4,0.2,1-0.7,1.1-0.7c0.9,0.4,1.4,2.5,2.7,2.6
				c1.4,0.1,2.3-2.5,3.5-2.1c1.6,0.5-0.3,1.3-0.1,1.7c0.2,0.4,0.1,0.9,0.6,1.5c0.7,0.9,3.8,1.3,4.8,1.6c2.8,0.7,8.7,2,9.9-1.9
				c0.7,1.2,1.4,2.4,2.2,3.6c1.1-0.8,0.7-2,0.6-3.2c3.5,3.4,4.3,2.4,8-0.4c0.1,0.9,0.3,1.8,0.4,2.8c1.7-0.3,1.5-1.6,1.4-2.9
				c1.5,0.4,1.8,1.2,2.3,2.5c2.2-2.4,4,0.7,2,1.5c1.9,0.9,2.7-1,4.1-1.6c2.1-0.9,3.1,0,5,0.2c3.5,0.4,7.4-0.1,10.9-0.1
				c2.4,0,3.8-0.7,6-1.2c2.5-0.6,5.1-0.3,7.6-0.8c2.3-0.4,4.2-1.8,6.4-2.2c1.9-0.4,3.8,0.1,5.7-0.4c1.6-0.4,3.5-0.8,4.9-1.1
				c1.1-0.3,2.2-1.3,3.3-1.5c1.7-0.3,3.1,0.9,5,0.3c2-0.5,4.2-1.8,6.1-2.6c2.8-1.1,4.5-3,7.4-3.3c3.4-0.4,3.8-0.1,1.6-3.1
				c3.9,1.3,8.4-3.3,11,0.6c2.5-2.7,7.6-7.8,11.7-5.2c0.4-4.1,6.2-3.2,8.8-4.4c2.2-1,3.8-3,6-4c2-0.9,2.7-1,4-2.8
				c0.9-1.2,1.2-2.7,2.8-3.3c1.2-0.4,2,1.2,3.3,0.6c0.5-0.2,0.7-1.1,1.1-1.3c2.7-1.6,5.7-3.9,8.6-5c3.3-1.3,6.9-3.6,10.4-5.5
				c2.1-1.2,4.3-2.7,6-4.4c0.9-0.9,2-3,3.2-3.5c4-1.6,2,5.1,1.5,7.1c-1.6,5.7-3.1,11.4-4.7,17c-1.3,4.7-2.9,9.3-5.7,13.3
				c-1.9,2.7-4.9,7.6-7.9,9.3c-1.9,1.1-4.6,1.1-6.6,1.6c-2.8,0.8-5.4,1.7-8.1,2.8c-4.3,1.8-8.2,4.3-12.4,6.3
				c-4.4,2-8.9,3.4-12.7,6.6c-3.1,2.6-5.5,5.8-8.5,8.5c-3.6,3.3-7.9,5.5-11.9,8.4c-3.7,2.6-6.8,5.8-9.8,9.2
				c-12.9,14.5-23.7,31.6-32.1,49c-9.1,19.1-10.1,38.8-11.1,59.5c-0.5,10.5,0.2,21.1,1.9,31.5c1.6,10.1,5.3,18.8,8.3,28.4
				c1.5,4.8,0.4,8.2,3.8,12c2.9,3.3,4.9,7.3,7.7,10.6c6.3,7.4,14.4,14,22.6,19.1c17.6,11,36.5,19.8,56.1,26.5
				c10.3,3.5,20.7,7.5,31.2,10.1c5.5,1.3,11.2,1.7,16.9,2.3c1.9,0.2,7,1.6,8.8,0.5c1.3-0.7,5.9-11.3,7-10.6c0.1,0.1-0.7,4.4,0,5.5
				c1.7,2.4,6.5,3.8,9.2,5c1.7,0.8,6.4,1.7,6.8,4.1c0.1,0.6-1.2,5.9-1.8,6.5c-1.7,1.8-4.7,0.1-6.7-0.5c-3.4-1.1-6.8-1.8-10.2-2.4
				c-7.6-1.3-14.7-0.4-22,2c-3.2,1-6.4,2.3-9.4,3.4c-2.3,0.9-3.8,3.7-5.8,5.3c-2.4,1.9-4.9,4.3-6.2,7.1c-1,2,0,1.6-0.2,2.9
				c0.7,0.1,1,0.5,0.9,1.2c-0.3,0.5-0.7,0.7-1.3,0.7c-0.5,0.6-1.5,0.6-2.1,1.5c-1,1.4-1,4-1.2,5.6c-0.7,3.9-2.2,7.7-1.3,11.6
				c-3,0-0.5,2.7,0.2,3.7c1.6,2.2,2.4,2.6,0.4,5.1c2.9,1.6,2.5,6.3,4.1,8.9c2.2,3.7,5.4,5.6,9.3,7.1c9,3.4,18.5,5.2,28,7
				c8.7,1.6,17.8,4.5,26.6,5.1c2.1,0.2,3.9-0.5,6-0.6c2.1-0.1,4.1,0.7,6.2,0.8c3.5,0.2,5.6-1.3,8.5-1.5c8.3-0.6,16.4-4.3,23.8-8.6
				c3.9-2.3,7.8-4.6,11.6-7.2c2.9-2,6.2-3.2,8.4-6.1c4.8-6.4,8.6-14.6,9.6-22.6c0.6-4.7,1.2-9.4,0.9-14.1c-0.3-4.8-1-9.7,0.6-14.3
				c2.6,1.7,4,2.8,6.1-0.1c0.9,2.8,2.7,3.3,3.1,6.9c0.5,5,0.3,10,0.1,15c-0.4,9.4-1.5,18.5-6.2,26.9c-4.2,7.6-10.1,14.9-16.4,21.1
				c-6,5.8-15.3,8-23.3,9.1c-8.8,1.2-17.7,1-26.6,1c-10.5,0-20.7,0.1-31-2.1c-18.8-4-38.3-7.7-54.3-18.9c2.1-1.8,6.8-7.1,4-9.9
				c-3.2-3.2-6.8,3.3-7.7,5.6c-3.8,9.6,5.4,14.1,12.8,17.3c10.8,4.6,21.4,9.1,32.7,12.4c12.1,3.6,23.7,5.4,36.2,6.1
				c12.4,0.7,24.6,2.5,36.9,0.1c11.1-2.1,22.8-7.6,31.1-15.4c7.5-7,12-17.9,16.3-27.1c5.1-11.1,6.7-23.8,6-36
				c-0.1-1.2-1.3-6.2-0.6-6.9c0.9-1.1,3.2-0.3,4.4-0.2c4.4,0.2,9.3-0.4,13.5-0.7c2.8-0.2,5.2-1.8,8.1-2.3c2.2-0.4,3-0.3,5.1-1.4
				c4.6-2.3,8.7-2.3,12.7-6.1c0.3,0,0,1.2,0,1.2c-0.6,0.1,2.1,0,1.1,0c1.1,0,3.7-2.2,4.9-2.7c1.8-0.8,3.8-1.2,5.5-2.1
				c2.6-1.3,3.5-3.3,5.3-5.5c2.1-2.6,4.8-4.6,6.8-7.4c4.4-6,8.1-12.5,9.7-19.8c2-8.9,1.4-18.1,3.5-26.9c1,1.9,2.2,3.6,2.6,5.7
				c0.2,1.1-0.3,2.8,0.3,3.6c0.6,1,1.6,1.3,2.1,2c-0.2-0.3-0.2,1.7-0.2,1.8c0.5,0.1,1,0.2,1.5,0.3c0,1.1,0,2.1-0.3,3.2
				c0.2,2,0.7,1.6,1.4,3.2c0.5,1.2,0.6,2.8,1.2,4c1.2,2.3,4.4,3.8,6.4,5.6c2.4,2.1,4.9,3,8,2.5c2-0.3,4.5-2.2,5.3,1
				c0.4,1.6-1,3.7-1.7,5.1c-1.7,3.5-2.6,9.3,3.3,6.2c4.2-2.3,5.1-7.4,9.5-2.5c4.6,5.1-3,9.4-0.6,14.5c2.7,5.8,7-6.2,7.7-8.3
				c5.5,3.2,10.8,6.7,16.4,9.9c4.1,2.3,8.4,3.8,12.4,6.3c2.7,1.7,3.8,0.9,6.7,1.6c2.2,0.6,1.9,2,3.3,3.2c1.8,1.5,4.9,2.2,6.5,2.6
				c5.7,1.5,13.3,4.9,19.9,4.8c4.1-0.1,9-0.9,12.9-2.3c3.3-1.2,5.9-3.5,8.9-4.5c-2.4,4.9,1.2,5,5.3,5.1c4.3,0.1,7.4-1.9,10.8-4.4
				c7.5-5.5,11.5-11.9,13.5-21.1c4.4-20.3-7.3-35.9-23.4-46.5c-4.1-2.7-8-5.8-12.3-8.2c-3.3-1.8-5.3-4.2-8-6.6
				c-6.5-5.9-14.2-10.7-21-16.3c-14.2-11.8-25.9-24.7-36.5-39.7c-3.8-5.4-8.7-13.2-15.9-13.6c-3.9-0.2-7.8,0.8-10.7,3.6
				c-2.7,2.7-4.3,5.5-8,7c-4.2,1.7-9.1,1.9-13.5,3.1c-4,1.1-8,2.4-11.9,3.9c-3.6,1.4-7.1,3-10.5,4.8c-2.3,1.3-5.1,3.2-7.4,1.1
				c-2.6-2.4-1.7-5.9-5.8-7.3c-3.8-1.3-4.7,1.1-7.6,2.5c-1.6,0.8-3.6,1-5.3,1.9c-1.8,0.9-3.5,1.7-5.5,2.2c-1.8,0.5-3.8,1.2-5.6,1.5
				c-1.5,0.3-2.2,0-3.6,0.1c-1.9,0.1-2.5,0.9-4.3,1.6c-1.7,0.7-3.9,0.7-5.7,1c-4.4,0.7-8.8,1.5-13.2,1.9c-9,1-17.3,0.5-25.6-3.3
				c-6.3-2.9-14.6-6.9-18.5-12.9c-3.9-6-4.5-14.2-3.5-21.1c1.2-8,5.5-15.3,10.5-21.6c2.7-3.4,6-5.7,9.3-8.4c2.1-1.8,4.7-2.5,6.4-4.5
				c2.5,4.1,24.9-24.1,25.7-25c11.6-13.3,17.3-33.8,19-51c0.5-4.9,0.1-9.8,0.2-14.8c0-4.2,1.5-5.1,5.2-7c2.8-1.5,6-1.8,7.9-4.6
				c2.1-3,2.3-7.2,2.5-10.7c0.2-5.3-0.9-10.4-0.9-15.7c0-4.9,0.2-9.8-0.1-14.8c-0.7-9.6-3.4-19.1-5.6-28.4
				c-2.3-9.4-4.6-18.8-7.4-28.1c-1.3-4.5-3.3-8.6-5.1-12.9c-1.2-2.9-2-6.2-4.8-8.1c2.2-2.7,14.1,1.9,16.8,2.6
				c9.3,2.2,18.6,4.7,27.4,8.3c3.9,1.6,7.5,3.6,11.2,5.4c3,1.5,7.7,2.7,9.7,5.5c1.9,2.6,0.3,6.3-0.2,9.2c-0.7,4.6-1.3,9.2-1.9,13.8
				c-0.9,6.9-0.8,13.8-4.5,19.9c-4.1,6.9-8.5,13.6-13.2,20.1c-9.1,12.5-13.1,26.7-19.7,40.4c-2.4,5-5.9,11.3-0.2,15.4
				c5.4,3.9,12.5,4.4,18,8.4c12.2,8.9,27.1,13,40.8,19c6.6,2.9,13,6.1,19.6,8.9c3.7,1.5,7,3.8,10.8,4.9c3.2,1,6.3,1.6,9.3,3.1
				c6.6,3.3,13.1,7,19.8,10.1c3.4,1.6,7,3,10.3,4.9c2.2,1.3,4.6,4.3,7.2,3.6c2.9-0.8,6-5.9,7.7-8.2c2-2.7,5.2-5.3,5.7-8.8
				c0.3-2.2-0.5-4.2,1.9-5.2c0.7-0.3,2.2-0.1,3.1-0.4c1.6-0.6,3.1-1.9,4.6-2.8c6.7-4.1,10.1-7.7,11.2-15.7
				c1.1-8.3-0.3-16.4-1.8-24.6c3.8,3.3,7,6.8,10.6,10.2c1.5,1.4,1.7,3.1,2.9,4.6c1.1,1.4,2.7,1.6,4,2.7c1,0.8,1.1,1,1.7,1.8
				c0.3,0.5-0.4,1.3,0.3,1.7c0.6,0.4,1.4-0.5,2.4-0.3c2.3,0.6,4.7,5.6,6.1,6.9c1.2,1.1,3.3,1.9,5,4.1c2.5,3.2,5.2,5,8.6,7.3
				c3.1,2.2,5.4,4.8,8.6,6.7c3.1,1.9,6.3,3.9,9.6,5.7c1.1,0.6,1.7,1.4,3,1.7c0.2,0,0.5-1,0.6-1c0.6,0.2,0.5,0.4,1.2,0.8
				c0.7,0.4,1.1,1.4,1.9,1.8c1.1,0.6,3.6,0.7,4.8,0.7c2.8,0.1,2.7-0.6,4.4-2.3c0.3-0.3,1-1.2,1.1-1.3c0.1-0.1,0.7,0.2,0.8,0.1
				c1.9-2.8,0.8-8.6,0.2-11.7c-1.7-8.6-7.2-13.8-11.5-20.9c-1.5-2.4,0-5,2.4-3.3c-0.6-0.4,0.1,1.7,0.1,1.7c0.7,0.9,2.8,1,3.7,1.2
				c1,0.3,1-0.3,1.8,0.1c1.4,0.9,1.6,2,3.4,2.8c3.1,1.4,5.8,3.2,8.8,4.7c1.1,0.6,15.4,6.7,15,3.6c1.6,0.9,0.9,2.3,2.3,3.3
				c1.1,0.8,4.5,0.2,5.6-0.5c4.2-2.7-0.2-8.7-2-11.6c-7.3-11.8-17.1-21.2-27.1-30.7c-10.7-10.3-22.1-20-31.4-31.6
				c-4.2-5.2-7.4-10.4-9.9-16.7c-1-2.5-3.7-6.6-3.5-9.2c0.1-2.1,1.5-2,3.4-3.2c2.8-1.7,8.9-4.2,8.4-7.9c-0.7-4.5-6.2-8.5-9.1-11.5
				c-4.4-4.4-7.7-9.7-11.7-14.3c-4.3-5-8.8-9.7-13.6-14.3c-9.5-9.1-19.8-17.7-30.1-25.7c-10.4-8.1-21.8-14.3-33.4-20.6
				c-11.7-6.3-23.2-12.8-35.6-17.7c-5.5-2.2-12.1-4-17.3-6.9c-3.9-2.3-1.9-6.7-1.2-10.4c4.4-24.8,0.8-50.8-15.7-70.6
				c-6.2-7.5-16.4-17.2-27-16.2c-7.8,0.7-8.9,9.3-8.9,15.6c0,10.4,1.5,20.9,2.3,31.3c0.5,6.6,3.6,26-6.6,27.7
				c-4.7,0.8-8.2-4.1-10.9-7.1c-3.8-4.4-7.5-8.9-11.4-13.1c-6.2-6.6-18.5-18.2-28.5-14c-9.7,4-14.1,18.6-14,28
				c0,3.7,3.1,9.4-0.7,11.6c-1.7,1-4.3,0.9-6.2,1.3c-3.1,0.7-6.2,1.6-9.2,2.4c5.1-19.6,7.9-42.7-4.1-60.5
				c-4.9-7.3-11.4-11.3-19.4-14.4c-7.6-2.9-18.5-5.3-26.6-3.6c-1.2,0.3-1,0.8-2.5,0.9c-0.6,0-1.3-0.3-2-0.4
				c-2.2-0.1-3.7,0.1-5.7,0.9c-3.7,1.4-7.2,4-9.9,6.9c-1.7,1.8-3.2,3.9-4.3,6.1c-0.7,1.3-1,3.4-1.9,4.5c-0.4,0.6-1.4,1-2.2,1.8
				c-1.4,1.5-2.2,4.2-3.3,6c-2.6,4.6-5.2,8.8-7.4,13.7c-0.5,1.1-1.4,2.2-1.8,3.2c-0.5,1.2-0.3,3.2-1.1,4.1c-1.8,2.2-6.5,0.2-9.1,0.5
				c-4.2,0.5-7.1,3-9.7,6.2c-5.5,7.1-7.8,14.8-9,23.5c-0.6,4.5-1.3,9.4-0.3,13.9c0.9,4.3,3.5,8,5.4,11.9c-12.5,0.5-24.7,0-36.6,4.9
				c-10.5,4.3-20.7,9.8-29,17.7c-4.2,4-7.9,8.6-12.7,12c-4.8,3.3-9.6,6.1-14.1,9.8c-8.4,7-19.6,12.8-29.8,16.7
				c-10.6,4-22.1,6.6-33.3,8.2c-9.9,1.4-22,2-31.4-1.8c-5-2-7.3-6.6-9.4-11.2c-2.3-5-4.7-10-6.8-15c-2.1-5-4.4-10.6-4.9-16.1
				c-0.5-5.5,2.1-10.4,3.5-15.6c1.4-5.2,1.8-10.5,2.8-15.7c1-5,1.4-6.4-2-10c-3.6-3.8-0.3-5.8,3.2-7.9c4.3-2.4,8.3-4.9,13-6.4
				c10.9-3.5,21.8-6.6,32.5-10.5c3.9-1.4,10.4-3.1,11.8-7.5c0.7-2.2-0.3-4.5,0.3-6.7c0.4-1.4,2.2-2.7,2-4.3
				c-0.4-3.5-7.4-6.6-10.2-6.9c-4.8-0.6-10-0.5-14.8-0.7c-6.1-0.3-12.1,0.3-18,1.7c-2.5,0.6-8.8,3.7-11.2,2.6
				c-2.3-1-3.4-8.1-4.7-10.4c-2.5-4.4-5.8-8-9-11.8c-6.9-8.1-13.1-16.2-21.6-22.6c-8-5.9-17.1-10.4-26.2-14.2
				c-9-3.7-18.5-7.7-27.9-9.9c-2-0.5-3.8-2.1-5.9-2.2c-0.8,0-1.1,0.8-1.7,0.7c-0.4-0.1-0.9-0.7-1.3-0.8c-2.7-0.2-6.6-1.2-8.9,1.3
				c-2.1,2.2-0.3,3.7-0.7,6.1c-0.2,1.2-1.3,1.9-1.5,3.4c-0.5,3.9,3.9,3.9,2.6,8.4c0.8-0.9,1.6-1.8,2.4-2.7c1.2,1.8,2.2,3.7,3.1,5.7
				l1.6-3.4c1,2.1,2.8,3.6,4.1,5.4C53,39.6,42,38.1,31.6,40.2c-3.3,0.7-6.9,1.8-7.7,5.5c-0.9,3.9,0.7,8.8,2.9,11.9
				c1.5,2.1,8.1,4.8,7.9,7.5c-0.3,3.2-6.6,2.6-8.9,2.9c-5,0.6-9.2,2.9-13.7,4.8C7.5,74.6,2.8,76.4,0.4,81.3L0.4,81.3z"/>
			<path id="react-path-180" class="st2" d="M753.3,183c3.6,1.8,6.4,1.4,5.6-3.5c-0.7-3.9-4.1-7-6.7-9.7c-7-7.3-14.9-13.9-23.2-19.8
				c-14.2-10.2-29.8-18.8-46.5-23.9c-7.8-2.4-16-3.4-23.8-6.1c-2.3-0.8-5.6-2.4-6.5,1c-0.8,2.9,2,4.6,4.2,5.6
				c16.1,7.8,33.9,11.5,49.7,20.3c15,8.4,30,18.5,42.7,30.1C751,179.2,750.2,181.4,753.3,183"/>
			<path id="react-path-181" class="st2" d="M705,485.9c-0.1,3.1,3.9,3.7,6.1,4.5c18.1,6.8,33.2,16.2,45.8,31
				c5.7,6.7,11.3,13.4,15.5,21.1c0.8,1.5,2.2,5.6,4.4,4.2c3.4-2.1-0.8-9.2-1.9-11.4c-7.8-16.8-19.9-32-35.8-42
				c-8.6-5.4-17.3-7.2-26.9-9.5C709.7,483.2,705.1,481.6,705,485.9"/>
			<path id="react-path-182" class="st2" d="M169,381.3c-3.8,7.6-5.6,15.9-6.9,24.1c-1.4,9-1.6,17.4,0.1,26.5
				c0.5,2.5,2.5,15.2,7,12.8c2-1.1,1.6-5,1.3-6.8c-0.7-4.5-1.9-8.5-1.9-13.1c0-8.8,0.4-17.9,2.9-26.4c2.3-8,6.2-16.6,12.5-22.4
				c2.4-2.2,5.7-3.9,6.7-7.3c1.2-4.3-1.2-6.8-5.4-5.3C177.8,366.2,172.4,374.6,169,381.3"/>
			<path id="react-path-183" class="st2" d="M181.9,57c2.2,3,3.8-1.4,4.4-3.2c0.9-2.9,0.9-5.9,0.3-8.9c-1-5.7-3.9-10.9-7-15.7
				C173.1,19.1,165,9.5,155.8,1.7c-1.7-1.4-3.8-3.1-4.7,0.3c-0.6,2.1,1.8,4.6,3.2,6.3c4.1,5.2,8.7,9.7,12.5,15.1
				c3.7,5.2,7.2,10.7,10.3,16.3c1.4,2.6,3.1,5.6,3.7,8.5C181.4,51.1,180.1,54.5,181.9,57"/>
			<path id="react-path-184" class="st2" d="M747,472.9c2.1,0.2,9.2,2.9,7.8-1.1c-0.7-1.8-3.1-2.7-4.7-3.3
				c-4.9-1.7-10.4-1.7-15.5-1.7c-1.7,0-3.5,0-5.3,0c-1.6-0.1-4.2-1.1-5.7-0.9c-2.6,0.4-4,2.8-0.8,4.5c3.1,1.6,7,1.4,10.4,1.6
				C737.8,472.4,742.4,472.5,747,472.9"/>
			<path id="react-path-185" class="st2" d="M706.8,113c6.8-5.4-17.1-9.9-19.6-10c-7.4-0.2-6.3,4.7-0.1,5.9
				C693.7,110.2,700.1,112.2,706.8,113"/>
			<path id="react-path-186" class="st2" d="M155.4,360.2c-7.2,1.8-9.1,15.8-8.2,21.5c0.3,2.1,0.5,3.2,2.3,1.5
				c1.9-1.7,1.5-6.7,1.9-8.9c0.8-3.8,2.2-5.9,4.7-8.8C157.5,364,159.9,359,155.4,360.2"/>
			<path id="react-path-187" class="st2" d="M204.6,45.5c2.4,2.6,3.2-5,3.3-6.3c0.3-3.5-0.1-8.7-2.1-11.8c-0.6-1-2.5-3.4-3.6-1.9
				c-0.8,1,0.7,4.4,1,5.3c0.6,2,1.1,3.7,1.3,5.8C204.7,38.3,203.3,44.1,204.6,45.5"/>
			<path id="react-path-188" class="st2" d="M468.6,539.1c0.2,3.7-3.5,5.5-5.7,7.8c-2.8,2.8-5.9,7-5.8,11.1c0.1,5.3,3.4,4.2,6.8,2.6
				c3.9-1.8,6.3-3.6,9.5-6.2c2.3-1.9,3.8-2.3,6.2-0.3c3.4,2.8,9,11,11.5,2.2c1.4-4.7-2.2-7.1-3.2-11.3c-0.9-3.5,1.8-5.5,3.3-8.3
				c1.4-2.7,3.8-10.6-0.8-11.6c-5.4-1.1-7.5,8.6-12.9,7.6c-2.7-0.5-4.3-4.3-6.3-5.8c-3.3-2.6-6-0.9-6,3.1
				C465.2,533.5,468.3,535.8,468.6,539.1"/>
			<path id="react-path-189" class="st2" d="M528.3,526c-5.8,6.2,8.1,12.1,5.3,17.3c-2,3.8-13.2,12.5-8.5,17.5
				c4,4.3,12-4.3,14.8-6.6c5.8-4.7,7.6,6.8,12.2,3.4c5.5-4-2.4-12.3-1.7-16.4c0.4-2.7,3.1-4.9,3.9-7.5c0.8-2.4,1.1-7.8-2.6-8.1
				c-4.8-0.3-6,10.1-11.2,8.2C537.4,532.6,532.3,521.7,528.3,526"/>
			<path id="react-path-190" class="st2" d="M431.6,378.1c-2.4,1.1-1.7,5.6-0.6,7.3c2,2.9,5.8,3.7,9.1,3.8c2.6,0,6.1-1.3,8.6-0.6
				c3,0.8,2.4,3.1,2.1,5.7c-0.2,2.6-2,11.6,2.5,11.7c3.3,0.1,4.4-6.3,4.9-8.6c0.8-3.5-0.1-9.7,3.7-11.1c2.5-0.9,6.1,0.6,7.7-2.2
				c1.1-1.9,0.2-4.5-1.3-5.9c-1.9-1.9-4.4-1.5-6.8-2.4c-3.2-1.1-3.6-3.6-4.1-6.7c-0.3-2.2-0.3-7.1-2.9-8c-2.3-0.8-2.9,1.4-3.3,3.1
				c-0.9,3.2,0.7,8.4-1.4,10.9c-2,2.5-7,1.8-9.9,2.3c-1.3,0.2-2.7,0.8-4,0.9C434.6,378.4,432.8,377.6,431.6,378.1"/>
			<path id="react-path-191" class="st2" d="M267.7,488.5c4.2-0.4,12.1-3.5,6.3-8.8c-4.5-4.1-10.1,0.9-11.1-7.3
				c-0.2-1.9-0.5-12.1-4.1-11.3c-2,0.4-2.5,5.9-2.5,7.4c-0.1,4.2,1.5,7.8-3.9,8.7c-4,0.7-9.7-0.5-13.2,2c-4.8,3.5-0.4,7.7,3.6,8.6
				c4.7,1,12.4-1.3,12.4,5c0,2.6,0.6,11.8,5.1,8.4C264.9,497.8,260.6,489.1,267.7,488.5"/>
			<path id="react-path-193" class="st2" d="M411.1,135c-4.1,2.6-7.6,13.3-2.9,17.2c5.1,4.2,13.2-8.6,11.6-13.1
				c-3.4,1.6-5.3,5.2-8.5,7.1C411.5,142.5,412.3,138.6,411.1,135"/>
			<path id="react-path-194" class="st2" d="M394.6,157.1c-2.7-1-6.2-2.5-6.6,1.6c-0.3,3.9,3.5,6.3,7.1,6.3c2.9,0.1,9.3-1.5,8.9-5.5
				c-0.2-1.9-0.4-0.9-2.1-1.3C399.4,157.8,397.1,158,394.6,157.1"/>
			<path id="react-path-195" class="st2" d="M392.6,140.3c-3.3,3-10.4,9-3.9,12.8c1.9,1.1,5.9,1.5,6.8-1.1c1-2.9-2.7-3.3-4.5-4
				c2.5-2.7,5.7-5.5,7.3-8.8c0.4-0.9,1.5-2.6,0-3.2C396.3,135.4,393.7,139.3,392.6,140.3"/>
			<path id="react-path-196" class="st2" d="M385.9,134.1c0.3-1.3,2.3-5.7-0.7-5c-1.5,0.4-2.2,3.9-2.4,5c-0.5,2.1-2,8.7,1.1,9.8
				c4.5,1.6,12.2-12.5,7.8-14.3l-5.5,9.8C385.3,137.6,385.5,135.9,385.9,134.1"/>
			<g>
				<path class="st3" d="M626.2,295.1c-7.5-6.7-8.8,2.2-12.3,8.5c-4,7.4-8.1,14.8-12.1,22.3c9.4,5.1,18.8,10.2,28.1,15.3
					c7.9-9.3-11.9-14.1-19.1-18C616,313.9,621.1,304.5,626.2,295.1z"/>
				<path class="st3" d="M631,297.5c-1.8,1.4-3.4,3.2-5,4.8c6.2,6.5,12.3,19.5,19.7,10.6C640.8,307.8,635.9,302.7,631,297.5z"/>
				<path class="st3" d="M635,317.4c-7-3.8-13.8,5.5-8,11C634.5,335.6,643.9,322.2,635,317.4z"/>
			</g>
		</g>
	</g>
</g>
</svg>
