<?xml version="1.0" encoding="utf-8"?>
<!-- Generator: Adobe Illustrator 23.0.3, SVG Export Plug-In . SVG Version: 6.00 Build 0)  -->
<svg version="1.1" id="圖層_1" xmlns="http://www.w3.org/2000/svg" xmlns:xlink="http://www.w3.org/1999/xlink" x="0px" y="0px"
	 viewBox="0 0 250 250" style="enable-background:new 0 0 250 250;" xml:space="preserve">
<style type="text/css">
	.st0{fill-rule:evenodd;clip-rule:evenodd;fill:#000000;}
</style>
<path id="react-path-228_1_" class="st0" d="M188.2,137.4c0.6-1.3,1.1-2.6,1.7-3.9C190.5,135.8,190.7,136.9,188.2,137.4
	 M188.9,143.5c-1.2,0.2-0.7-3.6-0.7-4.3C190.3,140.4,188.5,141.9,188.9,143.5 M187,132.5c1-0.6,2.1-1.2,3.1-1.8
	c-1.4,2.7-0.9,1-0.3,2.8C188.7,133.8,187.7,133.4,187,132.5 M180.9,153.4c-3.9,14.1-16.2,25.2-29.2,30.9c-7.5,3.3-14.8,4.1-22.9,3.8
	c-3.1-0.1-6.8-1.2-9.8-1c-2.3,0.1-2.2,0.2-4.1,2.2c-0.8-1.6-0.2-2.6-1.9-3.6c-2.1-1.1-3,0.2-4,1.8c-1.4-1.4-1.9-2.2-3.7-3
	c0.1,0-1.7,0-1.6,0c-0.3-0.1-2.2-1.3-2.8-1.6c-2.5-0.9-5.3-1.3-7.6-2.6c-2-1.2-3.6-4.4-5.9-1.9c0-4.2-5.6-5.9-8.2-8.1
	c-4.1-3.4-7.4-8.5-9.4-13.3c-2.2-5.2-2.9-10.2-3.9-15.6c-0.7-3.7-5.4-9.2-2.6-12.9c0.7,1.6,0.4,3.2,1.5,4.6c1-1.9,1.6-4.1,2-6.2
	c0.2-1,1.5-4.1,1.4-5c-0.3-1.8-2.6-1.9-1.3-4.2c2.6,2.9,4.7-2.2,2.8-4.2c-1,1.1-1.3,2.4-1.8,3.7c-2.6-5.2,4.6-3.5,3-8.2
	c2.6-0.5,4.1-1.2,5.1-3.7c1.1-2.9,0.3-3.5,2.8-5.4c0.9-0.6,3.3-1.6,3.7-2.7c0.9-2.1-1.3-2.7,0.6-4.6c0.6,1.1,3.2,3.4,4.6,1.2
	c0.3-0.4-0.9-0.7,0-1.7c1.3-1.5,2.7-2.9,4.8-2.6c-1.7-4.2,9-4.5,11.8-5.5s5.1-1.6,8-1.9c2.9-0.2,3.1-1.1,5.5-2.8
	c0.2,2.5,0.8,2,2.6,2.4c0.4-0.7,0.9-0.8,1.3-0.2c0.4,0.4,1,0.6,1.6,0.6c1,0.1,2.1-0.1,3.1-0.1c2.4,0,4.9-0.2,7.3-0.1
	c0.6-0.1,1.2-0.3,1.7-0.6c0.2,0.4,0.4,0.8,0.7,1.3c1.3,0.2,1.4,1.7,2.9,0c0.5,2.2,1.8,1,3.2,1.6c1.3,0.5,1.5,1.4,2.6,2
	c0.8,0.6,1.6,0.7,2.5,0.2c0.8,0.6,1.7,1.2,2.5,1.8c1.6,0.9,3.5,1.4,5.1,2.1c1.1,0.5,2.2,0.9,3.3,1.4c0,1.3,0.6,1.8,1.8,1.4
	c1,0.9,1.3,0.8,2.3,2.3c2.3,3.4,4.3,6,7.2,9C181.8,117.7,185.6,136.1,180.9,153.4 M184.7,97.8c-5.7-7.6-13.7-16.3-20.9-21.1
	c-3.7-2.4-8.8-6.8-13.3-8.1c-1.1-0.3-2.2-0.3-3.2-0.6c-0.8-0.2-1.2-1.1-2.2-1.2c-0.6-0.1-0.7,1.3-1.4,1.2c-1.4-0.3-2.3-1.7-3.3-2.6
	c-2.2,3.7-3.3-2.5-6.5,1.7c-3.8-5.9-12.7-4.6-18.7-4.3c-1.8,0.1-2.6,0.7-4.2,1.2c-1.5,0.4-1.6,0.3-3.2,0.3c-4,0-7.6,0.5-11.3,2.2
	c-6.2,3-12,7.6-17.9,11.2c-6.6,4-12.6,9.1-17.7,14.9c-18.3,21.1-23.2,51.9-8.6,76.4c23.2,38.9,83,43,116.9,16.6
	C195.5,165.2,205.4,125.6,184.7,97.8"/>
<path id="react-path-230_1_" class="st0" d="M234.2,204.8c-5.4-1.9-14.3-1.5-15.6,5.4c-0.6,2.9,0.5,6,2.5,8.1c2.3,2.4,6,2.7,5.8-1.6
	c-0.1-2.9-2.9-5.5,2-6.1c3.1-0.4,7.6,1.9,7.7,5.3c0.3,7.6-12.8,8.2-17.7,6.9c-9.6-2.6-7-12.7-0.4-17.3c1.7-1.2,6.6-3,6.8-5.5
	c0.3-3.3-3.8-2.6-5.7-2.2c-14.6,3.2-17.8,27.7-2.5,32.3c6.9,2.1,16.7-0.1,20.9-6.3C241.8,217.8,241.9,207.5,234.2,204.8"/>
<path id="react-path-231_1_" class="st0" d="M40.4,31.5c-4.6,2.2-9.1,4.4-13.7,6.6c-1.5-3.2-4.1-12.1-7.9-13.2
	c-6.2-1.8-2.3,7.8-1.2,10c0.9,1.8,2.9,4.6,2.4,6.8c-0.7,2.9-4.8,3.9-6.9,5.4c-5.3,3.7-5.3,11.5,2.4,8.2c4.3-1.9,9.7-7,13.1-1.2
	c1.5,2.7,5.2,17.9,9,8c2.4-6.1-9-12.5-3.4-17.7c1.8-1.7,3.9-1.8,5.7-2.8C44.3,39.3,41.8,35,40.4,31.5"/>
</svg>
