<?xml version="1.0" encoding="utf-8"?>
<!-- Generator: Adobe Illustrator 23.0.3, SVG Export Plug-In . SVG Version: 6.00 Build 0)  -->
<svg version="1.1" id="圖層_1" xmlns="http://www.w3.org/2000/svg" xmlns:xlink="http://www.w3.org/1999/xlink" x="0px" y="0px"
	 viewBox="0 0 250 250" style="enable-background:new 0 0 250 250;" xml:space="preserve">
<style type="text/css">
	.st0{fill-rule:evenodd;clip-rule:evenodd;fill:#000000;}
</style>
<path id="react-path-227" class="st0" d="M138.7,107.7c14.3,10.2,30.8,17.1,45.8,26.3c3.7,2.3,15.4,7.1,15.3,11.3
	c-0.1,2.5-3.6,5.6-5.1,7.3c-2.6,3-5.1,5.9-7.5,9.1c-11.1,14.3-21.6,28.8-33.6,42.4c-1.8,2-7.3,11.8-9,7c-0.8-2.2-0.1-4.7-2.2-6.7
	c-1.1-1.1-5.2-1.6-4-3.9c0.8,0.4,1.6,0.7,2.4,1.1c-0.6-1.8-0.6-3.8-1.5-5.5c-0.6-1.1-1.7-1.6-2.1-2.8c-0.5-1.7,0.4-3.6,0.2-5.3
	s-1-3.3-1.6-4.9c-3.1-9.5-4.2-19.1-5.8-28.9c-1.6-9.7-4-19.1-5-28.9c-1-10.4-2.3-20.7-3.9-31c3,0.4,5.3,3.7,7.4,5.5
	C131.5,102.6,135.1,105.2,138.7,107.7 M127.5,208.1c-0.7-0.5-1.2-1.2-1.6-2C132.9,202.6,128.7,208.5,127.5,208.1 M123.2,200.6
	c-3.1,0.8-5.3,1-7.6-0.2c-0.2-0.1,0-1-0.4-1.2s-0.9,0-1.2-0.1c-1-0.5-2.8,0.6-3-1.4c3.9-1.2,7.8-3.4,11.9-3.8
	C128.6,193.4,128.4,199.2,123.2,200.6 M109.8,189.1c-4.2,1-7.6,3.3-12.1,2.7c-4.2-0.6-7.8-2.7-11.1-5.2c8.2-2.3,16.8-2.7,25.1-5
	c2.7-0.7,6.2-2.7,9.1-1.9c3.2,0.9,3.4,3.9,4.4,6.6C120,187.2,114.9,187.9,109.8,189.1 M83.7,177.5c-4,1-8.1,3.1-11.5-0.6
	c-0.5-0.6-1,0-1-1.8c0.1-1.9,1.8-3.1,3.3-3.8c3.5-1.6,8.4-0.6,12.1-0.8c5.9-0.4,11.9-1.6,17.7-2.5c4-0.7,8.2-2.1,12.3-1.8
	c3.2,0.2,7,2.9,2.4,4.9c-4.2,1.8-10.6,1.5-15.2,2.3C97.1,174.6,90.3,175.9,83.7,177.5 M79.7,158.6c0.3,0.3,0.5,0.5,0.8,0.8
	c0,0,1.5-1.3,2-1.3c2-0.2,4.1,0,6.1-0.2c4.7-0.3,9.4-1.1,14-2c3.8-0.7,7.6-2,11.5-1.7c3.3,0.3,3.7,1,3.9,4.2
	c-8.5,0-17.3-0.2-25.7,1.6c-5.5,1.2-11.5,4.7-14.2-1.6C78.6,158.5,79.2,158.6,79.7,158.6 M85.1,144.9c2.1,1.6,7.9-1.1,10.4-1.3
	c2.8-0.3,5.4-0.6,8-1.3c2.4-0.6,10.2-3.7,12-0.7c2.8,4.5-8.5,5.3-10.3,5.5c-7.5,0.9-15.3,1.7-22.6,3.7
	C83.5,148.9,84.3,146.9,85.1,144.9 M95.4,129.8c0.5,2.1,17.5-5.5,17.8,0c0.2,4.2-16.8,6.4-19.8,6C94.1,133.8,96,132.1,95.4,129.8
	 M101.1,116.8c0.4-4.2,0.9-4.1,4.3-4.5c2.5-0.3,6-1.8,5.4,2.7C110.1,118.9,100.7,121,101.1,116.8 M107.1,102.5
	c0.8-2.2,2.6,0.8,2.6,1.9c0.1,3-2.2,2.4-4.4,2.4C106,105.4,106.6,103.9,107.1,102.5 M135.1,85.7c-0.5-0.5-3-0.7-3.7-1
	c-1.8-0.6-1.5-2-3.8-0.7c-0.1-0.1,0.1-1.1,0-1.2c-0.1,0-1.6-0.6-2.2-1c-1.2-0.8-2.4-1.6-3.5-2.6c-1.2-1.1-2.4-2.6-3.8-3.4
	c-0.6-0.4-1.1-0.9-1.8-1c-1.8-0.3-1.3,1-2.9,1.2c-1,0.2-1.7-1-3-0.5c-1.1,0.4-1.8,2-2.3,2.9c-1.8,3.4-3.2,7-5,10.4
	c-9,17.5-19.3,34.3-28,51.9C71,149.4,66.6,158,63.6,167c-2.1,6.5-7,16-2.8,22.5c3,4.7,9.1,6.8,13.9,9.1c7.3,3.4,13.9,7.9,21.3,11.3
	c8.7,4,17.2,8.1,25.8,12.6c3.6,1.9,6.9,4.6,10.5,6.4c2.2,1.1,5.6-0.8,6.4,1.7c2.8-3.4,7.3-1.1,10.5-3.5c1.9-1.4,3.3-4.1,4.8-5.9
	c2.4-2.6,4.9-5,7.3-7.5c9.6-10,18.4-20.5,27.1-31.3c8.3-10.3,18.1-20,25.1-31.3c2.8-4.5,3.3-9.2,1.5-14.1c-1.3-3.6-4.6-9.1-9.2-6.7
	c1.8-2.9-5-6-7.1-6.6c0,0-0.4,2.2-1,2.2c0.2,0-1.7-5-2.6-5.6c-2.5-1.9-5.6-4.1-8.3-5.7c-2.5-1.4-5.2-2.1-7.6-3.8
	c-3-1.9-5.7-4.3-8.6-6.2c-2.9-1.9-6-4.1-9.2-5.4c-2.7-1.1-5.2-1.3-7.7-3.2c-3.1-2.3-5.7-3.8-9.2-5.3
	C141.5,89.5,137.2,88.4,135.1,85.7"/>
<path id="react-path-229" class="st0" d="M33.7,217.2c-0.7,1.6-6.7,1-6.9-0.8C26.6,213.7,34.8,214.5,33.7,217.2 M40.1,216.2
	c3.4,0.3,9.1,2.6,12.4,1.2c5.1-2.2-0.3-5.5-3-6.5c-2.8-1-6.9-0.5-8.3-3.4c-1.1-2.2,1.6-8.2-1.7-7.3c-3.4,1-2.4,9.7-7.8,6.8
	c-2.6-1.4-1.5-9.9-5.8-5.6c-1.2,1.2-1.3,3.4-2.8,4.3c-1.6,0.9-3.6,0-5.3,0c-4.5,0.2-5.9,4.4-1.4,6c1.7,0.6,8,1.4,4.2,4.1
	c-2.4,1.7-7.8-1.9-9.8,1.1c-2.8,4.1,4.8,4.2,6.8,5.4c3.5,2.1,0.6,7,0.9,10.4c0.4,5.3,3.5,4.2,4.6-0.3c0.9-3.8-0.2-9.3,5.5-7.8
	c9.3,2.5-5.2,14.3,1.6,17.4c4.4,1.9,5-8.5,5.3-10.3c1.3-6.7,5-5.1,10.7-4.9c6.6,0.2,8.2-4.7,1.2-6.1c-2.2-0.4-5.3,0.1-7.2-1.3
	C39,218.8,37.4,216,40.1,216.2"/>
<path id="react-path-232" class="st0" d="M241.3,30.5c-2.7-1-6.1-2.9-9.1-2.3c-3.2,0.7-4.5,3.9-6.9,5.9c-6.4,5.3-10.1-2.6-13.6-6.9
	c-3.3-4.1-7.3-5-12-2.6c-1.9,1-9.7,5.6-8.3,8.5c1,2.1,4.8,0.2,6.2-0.2c2.9-1,5.5-1.9,8.4-0.4c5.5,2.7,6.9,10.2,13.5,11.3
	c6.9,1.2,7.1-5.3,12-7.8c3.3-1.6,5.6,1.3,8.7,0.7C243.4,36.1,244.8,31.7,241.3,30.5"/>
<path id="react-path-233" class="st0" d="M185.9,56.8c2.4,0.5,4-4.2,5.5-5.4c2.5-2,6.9-2.4,9.5-0.4c5,3.9,3.3,12.3,10.4,14.5
	c6.4,2,9.4-6.4,14.7-8.5c3.1-1.2,6.5-2,5.3-6.4c-0.8-3-3.3-3.8-6-2.6c-4.6,2-6.2,10.1-11.7,10.2c-5.7,0.1-6.3-8-8.7-11.6
	c-3.7-5.4-11.4-6.7-15.7-1.6C188,46.6,181.3,55.8,185.9,56.8"/>
</svg>
