<?xml version="1.0" encoding="utf-8"?>
<!-- Generator: Adobe Illustrator 23.0.3, SVG Export Plug-In . SVG Version: 6.00 Build 0)  -->
<svg version="1.1" id="圖層_1" xmlns="http://www.w3.org/2000/svg" xmlns:xlink="http://www.w3.org/1999/xlink" x="0px" y="0px"
	 viewBox="0 0 250 250" style="enable-background:new 0 0 250 250;" xml:space="preserve">
<style type="text/css">
	.st0{fill-rule:evenodd;clip-rule:evenodd;}
</style>
<path id="react-path-228_1_" class="st0" d="M61.7,137.4c-2.5-0.5-2.3-1.6-1.7-3.9C60.6,134.8,61.1,136.1,61.7,137.4 M61,143.5
	c0.4-1.6-1.4-3.1,0.7-4.3C61.7,139.9,62.2,143.7,61,143.5 M62.9,132.5c-0.7,0.9-1.7,1.3-2.8,1c0.6-1.8,1.1-0.1-0.3-2.8
	C60.8,131.3,61.9,131.9,62.9,132.5 M69,153.4c-4.7-17.3-0.9-35.7,11.4-49c2.9-3,4.9-5.6,7.2-9c1-1.5,1.3-1.4,2.3-2.3
	c1.2,0.4,1.8-0.1,1.8-1.4c1.1-0.5,2.2-0.9,3.3-1.4c1.6-0.7,3.5-1.2,5.1-2.1c0.8-0.6,1.7-1.2,2.5-1.8c0.9,0.5,1.7,0.4,2.5-0.2
	c1.1-0.6,1.3-1.5,2.6-2c1.4-0.6,2.7,0.6,3.2-1.6c1.5,1.7,1.6,0.2,2.9,0c0.3-0.5,0.5-0.9,0.7-1.3c0.5,0.3,1.1,0.5,1.7,0.6
	c2.4-0.1,4.9,0.1,7.3,0.1c1,0,2.1,0.2,3.1,0.1c0.6,0,1.2-0.2,1.6-0.6c0.4-0.6,0.9-0.5,1.3,0.2c1.8-0.4,2.4,0.1,2.6-2.4
	c2.4,1.7,2.6,2.6,5.5,2.8c2.9,0.3,5.2,0.9,8,1.9s13.5,1.3,11.8,5.5c2.1-0.3,3.5,1.1,4.8,2.6c0.9,1-0.3,1.3,0,1.7
	c1.4,2.2,4-0.1,4.6-1.2c1.9,1.9-0.3,2.5,0.6,4.6c0.4,1.1,2.8,2.1,3.7,2.7c2.5,1.9,1.7,2.5,2.8,5.4c1,2.5,2.5,3.2,5.1,3.7
	c-1.6,4.7,5.6,3,3,8.2c-0.5-1.3-0.8-2.6-1.8-3.7c-1.9,2,0.2,7.1,2.8,4.2c1.3,2.3-1,2.4-1.3,4.2c-0.1,0.9,1.2,4,1.4,5
	c0.4,2.1,1,4.3,2,6.2c1.1-1.4,0.8-3,1.5-4.6c2.8,3.7-1.9,9.2-2.6,12.9c-1,5.4-1.7,10.4-3.9,15.6c-2,4.8-5.3,9.9-9.4,13.3
	c-2.6,2.2-8.2,3.9-8.2,8.1c-2.3-2.5-3.9,0.7-5.9,1.9c-2.3,1.3-5.1,1.7-7.6,2.6c-0.6,0.3-2.5,1.5-2.8,1.6c0.1,0-1.7,0-1.6,0
	c-1.8,0.8-2.3,1.6-3.7,3c-1-1.6-1.9-2.9-4-1.8c-1.7,1-1.1,2-1.9,3.6c-1.9-2-1.8-2.1-4.1-2.2c-3-0.2-6.7,0.9-9.8,1
	c-8.1,0.3-15.4-0.5-22.9-3.8C85.2,178.6,72.9,167.5,69,153.4 M65.2,97.8c-20.7,27.8-10.8,67.4,15.5,87.8
	c33.9,26.4,93.7,22.3,116.9-16.6c14.6-24.5,9.7-55.3-8.6-76.4c-5.1-5.8-11.1-10.9-17.7-14.9c-5.9-3.6-11.7-8.2-17.9-11.2
	c-3.7-1.7-7.3-2.2-11.3-2.2c-1.6,0-1.7,0.1-3.2-0.3c-1.6-0.5-2.4-1.1-4.2-1.2c-6-0.3-14.9-1.6-18.7,4.3c-3.2-4.2-4.3,2-6.5-1.7
	c-1,0.9-1.9,2.3-3.3,2.6c-0.7,0.1-0.8-1.3-1.4-1.2c-1,0.1-1.4,1-2.2,1.2c-1,0.3-2.1,0.3-3.2,0.6c-4.5,1.3-9.6,5.7-13.3,8.1
	C78.9,81.5,70.9,90.2,65.2,97.8"/>
<path id="react-path-230_1_" class="st0" d="M15.7,204.8c-7.7,2.7-7.6,13-3.8,19c4.2,6.2,14,8.4,20.9,6.3
	c15.3-4.6,12.1-29.1-2.5-32.3c-1.9-0.4-6-1.1-5.7,2.2c0.2,2.5,5.1,4.3,6.8,5.5c6.6,4.6,9.2,14.7-0.4,17.3c-4.9,1.3-18,0.7-17.7-6.9
	c0.1-3.4,4.6-5.7,7.7-5.3c4.9,0.6,2.1,3.2,2,6.1c-0.2,4.3,3.5,4,5.8,1.6c2-2.1,3.1-5.2,2.5-8.1C30,203.3,21.1,202.9,15.7,204.8"/>
<path id="react-path-231_1_" class="st0" d="M209.5,31.5c-1.4,3.5-3.9,7.8,0.5,10.1c1.8,1,3.9,1.1,5.7,2.8
	c5.6,5.2-5.8,11.6-3.4,17.7c3.8,9.9,7.5-5.3,9-8c3.4-5.8,8.8-0.7,13.1,1.2c7.7,3.3,7.7-4.5,2.4-8.2c-2.1-1.5-6.2-2.5-6.9-5.4
	c-0.5-2.2,1.5-5,2.4-6.8c1.1-2.2,5-11.8-1.2-10c-3.8,1.1-6.4,10-7.9,13.2C218.6,35.9,214.1,33.7,209.5,31.5"/>
</svg>
