<?xml version="1.0" encoding="utf-8"?>
<!-- Generator: Adobe Illustrator 23.0.3, SVG Export Plug-In . SVG Version: 6.00 Build 0)  -->
<svg version="1.1" id="圖層_1" xmlns="http://www.w3.org/2000/svg" xmlns:xlink="http://www.w3.org/1999/xlink" x="0px" y="0px"
	 viewBox="0 0 211.8 235.4" style="enable-background:new 0 0 211.8 235.4;" xml:space="preserve">
<style type="text/css">
	.st0{fill-rule:evenodd;clip-rule:evenodd;fill:#FFFFFF;}
	.st1{fill-rule:evenodd;clip-rule:evenodd;}
</style>
<title>peep-46</title>
<desc>Created with Sketch.</desc>
<g id="Introduction">
	<g id="variations-busts" transform="translate(-1566.000000, -1082.000000)">
		<g id="images" transform="translate(126.000000, 110.000000)">
			<g transform="translate(1440.000000, 972.000000)">
				<g transform="translate(31.056338, 135.078170)">
					<path class="st0" d="M175.6-5.4c-3,0.3-6,0.6-9.1,0.9c-14.5,1.1-28.9,3.4-43.3,4.8c-0.4-0.6-1.1-0.5-1.5-0.1
						c-1.4-0.1-3-1.2-4.3-0.1c0,0-0.1,0-0.1,0c-2.3-4.4-3.9-9.2-5.5-13.9c-1-2.9-2.3-5.7-4.8-7.7c-4.2-2.9-13.8-8.8-18.7-8.6
						c-0.1-0.9-0.5-1.8-1.2-2.4c1.5-2.5-4.5-4.2-4.9-3.9c0.3-8.5-3.7-15.8-12.5-17.5c-7.9-1.6-19.1-1.9-23.3,6.3
						c-0.5-0.1-5.2-0.1-5.7,0c-0.7-0.9-8.6,7.7-5.4,10.7C6.7-24.1-9.7-25.6-17.7,10.2c-1.1,3.4-1.2,7-2.3,10.3
						c-4.1,9.5-7.3,19.5-8.2,29.8c-2,0.5-2.2,4,0.1,4.5c0.9,0.2,1.6,0.5,2.2,1c-0.5,8.4,1.5,27.7,2.8,27.6
						c2.6,8.3,14.3,10.7,22.6,7.8c-1.4,2.7,0,4.4,0,5.8c29.8,1.1,62.3,0.5,92.1,2c3.8-0.1,7.8,0.9,11.6,0.4c2.3-0.5,2.3-4.2,0-4.6
						l10.2-2.2c-0.2-0.1,4.2-3,7.5-8.5c3.1-6.1,1-13.5,2.4-20.2c11-0.9,22.1-1.3,33-3.1c1.5,4.4,7.9-0.9,9.9-3c0,0,0,0,0,0
						c1-0.3,1.8-1.2,1.8-2.3c0.7-1,0.8-2.4,0.2-3.3c3-17.5,7.7-35.5,9.3-53.2c0.6-0.1,1.1-0.4,1.6-0.8l0,0c0.8-0.9,1-2.4-0.4-3.2
						C177.7-5.7,176.8-5.5,175.6-5.4z"/>
					<path class="st1" d="M47.1-49.4c0.9-2.3,3.9-1.4,3.6,1c-0.2,1.4-1,2.9-1.7,4.2c-0.6,1-1.2,2-2.1,2.8c1.6,1.5,3.2,2.9,4.9,4.2
						c1.8,1.5,3.7,2.8,5.7,4c1.7,1.1,3.5,2,5.2,3.3c1.5,1.1,2.9,2.5,3.6,4.3c0.7,1.9,0.4,3.9-0.1,5.8L66-19.6
						c-0.6,1.9-1.5,4.2-0.2,6c0.7,0.9,1.7,1.6,2.6,2.3c0.8,0.6,1.5,1.4,2.2,2.1c1.4,1.6,2.6,3.5,3.4,5.6L74-3.5
						c0.6,1.8,1.1,4.1,0.2,5.9c-0.2,0.5-1,0.3-1.2-0.2c-0.3-1.1-0.3-2.3-0.6-3.5c-0.3-1.2-0.7-2.3-1.3-3.4C70-6.8,68.5-8.5,66.7-10
						l-0.5-0.4c-1.4-1.2-2.7-2.4-3-4.4c-0.3-2.1,0.5-4,1.1-6c0.4-1.4,0.5-2.7,0.1-3.9c-0.5,0.8-1.2,1.6-1.7,2.2
						c-1.1,1.4-2.1,2.7-3.2,4c-1.1,1.4-2.2,2.8-3.2,4.2c-0.5,0.6-0.9,1.3-1.3,1.9c-0.3,0.5-0.8,1-1.2,1.5c0.1,0.3,0.1,0.6-0.1,0.8
						c-1.9,2.6-4.7-2.9-5.4-4.2c-1.5-2.8-2.6-5.8-4-8.6c-1.5-2.9-3.3-5.8-5.2-8.4c-1.2-1.6-2.5-3.1-3.6-4.8
						c-2.5,2.3-5.8,3.8-8.9,5.2c-3.4,1.5-6.8,2.8-10.3,4.1l-1,0.4c-5.9,2.3-12,4.8-16.9,9C-7.5-12.6-10.9-5.9-13.5,1
						c-2.9,8-5.4,16.2-7.6,24.5c-1.2,4.2-2.3,8.4-3.3,12.7c-0.9,3.7-1.7,7.5-2.7,11.2c2.1-0.1,4.6,0.8,6.4,1
						c8.3,1.1,16.5,2.8,24.3,5.8c1,0.4,1.2,1.3,1,2.1c0.6-0.2,1.1-0.3,1.7-0.5c-0.6-0.9-0.3-2.6-0.3-3.7l0-0.1
						c0-1.4,0.2-2.8,0.3-4.2c0.2-2.6,0.4-5.3,0.7-7.9l0.1-0.7c0.4-2.9,0.6-5.7,1-8.6l0-0.3c-0.2-0.7-0.4-1.4-0.6-2.2
						c-0.6-1.9-1.5-3.7-2.3-5.6c-0.1-0.2,0.2-0.3,0.4-0.2c1.3,1.2,2.3,2.7,3.2,4.2c0-0.1,0-0.1,0-0.2l0.1-0.5
						c0.2-1.1,0.5-2.3,1.2-3.3c0.1-0.1,0.2-0.1,0.3,0c0.7,1.1,0.7,2.6,0.8,3.8c0.1,1.5,0.1,2.9,0.1,4.4c0,2.8-0.2,5.7-0.4,8.5
						c-0.2,2.8-0.5,5.5-0.9,8.3l-0.1,0.5c-0.2,1.3-0.4,2.6-0.6,4l-0.1,0.4c-0.1,0.6-0.2,1.6-0.5,2.3c7-2,14-3.9,21.1-5.7
						c5.1-1.4,10.2-2.7,15.3-4c0.3-0.5,0.6-0.9,1-1.3c1.4-1.3,3.2-1.9,4.9-0.9c0.1,0.1,0.1,0.3,0,0.4c-0.3,0.2-0.6,0.4-1,0.5
						l3.1-0.8c2.3-0.6,4.6-1.4,6.9-1.8c4.3-2.1,8.9-3.7,13.5-5.2l0.5-0.2c2.3-0.8,4.7-1.7,7.1-2.1c1.8-0.3,3.8,0.1,4.5,1.9
						c0.9,0.6,1.7,1.3,2.5,2c0.6,0.5,1.1,1,1.7,1.5l0.1,0.1c0.5,0.4,0.8,0.7,1,1.3c0.1,0.3-0.2,0.8-0.6,0.7
						c-1.3-0.1-2.3-1.6-3.1-2.5c-0.7-0.7-1.3-1.4-1.9-2.1c-0.4,0.2-0.8,0.2-1.1-0.3c-1.2-2.2-4.3-0.7-6.1-0.2l-2.5,0.7
						c-1.3,0.4-2.5,0.7-3.8,1.1c-3.4,1-6.9,2.2-10.4,3.2c0.3,0.3,0.3,1-0.3,1.2c-2.7,1.1-5.7,1.6-8.5,2.4c-1.8,0.5-3.6,0.9-5.4,1.4
						c-0.3,0.5-0.5,1.1-0.6,1.7c-0.3,2.4,0.3,5.2,1,7.5l0.1,0.3c0.5,1.9,1.3,4.2,2.9,5.3c0.4,0.3,0.9,0.5,1.4,0.5
						c3.2-1.6,6.3-3.2,9.5-4.9c0.6-0.3,1.1,0.1,1.3,0.6c1.1-0.2,2.2-0.5,3.2-0.8c1.7-0.6,3-1.7,4.6-2.4c3.1-1.5,6.2,0.3,9,1.7
						l0.6,0.3c1.2,0.6,3.8,1.8,4.4,0.1c0.6-1.6-1.2-3.3-2.4-4c-1.4-0.9-3-1.3-4.6-1.7c-0.9-0.2-1.8-0.4-2.7-0.5
						c-1-0.1-2.1-0.1-3.1-0.5c-0.5-0.2-0.6-1,0-1.1c1.5-0.4,3.4,0,5,0.4l0.8,0.2c1.6,0.4,3.3,0.9,4.7,1.7c1.1,0.6,2.2,1.5,2.9,2.5
						c0.6-0.6,1.4-0.6,2.3-0.4l0.5,0.1c0.7,0.2,1.4,0.3,2.1,0.2c0.1-0.5,0.2-1.1,0.3-1.6c1-5.2,2.2-10.4,3.4-15.5
						c2.2-8.9,4.7-17.7,7.5-26.4l0.3-0.9c0.7-2,1.2-4.2,2.2-6c1-1.7,2.6-2.7,4.5-3.3c2.1-0.6,4.4-0.9,6.6-1.3c0.5-0.1,1-0.2,1.5-0.3
						c-0.4-0.7-0.7-1.6-1-2.2l0-0.1c-0.6-1.4-1.1-2.7-1.6-4.1l-0.4-1c-0.9-2.5-1.9-5-3.2-7.4c-1.4-2.5-3.2-4.5-5.5-6.2
						c-4.7-3.4-10.3-5.2-14.8-8.8c-0.2-0.1,0.1-0.4,0.2-0.3c3.1,1.5,6.3,2.6,9.5,3.8l0.6,0.2c2.5,1,5.1,2.1,7.2,3.7
						c2.4,1.8,4.3,4,5.8,6.7c1.4,2.6,2.3,5.5,3.3,8.3l0.3,0.7c0.4,1.1,0.8,2.2,1.3,3.3c0.4,0.9,1.1,1.8,1.4,2.8
						c0.9-0.2,1.8-0.3,2.6-0.5c19-3.2,38.2-5,57.5-5.6c0.8,0,1.1,0.7,1,1.4c-1.8,10.9-3.5,21.9-5.3,32.8c-0.8,4.8-1.6,9.5-2.4,14.3
						c-0.4,2.4-0.9,4.8-1.3,7.2c-0.3,2-0.5,3.9-1.1,5.8c-0.5,1.7-1.2,3.4-2.5,4.7c-1.3,1.4-3.2,2.1-5.1,2.4
						c-4.7,0.8-9.6,1.2-14.4,1.7l-25.5,2.9c0.4,3.4,0.4,6.7,0.2,10.1l-0.1,1.9c-0.1,1.5-0.2,3-0.4,4.5c-0.3,1.9-1.1,3.4-2.4,4.8
						c-1.2,1.3-2.6,2.4-3.9,3.4c-1.4,1.1-2.9,2.1-4.5,2.8l-0.2,0.1c-1.5,0.6-4.2,1.5-6.2,1.1c0.3,1.3,0.8,2.7,0.3,4
						c-0.2,0.6-1,0.9-1.5,0.4c-1-1-1-2.4-1.3-3.7c-0.2-1.4-0.4-2.8-0.6-4.1c-0.3-2.7-0.6-5.4-0.7-8.1c-0.1-2.8-0.1-5.5,0.1-8.3
						c0.1-1.4,0.2-2.8,0.4-4.3c0.1-0.6,0.2-1.2,0.2-1.8c0-0.2,0.1-0.4,0.1-0.7l-2.3,0.3c-3.5,0.4-7,0.7-10.5,0.8
						c-0.4,0-0.7-0.2-0.9-0.5c-0.2,0.4-0.6,0.6-1.2,0.6c-4.9,0-9.5-1.6-14-3.5c-2.3-1-4.5-2-6.7-2.9c-2.1-0.9-4.4-1.5-6.4-2.5
						l-5.4,2.8c0,0.1-0.1,0.3-0.1,0.4c-0.4,0.7-1,1.1-1.8,1.4c-0.7,0.3-1.4,0.4-2.1,0.3c-4.1,2.2-8.2,4.3-12.3,6.4l-4.1,2.1
						c-8.2,4.3-16.4,8.6-24.6,12.8L9.7,88c-2.8,1.4-5.9,2.9-9.1,4c-0.1,0.8,0,1.6,0,2.4l0,0.2c0.1,1,0.3,2.3-0.5,3
						c-0.4,0.4-1.2,0.4-1.4-0.2c-0.5-1-0.1-2.6,0.1-3.7c0.1-0.4,0.1-0.8,0.2-1.2c-3.6,1.1-7.4,1.6-11,1c-3.6-0.6-6.4-2.9-8.6-5.6
						c-2.4-2.9-4-6.3-4.9-10c-1-4.2-1.1-8.4-1.1-12.7c0-4.5,0.2-9.1,0.7-13.6c-0.6-0.1-1.3-0.3-1.9-0.2c-0.3,0.5-0.9,0.7-1.4,0.6
						c-1.2,1.3,1.8,2.6,2.7,2.9c0.3,0.1,0.3,0.6-0.1,0.6l-0.2,0c-1.4-0.1-2.9-0.3-3.8-1.7c-0.7-1.1-0.5-2.3,0.3-3.2
						c0.5-5.1,1.8-10,3-14.9c1.2-4.8,2.5-9.7,3.8-14.4l0.6-2.1c2.2-7.5,4.4-15.1,7.4-22.3c1.5-3.6,3.2-7.1,5.5-10.3
						c2.2-2.9,4.7-5.4,7.7-7.6c5.5-4,11.9-6.4,18.3-8.7l0.3-0.1c3.3-1.2,6.6-2.4,9.8-3.7c2.9-1.1,5.6-2.6,8.5-3.7
						c-0.1-0.2-0.2-0.3-0.3-0.5l-0.1,0c0,0,0,0,0,0c-0.3,0.2-0.7,0.1-0.9-0.1c-0.7-0.6-0.4-1.3,0-2l0.1-0.1c0.5-0.8,1-1.6,1.5-2.4
						l0.3-0.5c0.8-1.3,1.7-2.7,2.9-3.8c0.5-0.5,1.1-0.9,1.7-1.2c-0.1-0.1,0.4-0.3,0.5-0.2c1.9-0.7,4.1-0.6,6.2-0.4 M122.1,67.1
						l-2.7,0.3c-2.9,0.3-5.9,0.7-8.8,1l-6.4,0.7c0,0.4-0.1,0.7-0.1,1c0,1.4-0.1,2.8-0.1,4.2c-0.1,2.8,0,5.7,0.2,8.5
						c0.2,2.7,0.4,5.5,0.8,8.2l0.1,0.5l0,0.3c0.3,0,0.6,0.2,0.8,0.5c0.5,0.6,2.5,0,3.3-0.3c1.3-0.4,2.4-1.2,3.5-2
						c1.1-0.7,2-1.6,2.9-2.5l0.8-0.7c0.7-0.7,1.5-1.5,2-2.5c0.6-1.3,0.7-2.8,0.9-4.2c0.2-1.7,0.5-3.4,0.8-5.1 M44.6,49.2l-0.3,0.1
						c-10.1,2.7-20.1,5.4-30.2,8c-5,1.3-10,2.4-15,3.7l-0.8,0.2c-3.9,1-7.9,2.2-10.9,5.1c-0.1,0.1-0.3-0.1-0.2-0.2
						c3.3-3.5,7.9-4.9,12.3-6.2c0.8-0.2,1.6-0.5,2.5-0.7c-6-2.2-12.2-4-18.5-5.4c-1.6-0.3-3.3-0.6-4.9-0.9c-1.1-0.2-2.2-0.6-3.3-0.9
						l-0.9-0.2l0,2.8c0,3.9,0,7.8,0.2,11.8l0,0.7c0.2,4.4,0.6,8.8,2.1,12.9c1.3,3.3,3.3,6.5,5.9,8.9c1.3,1.2,2.8,2.2,4.5,2.7
						c1.6,0.4,3.4,0.5,5,0.4c8.1-0.6,15.3-5,22.3-8.6c11.5-5.9,23-11.9,34.5-17.8c-0.3-0.2-0.6-0.5-0.9-0.7
						c-1.5-1.6-2.4-3.8-2.9-5.9c-0.6-2.2-0.9-4.7-0.9-7 M59.3,67.8c0.1-0.1,0.2,0,0.2,0.1c0,0.9-0.4,1.7-0.8,2.5l0,0.1
						c-0.4,1-0.9,1.9-1.4,2.9c-1,1.9-2,3.8-3.1,5.6c-2.2,3.7-4.6,7.3-7.4,10.6c-0.6,0.7-1.7-0.2-1.3-1c2-3.8,4.3-7.4,6.7-11
						c1.2-1.8,2.4-3.6,3.6-5.3c0.5-0.7,1-1.5,1.5-2.2l0.3-0.4 M178.5-4.1c-10.1,0.3-20.2,1-30.2,2c-9.3,1-18.6,2.2-27.9,3.8
						c-1.9,0.3-3.9,0.7-5.8,1l-1.2,0.2c-1.9,0.4-4.3,0.5-6,1.5c-1.8,1.1-2.3,3.4-2.9,5.2c-0.7,2.2-1.4,4.4-2.1,6.6
						c-2.7,8.8-5.1,17.6-7.3,26.6c-1.1,4.4-2,8.9-3,13.3c-0.9,3.9-1.9,7.9-2.9,11.8c0.1-0.1,0.3-0.2,0.5-0.2
						c5.1-1.1,10.4-1.6,15.6-2.2l0.5-0.1c5.4-0.6,10.8-1.3,16.2-1.9l35.7-4c2.1-0.2,4.4-0.3,6.4-0.8c3.5-1,4.3-4.9,4.9-7.9l0-0.1
						c1.8-9.4,3.2-18.8,4.8-28.2 M90.1,57.1c-1.4-0.1-3.3-1.4-4.3-1.3c0.6,0.9,0.8,2,0.5,3.1c-0.9,3.1-4.9,1.5-6.8,0.6
						c-1.6-0.8-3.1-1.7-4.9-2.1c-2-0.4-3.3,0.4-5,1.3c-1.4,0.7-2.9,1.3-4.4,1.6c-0.8,0.1-1.6,0.2-2.4,0.1c0,0-0.1,0.1-0.2,0.1
						l-0.4,0.2c1.9,0.1,3.7,0.7,5.5,1.2c1.8,0.5,3.5,1.2,5.3,1.9l1.7,0.7c4.2,1.6,8.6,3.2,13.2,3.2c0.3,0,0.6,0.1,0.8,0.2
						 M82.3,47.3c1.4-0.2,2.6,0,3.7,0.9c1.3,1.1,2.2,2.9,4.1,3c0.6,0,0.7,0.8,0.1,1c-1.4,0.4-2.6-0.3-3.5-1.3l-0.6-0.7
						c-0.9-1-1.8-1.7-3.4-1.7c-1.7,0.1-3.5,0.5-5.2,0.7c-1.9,0.2-3.9,0.4-5.8,0.6c-0.1,0-0.1-0.1,0-0.2l2.2-0.5 M81,41.7l0.2,0
						c2-0.2,3.8-0.2,5.6,0.9l0.3,0.2c1.6,1,3.3,2.1,4.3,3.7c0.2,0.3-0.1,0.6-0.4,0.5c-1.9-0.5-3.3-1.9-4.9-2.9
						c-1.8-1.2-3.7-1-5.8-0.8c-2,0.2-4,0.4-6,0.8c-1.9,0.3-3.7,0.8-5.6,1l0,0c-0.2,0-0.3-0.3-0.1-0.4c1.9-1,4.1-1.4,6.2-1.8
						 M13-12.3c0-0.2,0.2-0.2,0.3-0.1c1.3,2.3,2,5.1,2.7,7.6c0.7,2.6,1.3,5.3,1.8,7.9c1.1,5.4,1.6,10.8,1.7,16.3
						c0,0.8-1.3,1-1.4,0.2c-0.8-5.4-1.6-10.7-2.5-16.1c-0.4-2.7-0.9-5.4-1.4-8.1 M25.8-8.4c-0.1-0.3,0.4-0.4,0.5-0.1
						c2.6,6.4,3.5,13.6,1.8,20.3c-0.3,1-1.8,0.6-1.6-0.4 M59.2-14c0-0.2,0.3-0.3,0.4-0.1c1.2,1.7,1.7,4.1,3.9,4.9
						c1.1,0.4,2.3,0.4,3.2,1.1c0.6,0.5,1.1,1.3,0.6,2.1c-0.2,0.2-0.6,0.4-0.8,0.1c-0.3-0.4-0.5-0.9-0.9-1.2c-0.6-0.4-1.4-0.4-2-0.6
						c-0.9-0.3-1.6-0.7-2.3-1.3 M79.8-42.9c0.1-0.1,0.2,0,0.3,0.1c0.1,0.2,0.1,0.3,0,0.4c0.2,0.4,0.4,1.4,0.4,1.5
						c0.1,0.6,0.3,1.1,0.4,1.7c0.3,1.1,0.5,2.3,0.8,3.4c0.3,1.2,0.7,2.4,1.1,3.6c0,0.1,0.1,0.2,0.1,0.2l0,0.1l0,0
						c0.1-0.1,0.3,0,0.2,0.1c0,0.1,0,0.3-0.1,0.4l0,0.1c0.3,0.7,0.5,1.5,0,2.1c-0.2,0.2-0.4,0.4-0.6,0.4c-0.4,1.3-0.9,2.6-1.5,3.9
						l-0.2,0.4c-0.8,1.8-1.6,3.6-2.9,5.2c-1.4,1.7-3.3,2.9-4.5,4.7c-0.6,0.9-1,1.8-1.3,2.8l-0.1,0.4c-0.2,0.7-0.5,1.4-1.1,1.8
						c-0.2,0.1-0.5,0.1-0.7-0.1c-1.3-1.4,0.1-4,0.9-5.4c1.1-1.9,2.7-3.1,4.3-4.5c1.7-1.5,2.9-3.6,3.9-5.6c0.7-1.2,1.3-2.5,2-3.8
						c-0.7-0.6-0.9-1.8-1.2-2.7l0-0.1c-0.4-1.4-0.7-2.8-0.9-4.2c-0.2-1.4-0.3-2.7-0.2-4.1l0-0.3 M82.4-36.5
						c-0.2-0.2,0.1-0.5,0.3-0.4c1.3,0.3,2.5,1,3.7,1.7l0.1,0.1c0.9,0.5,1.9,1.1,2.3,2.1c0.5,1.1,0.5,2.3,0.4,3.4l0,0.1
						c-0.1,1.4-0.1,2.8-0.4,4.1c-0.1,0.7-0.8,0.9-1.3,0.7c-0.6,2-2.4,3.5-3.7,5.1c-1.7,2-1.3,4.7-1.2,7.2c0.1,1-1.2,1.3-1.8,0.7
						l-1.5-1.2c-0.2-0.2-0.5-0.4-0.7-0.6c-0.2-0.2-0.4-0.3-0.6-0.5l-0.3-0.3c-0.1-0.1-0.7-0.8-0.9-0.8c-0.4-0.1-1.4,1-1.8,1.4l0,0
						c-0.6,0.6-1.2,1.3-1.8,2c-0.1,0.1-0.3,0-0.2-0.1c0.5-1,1-2,1.7-3l0.1-0.2c0.4-0.6,1-1.7,1.8-1.8c1-0.2,1.9,0.7,2.6,1.3l0,0
						c0.3,0.2,0.7,0.5,1,0.8c0-1.8,0.2-3.6,1.1-5.2c0.7-1.1,1.6-1.9,2.5-2.9c0.9-1.1,1.4-2.3,2.3-3.4c0.1-0.1,0.3-0.2,0.4-0.2
						c0-0.9,0.2-1.8,0.3-2.6l0-0.3c0.1-0.9,0.3-2.1-0.1-3c-0.4-0.8-1.4-1.4-2.2-2l-0.6-0.5 M40.5-46.5c-0.4,0.2-0.8,0.5-1.1,0.9
						c-1,1.1-1.8,2.5-2.5,3.8c-0.4,0.7-0.8,1.4-1.2,2.1c-0.2,0.3-0.3,0.6-0.5,0.9c-0.1,0.1-0.3,0.4-0.4,0.6c0.1,0.2,0.3,0.4,0.4,0.6
						c0.1,0.1,3.8,4.1,5.1,5.7c2,2.4,3.8,5,5.3,7.7c1.5,2.7,2.6,5.5,4,8.3c0.7,1.4,1.5,2.7,2.4,3.9c0,0,0.1,0.1,0.1,0.1
						c0.4-1,1.3-2.1,1.8-2.7l0-0.1c1.1-1.4,2.2-2.8,3.3-4.2c1.1-1.3,2.1-2.5,3.2-3.7L61-23c0.8-0.8,1.7-2.1,2.9-2.7
						c-0.1-0.2-0.3-0.4-0.4-0.6c-1.1-1.4-2.5-2.4-4-3.3l-1-0.6c-3.6-2.2-7.1-4.5-10.3-7.3c-1.7-1.5-3.3-3.1-4.7-4.8L43-43
						 M46.5-47.6c-1.7,0.1-3.5,0.1-5.1,0.7c1.4,1.3,2.7,2.7,4.1,4.1c0.1-0.9,0.4-1.8,0.6-2.7"/>
				</g>
				<g transform="translate(78.591549, 38.050189)">
					<path class="st0" d="M16.2-33.8c12,0,24.4,9.3,28.8,15.3c3.7,5,5.7,27.6,5.7,42.9c0,3.2,1.8,9.2,1.2,12.3
						c-1.9,11.2-10.1,20.6-26.3,20.6s-27.9-6.4-39.9-23.7c-5.9,0-8.7-4.5-8.7-11.6c0-4.7,1.9-8,5.7-9.7c-1.4-18.7-0.3-30.4,3.1-35.3
						C-9.2-30.4,4.2-33.8,16.2-33.8z"/>
					<path class="st1" d="M11.2-37.7c7.6-0.8,15-0.1,22.5,1.2c0.6,0.1,0.9,0.5,1,0.9c3.5,0.2,7,0.4,10.6,0.6c1.3,0.1,2,1.3,1.4,2.5
						c-0.1,0.2-0.2,0.4-0.4,0.7l0.2-0.1c1.1-0.3,2.2-0.5,3.2,0c1.3,0.7,1.8,2.2,1.5,3.6c-0.1,0.4-0.2,0.7-0.3,1c0.3,0,0.6,0,0.9,0
						c1.5,0.2,2.7,1.4,2.7,2.9c0.1,2.4-1.4,4.8-3.2,6.4c0.3,0.5,0.4,1.2,0.3,1.8c-0.2,1.3-1.1,2-2.2,2.5c0.4,1.4,0.7,2.9,0.5,4.4
						c0,0.5-0.5,0.9-1,1C50.6-3.2,51.5,2,52.1,7c0.5,3.6,0.7,7.2,0.7,10.8c0,1.6,0,3.3-0.1,4.9l0,0.6c-0.1,1.8-0.1,3.6-0.4,5.4
						c1.1,1.8,1.5,4.1,1.7,6.2c0.2,2.6-0.1,5.2-0.9,7.6c-3,9.2-12.2,15-21.4,16.5c-8.5,1.4-18.4-0.5-23.4-8.2
						c-0.1-0.1,0.1-0.2,0.2-0.1c3.6,2.9,7.7,4.2,12.2,4.8c7.8,1.1,16.5-0.8,22.7-5.6c3-2.3,5.2-5.8,6.1-9.4c0.5-1.9,0.7-3.8,0.5-5.8
						c-0.2-2-1.1-3.6-1.6-5.5c-0.2-0.6,0-1.2,0.4-1.6c0.1-1.5,0.4-3,0.5-4.5c0.1-1.7,0.2-3.4,0.2-5.1c0-3.5-0.1-7.1-0.4-10.6
						c-0.5-6.5-2-12.8-2.8-19.2c-0.3,0.3-0.8,0.4-1.2,0.2l0,0L44.6-12c0,0,0,0,0,0c-1.8,0.2-3.6-0.1-5.3-0.6
						c-1.8-0.5-3.4-1.4-4.9-2.5c-0.3,1.4-0.4,2.8-0.4,4.3c0,0.9-1,1.4-1.7,1c-3.4-1.7-6.6-3.7-9.6-5.9c-0.4,1.8-0.7,3.6-1.1,5.5
						c-0.1,0.7-1,1-1.6,0.7c-2.3-1.3-4.2-3.1-5.8-5.1c-0.3,0.6-0.6,1.2-1,1.8L12.7-12c-0.5,0.9-1.1,1.9-2.2,2.2
						c-1.1,0.3-2-0.4-2.4-1.4c-0.1-0.3-0.2-0.6-0.3-1c-0.9,2.2-2,4.3-3.2,6.3c-1.8,3-4,5.7-6.2,8.5c-0.7,0.8-1.8,0-1.9-0.8
						c-0.1-0.5-0.1-1-0.1-1.4C-4.9,3-6.2,5.5-7.6,8l0.2,0.8l0,0c0.6,2.4,1.1,4.8,1.6,7.2c0.2,0.8-0.2,1.9-1.1,2
						c-1.1,0.2-2.1,0.7-3.2,0.3c-1.2-0.4-1.4-1.5-2-2.4c-0.1-0.2-0.2-0.4-0.4-0.5l0,0l0,0c-0.1,0.1-0.3,0-0.2-0.1l0.1-0.2l0,0
						c-0.5-0.5-1.1-1-1.6-1.4c-1.3-0.2-2.7,0-3.6,0.5c-2,1.2-2.9,3.6-2.9,5.9c0,2.6,0.8,5.6,2.2,7.8c0.6,1,1.4,1.9,2.5,2.3
						c1.1,0.4,2.3,0.3,3.4,0.7c0.7,0.3,1.2,1.1,0.7,1.8c0,0.1-0.1,0.1-0.1,0.1l0.3,0.4c0.2,0.3,0.5,0.6,0.7,1
						c0.6,0.6,1.2,1.3,1.7,1.9c1.1,1.2,2.1,2.4,3.1,3.6c1,1.1,2,2.2,3.1,3.2c1,1,2.3,1.8,3.2,2.9c0.9,1,1.2,2.8-0.3,3.4
						c-1.6,0.7-3.1-0.9-4.2-1.9l0,0c-2-1.9-3.9-4-5.3-6.4c-1.4,1-3.5,1.1-5,0.1c-0.8-0.5-1.3-1.4-1.6-2.3c-0.3,0.1-0.5,0.1-0.8,0.1
						c-0.1,0.1-0.3,0.2-0.4,0.2c-1.1,0.6-2.4,0.3-2.9-0.9c-0.4-1.1,0-2.3,0.4-3.3l0.1-0.2c0.2-0.6,0.5-1.2,0.8-1.8
						c-0.9-0.7-1.6-1.5-2.2-2.4c-2.1-3.1-3.2-7.7-2.7-11.4c0.3-2.2,1.3-4.6,3.1-6.1l-0.1-0.2l0,0c-0.5-1.2-0.9-2.5-1.2-3.8
						c-0.3-1.5-0.5-3.1-0.6-4.6c-0.3-3.3-0.2-6.6,0.2-9.9c0.8-6.1,2.8-12.1,6.3-17.2c-1-1.2-1.8-2.6-1.4-4.2
						c0.2-0.7,0.6-1.4,1.3-1.9c0.4-0.2,0.8-0.3,1.1-0.5l0.1-0.1c0.2-0.1,0-0.1-0.1-0.5c-0.4-1.7-0.1-3.3,1.8-3.9
						c1.8-0.5,3.4,0.6,4.5,1.9c2.7-1.9,6.3-2.9,9.5-3.8C3.8-36.7,7.5-37.3,11.2-37.7z M-18.3,19.3c0-1.4,1.3-2.2,2.6-2
						c0.9,0.2,1.6,0.7,2.3,1.2l0.3,0.3c0.8,0.7,1.8,1.4,2.3,2.3c0.7,1.4-0.8,3.2-2.2,2.2c-1-0.7-1.6-1.7-2.2-2.7l-0.1-0.1
						c-0.3-0.4-0.5-0.9-0.9-1.3l-0.1-0.1c-0.1-0.1-0.3-0.2-0.4-0.3c-0.3-0.1-0.9,0-1.1,0.4l0,0C-18,19.6-18.3,19.5-18.3,19.3z"/>
				</g>
				<g transform="translate(112.183099, 77.368717)">
					<path class="st1" d="M0.2-2.8c0.3-0.6,1.1-1.1,1.7-1C5-3.5,5,0.2,3.9,2.4c-1,1.9-3.2,3.1-5.4,2.9c-2.3-0.2-4.2-1.5-5.1-3.7
						c-0.6-1.4-0.8-4,0.7-5c0,0,0.1,0,0.1,0c0.7,0.8,0.7,2.1,1.4,3c0.6,0.9,1.5,1.6,2.6,1.7C-1.1,1.5-0.3,1.2,0,0.5
						c0.2-0.4,0.1-0.6,0.1-0.9L0.1-0.6C-0.1-1.4-0.2-2,0.2-2.8z M1.1-19.1c1.6,1,4,3.2,2.3,5.6c-2,2.1-4.9-0.3-6.3-1.4
						c-1.3-0.9-2.8,1.3-1.6,2.3C5.8-4.9,10-18.9,1.9-20.3C1-20.4,0.6-19.4,1.1-19.1z M-15.8-25.8c1-1.5,3.2-1.3,3.7,0.5
						c0.3,0.9-0.1,1.8-0.1,2.7c0,0.8,0,1.7-0.3,2.5c-0.6,1.8-2.1,3-4,3c-1.9-0.1-3.5-1.2-4.3-2.9c-0.8-1.7-0.6-3.4,0-5.1
						c0-0.1,0.1-0.1,0.2-0.1c0.7,0.7,1.2,1.5,1.7,2.3l0.5,0.8c0.4,0.6,1,1.4,1.7,1.4l0.1,0c0.2,0,0.2,0,0.3-0.3
						c0.1-0.1,0.1-0.4,0.1-0.5l0-0.1l0,0l0,0c0-0.1,0-0.2,0-0.5l0-0.1C-16.1-23.3-16.5-24.7-15.8-25.8z M9-24.8
						c-0.2-1.9,2.5-2.3,3.3-0.9c0.5,0.7,0.6,1.6,0.7,2.5l0,0.4c0.1,0.9,0.1,1.8-0.2,2.6c-0.6,1.3-1.9,2-3.3,1.9
						c-1.4-0.1-2.6-0.9-3.2-2.1c-0.6-1.1-1.2-3.2-0.5-4.3c0-0.1,0.1-0.1,0.2,0c0.7,0.6,0.8,1.7,1.2,2.5c0.4,0.8,1,1.6,2,1.7
						c0.9,0.1,1.2-0.4,1-1.2C9.9-22.9,9.1-23.6,9-24.8z M-15-37l0.4-0.2c1.5-0.6,3.5-1.2,4.7,0c0.7,0.7,0.9,1.8,0.4,2.7
						c-0.6,1.1-1.8,1.1-2.9,1.3c-1.3,0.2-2.5,0.5-3.7,1c-1.3,0.6-2.6,1.3-3.8,2c-1.1,0.7-2.3,2-3.7,2.2c-0.1,0-0.1,0-0.1-0.1
						c-0.3-1.3,0.6-2.7,1.3-3.7c0.9-1.3,2.1-2.3,3.3-3.2C-17.8-35.8-16.5-36.4-15-37z M11.8-32.2l0.1,0c0.9-0.1,1.7-0.1,2.4,0.6
						c0.5,0.5,0.7,1.2,0.5,2c-0.2,0.7-0.7,1.3-1.5,1.5c-2.5,0.5-5.2,0.4-7.7,0c-1.1-0.2-2.3-0.4-3.4-0.7L1.7-29
						c-0.9-0.3-2-0.5-2.7-1.2c-0.2-0.2-0.1-0.6,0.2-0.7c1.2-0.5,2.8-0.2,4-0.3c1.5,0,2.9-0.2,4.4-0.3C9-31.6,10.4-31.9,11.8-32.2z"
						/>
				</g>
				<g transform="translate(104.577451, 109.499916)">
				</g>
				<g transform="translate(88.521127, 88.995164)">
				</g>
			</g>
			<g>
				<path d="M1611.4,1129.9c-1.4,0.2-2.7,0.4-4.1,0.5c-1.1,0.2-2.2,0.3-3.3,0.5c-0.4,0.1-1.4,0-1.7,0.3c-0.3,0.4-0.4,1.7-0.5,2.3
					c-0.9,4.3-2,8.6-3.1,12.8c0.7-0.1,1.4-0.2,2.1-0.3c0.1,0,0.5,0,0.6-0.1c0.1-0.1,0.2-0.7,0.2-0.9c0.1-0.5,0.3-1,0.4-1.4
					c0.5-1.7,0.9-3.4,1.3-5.1c0.3-1,0.5-2,0.8-3c0.1-0.4,0.2-0.7,0.3-1.1c0.2-0.8,0.2-0.7,1-0.9c3.7-0.6,7.4-1.2,11.2-1.8
					c0.5-0.1,1-0.2,1.5-0.3c0.3-0.1,1.3-0.1,1.5-0.3c0.1-0.1,0.1-0.1,0.1-0.3c0.3-0.6,0.3-1.5,0.4-2.2
					C1617.2,1129.2,1614.3,1129.5,1611.4,1129.9z"/>
				<path d="M1616.6,1134.1c-0.9,1.4-1.8,2.9-2.7,4.5c-0.9,1.6-1.7,3.2-2.5,4.8l-0.2,0.4l0.4,0.1c0.7,0.1,1.4,0.2,2.1,0.3l0.2,0
					l0.1-0.1c0.4-0.8,0.8-1.6,1.2-2.4c0.4-0.8,0.9-1.5,1.4-2.3c0.5-0.8,0.9-1.5,1.3-2.3c0.4-0.8,0.8-1.6,1.2-2.4l0.1-0.3l-0.3,0
					C1617.9,1134.2,1617.2,1134.1,1616.6,1134.1z"/>
				<path d="M1607.7,1139.1c-1.5,0.2-3.1,1.1-3.8,2.7c-0.3,0.8-0.4,1.7,0,2.5c0.2,0.4,0.6,0.7,1.1,0.8c0.4,0.1,0.9,0.1,1.3,0
					c0.8-0.2,1.5-0.6,2.1-1.1c0.6-0.5,1.2-1.1,1.6-1.8c0.4-0.7,0.5-1.7-0.1-2.5C1609.4,1139.1,1608.5,1139,1607.7,1139.1z"/>
			</g>
		</g>
	</g>
</g>
</svg>
