<?xml version="1.0" encoding="utf-8"?>
<!-- Generator: Adobe Illustrator 23.0.3, SVG Export Plug-In . SVG Version: 6.00 Build 0)  -->
<svg version="1.1" id="圖層_1" xmlns="http://www.w3.org/2000/svg" xmlns:xlink="http://www.w3.org/1999/xlink" x="0px" y="0px"
	 viewBox="0 0 163.2 242.3" style="enable-background:new 0 0 163.2 242.3;" xml:space="preserve">
<style type="text/css">
	.st0{fill-rule:evenodd;clip-rule:evenodd;fill:#FFFFFF;}
	.st1{fill-rule:evenodd;clip-rule:evenodd;}
</style>
<title>peep-39</title>
<desc>Created with Sketch.</desc>
<g id="Introduction">
	<g id="variations" transform="translate(-1326.000000, -1082.000000)">
		<g id="images" transform="translate(126.000000, 110.000000)">
			<g transform="translate(1200.000000, 972.000000)">
				<g transform="translate(31.056338, 135.052838)">
					<path class="st0" d="M111.6-1.4c-1.8-7.1-3.5-10.2-6.8-12.7c-3.1-2.3-7.5-4.3-14-5.7c-6.8-1.2-7-4.7-8.7-10.4
						c-0.5-1.7-3-2.2-4-0.9c-0.1-0.2-0.3-0.3-0.5-0.4c0.1-0.8-1-3.1-1-3.9c0.4-8.1-2.2-12.2-8.9-13.7c-1.4-0.3-11.2-0.5-12.6-0.1
						c-6.1,1.7-12.2,7.1-11.3,13.6c-1.9,2.5-3.8,4.1-6.8,4.9c-6.6,0.8-13.2,1.6-19.9,2.2c-13,2-25.1,8.9-33.4,18.9
						c-0.8,0.9-1,2.2-0.3,3.2c-0.5,2.3-3.5,7.8-1.2,9.3c-3.9,9.2-12.7,27.1-12.8,32.2c-0.1,21.4,2.2,49.3,23.4,61.1
						c0.8,0.8,1,1.8,1.3,3c0.9,3.9,4.3,6.7,8,6.5c18.2,0.4,35.8-1.8,54-1.9c8,0,17.7,1.1,24.6,1.9s14,0.1,20.7-1.9
						c0.6,0.9,1.7,1.4,2.9,1.1c6.9-1.4,12.5-5.6,17.4-10.3c1.5-2.7,7.3-10.4,5-13.1c2.1-8.9,2-18.4-1.7-26.9c0.5-1.5-0.4-3.3,0-4.9
						c0.3-1.2,1.1-1.6,1.5-2.8c0.6-1.6,0-3.8-0.7-5.4c-0.3-0.8,0.5-1.7,0.7-2.5c1-3.9-1.3-3.6-2.9-6.2c0,0,0.4-1.9,0.4-1.9
						c0.2-1.3-0.4-3.1-0.9-4.2c-0.4-0.8-1.2-1.2-1.9-1.1c0.8-2.7,1.8-4.9,2.9-7.5c1.9-4.6,4.3-8.9,7-13c1.1-1.7-0.4-3.6-2.2-3.8
						C123.1,0.8,117.3-0.1,111.6-1.4z"/>
					<path class="st1" d="M94.5,33.1c-2.3-0.9-4.9-1.4-7.4-1.6c1.4-0.2,2.7-0.5,4.1-0.6c1-0.1,1.9-0.1,2.6,0.7
						c0.5,0.5,0.7,1.1,1,1.7C94.7,33.1,94.6,33.1,94.5,33.1z M119.6,24.5c-3.8,0.2-7.7,1.1-11.1,2.8c-1.4,0.7-2.7,1.7-3.1,3.3
						c-0.2,0.8-0.1,1.7,0,2.5c0.1,0.6,0.1,1.4,0.6,1.9c0.1,0.1,0.2,0.1,0.3,0.2c-1.3,0.6-2.5,1.3-3.6,2c-1,0.7-2,1.7-2.5,2.8
						c0-0.1-0.1-0.2-0.1-0.4c-0.8-2.3-2-4.2-3.9-5.4c0.3-0.1,0.6-0.5,0.5-1c-0.4-2-2.3-3.8-4.5-3.7c-2.3,0.1-4.9,1-7,2.1
						c-0.8,0-1.5,0-2.3,0c-0.1,0-0.1,0.2,0,0.2c0.6,0.1,1.2,0.2,1.9,0.3c1.5,0.2,2.9,0.5,4.4,0.9c1.7,0.4,3.5,0.9,5.1,1.7
						c3.1,1.5,5,5.4,4.6,8.9c-0.1,0.6-0.3,2.3-1.1,2.1c-0.7-0.1-0.9-1.5-1.2-2c-0.6-1.4-1.7-2.2-3.1-2.8c-1.6-0.7-3.2-1.2-4.9-1.7
						c-0.9-0.3-1.8-0.6-2.8-0.9c-0.9-0.3-1.8-0.8-2.8-0.5c-0.6,0.1-0.7,0.9-0.3,1.3c0.5,0.6,1.3,0.8,2,1.1c1,0.3,2,0.7,2.9,1
						c1.5,0.5,3.1,1,4.6,1.6l0,0.1c-0.1,0-0.3,0.1-0.2,0.2c0.2,1.4,0.5,2.9,0.2,4.3c-0.3,1.1-1.2,2.3-2.5,2c0.2-0.2,0.3-0.5,0.1-0.8
						c-0.5-1-6.9-5.2-7.5-3.6c0,0.1,0,0.1,0.1,0.1c0.5-0.1,1.3,0.7,1.7,1c0.6,0.4,1.1,0.8,1.7,1.1c0.6,0.4,1.2,0.9,1.8,1.3
						c0.5,0.4,0.8,0.7,1.3,0.9c-0.3,0.1-0.5,0.4-0.6,0.7c-0.2,0.8-0.7,1.5-1.5,1.9c-0.8,0.4-1.8,0.1-2.6,0.2
						c-1.2,0.1-2.2,0.7-3.1,1.5C79.5,55,78.6,58,76,58.8c-1.5,0.5-3.2,0.2-4.8,0c-1.7-0.2-3.4-0.4-5.1-0.2c-1.7,0.2-3.2,0.8-4.7,1.5
						c-1.4,0.7-3,1.4-4.3,2.4c-0.3-0.8-0.5-1.6-0.7-2.4c-0.5-1.9-0.7-3.9-0.8-5.9c-0.1-1.9,0-3.8,0.2-5.7c0.1-0.9,0.2-1.9,0.3-2.8
						c0-0.2,0.1-0.5,0.1-0.7c2.3-1.3,4.6-2.3,7-3.4c0,0,0,0,0,0c0.1,0,0.1-0.1,0.2-0.1c0,0,0,0,0,0c0.3-0.2,0.5-0.4,0.6-0.6
						c3.4-2.3,6.3-5.4,8.5-9c0.9-1.5,1.8-3.1,2.9-4.4c1.3-1.4,2.7-2.3,4.6-2.7c2.1-0.5,4.4-0.8,6.6-1c1.2-0.1,2.5-0.2,3.9-0.2
						c0.9,0,1.8,0.1,2.6,0.3c1.2,0.3,1.9,1.3,2.7,2.2c0.7,0.9,1.5,1.8,2.1,2.7c0.6,0.9,1.3,1.8,1.8,2.8c0.3,0.6,0.6,1.2,0.9,1.8
						c0.1,0.2,0.2,0.5,0.3,0.7c0.1,0.2,0,0.5,0.2,0.5c-1,0-1,1.7,0,1.6c4.1-0.2-1.8-8.2-2.6-9.3C97.1,25,95.9,23,94,22.3
						c0,0-0.1,0-0.1,0c0.6-0.5,1-1.2,1.4-1.8c0.4-0.7,1-1.4,1.1-2.2c0.1-0.5-0.5-0.8-0.8-0.4c-0.4,0.6-0.6,1.5-1,2.2
						c-0.3,0.7-0.7,1.4-1,2.1c-0.8-0.2-1.6-0.3-2.4-0.4c1.1-1.4,2.9-4.2,3.1-4.6c1-1.6,2-3.3,2.9-5c1-1.8,1.8-3.8,2.8-5.6
						c0.5-1.1,1.1-2.1,1.7-3.1c0.2-0.4,0.4-0.7,0.7-1c0-0.1,0.1-0.1,0.2-0.2c0.1,0,0.1-0.1,0.2-0.1c0.3-0.2,0.5-0.7,0.7-0.9
						c0.4-0.5,0.8-0.5,1.4-0.5c1.2,0,2.5,0,3.7,0.1c1.8,0.1,3.6,0.1,5.4,0.2c0.5,0,1.1,0.1,1.6,0.1c2.6,0.2,5.3,0.4,7.9,0.6
						c2.3,0.2,4.6,0.6,7,0.8c-3.1,7.5-6.6,14.8-10.6,21.9C119.7,24.3,119.6,24.4,119.6,24.5z M102.2,43.7c-0.5,0.2-1,0.5-1.5,0.9
						c0.1-0.5,0.1-1.1,0.1-1.6C101.2,43.4,101.6,43.6,102.2,43.7z M123.8,30.9C123.8,30.9,123.7,30.9,123.8,30.9
						c-0.8,1.5-0.5,3.1,0.7,4.3c0.6,0.6,1.9,1.3,1.9,2.2c0,0.8-0.9,1.4-1.3,2.1c-0.3,0.6-0.5,1.3-0.2,1.9c0.3,0.8,1.3,1.2,1.7,2
						c0.4,1-0.3,2.3-0.7,3.2c-0.4,0.8-1,1.7-1.4,2.6c-2.6,1.3-4.9,3.4-6.9,5.5c-2.2,2.3-4,4.9-7.5,4.9c-0.3,0-0.6,0.2-0.8,0.4
						c-1,0-1.9,0.1-2.9,0.1c-1.7,0-3.4,0-5.1-0.1c-0.1-0.4,0-1,0-1.3c0-1.1,0-2.2-0.1-3.3c0-0.3,0-0.6,0-0.9
						c0.6,1.1,1.8,1.6,3.1,1.5c2.2-0.1,4.3-0.5,6.5-0.8c1.1-0.2,2.3-0.4,3.4-0.6c0.9-0.2,2.2-0.1,2.9-0.9c0.2-0.2,0.2-0.5-0.1-0.6
						c-0.6-0.3-1-0.1-1.7,0c-0.9,0.2-1.7,0.3-2.6,0.5c-1.7,0.3-3.3,0.6-5,0.8c-0.9,0.1-1.9,0.3-2.8,0.4c-0.8,0.1-1.8,0.2-2.4-0.4
						c-1.3-1.3-0.6-3.4,0.3-4.6c0,0,0,0,0-0.1c0.8-0.2,1.6-0.4,2.4-0.6c1.5-0.3,3.1-0.5,4.6-0.8c3.2-0.5,6.4-0.8,9.6-1.1
						c0.8-0.1,0.8-1.3,0-1.2c-4.6,0.4-9.2,0.8-13.7,1.7c-1.1,0.2-2.3,0.5-3.4,0.8c-0.5,0.1-1.1,0.3-1.7,0.3c0,0-0.1,0-0.1,0
						c-1.1,0-1.2-1-0.6-1.7c0.1-0.1,0.1-0.2,0.2-0.3c1.1-1.3,2.4-2.1,3.7-3c1.5-0.2,3-0.7,4.5-1c3.7-0.8,7.3-1.7,11-2.5
						c0.7-0.2,0.4-1.3-0.3-1.1c-2.8,0.6-5.6,1.3-8.4,1.9l-4.1,0.9c-0.8,0.2-1.8,0.6-2.8,0.7c-0.5,0.1-0.9,0.1-1.3,0
						c-1.3-0.3-1.4-2-0.8-3c0.6-1.1,1.9-1.8,3-2.4c1.9-1.1,3.9-1.9,5.8-2.8c0.3-0.1,0.7-0.2,1-0.2c2-0.4,4.3-0.7,6.2-1.5
						c0.6-0.2,0.3-1.1-0.3-1.1c-1.5,0-3,0.6-4.5,0.9c-1.6,0.3-3.1,0.7-4.7,1c-0.2,0-1.1,0.3-1.2,0.3c-0.1,0-0.1-0.4-0.1-0.6
						c-0.1-0.7-0.2-1.4-0.1-2c0.2-1.5,1.5-2.2,2.7-2.8c2.8-1.3,5.9-2.1,9-2.4c0.7-0.1,1.4-0.1,2.1-0.1c0.8,0,1.5-0.2,2,0.7
						C123.2,27.7,123.6,29.4,123.8,30.9z M119.9,78.1c-0.6-2.1-0.4-4.4-0.9-6.6c-0.2-1.1-0.5-2.2-0.8-3.3c-0.3-0.9-0.7-1.8-0.7-2.7
						c0-0.1,0.1-0.1,0.1-0.1c0.9,0.5,1.5,1.6,2,2.4c0.6,1,1,2.1,1.4,3.2c0.7,2.2,1.3,4.9,0.4,7.1C121.1,78.7,120.1,78.9,119.9,78.1z
						 M100.9,49.9c0.5-0.1,1-0.2,1.6-0.3c-0.6,0.6-1.1,1.2-1.4,2C101,51.1,100.9,50.5,100.9,49.9C100.9,49.9,100.9,49.9,100.9,49.9z
						 M95.9,94.2c-0.9-0.6-1.6-1.5-2.4-2.3c-0.8-0.8,0.4-2,1.2-1.2c0.7,0.7,1.2,1.5,2,2.1c0.4,0.3,0.5,0.7,0.3,1.2
						C96.8,94.3,96.3,94.5,95.9,94.2z M90.8,69.6c1.7-0.7,3.3-1.5,5.1-2c1-0.3,1.5,1.3,0.4,1.6c-1.6,0.5-3.1,1.2-4.7,1.9
						C90.6,71.5,89.8,70,90.8,69.6z M73.1,69.1c-0.4-1,1.2-1.4,1.6-0.4c0.5,1.1,1,2.3,1.5,3.4c0.4,1-1.2,1.4-1.6,0.4
						C74.1,71.4,73.6,70.2,73.1,69.1z M55.7,89.3c-0.3,0.4-0.7,0.6-1.2,0.3c-0.4-0.2-0.6-0.8-0.3-1.2c0.8-1.1,1.6-2.1,2.6-3.1
						c0.8-0.8,2,0.4,1.2,1.2C57.1,87.4,56.4,88.3,55.7,89.3z M53.2-23.9c0.8,0.5,1.5,1.2,2.1,1.8c0.8,0.8-0.4,2-1.2,1.2
						c-0.6-0.6-1.1-1.1-1.8-1.6c-0.4-0.3-0.5-0.7-0.3-1.2C52.2-24,52.8-24.2,53.2-23.9z M78.5,3.3c-0.4,0.9-0.8,1.7-0.9,2.7
						c0,1.1-1.7,1.1-1.7,0c0-1.3,0.5-2.4,1.1-3.6C77.6,1.5,79,2.3,78.5,3.3z M87.9-18.5c0.9-0.6,1.8,0.9,0.9,1.5
						c-0.7,0.5-1.5,1-2.2,1.5c-0.9,0.6-1.8-0.9-0.9-1.5C86.4-17.6,87.1-18,87.9-18.5z M47.5,19.7c-0.2,1.1-1.8,0.6-1.6-0.4
						c0.2-1.6,0.5-3.3,1-4.9c0.3-1,1.9-0.6,1.6,0.4C48,16.4,47.7,18,47.5,19.7z M41.6,39c-1.1,0-1.1-1.7,0-1.7c1,0,2,0.3,2.9,0.5
						c1.1,0.3,0.6,1.9-0.4,1.6C43.2,39.3,42.4,39.1,41.6,39z M39.4,78.1c-0.4,0.2-0.8,0.3-1.1,0.5c-0.8,0.3-1.5,0.7-2.3,1
						c-1.6,0.7-3.1,1.4-4.7,2.2c-3.1,1.5-6.3,2.9-9.5,4.3c-3.2,1.5-6.4,3-9.6,4.5c-1.5,0.7-3,1.4-4.6,2.1c-1.3,0.6-2.9,1.6-4.3,1.7
						c-0.1,0-0.1-0.1-0.1-0.1c0.5-0.6,1.4-1,2.1-1.4C6,92.4,6.8,92,7.5,91.7c1.5-0.8,3.1-1.6,4.6-2.4c3.1-1.6,6.2-3.1,9.3-4.7
						c3.2-1.6,6.3-3.2,9.5-4.7c1.5-0.7,3-1.4,4.5-2.1c0.8-0.4,1.6-0.8,2.4-1.2c0.4-0.2,0.7-0.3,1.1-0.5c0.5-0.2,0.8-0.2,1.3-0.3
						c0.8-0.2,1.2,0.8,0.5,1.3C40.2,77.5,39.9,77.8,39.4,78.1z M28.1,95.4c-0.2-0.4,0.2-0.9,0.6-1c0.5-0.1,0.9,0.2,1,0.6
						c0.5,1.1,1.1,2.2,2,3c0.8,0.8-0.4,2-1.2,1.2C29.4,98.1,28.7,96.8,28.1,95.4z M19.8,68.3c-0.8-0.8,0.4-2,1.2-1.2l2.2,2.2
						c0.8,0.8-0.4,2-1.2,1.2L19.8,68.3z M-2.7,64.7c-1.6,0.5-3.4,0.9-4.5,2.2c-0.1,0.1-0.1,0-0.1-0.1C-5.9,64-2,63,0.8,62
						c1.9-0.7,3.9-1.3,5.9-1.8c-0.2-2.3,0.4-4.7,0.5-7c0.2-2.4,0.4-4.8,0.5-7.3c0.1-2.5,0.1-5,0-7.5c-0.1-2.5-0.4-4.9-0.5-7.4
						c0-0.2,0.3-0.2,0.4-0.1c0.8,2.3,1.2,4.8,1.5,7.2c0.3,2.5,0.4,5,0.3,7.5c0,2.6-0.2,5.1-0.4,7.7c-0.1,1.2-0.2,2.4-0.3,3.6
						c-0.1,0.9-0.1,1.8-0.3,2.7c1.2-0.3,2.4-0.6,3.6-0.8c3.8-0.9,7.7-1.7,11.5-2.6c1.9-0.5,3.7-1,5.6-1.5c1.8-0.5,3.6-1,5.4-1.2
						c0.6-0.1,0.7,0.8,0.3,1.1c-1.5,1-3.4,1.7-5.1,2.3c-1.7,0.6-3.5,1-5.2,1.4c-3.6,0.9-7.3,1.6-11,2.4c-3.7,0.8-7.3,1.5-10.9,2.5
						C0.8,63.7-1,64.2-2.7,64.7z M-11.3,19.4c-0.9,0.6-1.8-0.9-0.9-1.5c1.2-0.7,2.5-1.3,3.9-1.8c1-0.4,1.4,1.2,0.4,1.6
						C-9.1,18.3-10.2,18.8-11.3,19.4z M-14.7,82.3c-0.9,0.5-1.8-0.9-0.9-1.5c1.3-0.8,2.8-1.3,4.1-1.9c1-0.5,1.8,1,0.9,1.5
						C-12,81-13.4,81.5-14.7,82.3z M-16.3,46.6c0.9,0.9,2.1,1.3,3.3,1.7c1,0.4,0.6,2-0.4,1.6c-1.4-0.6-2.9-1.1-4-2.2
						C-18.2,47-17,45.9-16.3,46.6z M-6.2-1.8c1,0.4,0.6,2-0.4,1.6C-7.7-0.6-8.9-1-10-1.4c-1-0.4-0.6-2,0.4-1.6
						C-8.4-2.6-7.3-2.3-6.2-1.8z M11.6-21.1c1.1-0.2,1.5,1.4,0.4,1.6c-1.3,0.2-2.6,0.5-3.9,1c-1,0.4-1.5-1.2-0.4-1.6
						C9-20.6,10.3-20.8,11.6-21.1z M17.5,25.8c-1-0.5-0.1-1.9,0.9-1.5c1,0.5,2.1,0.9,3.2,1.1c1.1,0.2,0.6,1.9-0.4,1.6
						C19.9,26.8,18.7,26.3,17.5,25.8z M23.1-0.6c1.1-0.3,1.5,1.3,0.4,1.6c-1.8,0.5-3.7,0.8-5.6,1.2c-1.1,0.3-1.5-1.4-0.4-1.6
						C19.3,0.2,21.2-0.1,23.1-0.6z M46.6-8.9c1.1,0.2,0.6,1.8-0.4,1.6c-1.1-0.2-2.3-0.2-3.4-0.2c-1.1,0-1.1-1.7,0-1.7
						C44.1-9.2,45.4-9.1,46.6-8.9z M123.5,0c-2.8-0.3-5.5-0.5-8.3-0.6c-0.1,0-0.3,0-0.4,0c0,0,0-0.1-0.1-0.1
						c-0.9-1.3-1.6-2.7-2.1-4.2c-0.6-1.4-1.1-2.9-1.9-4.2c-1-1.5-2.3-2.6-3.7-3.6c-0.9,0.6-1.7,1.3-2.4,2c-0.8,0.8-2-0.4-1.2-1.2
						c0.7-0.6,1.4-1.2,2.1-1.8c-0.9-0.5-1.7-1-2.6-1.5c-3.2-1.8-6.5-3.5-9.8-5c-1.5-0.7-3.1-1.4-4.7-2c-0.8-0.3-1.7-0.8-2.5-1.2
						c0.1-0.6-0.1-1.3-0.6-1.7c-0.3-0.3-0.6-0.4-1-0.6c-0.1,0-0.1-0.1-0.2-0.1c0,0,0.1,0,0.2,0.1c0.2,0.1,0.2,0.1,0.1-0.1
						c0-0.3-0.7-1.1-0.8-1.4c-0.5-1.2-0.7-2.5-1.5-3.6c-1.1-1.5-2.9-2.1-4.6-1.6c-0.2-1.8-0.2-3.7-0.9-5.4c0,0-0.1-0.1-0.1,0
						c-0.7,1.2-0.8,2.6-0.8,4c-0.1,1.3,0,2.7,0.2,4c-0.1,0.1-0.2,0.2-0.3,0.2c-0.5,0.4-1.1,0.6-1.7,0.8c-1.2,0.4-2.4,0.6-3.6,0.6
						c-3.2,0.2-6.5-0.2-9.6-0.7c-3.2-0.6-8-1.4-10.8-3c-1.9-1-3.6-2.3-5.3-3.6c0.6-2,0.8-4.2,0.2-5.9c-0.1-0.2-0.4-0.2-0.5,0
						c-0.4,1.6-0.5,3.3-1,4.9c0,0,0,0,0,0.1c-0.2-0.1-0.3-0.2-0.5-0.3c-0.4-0.3-0.9-0.1-1.1,0.3c-3.6,5.8-9.4,6.1-15.5,7.1
						c-6.6,1.1-13.3,2.3-19.7,4.5C0-22.6-5.9-19.5-10.5-14.9c-1,1-2,2.1-2.9,3.3c0.9,0.1,1.8,0.3,2.7,0.6c1,0.3,0.6,2-0.4,1.6
						c-1.1-0.4-2.3-0.5-3.4-0.6c-3.1,4.3-5.6,9.2-7.7,14c-4.1,9.2-6.7,19-7.9,29c0.7-0.4,1.3-0.8,2-1.1c1-0.5,1.8,1,0.9,1.5
						c-1.1,0.5-2.1,1.2-3.1,1.8c-0.4,4.4-0.6,8.8-0.5,13.1c0.2,10.5,1.7,21.2,4.9,31.2c1.6,4.9,3.6,9.8,6.7,13.9
						c1.4,1.9,3,3.6,4.9,5c0.9,0.7,1.9,1.3,2.9,1.8c1.3,0.7,3,0.9,4.1,1.8c0.4,0.3,0.7,0.7,0.9,1.2c-0.1,0.9-0.1,1.8,0.1,2.6
						c0.1,0.3,0.3,0.5,0.5,0.6c0,0.1,0,0.2,0,0.2c0,0,0.1,0,0.1,0c0-0.1,0-0.1,0-0.2c0.1,0,0.2,0,0.3,0c3.2,0,6.4-0.1,9.6-0.2
						c-0.2-0.8-0.5-1.5-0.8-2.3c-0.4-1,1.3-1.5,1.6-0.4c0.3,0.9,0.6,1.8,0.9,2.7c3.4-0.1,6.9-0.3,10.3-0.4
						c7.3-0.2,14.6-0.3,21.9-0.5c11.4-0.2,22.8-0.7,34.2-0.3c0.4-0.8,0.8-1.7,1.3-2.5c0.5-1,1.9-0.1,1.5,0.9
						c-0.3,0.6-0.6,1.1-0.9,1.7c2.3,0.1,4.6,0.3,6.9,0.5c3.9,0.4,7.8,1,11.7,1.4c4,0.4,7.9,0.3,11.8-0.3c0.7-0.1,1.1-0.5,1.3-1.1
						c0,0,0,0,0,0c0.2-0.2,0.4-0.4,0.6-0.6c0.2-0.2,0.5-0.3,0.8-0.4c0.6-0.2,1.1-0.3,1.7-0.4c0.6-0.1,1.3-0.1,1.9-0.2
						c0.5-0.1,1.1-0.2,1.6-0.3c1-0.2,1.9-0.5,2.8-0.9c0.8-0.3,1.5-0.8,2.2-1.4c1.4-1,2.6-2.3,3.6-3.7c0.6-0.8,1.2-1.6,1.7-2.5
						c0.9-1.5,1.7-3,2.5-4.6c0.3-0.5,0.5-0.9,0.8-1.4c-1.5-0.5-3.1-0.8-4.7-0.8c-1.1,0-1.1-1.7,0-1.7c1.9,0,3.6,0.5,5.4,1
						c0.1-0.2,0.2-0.5,0.2-0.7c0.2-0.5,0.4-1,0.5-1.5c0.1-0.2,0.2-0.5,0.3-0.7c0.2-0.8,0.4-1.6,0.6-2.4c0.4-1.3,0.7-2.6,0.9-3.9
						c0.2-0.9,0.3-1.7,0.4-2.6c0.3-2.1,0.5-4.2,0.6-6.4c0-1.3-0.1-2.6-0.3-4c-0.1-0.9-0.2-1.8-0.3-2.7c-0.2-1.3-0.4-2.6-0.7-3.9
						c-0.2-0.9-0.5-1.7-0.7-2.6c-0.6-1.8-1.2-3.6-2-5.4c0-0.1-0.3-0.4-0.4-0.4c-0.1,0-0.2,0.1-0.2,0.2c0,0,0,0,0,0
						c0-0.1-0.1-0.2-0.1-0.3c0-0.1-0.2-0.3-0.3-0.3c0,0,0,0,0,0c0,0,0.1,0,0.1-0.1c0.8-0.9,1.3-2.1,1.8-3.1c0.4-0.9,0.9-1.8,1-2.7
						c0.1-0.9,0-1.7-0.6-2.4c-0.6-0.8-1.8-1.2-1.1-2.3c0.7-1.3,1.8-2.4,0.7-3.9c-0.5-0.7-1.4-1.2-2-1.8c-0.7-0.8-1.1-1.8-1.1-2.8
						c0,0,0.1,0,0.1-0.1c0.6-1.9,0.2-3.9-0.5-5.7c-0.3-1-1.1-1.2-1.9-1.3c3.7-7.1,7.1-14.4,10.1-21.8c0.1-0.2,0.2-0.5,0.3-0.7
						c0.1-0.4-0.2-0.8-0.5-0.9C128.9,0.4,126.2,0.2,123.5,0z"/>
				</g>
				<g transform="translate(78.591549, 38.043053)">
					<path id="Path" class="st0" d="M-5.9-30.4l1.8,2.2c-1,0.7-2,1.4-2.9,2.1l0,0c4.2-2.7,8.8-4.3,13.7-4.3c9.6,0,29,8.2,33.4,14.2
						c2.2,2.9,6.2,12,8.3,21.8c1.7,7.9,4.2,30.2,1.7,38.6C47,55,36.4,64.9,25.5,64.9S-2.3,57-14.4,39.7c-0.6-0.8-6.9-1.7-11.4-4.7
						l1.2,13.1l0.9,7.6l-0.2,0.5c-3.2,8.8-5.8,13.3-7.7,13.7c-1.9,0.4-5.9-2.8-11.8-9.5l-0.8-3.2c-1.9-8.1-2.9-12.5-2.9-13.1l0-0.1
						c0-1.4,0.5-9.2,0.5-11.2l0-31.4c6.4-21.2,12.5-31.8,18.3-31.8H-5.9z"/>
					<path class="st1" d="M-21-37.6c1.9-0.7,4-0.6,5.8,0.5c3.5-0.2,7,1.9,8.8,4.9c0,0,0.1,0.1,0.1,0.1l0.4,0.5
						c0.4,0.4,0.8,0.9,1.1,1.4c-1.5,0-2.7,0.6-3.6,1.9c-0.6,0.9,0.8,1.7,1.4,0.9l0,0c0.5-0.7,1.3-1,2.2-1c0.3,0,0.4-0.1,0.6-0.2
						c0.1,0.2,0.1,0.4,0.1,0.6c4.4-1.7,9.2-2.2,13.9-1.8c-0.2,0.3-0.4,0.7-0.5,1.1c-0.2,0.4,0.2,0.9,0.6,1c0.5,0.1,0.9-0.1,1-0.6
						l0,0c0.2-0.5,0.5-1,0.9-1.3c2.2,0.3,4.5,0.8,6.6,1.4c2.6,0.7,5.2,1.7,7.7,2.7c-0.4,0.2-0.8,0.5-1.1,0.9
						c-0.5,0.9,0.9,1.8,1.4,0.9l0,0c0.1-0.1,0.1-0.2,0.1-0.2l0,0l0.1,0l0.1,0l0,0l0.1,0c0,0,0.1,0,0.2,0c0.2,0,0.3,0,0.5,0
						c0.4,0,0.6-0.2,0.7-0.5c1.2,0.6,2.5,1.2,3.7,1.8l0.3,0.1c3.7,1.9,7.3,4.5,9.3,8.3c0.1,0.3,0.2,0.5,0.1,0.8
						c0.4,0.5,0.9,1.1,1.3,1.6c1.2,1.7,2.1,3.6,3,5.5c1.7,3.8,2.9,7.7,3.8,11.8c0.9,3.9,1.6,7.9,2.2,11.9c0.7,4.4,1.3,8.9,1.5,13.4
						c0.2,8-1.3,16-5.8,22.8c-4,6-10,10.8-17.2,12.3c-7.3,1.6-15,0-20.7-4.8c-0.9-0.8-0.8-2.4,0-3.2c0.9-0.9,2.2-0.8,3.2,0
						c5.4,4.6,13.2,5.3,19.7,2.9c6-2.2,10.7-7.1,13.6-12.7c3.5-6.8,4.1-14.6,3.6-22.1c-0.3-4.1-0.9-8.2-1.5-12.3l-0.4-2.5
						c-0.4-2.7-0.9-5.3-1.4-8l-0.1-0.6c-0.7-3.2-1.5-6.4-2.8-9.4c-0.7-1.6-1.5-3.1-2.3-4.6c-0.2-0.3-0.3-0.6-0.5-0.9
						c-0.2,0.1-0.5,0.1-0.7,0c-2.3-0.7-4.7-1.2-7.1-1.4c-1.1-0.1-2.2-0.1-3.3,0c-1.9-0.1-3.8,0.1-5.6,0.6c-0.2-0.2-0.4-0.3-0.5-0.4
						c0,0-0.1,0-0.1,0c-0.5-0.1-0.8-0.4-1-0.8c0,0,0,0,0-0.1c-0.2-0.2-0.5-0.3-0.7-0.5c-0.6,0.1-1.1-0.3-1.2-0.8
						c-0.1-0.1-0.3-0.2-0.4-0.3c-0.1,0-0.2,0-0.3,0.1c-0.4,0-0.8,0-1.2-0.2c-0.5-0.3-0.8-0.7-1-1.1c-0.7,0-1.4-0.2-2.1-0.6
						c-0.5-0.3-0.9-0.8-1.3-1.3c-4.8-2.1-10-3.4-15.2-3.7c-0.5,0.1-1,0.2-1.5,0.4c-0.1,0-0.3,0.1-0.5,0.2c1.2-0.1,2.3-0.2,3.5,0
						c5.7,0.8,10.1,5.1,13.9,9.1c0.9-0.2,1.8,1,1,1.8L9.1-5.7l0,0c0.2,0.7-0.6,1.3-1.3,1.2C6.6-4.8,5.5-5.1,4.3-5.4
						C3.1-4.8,1.6-4.9,0.6-5.7c-0.1,0-0.2-0.1-0.3-0.2C0.2-5.8,0.1-5.7,0.1-5.7c-0.4,0.3-0.9,0.3-1.3,0.3c-0.5-0.1-0.9-0.3-1.2-0.6
						c-0.2-0.2-0.8-1-1.1-1l0,0c0.2,0-0.4,0.6-0.6,0.7C-4.6-6.1-5-5.9-5.5-6c-0.9-0.1-1.6-0.9-2-1.6l0-0.1l0,0l0,0c0,0,0,0,0,0
						C-7.7-7.4-7.9-7.3-8-7.1c-0.4,0.3-0.9,0.5-1.4,0.4c-0.4-0.1-0.8-0.3-1.1-0.7l0-0.1c-0.1-0.1-0.7-0.9-0.6-1l0,0l0,0
						c-0.3,0.1-0.6,0-0.8-0.2c-1.2-0.3-2.4-0.6-3.5-0.9c-0.1,0.2-0.2,0.5-0.3,0.8c0.6,0.4,1.2,0.9,1.7,1.3c1,0.7,2,1.5,3,2.2L-7-2.4
						l0,0l0.5-0.1l0,0C-6-2.7-5.5-2.4-5.3-1.9l0,0C-5.2-1.6-5.1-1.4-5-1.2c1,0,1.8,0.6,2.1,1.4c0.2,0,0.5,0,0.7,0
						c0.7,0.1,1.2,0.6,1,1.3l0,0l0,0.1c0.4,0.2,0.7,0.5,0.8,1C-0.3,2.8-0.2,3-0.2,3.2c0.3,1-0.3,2.3-0.6,3.2l0,0.1
						c-0.2,0.6-0.4,1.3-0.6,1.9L-1.8,10c-1.4,4.4-2.7,9-1.6,13.6c0.2,1-1,1.4-1.5,0.7c-1.3-1.8-2.7-3.6-4.2-5.2l-0.1,0l0,0
						c-1-0.2-1.4-0.9-1.9-1.7c-0.3,0.1-0.6,0.1-0.9,0c-0.4-0.1-0.8-0.3-1.1-0.6c-0.3-0.3-0.5-0.9-0.8-1.1c-0.4-0.2-1.1,0.1-1.6,0
						c-0.4-0.1-0.7-0.2-1-0.3c-0.6,0.8-1,1.8-1.1,2.8c0,0.4-0.2,0.7-0.3,1c0.6,0,1.3,0,1.9,0.1c2.3,0.4,4,1.9,4.9,4
						c0,0.1-0.1,0.2-0.1,0.1c-1.4-2.1-4.4-2.2-6.6-1.5c-2.3,0.8-3.6,2.8-4.1,5.2c-0.5,2.6,0.1,5.3,1.5,7.5c0.6,1,1.5,1.9,2.7,2.3
						c1.4,0.4,2.7-0.3,4.1,0.1c1,0.3,1.4,1.2,1.2,2.1c-0.1,0.4-0.2,0.7-0.4,1c0.5,1,1,2.1,1.6,3c0.9,1.5,2.1,2.7,3.3,3.9
						c1.3,1.3,2.6,2.5,3.9,3.7c1.3,1.1,2.8,1.9,4.1,3c1,0.7,1.4,1.8,1,2.9c-0.4,1-1.7,1.8-2.8,1.4c-2-0.8-3.8-2.3-5.4-3.7
						c-1.5-1.4-2.8-3-3.8-4.8c-0.9-1.7-1.6-3.6-2.2-5.4l-0.1-0.2c-0.3-0.9-0.6-1.8-0.7-2.8c-1.1,0.6-2.6,0.7-3.8,0.5
						c-1.9-0.3-3.7-1.2-5-2.6c-0.6-0.7-1.2-1.4-1.6-2.2c0,0.5,0.1,1,0.1,1.4c1.1,1.2,1.5,3,1.2,4.5c0.9,1,1.2,2.4,0.7,3.6
						c1,1,1,2.6,0.5,4c1.2,1.3,1.3,3.4,0.4,4.9l0,0.1l0,0c0.9,1.6,0.7,3.6-0.5,5c0.8,1.6,0.7,3.7-1.3,4.3c-0.7,0.2-1.4,0-2-0.4
						c0.5,2.4,0.7,4.9,0.1,7.3c-0.3,1-1.2,1.7-2.2,1.7c-0.8,0-1.4-0.4-1.8-1c0,1.2,0,2.4-0.3,3.7c-0.2,0.7-0.8,1.3-1.6,1.5
						c0.3,0.3,0.4,0.7,0.1,1.2c-1.1,1.9-3.7,1.1-3.9-0.7c-0.7-0.5-1.1-1.5-1.2-2.4c-0.2-1.4-0.3-2.8-0.5-4.2l-0.1,0.1l0,0l0,0l0,0.1
						c-0.1,0.7-0.5,1.2-1,1.5c0.1,1.2-0.1,2.4-0.9,3.4c-0.5,0.6-1.4,0.9-2.1,0.7c0,0-0.1,0-0.1,0c-1.7-0.2-2.7-1.8-2.2-3.3
						c-0.7-0.8-1-1.9-0.8-2.9c-1.3-0.9-1.3-2.8-0.8-4.3c-1.4-1.1-1.9-3.1-1.2-4.7c-1.2-1.5-1.4-3.7-0.6-5.5c-1.4-1.1-1.4-3.3,0-4.4
						c-0.7-1.4-1.2-3.2-0.4-4.5c-0.5-0.6-0.8-1.4-0.7-2.1c0.1-1.1,0.8-1.9,1.8-2.4l0.1-0.4l0,0c0.2,0,0.5,0,0.7-0.2
						c0.2-0.2,0.4-0.4,0.6-0.5c0.2,0,0.5-0.1,0.6-0.3c0.4-0.1,0.8-0.2,1.3-0.2c1,0,1.1-1.6,0.1-1.7c-0.2-0.2-0.4-0.3-0.6-0.3l-0.2,0
						c-0.4,0-0.8,0-1.2,0.2c-0.3,0.1-0.4,0.3-0.6,0.5c0,0.3-0.2,0.6-0.5,0.9c-0.4,0.3-1,0.3-1.4,0.1c-0.6-0.4-0.6-0.9-0.6-1.6
						c0.2-1.4-0.6-2.6-0.4-4c0.1-0.6,0.3-1.1,0.6-1.6c-0.7-1.1-0.8-2.4-0.3-3.6c-1.1-1.2-1.3-3.1-0.6-4.5c0,0,0-0.1,0-0.1
						c0.1-0.2,0.2-0.5,0.3-0.7c-0.6-1.1-0.6-2.4,0-3.5c-1-1.1-1-2.9-0.1-4.1c0-0.1,0-0.2,0-0.3c-0.4-1-0.3-2.2,0.2-3.2
						c-0.2-0.4-0.3-0.9-0.4-1.3c-0.2-1.2-0.1-2.4,0.2-3.6c0.1-0.2,0.1-0.4,0.2-0.6c0-0.8,0-1.6,0.1-2.4C-48,5-48,4.2-48,3.5l0-0.5
						c0-1.2-0.1-2.8,0.6-3.8c-0.5-1.1-0.3-2.4,0.5-3.2C-47.4-5-47.6-6.1-47-7.2c0.1-0.2,0.2-0.3,0.3-0.5c0-1,0.2-2,0.7-2.9
						c0.3-0.6,0.8-1.2,1.4-1.6c0-0.1,0-0.3,0-0.4c0-0.6,0.1-1.1,0.3-1.6c-0.4-0.6-0.5-1.4-0.3-2.1c0.2-0.9,0.9-1.6,1.7-2.1
						c0.1-0.8,0.2-1.7,0.4-2.5c-0.5-1.1-0.1-2.6,1-3.2c-0.1-0.9,0-1.8,0.6-2.5c0.2-0.3,0.5-0.5,0.8-0.6c-0.1-0.9,0-1.8,0.6-2.5
						c0.5-0.6,1.2-0.9,2-1c0.3-1.5,1.8-2.7,3.3-2.6c0.2-0.7,0.7-1.3,1.4-1.6c0.2-0.1,0.4-0.1,0.6-0.2c1.3-1.3,3.1-2.1,4.8-2.6
						c1.6-0.4,3.3-0.5,4.7,0l0.1,0l0.1,0C-22-37.5-21.5-37.6-21-37.6z M-33.4,66.8c-0.4-0.1-0.9,0.2-1,0.6c-0.1,0.5,0.2,0.9,0.6,1
						c0.5,0.2,1.1,0.2,1.7,0.2c0.5,0,0.8-0.4,0.8-0.8c0-0.5-0.4-0.8-0.8-0.8C-32.7,66.9-33,66.9-33.4,66.8z M-37.3,57.8
						c-0.7,0-1.2,0.2-1.7,0.6c-0.3,0.3-0.3,0.9,0,1.2c0.3,0.3,0.8,0.3,1.2,0l0.1-0.1c0,0,0,0,0,0c0,0,0.1,0,0.1-0.1l-0.1,0
						c0,0,0.1,0,0.1,0l0,0l0,0l0,0c0.1,0,0.2,0,0.2,0c0.4,0,0.9-0.4,0.8-0.8C-36.5,58.2-36.8,57.8-37.3,57.8z M-25,52.4
						c0.9-0.6,0.1-2-0.8-1.5l0,0c-0.5,0.3-1,0.2-1.6,0.2c-1.1,0-1.1,1.7,0,1.7l0.2,0C-26.5,52.9-25.7,52.8-25,52.4z M-32.2,46.2
						c-0.7-0.1-1.5-0.2-2.2-0.2l-0.1,0h-0.2c-0.2,0-0.4,0.1-0.5,0.2c-0.2,0.1-0.5,0.2-0.7,0.4c-0.8,0.7,0.4,1.9,1.2,1.2
						c0,0,0.1-0.1,0.2-0.1l0,0h0.9c0.1,0,0.2,0,0.2,0c0.3,0,0.6,0.1,0.8,0.1C-31.6,48.1-31.1,46.4-32.2,46.2z M-33,30
						c-1.3-0.6-2.8-0.6-4,0.2c-0.9,0.6-0.1,2,0.8,1.5l0,0c0.1-0.1,0.2-0.1,0.3-0.2c0.6,0.2,1.2,0.2,1.8,0l0.1,0l0,0
						C-32.9,31.9-32,30.5-33,30z M-18.6,27.4c-1.3-0.2-1.3-2.3,0-2.1c2.8,0.3,5.4,1.6,7.3,3.8c0.9,1-0.6,2.5-1.5,1.5l0,0
						C-14.2,28.8-16.3,27.6-18.6,27.4z M-33.6,16.5c-0.3,0-0.6,0-0.9,0c-0.7,0-1.6,0.5-1.2,1.3c0.2,0.7,1.1,0.7,1.5,0.3
						c0.2,0,0.3,0,0.5,0c0.4,0,0.9,0.1,1.3,0.2c1.1,0.2,1.5-1.4,0.4-1.6l-0.5-0.1c-0.2,0-0.3-0.1-0.5-0.1c-0.1,0-0.2-0.1-0.3-0.1
						l-0.1,0H-33.6z M-41.9,3.4L-41.9,3.4c-1.5-0.2-3.8,0-4,1.8c-0.1,1,1.4,1.1,1.6,0.2c1.1-0.2,2.1-0.2,3.2-0.1
						c0.4-0.4,0.4-1.2-0.3-1.4C-41.5,3.7-41.7,3.4-41.9,3.4z M-9.3,0.3c-0.3-0.3-0.9-0.3-1.2,0C-10.7,0.5-10.9,0.7-11,1l-0.1,0.2
						c0,0,0,0.1,0,0.1c0,0-0.1,0.1-0.1,0.1l0,0c0,0,0,0,0,0c-0.3,0.3-0.3,0.9,0,1.2c0.3,0.3,0.9,0.3,1.2,0C-9.9,2.4-9.7,2.2-9.6,2
						l0.1-0.2c0,0,0-0.1,0-0.1c0,0,0.1-0.1,0.1-0.1l0,0c0,0,0,0,0,0C-9,1.2-9,0.6-9.3,0.3z M-26.7-1.9c-1.2-0.8-2.6-0.9-3.7,0.1
						C-31.1-1-30,0.2-29.2-0.5l0,0c0,0,0.1-0.1,0.1-0.1c0.1,0.1,0.3,0.2,0.5,0.2c0.1,0,0.1,0,0.2,0l0.1,0l0,0l0,0l0,0
						c0.1,0,0.2,0.1,0,0c0,0,0.1,0,0.1,0.1l0,0c0.3,0.3,0.9,0.3,1.2,0C-26.3-0.5-26-1.4-26.7-1.9z M-15-4.6L-15-4.6
						c1.1-0.3,0.6-1.9-0.4-1.6c-1.1,0.3-1.6,1.4-1.9,2.4c-0.1,0.4,0.1,0.9,0.6,1c0.4,0.1,0.9-0.1,1-0.6c0.1-0.3,0.1-0.6,0.3-0.8
						l0.1-0.1c0-0.1,0-0.1,0.2-0.2C-15.2-4.6-15.1-4.6-15-4.6z M-32.7-13.2l-0.2,0c-1-0.2-2.4-0.3-3,0.7c-0.6,0.9,0.9,1.8,1.4,0.9
						c0,0,0,0,0,0l0,0l0.3,0c0.3,0,0.6,0.1,1,0.1C-32.1-11.3-31.6-12.9-32.7-13.2z M3.8-19.7c0.8-0.8-0.4-2-1.2-1.2
						c-0.6,0.6-1.2,1.2-1.6,2c-0.2,0.4-0.1,0.9,0.3,1.2c0.4,0.2,0.9,0.1,1.2-0.3C2.8-18.7,3.3-19.1,3.8-19.7z M-5.9-21.7
						c-0.8,0.5-1.3,1.2-1.6,2.1c-0.1,0.4,0.2,0.9,0.6,1c0.5,0.1,0.9-0.1,1-0.6l0,0c0.1-0.2,0.2-0.5,0.4-0.7c0.1-0.2,0.3-0.3,0.5-0.4
						c0.4-0.1,0.7-0.5,0.6-0.9C-5-21-5.5-21.2-5.9-21.7z M-28.7-25.4c-0.8-0.7-1.8-0.8-2.7-0.4c-0.4,0.2-0.5,0.8-0.3,1.2
						c0.2,0.4,0.7,0.5,1.2,0.3c-0.1,0,0.1,0,0.2,0c0,0,0.2,0,0.2,0l0.1,0c0,0,0,0,0,0c0,0,0.1,0,0.1,0l0.1,0c0,0,0.1,0.1,0.1,0.1
						l0,0C-29.1-23.4-27.9-24.6-28.7-25.4z"/>
				</g>
				<g transform="translate(112.183099, 77.354207)">
					<path class="st1" d="M-0.9,0.5c0.7-1.3,2.9-1.1,3.2,0.4c0.7,3-2.9,5.8-5.7,5.9c-2.7,0.1-5.8-2.2-5.4-5.2
						C-8.7,0.9-7.7,1-7.4,1.4l0.1,0.2c0.9,1.2,2.1,2.4,3.7,2.2c0.7-0.1,1.3-0.6,1.7-1.1C-1.3,2-1.3,1.2-0.9,0.5z M-18.3-21.6
						c0.4-0.1,0.7-0.1,1.1,0.1c0.7,0.1,1.3,0.7,1.6,1.4c0,0.1,0,0.1,0.1,0.2l0,0.1l-0.1-0.2c0,0.2,0.2,0.4,0.3,0.7
						c0.1,0.3,0.1,0.6,0.1,0.9c0.2,0,0.5,0,0.7,0l0.2,0c1.3,0.1,2.6,0.3,3.4,1.4c0.4,0.6,0,1.7-0.7,1.8c-1.2,0.2-2.2-0.5-3.4-0.6
						c-1.1-0.1-2.3-0.1-3.4,0.1c-2.3,0.4-4.3,1.3-6.5,1.9l-0.3,0.1l0,0l0,0c-0.4,0.1-0.8-0.4-0.4-0.7c1.8-1.5,4-2.6,6.3-3.3
						c-0.3-0.5-0.4-1.2-0.2-1.8c0-0.1,0.1-0.2,0.1-0.3l0.1-0.2l0,0c0-0.1,0-0.2,0.1-0.3l0,0l0,0l0,0l0,0
						C-19.2-21-18.8-21.5-18.3-21.6z M4.3-21.6c0.5-0.5,1.2-0.4,1.7,0L6-21.5l0,0c0.5,0.2,0.9,0.7,1.1,1.1C7.4-20,7.6-19.5,7.6-19
						c1.2,0,2.3,0.4,3.1,1.3c0.3,0.3,0.5,0.8,0.3,1.2L11-16.3l0,0c-0.3,0.8-1.6,1.2-2,0.3l0,0c-0.5-1.1-2.3-1-3.2-0.9
						c-0.7,0.1-1.3,0.2-2,0.4c-0.2,0.1-0.5,0.1-0.7,0.2l-0.2,0.1c-0.1,0-0.7,0.4-0.4,0.3c0.1,0,0.2,0.1,0.1,0.2
						c-0.5,0.2-1-0.2-0.9-0.7c0.1-0.9,1.4-1.3,2.1-1.6l0,0c0.3-0.1,0.5-0.2,0.8-0.3c-0.2-0.2-0.3-0.5-0.4-0.8C4.1-19.4,4-19.7,4-20
						c0-0.1,0-0.3,0-0.4l0,0l0,0c0-0.1,0-0.2,0-0.3l0,0h0C3.9-21,4.1-21.3,4.3-21.6z M-3.4-12.4c1.9,0.6,4.9,2.1,3.9,4.5
						C-0.8-5.6-4.4-7.2-6.2-8C-7.7-8.5-8.5-6.3-7-5.6c12.5,4.9,12.4-8.1,4-7.9C-3.9-13.5-3.9-12.6-3.4-12.4z M-19.9-29.3l0.3-0.1
						c1.6-0.5,3.3-1.3,4.8,0c0.6,0.5,0.7,1.6,0.3,2.2c-0.9,1.4-2.3,1.2-3.8,1.3c-1.1,0.1-2.3,0.4-3.4,0.9c-0.9,0.3-1.7,0.8-2.5,1.4
						c-0.8,0.5-1.3,1.4-2,1.8c-0.3,0.2-0.6,0-0.7-0.3c-0.4-1,0.2-2.3,0.8-3.1c0.6-1.1,1.6-1.9,2.6-2.6C-22.4-28.6-21.2-29-19.9-29.3
						L-19.9-29.3z M4-30.4c2.8,0,5.5,1.5,7,3.8c0.5,0.8,0.1,1.9-0.6,2.4c-0.9,0.5-1.8,0.1-2.3-0.6l0,0c-0.9-1.2-2-2.1-3.4-2.7
						c-0.7-0.3-1.4-0.5-2.1-0.7l-0.2,0c-0.3-0.1-0.7-0.1-1-0.1c-0.2,0-0.3,0.1-0.4,0.2C1-28.1,0.8-27.9,0.6-28
						c-0.7-0.4-0.6-1.1,0-1.6C1.4-30.3,3-30.4,4-30.4z"/>
				</g>
				<g transform="translate(104.577451, 109.479380)">
					<path class="st1" d="M5.5-36.3c-2.3-1.1-6.6-0.1-8.1,0.2c-3.6,0.9-7.1,2.7-8.3,5.6c-1.2,3.3,1.2,4.3,1.6,4.1
						c2.5,0.2,5.4-1.4,8-1.8C0.8-28.4,3-28.7,5-29.8c1.4,0.8,4.7,1.2,7.3,1.9c2.2,0.6,3.2,1.9,5.3,1.6c2.5-0.3,1.5-5.5-1.3-7.6
						C13.2-36.3,8.1-37.2,5.5-36.3z M10.1-14c-2.1,0.5-2.2-4-2.4-5.6c-0.2-1.2-1.2-4.5-3.8-4.3s-3.5,2.8-3.4,4.5
						c0.1,1.1,1.1,6.6-2.1,7.3c-2,0-4.4-0.1-6.5-0.5c-2.5-0.6-5.8-2.6-6.6,1.4C-15.1-9.9-4-5.7,0.9-5.3c5,1,10.8-0.5,14.4-4.4
						c0.8-0.9,3.1-4.5,3.2-5.4c0.3-1.9-0.4-3-2.7-2.4C14.2-16.6,11.4-14.3,10.1-14z"/>
				</g>
				<g transform="translate(88.521127, 88.978474)">
					<path class="st1" d="M40.2-22.7c-2.6,2.7-6.8,3.4-10.3,2c-8.8-3.7-4.5-15.1,2.3-18.2c0.8-0.2,2-0.7,3-0.8c0.1,0,0.3,0.1,0.5,0
						C43.2-38.9,44.9-27.4,40.2-22.7 M11.9-22.1c-2.9,3.8-8.2,5-12.6,3.2c-8.6-3.4-5.6-13.5,0.3-17.5C12.2-41,17.3-29.1,11.9-22.1
						 M-6.8-30.5C-6.8-30.5-6.8-30.5-6.8-30.5c0,0,0.1,0,0.1-0.1C-6.7-30.5-6.7-30.5-6.8-30.5C-6.7-30.5-6.7-30.5-6.8-30.5
						 M46.1-34.6c-0.7,0-1.7,0.1-2.3,0.6c-1.4-4.9-6.7-9.3-11.4-6.1c-3.6,1.2-6.3,3.8-7.9,7.2c-2.8-1.6-7.1-0.9-9.5,1.2
						c-1.6-5.2-5.4-7-10-7.3c-5-0.8-10,4.1-11.6,8c-1.3-0.1-3.2-0.6-4.5,0.2c-7.9-2.1-21.8-3.2-23.4-2.1c-1.1,0.4-1.8,3.2-0.2,3.3
						c1.4-0.2-0.2-2,1.2-2.2c7.5-0.5,14.8,1,22.2,1.7c0.7,0.9,2.8,1.2,3.9,0.8C-8.9-22.5-5-18,0.8-16.7c9,2.1,16.9-6,14.5-14.4
						c2.7-1.4,5.9-1.3,8.8-0.6c-5,18.3,24.5,17.5,19.9-1.8C47.1-31.9,47.8-34.3,46.1-34.6"/>
				</g>
			</g>
		</g>
	</g>
</g>
</svg>
