<?xml version="1.0" encoding="utf-8"?>
<!-- Generator: Adobe Illustrator 23.0.3, SVG Export Plug-In . SVG Version: 6.00 Build 0)  -->
<svg version="1.1" id="圖層_1" xmlns="http://www.w3.org/2000/svg" xmlns:xlink="http://www.w3.org/1999/xlink" x="0px" y="0px"
	 viewBox="0 0 154 266" style="enable-background:new 0 0 154 266;" xml:space="preserve">
<style type="text/css">
	.st0{fill-rule:evenodd;clip-rule:evenodd;fill:#FFFFFF;}
	.st1{fill-rule:evenodd;clip-rule:evenodd;}
</style>
<title>peep-4</title>
<desc>Created with Sketch.</desc>
<g id="Introduction">
	<g id="contact-us" transform="translate(-207.000000, -218.000000)">
		<g transform="translate(167.000000, 201.000000)">
			<g transform="translate(31.056338, 135.078170)">
				<path class="st0" d="M12.5,107.6c0.4,5.2-3.8,23-0.4,25.5c0.5,3.8,0.5,7.6-0.9,11.1c3.7,2.8,13.8,0,29.7,0.1
					c23.2-2.2,83.7,0,94.7-0.8c1.5,0.7-1.6-3.3,0-3.3c1,0,7,3,7.9,2.4c27.8-13.2,17.8-66.2,7.7-89.7c1.5-3.4-3.1-8.1-4.8-11.1
					c-12.1-20.6-24.4-21.7-35.1-25.4c-0.5-0.2-1,1.1-1.5,1.1c-6.3-0.8-12-1.6-16.5-6.3c-1.3-1.4-1.9-4.4-3-6.6
					c-1.9-4.5-1.6-9.9-5.9-13.1c-7.1-4.4-19.6-0.9-23.8,0.7c-4.2,1.7-1.1,16-8.9,27.6c-4.5-3.1-10.4,1.7-15.4,3.5
					c-1.7,1-3.2,1.9-5,2.9C30.2,27.1,11.2,46,13.8,54.1c0.4,0.9,2.8,1.6,2.4,3.8c-0.7,4-1.4,10.9-1.8,12.8c-1.1,4.7,0.6,9.7-0.8,14
					C11.9,89.6,9.4,103.8,12.5,107.6z"/>
				<path class="st1" d="M18.6,58.7c-0.6-0.9-1.2-1.8-1.9-2.7c0,0,0-0.1,0-0.1c0-0.1-0.1-0.1-0.2-0.1c-0.4-0.5-0.7-1-1.1-1.5
					c4.6,0.2,9.2,0.3,13.8,0.3c8.1,0.1,16.3,0.1,24.4,0c4.1,0,8.1-0.2,12.2-0.3c2-0.1,4-0.2,6.1-0.4c-0.2,0.5-0.4,1-0.5,1.5
					c-0.4,2.7,0,5.4,1.1,7.9c0.3,0.6,0.9,1.5,0.7,2.2c-0.2,0.6-0.8,1.1-1.4,1.4c-1.9,0-3.7,0-5.6,0.1c-1,0-2.1,0-3.1,0
					c-1,0-2.1-0.2-3.1,0c-0.1,0-0.2,0.1-0.3,0.2c-2.9-0.5-5.7-1.1-8.6-1.7c-1.6-0.4-3.1-0.8-4.7-1.2c-1.2-0.3-2.5-0.8-3.7-0.9
					c-1.8-0.3-3.8,0-4.5,1.9c-0.5-0.3-1.1-0.5-1.6-0.7c-1.1-0.4-3.3-1.6-4.4-0.7c-1,0.8-0.4,2.1,0.2,2.9c0.6,0.8,1.2,1.6,1.9,2.3
					c-0.8-0.1-1.7-0.2-2.5-0.2c-1.8-0.1-3.6-0.3-5.4-0.3c-0.2,0-0.4,0-0.5,0.1c-0.1-2.5-0.2-5-0.5-7.5c0-0.2-0.4-0.1-0.4,0.1
					c-0.3,2.7-0.3,5.5-0.5,8.3c-0.5-1.3-1.2-2.5-1.8-3.7C21.5,63.2,20.1,60.9,18.6,58.7 M27.7,143c-1.3,0-2.6,0-3.8-0.1
					c0.1-0.6,0.1-1.2,0.1-1.9c0.1-1.5,0.3-3.1,0.4-4.6c0.2-2.3,0.4-4.6,0.5-7c1.3,0.2,2.7,0.4,4,0.4c1.7,0.1,3.3,0.1,5,0.1
					c3.3,0.1,6.7,0,10-0.1c11.8-0.2,23.7-0.4,35.5-0.3c5.9,0,11.8,0.1,17.7,0.2c3,0.1,6,0.1,9,0.2c1.5,0,3.1,0.1,4.6,0.1
					c1.5,0,3,0.2,4.5-0.3c1.2-0.4,1.5-1.6,1.1-2.5c0.6,0.6,1.2,1.1,1.8,1.6c4,3.5,8.3,6.7,12.8,9.5c1.2,0.8,2.5,1.6,3.8,2.3
					c0,1,0.1,1.9,0,2.9c-3.9-0.3-7.8-0.1-11.7-0.2c-4.1-0.1-8.2-0.3-12.3-0.6c-7.4-0.5-14.7-1.1-22.1-1.3c-7.3-0.2-14.7,0-22,0.2
					c-7.4,0.2-14.7,0.4-22.1,0.7c-3.7,0.1-7.4,0.2-11.2,0.4C31.4,142.9,29.5,142.9,27.7,143 M26.4,77.4c-0.1-1.9-0.1-3.8-0.2-5.7
					c0.1,0,0.2,0,0.3,0c1.8,0,3.6-0.1,5.4-0.3c1.4-0.1,2.9-0.2,4.2-0.7c1.7,1.5,3.5,2.8,5.5,4c0,0.1,0.1,0.2,0.2,0.3
					c2.9,2.8,5.8,5.6,8.7,8.4c-0.7-0.2-1.5-0.2-2.2-0.3C47.4,83,46.5,83,45.5,83c-2-0.1-4.1-0.2-6.1-0.3c-2-0.1-4.1-0.1-6.1-0.1
					c-2.1,0-4.3-0.3-6.4,0c-0.2,0-0.4,0.1-0.5,0.2C26.4,81,26.4,79.2,26.4,77.4 M101.6,111.9c4.5,4.9,8.8,9.9,13.7,14.5c0,0,0,0,0,0
					c-1.6-0.6-3.4-0.4-5.1-0.4c-1.7,0-3.4,0-5-0.1c-3.4,0-6.7-0.1-10.1-0.1c-11.9-0.1-23.8-0.2-35.7,0.2c-5.8,0.2-11.7,0.7-17.5,1.1
					c-3,0.2-6,0.4-8.9,0.7c-2.7,0.2-5.3,0.5-7.9,0.9c0-0.5,0.1-0.9,0.1-1.4c0.3-3.7,0.5-7.4,0.7-11.1c0.3,0.2,0.7,0.3,1.1,0.3
					c5.6-0.3,11.2-0.5,16.8-0.8c9.8-0.4,19.6-0.9,29.4-1.3c4.9-0.2,9.8-0.4,14.7-0.7C92.4,113.3,97.2,113.4,101.6,111.9 M86,97.3
					c2.9,2.5,5.9,5,8.7,7.6c1.9,1.8,3.7,3.7,5.5,5.6c-4.7-1-9.8-0.7-14.6-0.8c-9.8-0.1-19.6,0.3-29.4,0.6
					c-9.8,0.3-19.6,0.8-29.4,1.4c-0.3,0-0.6,0.1-0.9,0.2c0.2-4.6,0.3-9.2,0.4-13.8c0.3,0.3,0.7,0.5,1.2,0.5
					c4.3,0.4,8.7,0.2,13.1,0.2c7.7,0,15.3,0.1,23-0.1C71.1,98.6,78.6,98.7,86,97.3 M80.4,91.9c1.4,1.5,2.8,2.9,4.3,4.2
					c-3.7-0.6-7.4-0.9-11.1-1c-7.7-0.1-15.3-0.2-23-0.2c-3.8,0-7.6,0-11.4,0c-3.9,0-7.8-0.2-11.6,0.2c-0.5,0-0.9,0.2-1.2,0.5
					c0-0.4,0-0.9,0-1.3c0-2.7,0-5.4,0.1-8.1c0.2,0.1,0.3,0.1,0.5,0.2c2.1,0.3,4.3,0,6.4,0c2.1-0.1,4.2-0.1,6.3-0.2
					c2.1-0.1,4.2-0.3,6.3-0.4c1-0.1,1.9-0.1,2.8-0.3c0.8-0.1,1.7-0.1,2.5-0.5c0.2-0.1,0.3-0.3,0.3-0.5c0,0,0,0,0-0.1
					c2.3,2.3,4.7,4.6,7.6,6.1c6.5,3.4,14.2,1.2,21.2,1.3C80.3,91.9,80.3,91.9,80.4,91.9C80.4,91.9,80.4,91.9,80.4,91.9 M140.5,140.8
					c-1.5-0.4-2.8-1.2-4.1-1.9c-2.5-1.4-4.9-2.9-7.2-4.6c-4.3-3-8.4-6.2-12.3-9.7c-3.9-3.6-7.5-7.6-11.2-11.5
					c-3.8-4.1-7.8-8-12-11.7c-4.1-3.5-8.4-7.1-13-9.9c-0.1-0.1-0.2,0-0.3,0c0,0,0,0-0.1-0.1c-1.7-0.6-3.3-0.9-5.2-0.9
					c-1.7-0.1-3.4,0-5.2,0c-3.4,0-7-0.2-10.1-1.8c-3.1-1.7-5.6-4.4-8.1-6.8c-1.5-1.4-3-2.8-4.4-4.2c1,0.5,2,0.9,3,1.3
					c1.4,0.6,2.9,1.2,4.3,1.8c1.7,0.7,3.4,1.5,5.2,2.1c1.4,0.4,2.3-1.7,1-2.3c-3.2-1.6-6.8-2.6-10.1-4c-3-1.2-6-2.5-8.7-4.1
					c-2.8-1.6-5.3-3.5-7.4-5.9c-0.3-0.3-1.5-1.5-1.2-1.8c0.2-0.2,2.2,0.4,2.6,0.5c0.9,0.2,1.7,0.5,2.5,0.7c0.1,0.1,0.2,0.2,0.3,0.3
					C47,70.8,55.6,75,64.7,77.2c1.1,0.3,1.5-1.3,0.5-1.7c-8.5-2.7-16.9-5.7-24.5-10.3c0.6-0.3,1.5-0.1,2,0c1.4,0.3,2.8,0.8,4.2,1.2
					c3,0.8,6,1.5,9.1,2.1c2.6,0.5,5.3,1,7.9,1.3c2.1,0.3,4.3,0.4,6.4-0.1c1.9-0.5,4.4-1.6,4.9-3.7c0.4-1.2-0.3-2.3-0.8-3.4
					c-0.6-1.2-0.9-2.4-1.1-3.7c-0.1-1.2-0.2-2.6,0.2-3.7c0.3-1,0.9-1.6,1.6-0.5c0.6,1,1,2,1.6,2.9c0.6,0.9,1.4,1.8,2.1,2.6
					c1.7,1.8,3.6,3.5,5.1,5.5c1.6,2.2,2.4,4.5,2.5,7.2c0,0.2,0.1,0.3,0.2,0.3c-0.4,0.4-0.5,1,0,1.5c4.1,4.1,8.4,8,13,11.5
					c4,3.1,8.2,5.9,12.6,8.5c4.2,2.4,8.6,4.5,13,6.6c8.6,4,17.4,8.1,24.4,14.6c0.1,0.1,0.2,0,0.2-0.2c-3.3-4.2-7.5-7.4-12-10.2
					c-2-1.3-4.1-2.4-6.2-3.5c0.3-0.3,0.4-0.7,0.3-1.2c-1.1-6.1-2-12.2-2.8-18.3c-0.4-3.1-0.8-6.2-1.2-9.3c-0.2-1.4-0.4-2.9-0.7-4.3
					c-0.1-0.7-0.2-1.8-0.5-2.6c2.8-4.9,5.8-9.5,9.3-14c2.9-3.7,5.9-7.5,9.8-10.1c3.4,5.8,5.8,12.1,7.8,18.4
					c2.8,9.2,4.8,18.7,5.7,28.3c1,9.7,1,19.7-0.9,29.3c-0.9,4.7-2.4,9.3-4.4,13.6c-1.9,4.1-4.8,7.7-9,9.5c-0.1,0-0.2-0.1-0.2-0.1
					C143.3,141,141.9,141.2,140.5,140.8 M140.1,34.4c1.3,1.4,2.4,2.9,3.5,4.5c-0.2,0-0.4-0.1-0.7-0.1c-1.1-0.1-2.2-0.2-3.3-0.4
					c-2-0.2-4.1-0.2-6.2-0.3c-7.4-0.4-14.8-0.4-22.2-0.4c-3.7,0-7.4,0-11.1,0c-1.9,0-3.7,0-5.6,0c-0.4,0-0.8,0-1.2,0
					c2.1-1.7,4-3.5,5.9-5.4c1.1-1.2,2.2-2.4,3.3-3.6c0.3,0.4,0.8,0.7,1.5,0.7c5.4,0,10.7,0,16.1,0c2.6,0,5.2,0.1,7.9,0.1
					c1.4,0,2.7,0,4.1-0.1c0.9,0,1.8-0.1,2.6-0.3C136.6,30.7,138.4,32.5,140.1,34.4 M110.5,17.6c0.6-0.7,1.3-1,2.2-0.3
					c0.2,0.1,0.4-0.1,0.2-0.2c0,0,0,0,0,0c6.5,2.3,12.8,5.4,18.3,9.4c-1.1-0.1-2.1-0.3-3.2-0.4c-2.6-0.2-5.2-0.3-7.9-0.4
					c-5-0.2-9.9-0.2-14.9-0.2c0.2-0.3,0.4-0.5,0.6-0.8c1-1.4,2-2.8,2.9-4.2c0.3-0.5,0.7-1.5,1.3-2.3c0.2,0,0.4-0.1,0.5-0.2
					c0.1,0,0.1-0.2,0-0.3C110.6,17.6,110.6,17.6,110.5,17.6 M85.4,64.9c-1.7-2.5-4-4.5-5.9-6.8c-0.9-1.1-1.7-2.2-2.3-3.5
					c0-0.1-0.1-0.1-0.1-0.2c0.4,0,0.7,0,1.1,0c1.1,0,2.2-0.1,3.4-0.1c2.2-0.1,4.4-0.1,6.5-0.2c7.9-0.2,15.9-0.2,23.8-0.5
					c7-0.2,14.1-0.1,21.1-1c-3.1,4.1-5.9,8.3-8.4,12.8c-1.1-0.3-2.3-0.4-3.4-0.5c-1.6-0.1-3.2-0.2-4.8-0.3c-3.2-0.2-6.5-0.1-9.7,0
					c-6.5,0-13,0.2-19.5,0.4c-0.6,0-1,0.2-1.4,0.6C85.7,65.3,85.6,65.1,85.4,64.9 M94,78.6c-2-1.7-3.9-3.5-5.8-5.3
					c-0.3-0.3-0.7-0.4-1-0.3c0.5-1.2,0.5-2.6,0.2-3.9c6.5-0.2,12.9-0.3,19.4-0.5c3.3-0.1,6.6-0.1,9.9-0.3c1.5-0.1,3.1-0.2,4.6-0.3
					c1.3-0.1,2.7-0.2,3.9-0.7c0.1,0,0.2,0,0.4,0.1c0.1,0,0.2,0,0.2,0c0,0.8-0.1,1.5-0.1,2.3c0,1.5,0,3,0.1,4.5
					c0.1,1.9,0.3,3.8,0.4,5.6c-0.9-0.3-1.8-0.5-2.7-0.6c-1.3-0.2-2.7-0.4-4-0.5c-2.6-0.2-5.2-0.3-7.8-0.5c-5.3-0.4-10.7-0.5-16-0.8
					C94.8,77.4,94.2,77.9,94,78.6 M112.8,92.3c-0.1,0-0.2-0.1-0.2-0.1c-5.3-3.2-10.4-6.8-15.2-10.7c4.8,0.2,9.6,0.4,14.4,0.5
					c2.7,0,5.3,0.2,8,0.1c1.3,0,2.7-0.1,4-0.2c0.9,0,1.8-0.1,2.7-0.4c0.1,0.6,0.1,1.2,0.2,1.8c0.3,2.9,0.6,5.7,1,8.6
					c-1.8-0.4-4.3-0.5-4.8-0.5c-1.6-0.1-3.2-0.2-4.8-0.2c-1.4-0.1-3.4-0.6-4.6,0.3C113.2,91.6,112.9,91.9,112.8,92.3 M127.9,93.9
					c0.3,2.3,0.7,4.5,1,6.8c-4.1-2.1-8.3-4.1-12.3-6.3c0.3,0,0.7,0,1,0c1.5,0,3.1,0,4.6-0.1c1.6,0,3.1-0.2,4.6-0.3
					C127.1,94,127.5,94,127.9,93.9 M83.8,43.6c1.6-0.7,3.1-1.4,4.5-2.3c0.1,0.1,0.3,0.3,0.5,0.3c0.5,0.2,1.1,0.5,1.6,0.7
					c0.6,0.2,1.1,0.2,1.8,0.2c1.1,0,2.2,0,3.3-0.1c2.1,0,4.1-0.1,6.2-0.1c7.4-0.1,14.8-0.2,22.2-0.4c3.7-0.1,7.4-0.2,11.1-0.4
					c3.2-0.2,6.7-0.1,9.9-1c0.2,0.3,0.4,0.6,0.5,0.8c-4.6,1.1-7.8,5.6-10.6,9.1c-0.3,0.3-0.5,0.7-0.8,1c-3.9-0.6-7.8-0.8-11.8-1
					c-7.9-0.3-15.9-0.5-23.8-0.4c-4,0-8,0.1-12,0.1c-2,0-4.1,0.1-6.1,0.1c-1.8,0-3.7-0.2-5.3,0.8c-0.1,0-0.3,0-0.4-0.1
					c-1.2-0.2-2.3-0.2-3.5-0.3c-2.2-0.2-4.5-0.2-6.7-0.2c-8.1-0.1-16.3,0-24.4-0.1c-8.1,0-16.3-0.3-24.4-0.1c-0.1,0-0.2,0-0.4,0
					c0.5-1.7,1.2-3.4,2-5c0.5-1.1,1.1-2.2,1.7-3.3c0.3,0.3,0.7,0.4,1.3,0.4c6.2-0.1,12.4-0.1,18.6-0.2c3.1,0,6.1-0.2,9.2-0.3
					c1.6,0,3.1-0.2,4.7-0.4c0.7-0.1,1.6-0.1,2.4-0.4C62.7,47.8,74.6,47.5,83.8,43.6 M47.7,30.5c0.9,2.9,2.3,5.6,4.1,7.8
					c0.2,0.2,0.3,0.4,0.5,0.6c0,0-0.1,0-0.1,0c-1.5-0.1-3-0.3-4.5-0.3c-3.1-0.1-6.1-0.2-9.2-0.2c-5.8,0-11.6,0-17.4-0.1
					c2.4-3.3,5.2-6.2,8.4-8.8c0,0,0.1,0,0.1-0.1c0.2,0.8,0.8,1.6,1.9,1.6c2.6,0.1,5.2,0.1,7.7,0.1c1.6,0,3.2,0,4.8-0.2
					C45.4,30.9,46.6,30.9,47.7,30.5 M11.9,146.9c0.6-1.6,0.3-3.4,0.3-5c0-1.7,0-3.4,0-5.2c0-3.3,0.1-6.6,0.1-9.9
					c0.2-11.9,0.5-23.7,1-35.6c0.5-10.8,1.6-21.4,2.9-32.1c1,1.4,2,2.8,2.9,4.3c1.1,1.7,2.1,3.4,3.2,5.1c0.5,0.9,1,1.7,1.5,2.6
					c0.2,0.3,0.3,0.5,0.5,0.8c-0.1,2.7-0.2,5.3-0.3,8c-0.3,11-0.8,21.9-1.4,32.9c-0.3,5.5-0.6,11-1,16.5c-0.2,2.7-0.4,5.4-0.6,8.1
					c-0.1,1.4-0.2,2.8-0.3,4.2c-0.1,0.7-0.2,1.4-0.1,2.1c-0.4,0.9,0.2,2.5,1.7,2.2c4.2-0.6,8.4-0.6,12.6-0.7
					c4.1-0.1,8.3-0.3,12.4-0.4c14.7-0.5,29.6-1.6,44.3-1.1c7.3,0.2,14.6,0.8,21.9,1.1c3.7,0.2,7.3,0.3,11,0.3c3.3,0,6.6,0,9.9-0.6
					c0.4,1.2,2.4,1.1,2.3-0.3c0-0.7-0.1-1.4-0.3-2.1c0.3,0.2,0.7,0.3,1,0.5c2.2,1,5.3,2.2,7.4,0.5c0,0,0,0,0.1-0.1
					c5.3-0.5,8.7-5.7,10.8-10.2c2.3-5,3.9-10.4,4.9-15.8c1.8-10.1,1.7-20.5,0.4-30.7c-1.2-10-3.5-20-6.8-29.5
					c-3.3-9.7-8.1-19-15.7-26.1c-0.9-0.9-1.9-1.7-2.9-2.5c0-0.2-0.1-0.4-0.3-0.5c-0.3-0.2-0.6-0.4-1-0.5
					c-6.6-5.1-14.5-8.9-22.6-10.7c-0.1,0-0.3-0.1-0.4-0.1c-0.1,0-0.3-0.1-0.4-0.1c-0.1,0-0.1,0.1-0.1,0.1c-0.5,0.1-0.9,0.4-1.4,0.8
					c-0.8-0.4-1.8-0.6-2.7-0.8c-1.3-0.4-2.6-0.8-3.9-1.2c-2.3-0.8-4.8-1.5-6.9-2.8c-2.3-1.4-3.5-2.3-4.3-4.7
					c-0.9-2.6-1.5-3.9-1.9-6.5c-0.3-1.7-3.3-1.3-3.1,0.4c0.7,5.5,2.6,9.4,7.4,12.6c2.3,1.5,5.1,2.4,7.7,3.1c1.4,0.4,2.8,0.6,4.3,0.8
					c0.7,0.1,1.5,0.2,2.3,0.2c-0.8,0.9-1.4,2-1.8,2.5c-2.3,2.9-4.9,5.6-7.4,8.3c-4.3,4.7-9.1,9.1-14.9,11.9
					c-5.2,2.5-11.1,3.8-16.9,3.3c-5.6-0.5-11-3.1-14.4-7.6c-1.7-2.1-2.9-4.7-3.5-7.3c-0.5-2-0.5-4.1-0.3-6.1c1.4-0.6,2.6-2,3.4-3.1
					c1.3-1.6,2.2-3.4,2.9-5.4c0.7-2,1.2-4.1,1.5-6.2c0.1-1,0.2-2.1,0.2-3.1c0-0.9,0.2-2-0.1-2.9c0-0.2-0.3-0.2-0.3,0
					c-0.4,0.7-0.6,1.6-0.8,2.4c-0.3,0.9-0.5,1.8-0.8,2.8c-0.5,1.8-1,3.7-1.7,5.5c-0.7,1.7-1.6,3.5-2.8,5c-0.6,0.7-1.2,1.4-1.9,2
					c-0.1,0-0.1,0.1-0.2,0.1c-0.6-0.3-1.4-0.2-1.7,0.7c-0.1,0.4-0.2,0.8-0.3,1.3c0,0,0,0,0,0c-0.3,1.8-0.3,3.6-0.1,5.4
					c-1.1-0.2-2.2-0.2-3.3-0.2c-1.5-0.1-3.1-0.1-4.6-0.1c-2.1-0.1-4.2-0.1-6.2-0.2c2-1.4,4.1-2.7,6.2-3.8c1.6-0.9,3.4-1.5,5-2.4
					c0.9-0.5,1.7-1.2,2.7-1.4c1-0.3,2.1-0.2,3.1,0c0.1,0,0.2-0.2,0.1-0.2c-1.6-0.8-3.2-0.8-4.9-0.1c-1,0.4-1.9,1-3,1.4
					c-1,0.4-1.9,0.8-2.9,1.2C32.9,24.7,27,29,22.2,34.4c-1.2,1.3-2.2,2.7-3.2,4.1c-0.6,0.3-0.9,0.9-1,1.5c-0.5,0.8-1,1.7-1.5,2.5
					C15.7,44,15,45.5,14.4,47c-0.2,0.4-1.8,4.6-1.7,4.6c-1-0.6-1.9,1-0.9,1.5c0,0,0.1,0,0.1,0.1c0,0.2,0,0.4,0.1,0.5
					c1.2,1.6,2.5,3.1,3.7,4.7c0,0,0,0,0.1,0.1c-1.2,5.6-2.1,11.4-2.8,17.1c-1.5,11.8-2.4,23.6-2.8,35.5c-0.2,6-0.3,12-0.4,18
					c0,3-0.1,5.9-0.1,8.9c0,1.5,0,3-0.1,4.6c0,1.5-0.2,3,0.3,4.4C10.4,147.8,11.6,147.8,11.9,146.9z"/>
			</g>
			<g transform="translate(78.591549, 38.050189)">
				<path class="st0" d="M-8.9,62.3C-10.6,70-10,78-7.9,85.5c1.8,6.8,4.9,14.2,11.9,17.4c17.3,7.6,37.5,0.5,48.2-14.6
					c0.5-0.6,0.4-1.6,0-2.4c9.3-6.7,14.9-11.2,12.4-23.6c-1.9-13.2-2.1-19.9,3.7-32.2c1.8-4.7,0.3-10.1-3.1-13.6
					c0.4-0.5,0.6-1.2,0.4-1.9l0,0c-0.6-1.6-1.5-2.8-2.8-3.9c-8-6.4-10.4-2.4-20.5,1c-4.5,1.5-17.3,1.6-21.1,2.8
					c-9.5,3.9-21.8,7.3-26.1,17.6c-2.5,6.2-1.7,13-2.2,19.5C-7.3,55.2-8.2,58.7-8.9,62.3z"/>
				<path class="st1" d="M56.9-18l0,0.2c0,0.4,0,0.8,0,1.2c1.5,0,3,0.2,4.5,0.5c0.6,0.1,1.2,0.3,1.8,0.5c0.7,0.1,1.5,0.2,2.2,0.5
					c0.6,0.3,1.2,0.6,1.7,1.1c0.9,0.4,1.7,0.8,2.6,1.2l2.1,0.1l0.1,0c0.4,0,0.7,0.1,1,0.2c0.6-0.5,1.3-1,2-1.4
					c1.3-0.7,2.6-0.2,3.5,0.9c0.5,0.7,0.9,1.5,1.2,2.3c0.9,0.3,1.6,1.2,1.7,2.1c2.5,0.3,4.8,1.6,6.1,4c0,0.1,0.1,0.1,0.1,0.2
					c0.8,0.7,1.5,1.6,2.1,2.6c1.3,0.4,2.5,0.9,3.6,1.9c1.7,1.5,2.5,4.2,1.8,6.4c-0.1,0.3-0.2,0.5-0.3,0.8c1.3,1.5,2.3,3.2,3,5
					c0.2,0.6,0.1,1.4-0.3,1.9c0.9,2.2,0.8,4.8-0.9,6.6c0.2,0.3,0.3,0.7,0.5,1c0.1,0.1,0.1,0.2,0.2,0.3c1.4,2.7,1.5,5.5,0.3,8.3
					c-0.3,0.7-1.4,1.4-2.2,1.3c-1.4-0.2-2.8-0.5-4.2-0.9c0.9,0.8,1.6,1.8,2.3,2.9c0.9,1.6-0.2,3.9-2.2,3.8c-2.7-0.1-5.4-0.7-7.9-1.8
					c-0.4,0.3-0.8,0.5-1.3,0.6c-0.2,2-2.6,3.1-4.2,1.6c-0.6-0.6-1.2-1.2-1.9-1.8c-0.5,0.7-1.4,1.2-2.1,1.1c-0.4-0.1-0.8-0.1-1.3-0.1
					c0.3,0.3,0.6,0.6,0.8,1c0.5,0.8-0.3,1.8-1.2,1.6c-1.2-0.3-2.3-0.7-3.3-1.3c-0.1,0.1-0.2,0.1-0.3,0.1c0.2,0.4,0.3,0.8,0.4,1.3
					l0,0c0.2,0,0.4-0.1,0.6-0.1c1.6,0,3,1.4,3.1,3c0,0.4,0,0.7-0.2,1.1c0.5,2.1,0.6,4.4-0.1,6.4c0.1,0.2,0.1,0.5,0,0.7
					c0.5,0.5,0.7,1.1,0.8,1.9c0.1,1.2-0.5,2.2-1.3,3.1c0,0.1-0.1,0.2-0.1,0.3c0,0.1,0,0.1,0,0.2c0.8,1,1,2.5,0.1,3.7
					c0,0.1-0.1,0.1-0.1,0.2c0,0.4-0.1,0.8-0.3,1.1c0.1,0.2,0.2,0.4,0.2,0.6c0.1,0.6,0.1,1.1,0.1,1.7c-0.1,0.7-0.4,1.4-0.7,2l0,0.2
					c0.1,0.3,0.1,0.7,0,1.1c0.1,0,0.1,0.1,0.2,0.1c1.8-0.7,4-0.4,5.3,1.1c1.3,1.4,0.4,3.7-1.6,3.8c-0.9,0-1.7-0.1-2.6-0.4l-0.3,0.2
					c-0.7,0.5-1.5,0.8-2.3,0.8c0,0.3-0.1,0.7-0.1,1c-0.1,1.2-0.3,2.4-0.9,3.3c1.1,1.4,2.2,3,3.5,4.3c1.2,1.2-0.4,3.3-1.8,2.4
					l-0.2-0.1c-1.6-1-3.5-1.6-5-2.9c-0.5,0.4-1.1,0.7-1.6,1.1c0.1,0.1,0.2,0.3,0.2,0.4l0.1,0.2c0.5,0.7,1,1.4,1.6,2.1
					c1.2,1.3,2.7,2.1,4,3.2c0.5,0.4,0,1.1-0.6,1c-1.8-0.3-3.3-1.8-4.4-3.2l-0.1-0.2c-0.6-0.8-1.1-1.6-1.5-2.4
					c-0.1-0.1-0.2-0.2-0.3-0.2c-0.3,0.3-0.6,0.5-0.9,0.8c-0.5,0.9-1.2,1.7-1.7,2.5c-0.2,0.3-0.6,0.6-1,0.6c-0.7,0.9-1.3,2-1.8,3
					c-0.7,1.5-3.2,0.4-2.7-1.1l0.2-0.5c-0.1-0.1-0.2-0.2-0.3-0.4c-0.2,0.4-0.5,0.8-0.7,1.2c-1.8,2.6-4.3,5.7-7.7,5.7
					c-1.1,0-1.9-1.3-1.3-2.2c0.7-1.2,1.7-2,2.7-2.8l0.5-0.4c1.1-0.9,2.1-1.8,3.1-2.8c0.9-1,1.8-2.1,2.6-3.2c0.2-0.2,0.6-1,1.1-1.6
					c-0.6-0.4-0.9-0.9-1.3-1.6c-0.4-0.8,0.4-1.6,1.2-1.2c0.4,0.2,0.8,0.2,1.2,0.3c0.3,0.1,0.5,0.2,0.8,0.3c0.6,0.2,1.3,0.2,2,0.1
					c1.4-0.2,2.6-1.1,3.6-2.2c2-2.4,3.1-5.9,2.5-9c-0.5-2.8-2.7-5.3-5.6-5.9c-2.7-0.5-5.8,1.5-6.4,4.2c0,0.2-0.3,0.1-0.4,0
					c-0.1-0.8,0-1.5,0.3-2.2c-0.9,0.6-2,1-3.2,1.2c0,0-0.1,0-0.1,0c-0.7,0.3-1.4,0.4-2.1,0.4c-0.3,0-0.5-0.2-0.5-0.5
					c0.1-5.6,1.2-11.1,2.9-16.5l-0.6,0.5c-1,0.9-2,2-3.4,2.4c-2.5,0.8-4-1.5-3.8-3.7c0.1-1.2,0.5-2.3,0.8-3.4l0.1-0.3
					c0.5-1.6,0.9-3.2,1.4-4.7c0,0,0-0.1,0-0.1c-1.7,0.9-3.9,1.5-5.4,0.1c-0.9-0.9-1.1-2.2-1.3-3.4l0-0.3c-0.1-0.7-0.1-1.3-0.1-2
					c-1.2,1.3-2.5,2.4-4.1,3c-2.7,1.2-5.8,0.6-7.9-1.4c0,0-0.1-0.1-0.1-0.1c-0.6,0.2-1.3,0.3-2,0.4c-2.5,0.4-5.2,0.8-7.8,0.8
					c-2.3,0-4.7-0.4-6.7-1.8c-1.2-0.9-2.3-2.1-2.9-3.6l0,0l0,0.1c0.2,0.5,0.1,1.1-0.4,1.6c-0.4,0.5-1.1,0.7-1.7,0.7
					c-0.1,0.2-0.3,0.4-0.5,0.6c-0.5,0.5-1.1,0.8-1.7,1.1c-1.4,0.6-2.7,0.7-4.2,0.4c-0.2,0-0.4-0.1-0.5-0.2C-4,36.8-4.6,38.3-5,39.8
					c-0.2,0.6-0.3,1.1-0.4,1.7c-0.1,1.5-0.2,3-0.2,4.4l-0.1,1.3c-0.2,3.7-0.1,7.4-0.2,11.1c-0.1,3.8-0.6,7.6-0.7,11.3
					c-1.1,26.7,9.4,32.9,21.8,34.5c5.3,0.7,11.1-0.9,14.3-2c1.9-0.6,2.9,1.5,0.2,2.6c-2.7,1.1-8,3-14.5,2.6
					c-12.3-0.7-22.4-10-24.7-22.2c-1.3-7-0.5-14.4-0.1-21.5l0-0.6c0-0.7,0.1-1.3,0.1-2c-0.5,0.7-1.2,1.2-2,1.6
					c-1.9,0.9-4.3,0.9-5.5-1.1c-0.4-0.6,0.3-1.6,1-1.3c1.2,0.4,2.5,0.8,3.8,0.5c0.9-0.2,2.2-1,2.8-1.9c0.1-2.3,0.3-4.6,0.5-6.9
					c0.1-1.6,0.3-3.2,0.5-4.8c-0.6,0-1.1-0.3-1.2-1c-0.1-1-0.2-1.9-0.3-2.9c-0.1-0.8-0.3-1.4-0.2-2.1c0.1-0.6,0.2-1.1,0.4-1.6
					c0.6-2.1,1.4-4.2,2.4-6.2c0.8-1.5,1.6-2.9,2.5-4.3c0.5-1.2,1.4-2.4,2.2-3.5l0.2-0.3l-0.1-0.5l0-0.1c-0.2-1.1,0.2-2.1,1.2-2.8
					c2.6-1.7,5.1-3.3,7.7-5c1.1-0.7,2.4-1.2,3.7-1.3c1.2-1.5,3-2.5,5.1-2.9c1.7-0.3,3.3-0.3,5-0.7c1.6-0.4,3.1-0.9,4.7-1.2
					c2.5-0.4,5.2-0.4,7.5,0.7c1.9,0,3.8,0.1,5.6,0.4c0.6-0.8,1.3-1.6,2.1-2.2c-0.1-0.1-0.2-0.3-0.3-0.4c-0.6,0.1-1.2,0.1-1.8-0.3
					c-2-1.3-3.3-3.3-3.1-5.7c0.1-1,0.6-1.7,1.3-2c-0.2-0.8-0.6-1.6-1-2.3c-0.3-0.5-0.7-1-1-1.6c-1.5-2.9,2.6-5.3,4.4-2.6
					C39-4.5,39.2-4,39.5-3.5C39.9-3,40.3-2.5,40.8-2l-0.1-2.3l0-0.1c0-0.8,0.5-1.6,1.2-2.1L41.5-8c-0.6-2.5-1.5-5.2,0-7.5
					c2.1-3.2,6.7-3.6,10-2c0.2-0.4,0.3-0.7,0.5-1.1l0-0.1c0.5-1.1,1.4-1.9,2.7-1.8C55.9-20.3,56.9-19.3,56.9-18z M56.1,82.8
					c0.2-0.1,0.3-0.2,0.5-0.3c0.1-0.2,0.1-0.3,0.2-0.5c-0.2,0-0.4-0.1-0.6-0.1C56.2,82.2,56.2,82.5,56.1,82.8z M66.5,79
					c0,0-0.1,0-0.1,0l0,0c0.3,0,0.6,0,0.9,0c0,0,0-0.1-0.1-0.1L67,78.7C66.9,78.8,66.7,78.9,66.5,79z M61.2,66.9
					c0.2,0,0.3,0.4,0.1,0.5c-1.5,0.8-2.9,1.9-4.1,3c-1.2,1.1-2.2,2.9-4,3c-0.6,0-1.1-0.5-1.1-1.1c-0.2-2,2.3-3.4,3.8-4.1l0.1-0.1
					C57.7,67.3,59.3,67,61.2,66.9L61.2,66.9z M69.7,40.9C70,41.3,70.1,40.8,69.7,40.9C69.7,40.8,69.7,40.9,69.7,40.9z M42.8,13.2
					c3.3,1.1,6.3,2.7,9.1,4.8c3.6,2.7,6.6,6,9.4,9.6c1,1.3,1.9,2.7,2.8,4.1l0,0c0.2,0.8,0.6,1.6,1.1,2.3c0.1-0.1,0.3-0.2,0.4-0.3
					c0.6-0.1,1.1-0.4,1.4-0.8c-0.1-0.4-0.2-0.7-0.4-1l-0.1-0.3c-0.2-1-0.4-1.9-0.6-2.9c-0.4-1.4-0.9-2.9-1.4-4.3
					c-2.1-2.8-4.5-5.5-7.3-7.7c-3.2-2.5-7.5-5-11.7-5.2C44.5,12.1,43.6,12.6,42.8,13.2z"/>
			</g>
			<g transform="translate(112.183099, 77.368717)">
				<path class="st1" d="M-21.1,51c-1.4,0.6-2.9,0.8-4.4,0.5c-1.4-0.3-2.8-1-3.9-2c-1-0.9-1.7-2.1-1.8-3.4c0-0.2,0-0.4,0.1-0.5
					c0.1-0.2,0.3-0.3,0.4-0.3c0.2-0.1,0.4-0.1,0.5,0c0.2,0.1,0.3,0.2,0.4,0.3c0.2,0.2,0.3,0.3,0.5,0.5c1.3,1.3,2.5,2.2,4.2,2.4
					c0.9,0.1,1.8-0.1,2.6-0.5c0.8-0.4,1.5-1,2.1-1.8l0.1-0.1c0.3-0.5,0.7-0.7,1.1-0.7c0.5-0.1,0.9,0.1,1.3,0.4
					c0.4,0.3,0.7,0.7,0.7,1.2c0.1,0.4,0,0.9-0.3,1.3C-18.4,49.5-19.7,50.4-21.1,51L-21.1,51z M-27,29.4c-8.1,1.4-3.9,15.4,6.4,7.7
					c1.2-1-0.3-3.2-1.6-2.3c-1.4,1.1-4.3,3.5-6.3,1.4c-1.7-2.4,0.7-4.7,2.3-5.6C-25.8,30.3-26.1,29.3-27,29.4z M-7.5,26
					c-0.2,1.5-2.3,2.3-3.1,0.6c-0.9-1.7-1.2-3.5-0.9-5.5c0.3-2.2,3.7-1.7,3.8,0.5C-7.6,23-7.3,23.9-7.5,26z M-32.9,20.9
					c1.4,1.3,0.9,4-0.2,5.4c-0.7,0.8-2.2,0.6-2.7-0.4c-0.9-1.7-1.6-5.3,0.9-6c0.8-0.2,1.5,0.2,1.9,0.8C-33,20.7-32.9,20.8-32.9,20.9
					z M-6.9,13.3c2.2,1.1,4.3,2.9,5.5,5.1c0.1,0.2-0.1,0.6-0.4,0.4c-1.9-1.3-3.8-2.5-6.1-3.1c-1-0.3-2.1-0.5-3.1-0.5
					c-1.3-0.1-2.5,0.3-3.6-0.6c-0.6-0.5-0.5-1.5,0-2c0.9-1,2.4-0.8,3.6-0.6l0.4,0.1C-9.3,12.3-8,12.7-6.9,13.3z M-29.7,11.1
					c0.3,0.1,0.6,0.3,0.8,0.7c0.2,0.4,0.3,0.8,0.2,1.2c-0.1,0.4-0.3,0.6-0.5,0.8c-0.3,0.2-0.6,0.3-1,0.4c-1.6,0.2-3.3,0.6-4.8,1.1
					c-0.7,0.2-1.4,0.6-2.1,0.9l-0.6,0.3c-0.5,0.3-1.1,0.5-1.8,0.7c-0.1,0-0.1,0-0.2,0c-0.2-0.1-0.2-0.1-0.3-0.2l0,0
					c-0.1-0.1-0.1-0.2-0.1-0.6c1.6-3.3,5.8-4.6,9.1-5.3l0.3-0.1C-30.4,11-30,11-29.7,11.1z"/>
			</g>
			<g transform="translate(104.577451, 109.499916)">
				<path class="st1" d="M-37.1,7c-0.9,2.8-0.2,6,1.7,8.2c2,2.3,5.5,2.8,8.3,2.7c2.8-0.1,5.5-1,7.2-3.2c0.2,0.3,0.4,0.6,0.6,0.9
					c1.8,2.4,4.5,3.6,7.4,3.7c3,0.1,6.2-0.3,8.9-1.5c2.5-1.1,4.5-2.9,5.5-5.6C3.5,9.7,3.1,7,1.4,4.9c-0.8-1-2.2-0.1-2.3,1
					c-0.1,2-2.1,3.1-3.9,3c-2.3-0.1-3.9-1.8-5.7-2.9c-2.3-1.4-5.2-1.2-7.3,0.4c-0.4-0.1-0.8,0-1.1,0.4C-19,6.8-19.1,7-19.2,7.1
					c-0.1-0.1-0.1-0.2-0.2-0.3c-1.1-1.4-3.3-2.4-5.1-2c-0.7-0.1-1.5,0-2.2,0.2c-0.9,0.3-1.8,0.9-2.5,1.6C-30,7.4-30.4,8.4-31,9.2
					c-0.7,1-2,1.5-3.1,0.9c-1.1-0.6-1.5-1.8-1.4-3C-35.4,6.2-36.9,6.1-37.1,7"/>
			</g>
			<g transform="translate(88.521127, 88.995164)">
			</g>
		</g>
	</g>
</g>
</svg>
