<?xml version="1.0" encoding="utf-8"?>
<!-- Generator: Adobe Illustrator 22.0.1, SVG Export Plug-In . SVG Version: 6.00 Build 0)  -->
<svg version="1.1" id="Layer_1" xmlns="http://www.w3.org/2000/svg" xmlns:xlink="http://www.w3.org/1999/xlink" x="0px" y="0px"
	 viewBox="0 0 512 512" style="enable-background:new 0 0 512 512;" xml:space="preserve">
<g>
	<g>
		<path d="M385.3,403.7l43.2,16c1.3,0.5,2.7,0.7,4,0.7c4.7,0,9-2.9,10.7-7.5c2.2-5.9-0.8-12.5-6.8-14.7l-43.2-16
			c-5.9-2.2-12.5,0.8-14.7,6.8C376.4,394.9,379.4,401.5,385.3,403.7z"/>
	</g>
</g>
<g>
	<g>
		<path d="M443.7,297.4l26.6,9.9c1.3,0.5,2.7,0.7,4,0.7c4.7,0,9-2.9,10.7-7.5c2.2-5.9-0.8-12.5-6.8-14.7l-26.6-9.9
			c-5.9-2.2-12.5,0.8-14.7,6.8C434.8,288.6,437.8,295.2,443.7,297.4z"/>
	</g>
</g>
<g>
	<g>
		<path d="M476.8,384.1l19.8,7.3c1.3,0.5,2.7,0.7,4,0.7c4.7,0,9-2.9,10.7-7.5c2.2-5.9-0.8-12.5-6.8-14.7l-19.8-7.3
			c-5.9-2.2-12.5,0.8-14.7,6.8C467.8,375.3,470.8,381.9,476.8,384.1z"/>
	</g>
</g>
</svg>
