<?xml version="1.0" encoding="utf-8"?>
<!-- Generator: Adobe Illustrator 22.0.1, SVG Export Plug-In . SVG Version: 6.00 Build 0)  -->
<svg version="1.1" id="Layer_1" xmlns="http://www.w3.org/2000/svg" xmlns:xlink="http://www.w3.org/1999/xlink" x="0px" y="0px"
	 viewBox="0 0 512 512" style="enable-background:new 0 0 512 512;" xml:space="preserve">
<g>
	<g>
		<path d="M15,294L15,294l284.9,105.4c2.6,1,5.3,1.4,8,1.4c3.3,0,6.5-0.7,9.6-2.1c5.6-2.6,9.8-7.1,11.9-12.9l58.4-157.9
			c2.1-5.7,1.9-12-0.7-17.5c-2.6-5.6-7.1-9.8-12.9-11.9L89.3,93.1c-5.7-2.1-12-1.9-17.5,0.7c-5.6,2.6-9.8,7.1-11.9,12.9L1.4,264.5
			C-3,276.4,3.1,289.6,15,294z M342.7,211.2l-149.3,38.4l-88.4-126.3L342.7,211.2z M245.3,259.9l117.4-30.2l-50.7,137L245.3,259.9z
			 M43.6,280.1L161,243.3l18.1,25.9c2.2,3.1,5.7,4.9,9.4,4.9c0.9,0,1.9-0.1,2.9-0.4l30.6-7.9l65.2,104.3L43.6,280.1z M27,261.3
			l50.7-137l69.5,99.3L27,261.3z"/>
	</g>
</g>
</svg>
