<svg xmlns="http://www.w3.org/2000/svg" viewBox="0 0 1366 768"><defs><style>.cls-1{fill:#00b9e6;}.cls-2{fill:#222327;}</style></defs><title>logo</title><g id="主體"><path class="cls-1" d="M267.28,233.53a19.92,19.92,0,0,0,.2-2.48v-.87h.41V231a17.57,17.57,0,0,1-.19,2.58H273v.41h-5a11.38,11.38,0,0,0,5.21,6.89l-.25.34a11.76,11.76,0,0,1-5.31-7.17,9.7,9.7,0,0,1-5.19,7.22l-.25-.35a9.12,9.12,0,0,0,5-6.93h-4.82v-.41Z"/><path class="cls-1" d="M283.36,232.32v-1h-5V231h5v-.86h.41V231h5v.37h-5v1h3.81v3.21h-3.81v1.15l3.63-.19-.67-.68.29-.2a16.2,16.2,0,0,1,1.7,1.85l-.32.23c-.2-.27-.43-.56-.69-.86l-1.52.08v1.37h2.75v.37h-2.75v1.8a.69.69,0,0,1-.78.76h-1.32l-.07-.4c.44,0,.86,0,1.27,0a.44.44,0,0,0,.48-.49v-1.71h-7.58v-.37h7.58v-1.35c-2.19.1-4.5.18-6.92.26l-.08-.36,4.59-.14v-1.16h-3.81v-3.21Zm0,1.45v-1.1H280v1.1Zm0,.33H280v1.07h3.41Zm-.57,6.43-.29.3a13.57,13.57,0,0,0-2.11-1.75l.27-.24A14.14,14.14,0,0,1,282.79,240.53Zm1-6.76h3.41v-1.1h-3.41Zm3.41.33h-3.41v1.07h3.41Z"/><path class="cls-1" d="M297.71,230.75v.35c-.34,1.19-.77,2.41-1.26,3.67a5.42,5.42,0,0,1,1.16,2.86,1.54,1.54,0,0,1-.39,1.11,2.81,2.81,0,0,1-1.71.41l-.14-.42.24,0a2.6,2.6,0,0,0,1.27-.29,1,1,0,0,0,.32-.83,4.83,4.83,0,0,0-1.17-2.8,33.85,33.85,0,0,0,1.24-3.67h-2.42v10.08h-.41V230.75Zm7.06,5.14v.42h-2.2v3.83a.44.44,0,0,0,.49.5h.72a.91.91,0,0,0,.51-.12c.21-.13.33-.72.38-1.76l.4.14a3.9,3.9,0,0,1-.38,1.87,1.07,1.07,0,0,1-.81.28H303a.8.8,0,0,1-.59-.24.79.79,0,0,1-.21-.57v-3.93h-1.53a7,7,0,0,1-.7,3,5,5,0,0,1-2.14,1.82l-.25-.33a5.1,5.1,0,0,0,2-1.66,6.47,6.47,0,0,0,.66-2.87h-1.92v-.42Zm-.2-2.28h-.41v-1.79h-5.39v1.79h-.41V231.4h2.93a7.34,7.34,0,0,0-.52-1.23l.44-.07c.17.39.33.81.5,1.3h2.86Zm-.79.11v.38h-4.64v-.38Z"/><path class="cls-1" d="M311.87,232.68v-2.5h.4v2.5h1.45v.41h-1.45v1.1c.55.75,1.11,1.62,1.69,2.6l-.24.32c-.56-1.06-1.05-1.89-1.45-2.5v6.56h-.4v-7.06a12.81,12.81,0,0,1-1.93,3.92l-.18-.44a11.79,11.79,0,0,0,2.1-4.5H310v-.41Zm7.16,2.7a7.91,7.91,0,0,1-1.39,3.46,9.62,9.62,0,0,0,3.19,2l-.21.36a10,10,0,0,1-3.25-2,6.78,6.78,0,0,1-3.38,2.06l-.23-.37a6.61,6.61,0,0,0,3.32-2,6.39,6.39,0,0,1-1.61-3.34l.37-.13a5.92,5.92,0,0,0,1.5,3.13,7.71,7.71,0,0,0,1.28-3.22Zm-2.85-2.09a12.65,12.65,0,0,1-2,3.06l-.32-.24a11.79,11.79,0,0,0,1.92-3Zm1.24-1.4a13.27,13.27,0,0,0-.81-1.81L317,230a12.33,12.33,0,0,1,.81,1.88h2.77v.42h-6.45v-.42ZM320.7,236l-.35.25a21.3,21.3,0,0,0-2.06-3l.34-.2A23.13,23.13,0,0,1,320.7,236Z"/><path class="cls-1" d="M267.59,248.59a8.25,8.25,0,0,0-.67-1.33l.43-.08a8.79,8.79,0,0,1,.65,1.41h4.46V249h-2.09a9.57,9.57,0,0,1-.87,2.38H273v.39H262.35v-.39h3.41a19.06,19.06,0,0,0-.87-2.38h-2v-.41Zm3.66,9.74h-.4v-.7h-6.28v.7h-.4v-5.24h7.08Zm-.4-3.15v-1.7h-6.28v1.7Zm0,2.06v-1.67h-6.28v1.67Zm-4.68-5.86h2.91A7.94,7.94,0,0,0,270,249h-4.63A23.26,23.26,0,0,1,266.17,251.38Z"/><path class="cls-1" d="M283,248.59a5.37,5.37,0,0,0,.52-1.36l.39.06a4.64,4.64,0,0,1-.51,1.3h1.75v4.58h-1.35v1.34H289v.41h-5.22v3.37h-.42v-3.37h-5.26v-.41h5.26v-1.34h-1.34v-4.58Zm-1.25,5.14-.36.1c-.08-.36-.17-.7-.27-1-.73.2-1.63.38-2.68.57l-.07-.28a10.89,10.89,0,0,0,1.79-2.63c-.56.11-1.18.22-1.87.33l-.07-.33c.29-.15.8-1.14,1.54-3l.36.13a15,15,0,0,1-1.34,2.75c.59-.1,1.11-.21,1.56-.31.22-.49.44-1,.64-1.55l.33.1a13.61,13.61,0,0,1-2.35,4.33c.66-.12,1.36-.28,2.07-.45-.15-.49-.31-.95-.48-1.39l.33-.11A22.48,22.48,0,0,1,281.76,253.73ZM282,256a14.59,14.59,0,0,1-3.51,2.29l-.25-.33a13.75,13.75,0,0,0,3.46-2.23Zm2.74-5.3V249h-2.33v1.74Zm0,.36h-2.33v1.75h2.33Zm.42,4.94.28-.27a26.26,26.26,0,0,1,3.45,2.23l-.3.3A23.49,23.49,0,0,0,285.19,256Zm3.78-2.32-.33.08c-.08-.34-.17-.68-.27-1-.69.19-1.55.4-2.55.6l-.07-.27a10.7,10.7,0,0,0,1.66-2.59c-.51.09-1.07.17-1.71.26l-.07-.33a9,9,0,0,0,1.32-2.93l.36.13a14.62,14.62,0,0,1-1.17,2.72l1.44-.24c.21-.49.4-1,.59-1.54l.33.1a13.43,13.43,0,0,1-2.16,4.25c.63-.14,1.28-.3,1.94-.47-.15-.48-.32-1-.49-1.39l.32-.1A21.07,21.07,0,0,1,289,253.67Z"/><path class="cls-1" d="M297.78,249.21v-.88H295v1.21h-.4V248h4.65a4.71,4.71,0,0,0-.38-.71l.4-.07a4.06,4.06,0,0,1,.41.78h4.61v1.56h-.4v-1.21h-2.78v.88h2.33v.33h-2.33v.9h2.08v.32h-2.08v.89h3.59V252h-3.15a7.1,7.1,0,0,0,3.33,1.71l-.15.34a10.87,10.87,0,0,1-1.87-.74v3.39h-6.82V253.4a12.53,12.53,0,0,1-1.86.79l-.2-.33a7.67,7.67,0,0,0,3.38-1.85h-3.16v-.36h3.57v-.89H295.7v-.32h2.08v-.9h-2.32v-.33Zm.71,8a13.14,13.14,0,0,1-3.82,1.17l-.18-.34a13,13,0,0,0,3.78-1.11Zm4-4h-6V254h6Zm-6,2h6v-.81h-6Zm0,1.22h6v-.91h-6Zm5.65-3.52a4.72,4.72,0,0,1-.95-.85h-3.36a5.57,5.57,0,0,1-.89.85Zm-3.89-4.53v.88h2.5v-.88Zm2.5,1.21h-2.5v.9h2.5Zm0,2.11v-.89h-2.5v.89Zm3.6,6.4-.23.29a24.5,24.5,0,0,0-3.76-1.15l.22-.26A25.42,25.42,0,0,1,304.3,258.05Z"/><path class="cls-1" d="M315.12,249.49v-1h-5v-.39h5v-.88h.41v.88h5v.39h-5v1h3.61v2.15h-3.61v1h3.8v1.71h1.51v.38h-1.51v1.6h-3.8v1.1a.76.76,0,0,1-.87.84h-1.5l-.08-.4c.51,0,1,0,1.44,0a.53.53,0,0,0,.6-.58v-1H310.9V256h4.22v-1.23h-5.31v-.38h5.31V253h-4.2v-.38h4.2v-1H311.5v-2.15Zm0,.37h-3.2v1.43h3.2Zm3.61,0h-3.2v1.43h3.2Zm-3.2,4.5h3.39V253h-3.39Zm0,.38V256h3.39v-1.23Z"/><path class="cls-1" d="M336.09,247.94v.42h-4.73v5.07h5.19v.41h-5.19v4.49H331v-4.49h-5.09v-.41H331v-5.07h-4.61v-.42Zm-7.23,4.41-.39.18a21.39,21.39,0,0,0-1.37-2.87l.38-.19A27.59,27.59,0,0,1,328.86,252.35Zm6.47-2.8a15.49,15.49,0,0,1-1.58,3l-.36-.2a14.9,14.9,0,0,0,1.55-2.94Z"/><path class="cls-1" d="M342.09,251.57a12.22,12.22,0,0,0,4.22-4.31l.41.14a15.54,15.54,0,0,1-3.81,4.13c2.85-.11,5.44-.28,7.74-.52a25.67,25.67,0,0,0-1.8-2.19l.38-.2a33.35,33.35,0,0,1,3.11,4.07l-.39.2c-.34-.53-.67-1-1-1.49-2.6.24-5.52.42-8.77.56Zm8.91,6.77h-.41v-.78h-7v.78h-.42v-4.92H351Zm-.41-1.19v-3.32h-7v3.32Z"/><polygon class="cls-1" points="319.55 155.63 105.62 155.63 96.31 155.63 96.31 164.93 96.31 211.44 105.62 211.44 105.62 164.93 319.55 164.93 319.55 155.63"/><rect class="cls-1" x="172.61" y="174.92" width="9.79" height="35.87" transform="translate(67.13 -44.88) rotate(17.72)"/><circle class="cls-1" cx="136.62" cy="199.03" r="12.4"/><path class="cls-1" d="M242.47,244.78v1.65H214.19v-1.65H227v-1.64H216.63v-1.49H227V240h-9.6v-1.46H227v-1.74H214.26v-1.49H227v-1.62h-9.41v-1.46H227v-2h2.35v2H239v3.08h3.43v1.49H239V240h-9.6v1.62h10.84v1.49H229.35v1.64Zm-28.28,11.89h28.28v1.69H214.19ZM239,247.83v7.35H217.4v-7.35Zm-19.37,3h7.45v-1.62h-7.45Zm0,3h7.45v-1.68h-7.45Zm17-4.63h-7.36v1.62h7.36Zm0,2.95h-7.36v1.68h7.36Zm-7.29-16.8h7.26v-1.62h-7.26Zm0,3.23h7.26v-1.74h-7.26Z"/><path class="cls-1" d="M160,258.36v-12H138.69v12Zm-19-9.79h16.5v7.5h-16.5Z"/><path class="cls-1" d="M142.29,242.9c2.88-.12,7.91-.35,17.14-.86a20.17,20.17,0,0,1,1.88,2.66l2-1.43a50.66,50.66,0,0,0-8.37-9.19l-1.87,1.2a61.53,61.53,0,0,1,4.6,4.66l-16,.79a67.85,67.85,0,0,0,8-9.32l-2.31-1a52.4,52.4,0,0,1-7.29,8.94,10,10,0,0,1-1.95,1.62h-.94l.74,2.17,4.43-.2Z"/><path class="cls-1" d="M114.52,233.5h-3.7c.39-1.24.53-1.54.84-2.73l-2.14-.4c-.21,1.07-.53,2.12-.81,3.13h-2.47v12h8.28Zm-2.09,10.15H108.3v-3.3h4.13Zm0-5.05H108.3v-3.26h4.13Z"/><path class="cls-1" d="M98.6,242.28c-.79.95-1.36,1.62-1.93,1.75l.59,1.72,6.15-1,.33-.05c.12.61.16,1.18.22,1.62l1.71-.44a39.27,39.27,0,0,0-1.17-5.33l-1.62.41c.19.67.35,1.43.54,2.16l-3.87.51a52.92,52.92,0,0,0,5.87-8.56l-1.75-1c-.5,1.05-1.07,2.1-1.64,3.14l-2.69.26h0a34.31,34.31,0,0,0,3.24-6.28l-1.88-.73a27.42,27.42,0,0,1-2.75,6,2.8,2.8,0,0,1-1.09,1.24l-.17,0,.62,1.8,3.61-.55h0C99.9,240.57,99,241.77,98.6,242.28Z"/><polygon class="cls-1" points="111.54 246.53 109.19 246.53 109.19 248.18 96.29 248.18 96.29 250.18 109.19 250.18 109.19 259.37 111.54 259.37 111.54 250.18 124.44 250.18 124.44 248.18 111.54 248.18 111.54 246.53"/><path class="cls-1" d="M113.55,252.52a58.16,58.16,0,0,1,9.39,6.06l1.45-1.78A66.8,66.8,0,0,0,115,251Z"/><path class="cls-1" d="M119,239.33h0l.66-.09c-1,1.58-2,2.82-2.37,3.33-.75,1-1.34,1.6-1.9,1.76h-.11l.31,1.7,4.15-.53,2.74-.34c.13.54.26,1,.32,1.46l1.68-.57a49.62,49.62,0,0,0-1.46-4.95l-1.58.47c.19.61.38,1.31.6,2l-3.77.42a53.55,53.55,0,0,0,5.8-8.57l-1.74-1c-.48,1-1,2-1.56,3l-3.07.35a43.06,43.06,0,0,0,3.26-6.63l-1.9-.63a29,29,0,0,1-2.79,6.25c-.44.73-.82,1.23-1.24,1.33l.56,1.74Z"/><path class="cls-1" d="M105.48,251.19s-2.93,3.47-9.78,5.31l1.49,1.89s6.42-1.83,10.31-6.37Z"/><polygon class="cls-1" points="196.51 241.15 196.51 230.81 194.13 230.81 194.13 241.15 187.92 241.15 187.92 243.46 194.13 243.46 194.13 259.19 196.51 259.19 196.51 243.46 203.01 243.46 203.01 241.15 196.51 241.15"/><path class="cls-1" d="M176.36,249.22v9.14h10.29v-9.13Zm2.06,2h6.13v5.2h-6.13Z"/><rect class="cls-1" x="176.34" y="244.59" width="10.3" height="1.95"/><rect class="cls-1" x="176.34" y="240.09" width="10.3" height="1.96"/><rect class="cls-1" x="178.42" y="231.09" width="8.23" height="1.96"/><rect class="cls-1" x="174.95" y="235.6" width="11.7" height="1.93"/><path class="cls-1" d="M1069.23,517a8.43,8.43,0,0,0,.08-1v-.35h.17V516a7,7,0,0,1-.08,1.06h2.16v.17h-2a4.6,4.6,0,0,0,2.13,2.82l-.1.14a4.83,4.83,0,0,1-2.18-2.94,4,4,0,0,1-2.13,3l-.1-.14a3.75,3.75,0,0,0,2.07-2.84h-2V517Z"/><path class="cls-1" d="M1075.81,516.54v-.4h-2V516h2v-.35h.17V516h2v.15h-2v.4h1.57v1.32H1076v.47l1.49-.08-.27-.28.12-.08a6.15,6.15,0,0,1,.69.76l-.13.09a3.89,3.89,0,0,0-.28-.35l-.62,0V519h1.12v.16H1077v.73c0,.21-.11.31-.33.31h-.54l0-.16.52,0a.18.18,0,0,0,.21-.2v-.7h-3.11V519h3.11v-.55l-2.84.11,0-.15,1.88-.06v-.47h-1.56v-1.32Zm0,.6v-.45h-1.39v.45Zm0,.13h-1.39v.44h1.39Zm-.23,2.64-.12.12a5.16,5.16,0,0,0-.86-.72l.11-.1A5.52,5.52,0,0,1,1075.58,519.91Zm.4-2.77h1.4v-.45H1076Zm1.4.13H1076v.44h1.4Z"/><path class="cls-1" d="M1081.7,515.9V516c-.14.49-.32,1-.52,1.51a2.16,2.16,0,0,1,.48,1.17.66.66,0,0,1-.16.45,1.14,1.14,0,0,1-.7.17l-.06-.17h.1a1.19,1.19,0,0,0,.52-.12.43.43,0,0,0,.13-.34,2,2,0,0,0-.48-1.15,13.35,13.35,0,0,0,.51-1.5h-1v4.13h-.17v-4.3Zm2.89,2.11v.17h-.9v1.57a.18.18,0,0,0,.2.2h.29a.36.36,0,0,0,.21-.05c.09,0,.14-.29.16-.72l.16.06a1.54,1.54,0,0,1-.15.76.43.43,0,0,1-.34.12h-.38a.33.33,0,0,1-.24-.1.31.31,0,0,1-.08-.23v-1.61h-.63a2.78,2.78,0,0,1-.29,1.24,2.05,2.05,0,0,1-.87.75l-.11-.14a2.07,2.07,0,0,0,.83-.68,2.64,2.64,0,0,0,.27-1.17h-.79V518Zm-.08-.94h-.17v-.73h-2.21v.73H1082v-.9h1.2a3,3,0,0,0-.21-.51l.18,0q.11.24.21.54h1.17Zm-.33,0v.15h-1.9v-.15Z"/><path class="cls-1" d="M1087.5,516.69v-1h.17v1h.59v.17h-.59v.45c.22.31.45.66.69,1.06l-.1.14c-.23-.44-.43-.78-.59-1v2.69h-.17v-2.89a5.32,5.32,0,0,1-.79,1.6l-.08-.18a4.8,4.8,0,0,0,.86-1.84h-.75v-.17Zm2.94,1.11a3.22,3.22,0,0,1-.57,1.41,4,4,0,0,0,1.3.81l-.08.14a4,4,0,0,1-1.33-.81,2.77,2.77,0,0,1-1.39.84l-.09-.15a2.72,2.72,0,0,0,1.36-.82,2.56,2.56,0,0,1-.66-1.37l.15-.05a2.43,2.43,0,0,0,.61,1.28,3.14,3.14,0,0,0,.53-1.32Zm-1.17-.86a5.36,5.36,0,0,1-.8,1.25l-.14-.09a4.73,4.73,0,0,0,.79-1.23Zm.51-.57a5.11,5.11,0,0,0-.34-.74l.18,0a5.09,5.09,0,0,1,.33.77h1.13v.17h-2.64v-.17Zm1.34,1.69-.14.1a9.49,9.49,0,0,0-.85-1.22l.14-.08A10.3,10.3,0,0,1,1091.12,518.06Z"/><path class="cls-1" d="M1069.35,523.21a3.4,3.4,0,0,0-.27-.54l.18,0a5.28,5.28,0,0,1,.26.58h1.83v.17h-.86a3.82,3.82,0,0,1-.35,1h1.44v.16h-4.38v-.16h1.4a7.88,7.88,0,0,0-.35-1h-.81v-.17Zm1.5,4h-.16v-.28h-2.57v.28H1068v-2.14h2.9Zm-.16-1.29v-.69h-2.57v.69Zm0,.85v-.69h-2.57v.69Zm-1.92-2.4H1070a3.15,3.15,0,0,0,.37-1h-1.9A7.94,7.94,0,0,1,1068.77,524.36Z"/><path class="cls-1" d="M1075.67,523.21a1.9,1.9,0,0,0,.21-.56l.16,0a1.63,1.63,0,0,1-.21.53h.72v1.88H1076v.55h2.14v.17H1076v1.38h-.17v-1.38h-2.16v-.17h2.16v-.55h-.55v-1.88Zm-.51,2.11-.15,0a4.26,4.26,0,0,0-.11-.42c-.3.08-.67.15-1.1.23l0-.11a4.35,4.35,0,0,0,.74-1.08l-.77.13,0-.13a3.47,3.47,0,0,0,.63-1.22l.15,0a6.52,6.52,0,0,1-.55,1.13l.64-.13c.09-.2.18-.41.26-.63l.14,0a5.8,5.8,0,0,1-1,1.77l.84-.18c-.06-.2-.12-.39-.19-.57l.13,0A9.47,9.47,0,0,1,1075.16,525.32Zm.11.92a5.69,5.69,0,0,1-1.44.94l-.1-.13a5.7,5.7,0,0,0,1.42-.92Zm1.12-2.17v-.71h-1v.71Zm0,.15h-1v.72h1Zm.17,2,.12-.11a10.67,10.67,0,0,1,1.42.92l-.13.12A9.41,9.41,0,0,0,1076.56,526.24Zm1.56-1-.14,0c0-.14-.07-.28-.11-.42-.28.08-.63.17-1,.25l0-.11a4,4,0,0,0,.69-1.06l-.71.1,0-.13a3.71,3.71,0,0,0,.54-1.2l.15,0a6.29,6.29,0,0,1-.48,1.12l.59-.1q.12-.3.24-.63l.13,0A5.63,5.63,0,0,1,1077,525l.79-.19c-.06-.2-.13-.39-.2-.57l.13,0A9.08,9.08,0,0,1,1078.12,525.29Z"/><path class="cls-1" d="M1081.73,523.47v-.36h-1.14v.49h-.16V523h1.9c0-.11-.1-.2-.15-.29l.16,0a1.91,1.91,0,0,1,.17.32h1.89v.64h-.17v-.49h-1.14v.36h1v.13h-1V524h.86v.13h-.86v.37h1.47v.14h-1.29a2.88,2.88,0,0,0,1.37.7l-.06.14a4.42,4.42,0,0,1-.77-.3v1.39H1081v-1.36a5.42,5.42,0,0,1-.76.33l-.09-.14a3.11,3.11,0,0,0,1.39-.76h-1.3v-.14h1.47v-.37h-.86V524h.86v-.37h-1v-.13Zm.29,3.27a5.57,5.57,0,0,1-1.57.47l-.07-.13a5.34,5.34,0,0,0,1.55-.46Zm1.63-1.65h-2.47v.35h2.47Zm-2.47.81h2.47v-.33h-2.47Zm0,.5h2.47V526h-2.47Zm2.31-1.44a1.93,1.93,0,0,1-.39-.35h-1.37a2.06,2.06,0,0,1-.37.35Zm-1.59-1.85v.36h1v-.36Zm1,.49h-1V524h1Zm0,.87v-.37h-1v.37Zm1.48,2.62-.1.12a9,9,0,0,0-1.54-.47l.09-.11A10.85,10.85,0,0,1,1084.4,527.09Z"/><path class="cls-1" d="M1088.83,523.58v-.41h-2V523h2v-.36h.17V523h2v.16h-2v.41h1.48v.88H1089v.42h1.56v.7h.62v.15h-.62v.66H1089v.45a.31.31,0,0,1-.35.34H1088l0-.16h.59a.21.21,0,0,0,.24-.23v-.41h-1.73v-.15h1.73v-.51h-2.18v-.15h2.18V525h-1.72v-.15h1.72v-.42h-1.48v-.88Zm0,.15h-1.31v.59h1.31Zm1.48,0H1089v.59h1.31Zm-1.31,1.85h1.39V525H1089Zm0,.15v.51h1.39v-.51Z"/><path class="cls-1" d="M1097.43,523v.17h-1.94v2.08h2.13v.16h-2.13v1.84h-.17v-1.84h-2.09v-.16h2.09v-2.08h-1.89V523Zm-3,1.8-.16.08a8.12,8.12,0,0,0-.56-1.18l.16-.08A10.77,10.77,0,0,1,1094.46,524.75Zm2.66-1.14a6.46,6.46,0,0,1-.65,1.21l-.15-.08a6.37,6.37,0,0,0,.64-1.2Z"/><path class="cls-1" d="M1099.89,524.43a5,5,0,0,0,1.73-1.76l.16.05a6.25,6.25,0,0,1-1.56,1.7c1.17,0,2.23-.12,3.17-.22a11.2,11.2,0,0,0-.73-.89l.15-.08a13.29,13.29,0,0,1,1.28,1.66l-.16.08c-.14-.21-.28-.42-.42-.61-1.06.1-2.26.18-3.59.23Zm3.65,2.78h-.17v-.32h-2.87v.32h-.17v-2h3.21Zm-.17-.49v-1.36h-2.87v1.36Z"/><polygon class="cls-1" points="1090.65 485.11 1002.97 485.11 999.15 485.11 999.15 488.92 999.15 507.98 1002.97 507.98 1002.97 488.92 1090.65 488.92 1090.65 485.11"/><rect class="cls-1" x="1030.42" y="493.02" width="4.01" height="14.7" transform="translate(201.3 -290.52) rotate(17.72)"/><circle class="cls-1" cx="1015.68" cy="502.9" r="5.08"/><path class="cls-1" d="M1059.06,521.65v.68h-11.59v-.68h5.25V521h-4.25v-.61h4.25v-.67h-3.94v-.6h3.94v-.71h-5.23v-.61h5.23v-.66h-3.86v-.6h3.86v-.81h1v.81h3.94v1.26h1.4v.61h-1.4v1.31h-3.94v.67h4.44V521h-4.44v.67Zm-11.59,4.87h11.59v.69h-11.59Zm10.17-3.62v3h-8.86v-3Zm-7.94,1.22h3.06v-.66h-3.06Zm0,1.24h3.06v-.69h-3.06Zm7-1.9h-3v.66h3Zm0,1.21h-3v.69h3Zm-3-6.89h3v-.66h-3Zm0,1.32h3v-.71h-3Z"/><path class="cls-1" d="M1025.28,527.21v-4.93h-8.76v4.93Zm-7.78-4h6.76v3.08h-6.76Z"/><path class="cls-1" d="M1018,520.88c1.18,0,3.24-.14,7-.36a9.21,9.21,0,0,1,.78,1.1l.81-.59a20.8,20.8,0,0,0-3.43-3.77l-.76.5a24.33,24.33,0,0,1,1.88,1.91l-6.57.32a28.3,28.3,0,0,0,3.27-3.82l-1-.43a21.6,21.6,0,0,1-3,3.67,4,4,0,0,1-.79.66h-.39l.3.89,1.82-.08Z"/><path class="cls-1" d="M1006.62,517h-1.52c.16-.51.22-.63.35-1.12l-.88-.17c-.09.44-.22.87-.34,1.29h-1v4.91h3.4Zm-.86,4.15h-1.69v-1.35h1.69Zm0-2.06h-1.69v-1.34h1.69Z"/><path class="cls-1" d="M1000.09,520.63c-.32.39-.56.66-.79.71l.24.71,2.52-.4.14,0c0,.24.06.48.09.66l.7-.18a16.52,16.52,0,0,0-.48-2.19l-.66.17c.08.28.14.59.22.89l-1.59.2a21.84,21.84,0,0,0,2.41-3.5l-.72-.39c-.21.43-.44.85-.67,1.28l-1.1.11h0a14.21,14.21,0,0,0,1.33-2.58l-.77-.29a11.15,11.15,0,0,1-1.13,2.45,1.16,1.16,0,0,1-.45.51h-.06l.25.73,1.48-.22h0C1000.63,519.92,1000.26,520.42,1000.09,520.63Z"/><polygon class="cls-1" points="1005.39 522.37 1004.43 522.37 1004.43 523.04 999.14 523.04 999.14 523.86 1004.43 523.86 1004.43 527.63 1005.39 527.63 1005.39 523.86 1010.68 523.86 1010.68 523.04 1005.39 523.04 1005.39 522.37"/><path class="cls-1" d="M1006.22,524.82a23.8,23.8,0,0,1,3.85,2.49l.59-.73a25.93,25.93,0,0,0-3.86-2.39Z"/><path class="cls-1" d="M1008.44,519.42h0l.27,0c-.43.65-.81,1.15-1,1.36-.3.4-.54.66-.77.72h-.05l.13.69,1.7-.21,1.12-.14a3.84,3.84,0,0,1,.13.6l.69-.24a19.72,19.72,0,0,0-.59-2l-.65.19c.07.25.15.53.24.82l-1.54.17a21.54,21.54,0,0,0,2.37-3.51l-.71-.4c-.2.41-.4.82-.64,1.22l-1.26.14a18.12,18.12,0,0,0,1.34-2.72l-.78-.25a12.15,12.15,0,0,1-1.14,2.56c-.18.29-.34.5-.51.54l.23.72Z"/><path class="cls-1" d="M1002.91,524.28a8.21,8.21,0,0,1-4,2.17l.61.78a9.83,9.83,0,0,0,4.23-2.61Z"/><polygon class="cls-1" points="1040.22 520.16 1040.22 515.92 1039.24 515.92 1039.24 520.16 1036.7 520.16 1036.7 521.11 1039.24 521.11 1039.24 527.55 1040.22 527.55 1040.22 521.11 1042.88 521.11 1042.88 520.16 1040.22 520.16"/><path class="cls-1" d="M1032,523.47v3.74h4.22v-3.74Zm.85.8h2.51v2.14h-2.51Z"/><rect class="cls-1" x="1031.96" y="521.57" width="4.22" height="0.8"/><rect class="cls-1" x="1031.96" y="519.73" width="4.22" height="0.8"/><rect class="cls-1" x="1032.81" y="516.04" width="3.37" height="0.8"/><rect class="cls-1" x="1031.38" y="517.89" width="4.79" height="0.79"/><polygon class="cls-1" points="1027.77 567.67 1003.04 567.67 999.44 567.67 999.44 571.28 999.44 590.85 1003.04 590.85 1003.04 571.28 1027.77 571.28 1027.77 567.67"/><rect class="cls-1" x="1021.7" y="575.73" width="3.78" height="14.9" transform="translate(226.09 -283.9) rotate(17.72)"/><circle class="cls-1" cx="1011.29" cy="586.21" r="4.64"/><path class="cls-1" d="M1025.24,603.14a7,7,0,0,0,.08-1v-.37h.18v.33a7.41,7.41,0,0,1-.08,1.08h2.23v.18h-2.12a4.76,4.76,0,0,0,2.19,2.9l-.1.15a5,5,0,0,1-2.24-3,4.1,4.1,0,0,1-2.19,3l-.11-.15a3.83,3.83,0,0,0,2.13-2.92h-2v-.18Z"/><path class="cls-1" d="M1025.32,609.33v-.41h-2.09v-.16h2.09v-.36h.18v.36h2.09v.16h-2.09v.41h1.6v1.36h-1.6v.48l1.53-.08-.29-.29.13-.08a6.42,6.42,0,0,1,.71.78l-.13.1a3.05,3.05,0,0,0-.29-.36l-.64,0v.57h1.16V612h-1.16v.76a.29.29,0,0,1-.33.32h-.56l0-.17.54,0a.18.18,0,0,0,.2-.21V612h-3.19v-.16h3.19v-.56l-2.92.11,0-.15,1.93-.07v-.48h-1.6v-1.36Zm0,.61v-.46h-1.43v.46Zm0,.14h-1.43v.46h1.43Zm-.23,2.72-.13.12a6.1,6.1,0,0,0-.89-.74l.12-.1A6.44,6.44,0,0,1,1025.09,612.8Zm.41-2.86h1.43v-.46h-1.43Zm1.43.14h-1.43v.46h1.43Z"/><path class="cls-1" d="M1024.68,615.37v.14a15,15,0,0,1-.53,1.55,2.32,2.32,0,0,1,.49,1.21.67.67,0,0,1-.17.47,1.19,1.19,0,0,1-.72.17l-.06-.18h.1a1.12,1.12,0,0,0,.54-.12.42.42,0,0,0,.13-.35,2,2,0,0,0-.49-1.18,12.82,12.82,0,0,0,.52-1.55h-1v4.25h-.17v-4.42Zm3,2.17v.17h-.93v1.62a.18.18,0,0,0,.2.21h.31a.36.36,0,0,0,.21,0c.09-.06.14-.31.16-.74l.17,0a1.51,1.51,0,0,1-.16.79.43.43,0,0,1-.34.12h-.39a.36.36,0,0,1-.25-.1.32.32,0,0,1-.09-.24v-1.66h-.64a2.89,2.89,0,0,1-.3,1.28,2.11,2.11,0,0,1-.9.77l-.11-.14a2,2,0,0,0,.85-.7,2.65,2.65,0,0,0,.28-1.21h-.81v-.17Zm-.09-1h-.17v-.75h-2.27v.75H1025v-.93h1.24a3.53,3.53,0,0,0-.22-.52l.19,0c.07.17.14.35.21.55h1.2Zm-.33,0v.16h-2v-.16Z"/><path class="cls-1" d="M1024,622.88v-1.06h.17v1.06h.62v.17h-.62v.46a11.69,11.69,0,0,1,.71,1.1l-.09.14c-.24-.45-.45-.8-.62-1.06v2.77H1024v-3a5.08,5.08,0,0,1-.81,1.65l-.08-.18a5,5,0,0,0,.89-1.9h-.77v-.17Zm3,1.14a3.41,3.41,0,0,1-.59,1.45,4.08,4.08,0,0,0,1.34.83l-.08.15a4,4,0,0,1-1.37-.84,2.86,2.86,0,0,1-1.43.87l-.1-.15a2.73,2.73,0,0,0,1.4-.85,2.74,2.74,0,0,1-.68-1.41l.16-.05a2.51,2.51,0,0,0,.63,1.32,3.14,3.14,0,0,0,.54-1.36Zm-1.21-.88a5.3,5.3,0,0,1-.82,1.28l-.14-.09a5.21,5.21,0,0,0,.81-1.27Zm.53-.6a7.77,7.77,0,0,0-.35-.76l.18,0a4.81,4.81,0,0,1,.34.79h1.17v.18h-2.72v-.18Zm1.38,1.74-.15.11a8.44,8.44,0,0,0-.87-1.25l.15-.09A9.66,9.66,0,0,1,1027.68,624.28Z"/><path class="cls-1" d="M1018.16,602.28a3.29,3.29,0,0,0-.29-.56l.19,0a4,4,0,0,1,.27.59h1.88v.18h-.88a4.42,4.42,0,0,1-.36,1h1.48v.17H1016v-.17h1.44a10.19,10.19,0,0,0-.37-1h-.83v-.18Zm1.54,4.11h-.17v-.29h-2.64v.29h-.17v-2.21h3Zm-.17-1.33v-.71h-2.64v.71Zm0,.87v-.7h-2.64v.7Zm-2-2.47h1.23a3.26,3.26,0,0,0,.37-1h-1.95A10.41,10.41,0,0,1,1017.56,603.46Z"/><path class="cls-1" d="M1018,609a2,2,0,0,0,.21-.57l.17,0a2,2,0,0,1-.22.54h.74v1.93h-.57v.57h2.21v.17h-2.21v1.42h-.17v-1.42h-2.22v-.17h2.22v-.57h-.57V609Zm-.53,2.17-.15,0c0-.15-.07-.29-.12-.43-.3.08-.69.16-1.13.24l0-.12a4.59,4.59,0,0,0,.76-1.11l-.79.14,0-.14a3.58,3.58,0,0,0,.65-1.26l.15.06a6.59,6.59,0,0,1-.56,1.16l.66-.13c.09-.21.18-.43.26-.65l.14,0a5.61,5.61,0,0,1-1,1.82c.28,0,.57-.11.87-.19-.06-.2-.13-.4-.2-.58l.14,0A9.39,9.39,0,0,1,1017.44,611.15Zm.11,1a5.84,5.84,0,0,1-1.48,1l-.11-.14a5.89,5.89,0,0,0,1.47-.94Zm1.16-2.23v-.73h-1v.73Zm0,.15h-1v.74h1Zm.17,2.08.12-.11a10.79,10.79,0,0,1,1.46.94l-.13.12A9.86,9.86,0,0,0,1018.88,612.1Zm1.6-1-.14,0c0-.15-.07-.29-.11-.43-.3.08-.66.17-1.08.25l0-.11a4.26,4.26,0,0,0,.7-1.09l-.72.11,0-.14a3.83,3.83,0,0,0,.56-1.24l.15.06a7.21,7.21,0,0,1-.49,1.15l.6-.11c.09-.2.17-.42.25-.64l.14,0a5.84,5.84,0,0,1-.91,1.79l.82-.2c-.07-.2-.14-.4-.21-.58l.13,0A8.21,8.21,0,0,1,1020.48,611.12Z"/><path class="cls-1" d="M1017.5,615.93v-.37h-1.17v.51h-.17v-.66h2a2.11,2.11,0,0,0-.16-.3l.17,0a2,2,0,0,1,.17.33h2v.66h-.17v-.51h-1.18v.37h1v.14h-1v.38h.88v.13h-.88V617h1.52v.15h-1.33a3.09,3.09,0,0,0,1.41.72l-.07.14a3.62,3.62,0,0,1-.78-.31v1.43h-2.88V617.7a5.72,5.72,0,0,1-.78.33l-.09-.14a3,3,0,0,0,1.42-.78H1016V617h1.51v-.38h-.88v-.13h.88v-.38h-1v-.14Zm.3,3.37a5.72,5.72,0,0,1-1.61.49l-.08-.14a6.07,6.07,0,0,0,1.6-.47Zm1.68-1.7h-2.55V618h2.55Zm-2.55.84h2.55v-.34h-2.55Zm0,.51h2.55v-.38h-2.55Zm2.39-1.48a2.11,2.11,0,0,1-.41-.36h-1.41a1.87,1.87,0,0,1-.38.36Zm-1.65-1.91v.37h1.06v-.37Zm1.06.51h-1.06v.38h1.06Zm0,.89v-.38h-1.06V617Zm1.52,2.7-.1.12a10.3,10.3,0,0,0-1.59-.48l.1-.12A11.34,11.34,0,0,1,1020.25,619.66Z"/><path class="cls-1" d="M1018.11,622.76v-.43H1016v-.16h2.09v-.37h.18v.37h2.09v.16h-2.09v.43h1.52v.9h-1.52v.43h1.6v.72h.64V625h-.64v.67h-1.6v.47a.32.32,0,0,1-.37.35h-.63l0-.17.61,0a.22.22,0,0,0,.25-.24v-.43h-1.77v-.15h1.77V625h-2.24v-.16h2.24v-.56h-1.77v-.16h1.77v-.43h-1.52v-.9Zm0,.15h-1.35v.6h1.35Zm1.53,0h-1.35v.6h1.35Zm-1.35,1.9h1.43v-.56h-1.43Zm0,.16v.52h1.43V625Z"/><path class="cls-1" d="M1020.26,628.8V629h-2v2.14h2.18v.17h-2.18v1.9h-.18v-1.9h-2.15v-.17h2.15V629h-1.94v-.17Zm-3,1.86-.16.07a8.54,8.54,0,0,0-.58-1.21l.16-.08A12.64,12.64,0,0,1,1017.21,630.66Zm2.73-1.18a7.17,7.17,0,0,1-.66,1.25l-.16-.08a5.75,5.75,0,0,0,.65-1.25Z"/><path class="cls-1" d="M1016.09,637a5,5,0,0,0,1.78-1.81l.17.06a6.56,6.56,0,0,1-1.6,1.74c1.2,0,2.29-.12,3.26-.22a10.47,10.47,0,0,0-.75-.93l.16-.08a14.16,14.16,0,0,1,1.31,1.72l-.17.08q-.21-.33-.42-.63c-1.1.1-2.33.18-3.7.24Zm3.76,2.86h-.17v-.33h-3v.33h-.17v-2.07h3.3Zm-.17-.5V638h-3v1.4Z"/><path class="cls-1" d="M1008.73,627.32v-4.57h-8.1v4.57Zm-7.2-3.72h6.27v2.85h-6.27Z"/><path class="cls-1" d="M1002,621.45c1.09,0,3-.13,6.5-.33a10.43,10.43,0,0,1,.72,1l.75-.54a19.52,19.52,0,0,0-3.17-3.49l-.71.46a22.48,22.48,0,0,1,1.74,1.77l-6.09.3a26.78,26.78,0,0,0,3-3.54l-.88-.39a20.42,20.42,0,0,1-2.77,3.39,4.3,4.3,0,0,1-.74.62H1000l.29.82,1.68-.08Z"/><path class="cls-1" d="M1010.36,653.06v.63H999.64v-.63h4.86v-.62h-3.93v-.57h3.93v-.61h-3.64v-.55h3.64v-.66h-4.83v-.57h4.83v-.61h-3.57v-.56h3.57v-.74h.89v.74H1009v1.17h1.3v.57H1009v1.21h-3.64v.61h4.11v.57h-4.11v.62Zm-10.72,4.51h10.72v.64H999.64Zm9.41-3.35V657h-8.19v-2.78Zm-7.34,1.13h2.82v-.62h-2.82Zm0,1.14h2.82v-.64h-2.82Zm6.44-1.76h-2.79v.62h2.79Zm0,1.12h-2.79v.64h2.79Zm-2.76-6.37h2.75v-.61h-2.75Zm0,1.23h2.75v-.66h-2.75Z"/><path class="cls-1" d="M1006.57,602.52h-1.4c.15-.47.2-.58.32-1l-.81-.15c-.08.4-.2.8-.31,1.18h-.93v4.55h3.13Zm-.79,3.85h-1.56v-1.25h1.56Zm0-1.91h-1.56v-1.24h1.56Z"/><path class="cls-1" d="M1000.54,605.85c-.3.36-.52.62-.73.66l.22.66,2.33-.37.13,0c0,.23.06.44.08.61l.65-.17a13.85,13.85,0,0,0-.45-2l-.61.16c.07.25.13.54.21.82l-1.47.19a19.76,19.76,0,0,0,2.22-3.25l-.66-.36c-.19.4-.41.8-.62,1.19l-1,.1h0a13.61,13.61,0,0,0,1.22-2.38l-.71-.28a10.21,10.21,0,0,1-1,2.27,1,1,0,0,1-.42.47h-.06l.23.68,1.38-.21h0C1001,605.2,1000.7,605.66,1000.54,605.85Z"/><polygon class="cls-1" points="1005.44 607.46 1004.55 607.46 1004.55 608.09 999.66 608.09 999.66 608.85 1004.55 608.85 1004.55 612.33 1005.44 612.33 1005.44 608.85 1010.33 608.85 1010.33 608.09 1005.44 608.09 1005.44 607.46"/><path class="cls-1" d="M1006.21,609.73a22.08,22.08,0,0,1,3.55,2.3l.56-.67a25.19,25.19,0,0,0-3.57-2.21Z"/><path class="cls-1" d="M1008.26,604.73h0l.25,0c-.4.6-.75,1.07-.9,1.26-.29.36-.51.61-.72.67h0l.11.65,1.58-.2,1-.13c0,.2.09.38.12.55l.63-.22a16.36,16.36,0,0,0-.55-1.87l-.6.18c.07.23.14.49.23.76l-1.43.15a20.43,20.43,0,0,0,2.2-3.24l-.66-.38c-.18.39-.38.76-.59,1.13l-1.17.14a16,16,0,0,0,1.24-2.52l-.72-.24a11,11,0,0,1-1.06,2.37c-.17.28-.31.47-.47.51l.21.66Z"/><path class="cls-1" d="M1003.14,609.23a7.64,7.64,0,0,1-3.7,2l.56.72a9.13,9.13,0,0,0,3.91-2.42Z"/><polygon class="cls-1" points="1007.86 636.29 1007.86 632.38 1006.96 632.38 1006.96 636.29 1004.6 636.29 1004.6 637.17 1006.96 637.17 1006.96 643.13 1007.86 643.13 1007.86 637.17 1010.32 637.17 1010.32 636.29 1007.86 636.29"/><path class="cls-1" d="M1000.22,639.35v3.48h3.9v-3.47Zm.78.75h2.33v2H1001Z"/><rect class="cls-1" x="1000.21" y="637.6" width="3.91" height="0.74"/><rect class="cls-1" x="1000.21" y="635.89" width="3.91" height="0.74"/><rect class="cls-1" x="1001" y="632.48" width="3.12" height="0.74"/><rect class="cls-1" x="999.69" y="634.19" width="4.43" height="0.73"/><polygon class="cls-1" points="163.21 334.4 104.29 334.4 95.7 334.4 95.7 342.99 95.7 389.63 104.29 389.63 104.29 342.99 163.21 342.99 163.21 334.4"/><rect class="cls-1" x="148.76" y="353.6" width="9.01" height="35.5" transform="matrix(0.95, 0.3, -0.3, 0.95, 120.31, -29.03)"/><circle class="cls-1" cx="123.93" cy="378.59" r="11.05"/><path class="cls-1" d="M157.18,418.93a16.74,16.74,0,0,0,.2-2.49v-.87h.42v.77a17.57,17.57,0,0,1-.2,2.59h5.31v.42h-5a11.44,11.44,0,0,0,5.23,6.92l-.25.34a11.74,11.74,0,0,1-5.33-7.2,9.74,9.74,0,0,1-5.22,7.25l-.26-.35a9.14,9.14,0,0,0,5.07-7h-4.85v-.42Z"/><path class="cls-1" d="M157.38,433.67v-1h-5v-.37h5v-.87h.42v.87h5v.37h-5v1h3.83v3.23H157.8v1.15l3.64-.18c-.22-.24-.45-.47-.67-.69l.29-.2a17.3,17.3,0,0,1,1.71,1.86l-.32.23c-.2-.27-.43-.56-.69-.86l-1.53.07v1.38H163V440h-2.76v1.8c0,.51-.27.76-.79.76h-1.32l-.08-.39c.44,0,.88,0,1.28,0a.44.44,0,0,0,.49-.49V440h-7.62v-.38h7.62v-1.35c-2.21.1-4.53.18-7,.26l-.08-.36,4.61-.15V436.9h-3.83v-3.23Zm0,1.46V434H154v1.1Zm0,.33H154v1.08h3.42Zm-.56,6.47-.3.29a13.7,13.7,0,0,0-2.12-1.75l.27-.25A14.41,14.41,0,0,1,156.82,441.93Zm1-6.8h3.42V434H157.8Zm3.42.33H157.8v1.08h3.42Z"/><path class="cls-1" d="M155.85,448.06v.34c-.35,1.2-.78,2.43-1.27,3.69a5.45,5.45,0,0,1,1.17,2.88,1.56,1.56,0,0,1-.39,1.11,2.84,2.84,0,0,1-1.72.42l-.15-.43.25,0a2.49,2.49,0,0,0,1.27-.29,1,1,0,0,0,.32-.83,4.79,4.79,0,0,0-1.18-2.81,35.41,35.41,0,0,0,1.26-3.7H153V458.6h-.42V448.06Zm7.09,5.16v.42h-2.21v3.85a.44.44,0,0,0,.49.51h.72a.84.84,0,0,0,.52-.13c.21-.13.33-.72.38-1.76l.4.13a3.88,3.88,0,0,1-.38,1.88,1.08,1.08,0,0,1-.82.28h-.93a.85.85,0,0,1-.59-.23.78.78,0,0,1-.21-.58v-3.95h-1.54a7.1,7.1,0,0,1-.7,3.06,5,5,0,0,1-2.15,1.82l-.26-.33a5,5,0,0,0,2-1.67,6.49,6.49,0,0,0,.66-2.88h-1.93v-.42Zm-.2-2.29h-.41v-1.8h-5.42v1.8h-.41v-2.22h2.94a7.82,7.82,0,0,0-.51-1.24l.44-.07c.17.39.33.82.5,1.31h2.87Zm-.8.11v.38h-4.66V451Z"/><path class="cls-1" d="M154.12,466v-2.51h.4V466H156v.41h-1.46v1.1c.55.76,1.12,1.63,1.7,2.62l-.24.33a29.11,29.11,0,0,0-1.46-2.52v6.59h-.4v-7.09a12.83,12.83,0,0,1-1.94,3.94l-.19-.44a12,12,0,0,0,2.12-4.53h-1.85V466Zm7.2,2.72a8.08,8.08,0,0,1-1.4,3.47,9.69,9.69,0,0,0,3.2,2l-.21.36a10,10,0,0,1-3.26-2,6.83,6.83,0,0,1-3.4,2.07l-.23-.37a6.61,6.61,0,0,0,3.34-2,6.35,6.35,0,0,1-1.62-3.36l.36-.12a6.08,6.08,0,0,0,1.51,3.14,7.67,7.67,0,0,0,1.29-3.24Zm-2.87-2.1a12.72,12.72,0,0,1-2,3.07l-.34-.24a11.79,11.79,0,0,0,1.94-3Zm1.25-1.41a14.13,14.13,0,0,0-.82-1.82l.43-.07a13.07,13.07,0,0,1,.81,1.89h2.78v.41h-6.48v-.41ZM163,469.3l-.35.26a20.92,20.92,0,0,0-2.07-3l.34-.21A24.1,24.1,0,0,1,163,469.3Z"/><path class="cls-1" d="M140.31,416.88a8,8,0,0,0-.68-1.34l.44-.07a8.79,8.79,0,0,1,.65,1.41h4.48v.42h-2.1a9.39,9.39,0,0,1-.87,2.39h3.54v.39H135v-.39h3.43a20.31,20.31,0,0,0-.87-2.39h-2v-.42Zm3.68,9.79h-.41V426h-6.3v.7h-.41v-5.26H144Zm-.41-3.16V421.8h-6.3v1.71Zm0,2.07V423.9h-6.3v1.68Zm-4.7-5.89h2.92a8,8,0,0,0,.9-2.39h-4.65A20.6,20.6,0,0,1,138.88,419.69Z"/><path class="cls-1" d="M139.85,432.84a5.52,5.52,0,0,0,.52-1.36l.39.06a4.76,4.76,0,0,1-.51,1.3H142v4.6h-1.36v1.35h5.25v.41h-5.25v3.39h-.42V439.2H135v-.41h5.28v-1.35h-1.35v-4.6ZM138.59,438l-.36.1c-.08-.36-.17-.7-.27-1-.73.2-1.64.38-2.7.58l-.07-.29a10.58,10.58,0,0,0,1.8-2.65l-1.87.34-.08-.34c.3-.14.81-1.14,1.55-3l.37.14a15.78,15.78,0,0,1-1.35,2.76c.59-.1,1.11-.21,1.57-.31.22-.49.44-1,.64-1.56l.33.1a14,14,0,0,1-2.36,4.36c.66-.13,1.36-.29,2.08-.46-.15-.49-.31-1-.48-1.4l.33-.11A23.24,23.24,0,0,1,138.59,438Zm.27,2.27a14.22,14.22,0,0,1-3.52,2.31l-.26-.33a13.74,13.74,0,0,0,3.48-2.25Zm2.76-5.32v-1.74h-2.34V435Zm0,.37h-2.34v1.75h2.34Zm.42,4.95.28-.27a27.41,27.41,0,0,1,3.47,2.25l-.31.29A24,24,0,0,0,142,440.27Zm3.8-2.33-.33.09c-.09-.35-.17-.69-.27-1-.7.2-1.56.4-2.57.6l-.07-.27a10.79,10.79,0,0,0,1.67-2.6l-1.72.26-.07-.33a8.88,8.88,0,0,0,1.32-2.95l.37.14a14.62,14.62,0,0,1-1.18,2.73l1.45-.24c.21-.49.41-1,.59-1.55l.33.1a13.56,13.56,0,0,1-2.17,4.27c.64-.14,1.29-.3,1.95-.47-.15-.49-.32-.95-.49-1.4l.32-.1A21.18,21.18,0,0,1,145.84,437.94Z"/><path class="cls-1" d="M138.74,449.4v-.89H136v1.22h-.4v-1.57h4.67a4.27,4.27,0,0,0-.38-.71l.41-.08a4.84,4.84,0,0,1,.4.79h4.64v1.57h-.41v-1.22h-2.79v.89h2.34v.33h-2.34v.91h2.09V451h-2.09v.9h3.6v.36h-3.16a7,7,0,0,0,3.35,1.71l-.15.35a10.68,10.68,0,0,1-1.88-.74v3.4H137V453.6a11.55,11.55,0,0,1-1.86.8l-.21-.33a7.6,7.6,0,0,0,3.4-1.86h-3.18v-.36h3.6V451h-2.1v-.31h2.1v-.91h-2.33v-.33Zm.71,8a13.3,13.3,0,0,1-3.84,1.17l-.19-.34a13.62,13.62,0,0,0,3.81-1.11Zm4-4h-6.07v.86h6.07Zm-6.07,2h6.07v-.81h-6.07Zm0,1.23h6.07v-.91h-6.07Zm5.68-3.54a4.53,4.53,0,0,1-1-.85h-3.37a6.12,6.12,0,0,1-.9.85Zm-3.92-4.55v.89h2.52v-.89Zm2.52,1.22h-2.52v.91h2.52Zm0,2.12V451h-2.52v.9Zm3.62,6.43-.24.29a24.67,24.67,0,0,0-3.77-1.15l.22-.27A25.65,25.65,0,0,1,145.29,458.28Z"/><path class="cls-1" d="M140.2,465.66v-1h-5v-.39h5v-.88h.41v.88h5v.39h-5v1h3.64v2.16h-3.64v1h3.82v1.71H146v.38h-1.52v1.61h-3.82v1.11a.76.76,0,0,1-.87.84h-1.51l-.08-.4,1.45,0c.39,0,.6-.19.6-.57v-1H136v-.37h4.24v-1.24h-5.34v-.38h5.34v-1.33H136v-.38h4.22v-1h-3.64v-2.16Zm0,.37H137v1.43h3.22Zm3.63,0h-3.22v1.43h3.22Zm-3.22,4.52H144v-1.33h-3.41Zm0,.38v1.24H144v-1.24Z"/><path class="cls-1" d="M145.31,480.06v.42h-4.75v5.1h5.22v.4h-5.22v4.52h-.41V486H135v-.4h5.12v-5.1h-4.63v-.42Zm-7.26,4.43-.39.18a21,21,0,0,0-1.38-2.88l.38-.2A28,28,0,0,1,138.05,484.49Zm6.5-2.81a15.56,15.56,0,0,1-1.58,3l-.37-.2a15.32,15.32,0,0,0,1.56-2.95Z"/><path class="cls-1" d="M135.39,499.66a12.24,12.24,0,0,0,4.24-4.33l.41.15a15.63,15.63,0,0,1-3.83,4.14c2.87-.11,5.47-.28,7.78-.52a24.14,24.14,0,0,0-1.81-2.2l.38-.2a32.73,32.73,0,0,1,3.13,4.09l-.39.2c-.34-.53-.67-1-1-1.5-2.61.24-5.54.43-8.81.56Zm9,6.81h-.41v-.79h-7.05v.79h-.41v-5h7.87Zm-.41-1.2v-3.34h-7.05v3.34Z"/><path class="cls-1" d="M117.85,476.53V465.64H98.54v10.89Zm-17.16-8.85h14.92v6.79H100.69Z"/><path class="cls-1" d="M101.8,462.55c2.6-.1,7.15-.31,15.49-.78a19.37,19.37,0,0,1,1.71,2.41l1.8-1.29a45.79,45.79,0,0,0-7.57-8.31l-1.69,1.09a51.82,51.82,0,0,1,4.16,4.21l-14.51.71a62.31,62.31,0,0,0,7.23-8.42l-2.1-.95a47.39,47.39,0,0,1-6.59,8.09A9,9,0,0,1,98,460.78h-.85l.67,2,4-.19Z"/><path class="cls-1" d="M121.73,537.88v1.49H96.19v-1.49h11.57v-1.49H98.39V535h9.37v-1.46H99.08v-1.31h8.68v-1.58H96.24v-1.34h11.52v-1.47H99.25v-1.31h8.51v-1.78h2.12v1.78h8.68v2.78h3.09v1.34h-3.09v2.89h-8.68V535h9.79v1.35h-9.79v1.49ZM96.19,548.62h25.54v1.52H96.19Zm22.42-8v6.64H99.08v-6.64Zm-17.49,2.69h6.72v-1.46h-6.72Zm0,2.72h6.72v-1.52h-6.72Zm15.34-4.18h-6.64v1.46h6.64Zm0,2.66h-6.64V546h6.64Zm-6.58-15.17h6.56v-1.47h-6.56Zm0,2.92h6.56v-1.58h-6.56Z"/><path class="cls-1" d="M112.7,417.45h-3.34c.35-1.12.47-1.39.76-2.46l-1.94-.37c-.19,1-.47,1.91-.73,2.83h-2.23v10.82h7.48Zm-1.89,9.16h-3.72v-3h3.72Zm0-4.55h-3.72v-2.95h3.72Z"/><path class="cls-1" d="M98.32,425.38c-.71.86-1.23,1.46-1.75,1.58l.54,1.55,5.55-.88.3,0c.11.54.14,1.06.2,1.46l1.55-.4a35.66,35.66,0,0,0-1.06-4.82l-1.46.38c.17.6.31,1.29.48,1.94l-3.49.46a47.62,47.62,0,0,0,5.3-7.73L102.9,418c-.45,1-1,1.89-1.49,2.84l-2.42.22h0a31.13,31.13,0,0,0,2.92-5.67l-1.69-.66a24.39,24.39,0,0,1-2.49,5.41,2.54,2.54,0,0,1-1,1.12h-.15l.55,1.63,3.27-.5h0C99.5,423.83,98.69,424.92,98.32,425.38Z"/><polygon class="cls-1" points="110.01 429.22 107.89 429.22 107.89 430.71 96.23 430.71 96.23 432.51 107.89 432.51 107.89 440.82 110.01 440.82 110.01 432.51 121.66 432.51 121.66 430.71 110.01 430.71 110.01 429.22"/><path class="cls-1" d="M111.82,434.63a52.88,52.88,0,0,1,8.48,5.47l1.32-1.6a59.8,59.8,0,0,0-8.51-5.27Z"/><path class="cls-1" d="M116.71,422.71h0l.6-.08c-1,1.43-1.78,2.55-2.15,3-.67.87-1.2,1.45-1.71,1.59h-.1l.28,1.53,3.75-.47,2.48-.31c.11.48.23.91.28,1.32l1.52-.52c-.26-1.2-.83-3-1.31-4.47l-1.44.43c.17.55.35,1.18.55,1.81l-3.41.37a48.89,48.89,0,0,0,5.24-7.73l-1.57-.89c-.43.91-.89,1.8-1.41,2.69l-2.78.32a39.29,39.29,0,0,0,3-6l-1.72-.57a26.27,26.27,0,0,1-2.51,5.64c-.41.66-.75,1.12-1.12,1.2l.5,1.58Z"/><path class="cls-1" d="M104.53,433.43s-2.65,3.13-8.83,4.79l1.35,1.71s5.8-1.65,9.31-5.76Z"/><polygon class="cls-1" points="115.76 497.92 115.76 488.58 113.62 488.58 113.62 497.92 108 497.92 108 500.01 113.62 500.01 113.62 514.22 115.76 514.22 115.76 500.01 121.63 500.01 121.63 497.92 115.76 497.92"/><path class="cls-1" d="M97.56,505.21v8.28h9.3v-8.27ZM99.42,507H105v4.73H99.42Z"/><rect class="cls-1" x="97.55" y="501.02" width="9.31" height="1.76"/><rect class="cls-1" x="97.55" y="496.97" width="9.31" height="1.77"/><rect class="cls-1" x="99.42" y="488.83" width="7.43" height="1.77"/><rect class="cls-1" x="96.29" y="492.91" width="10.57" height="1.75"/><polygon class="cls-1" points="693.24 156.8 478.58 156.8 469.25 156.8 469.25 166.14 469.25 212.8 478.58 212.8 478.58 166.14 693.24 166.14 693.24 156.8"/><rect class="cls-1" x="545.8" y="176.17" width="9.83" height="35.99" transform="translate(85.24 -158.42) rotate(17.72)"/><circle class="cls-1" cx="509.69" cy="200.36" r="12.44"/><path class="cls-1" d="M770.63,202.12v1.32H748v-1.32h10.24V200.8H750v-1.19h8.29v-1.29h-7.68v-1.17h7.68v-1.39H748.07v-1.2h10.19v-1.29h-7.53V192.1h7.53v-1.57h1.87v1.57h7.68v2.46h2.74v1.2h-2.74v2.56h-7.68v1.29h8.67v1.19h-8.67v1.32ZM748,211.63h22.61V213H748Zm19.85-7.08v5.88H750.58v-5.88Zm-15.49,2.39h6v-1.3h-6Zm0,2.4h6V208h-6Zm13.58-3.7h-5.88v1.3H766Zm0,2.36h-5.88v1.34H766Zm-5.83-13.44h5.81v-1.29h-5.81Zm0,2.59h5.81v-1.39h-5.81Z"/><path class="cls-1" d="M733,159.38h-3c.31-1,.42-1.23.68-2.18l-1.72-.32c-.17.85-.42,1.69-.65,2.5h-2V169H733Zm-1.67,8.11H728v-2.63h3.3Zm0-4H728v-2.61h3.3Z"/><path class="cls-1" d="M720.23,166.4c-.63.76-1.09,1.29-1.54,1.4l.47,1.37,4.92-.78.26,0c.1.49.13.94.18,1.3l1.37-.36A34.28,34.28,0,0,0,725,165l-1.3.33c.16.53.28,1.14.44,1.73l-3.1.4a41.64,41.64,0,0,0,4.69-6.84l-1.39-.76c-.41.83-.86,1.67-1.32,2.51l-2.15.2h0a27.83,27.83,0,0,0,2.58-5l-1.49-.58a22.44,22.44,0,0,1-2.21,4.79,2.24,2.24,0,0,1-.87,1h-.13l.49,1.44,2.89-.44h0C721.27,165,720.56,166,720.23,166.4Z"/><polygon class="cls-1" points="730.58 169.8 728.7 169.8 728.7 171.12 718.38 171.12 718.38 172.71 728.7 172.71 728.7 180.06 730.58 180.06 730.58 172.71 740.89 172.71 740.89 171.12 730.58 171.12 730.58 169.8"/><path class="cls-1" d="M732.19,174.59a46.93,46.93,0,0,1,7.5,4.84l1.17-1.42a54.32,54.32,0,0,0-7.53-4.66Z"/><path class="cls-1" d="M736.51,164h0L737,164c-.84,1.27-1.57,2.25-1.9,2.66-.59.77-1.07,1.28-1.51,1.4h-.1l.25,1.36,3.33-.42,2.19-.27c.1.43.2.81.25,1.16l1.34-.45a39,39,0,0,0-1.16-4l-1.27.38c.15.48.3,1,.48,1.6l-3,.33a42.47,42.47,0,0,0,4.64-6.84l-1.39-.79c-.38.81-.79,1.6-1.24,2.38l-2.46.28a34.41,34.41,0,0,0,2.61-5.3l-1.52-.5a23.93,23.93,0,0,1-2.23,5c-.36.58-.66,1-1,1.07l.44,1.39Z"/><path class="cls-1" d="M725.73,173.52s-2.34,2.78-7.82,4.25l1.19,1.51s5.14-1.46,8.24-5.1Z"/><path class="cls-1" d="M767.87,179.25v-9.64h-17.1v9.64Zm-15.19-7.84h13.21v6H752.68Z"/><path class="cls-1" d="M753.66,166.87c2.3-.09,6.33-.27,13.72-.69a17.4,17.4,0,0,1,1.5,2.13l1.6-1.14a41.14,41.14,0,0,0-6.7-7.36l-1.5,1a44.83,44.83,0,0,1,3.68,3.73l-12.83.63a55.82,55.82,0,0,0,6.39-7.46l-1.85-.84a42.13,42.13,0,0,1-5.84,7.16,7.86,7.86,0,0,1-1.56,1.3h-.75l.59,1.74,3.55-.17Z"/><polygon class="cls-1" points="735.66 199 735.66 190.74 733.76 190.74 733.76 199 728.79 199 728.79 200.85 733.76 200.85 733.76 213.43 735.66 213.43 735.66 200.85 740.86 200.85 740.86 199 735.66 199"/><path class="cls-1" d="M719.55,205.45v7.31h8.22v-7.31Zm1.64,1.58h4.91v4.16h-4.91Z"/><rect class="cls-1" x="719.54" y="201.75" width="8.24" height="1.56"/><rect class="cls-1" x="719.54" y="198.16" width="8.24" height="1.56"/><rect class="cls-1" x="721.19" y="190.96" width="6.58" height="1.56"/><rect class="cls-1" x="718.42" y="194.57" width="9.35" height="1.55"/><polygon class="cls-1" points="1232.77 485.11 1152.49 485.11 1149 485.11 1149 488.6 1149 506.05 1152.49 506.05 1152.49 488.6 1232.77 488.6 1232.77 485.11"/><rect class="cls-1" x="1177.63" y="492.35" width="3.68" height="13.46" transform="translate(207.89 -335.34) rotate(17.72)"/><circle class="cls-1" cx="1164.13" cy="501.4" r="4.65"/><path class="cls-1" d="M1261.71,502.06v.49h-8.46v-.49h3.84v-.5H1254v-.44h3.11v-.49h-2.88v-.43h2.88v-.52h-3.82v-.45h3.82v-.48h-2.82v-.44h2.82v-.59h.7v.59h2.87v.92h1v.45h-1v.95h-2.87v.49H1261v.44h-3.24v.5Zm-8.46,3.55h8.46v.51h-8.46Zm7.43-2.64v2.2h-6.47V503Zm-5.79.89h2.22v-.48h-2.22Zm0,.9h2.22v-.5h-2.22Zm5.08-1.38h-2.2v.48h2.2Zm0,.88h-2.2v.5h2.2Zm-2.18-5H1260v-.48h-2.17Zm0,1H1260v-.52h-2.17Z"/><path class="cls-1" d="M1247.62,486.07h-1.1c.11-.37.16-.46.25-.81l-.64-.12c-.06.32-.16.63-.24.93h-.74v3.59h2.47Zm-.62,3h-1.23v-1H1247Zm0-1.51h-1.23v-1H1247Z"/><path class="cls-1" d="M1242.86,488.7c-.23.28-.4.48-.57.52l.17.52,1.84-.3h.1c0,.18,0,.35.07.48l.51-.13a12.49,12.49,0,0,0-.35-1.59l-.49.12c.06.2.11.43.17.65l-1.16.15a16,16,0,0,0,1.75-2.56l-.52-.29c-.15.32-.32.63-.49.94l-.8.08h0a10.71,10.71,0,0,0,1-1.88l-.56-.22a8.21,8.21,0,0,1-.82,1.79.77.77,0,0,1-.33.37h0l.18.54,1.09-.17h0A11.61,11.61,0,0,1,1242.86,488.7Z"/><polygon class="cls-1" points="1246.73 489.97 1246.03 489.97 1246.03 490.46 1242.17 490.46 1242.17 491.06 1246.03 491.06 1246.03 493.81 1246.73 493.81 1246.73 491.06 1250.59 491.06 1250.59 490.46 1246.73 490.46 1246.73 489.97"/><path class="cls-1" d="M1247.33,491.76a17.34,17.34,0,0,1,2.81,1.81l.44-.53a20.09,20.09,0,0,0-2.82-1.74Z"/><path class="cls-1" d="M1249,487.82h0l.2,0c-.31.47-.59.84-.71,1s-.4.48-.57.52h0l.09.51,1.24-.15.82-.11c0,.16.08.31.1.44l.5-.17a13.8,13.8,0,0,0-.43-1.48l-.48.14c.06.18.12.39.18.6l-1.13.12a15.53,15.53,0,0,0,1.74-2.56l-.52-.29c-.15.3-.3.6-.47.89l-.92.1a13.52,13.52,0,0,0,1-2l-.57-.19a9,9,0,0,1-.83,1.87c-.14.22-.25.37-.37.4l.16.52Z"/><path class="cls-1" d="M1244.92,491.36A6,6,0,0,1,1242,493l.44.57a7.17,7.17,0,0,0,3.08-1.91Z"/><path class="cls-1" d="M1260.68,493.5v-3.6h-6.39v3.6Zm-5.68-2.93h4.94v2.25H1255Z"/><path class="cls-1" d="M1255.37,488.88l5.13-.26a6.24,6.24,0,0,1,.56.8l.6-.43a15.23,15.23,0,0,0-2.51-2.75l-.56.36A16.49,16.49,0,0,1,1260,488l-4.8.24a21.41,21.41,0,0,0,2.39-2.79l-.7-.31a15.85,15.85,0,0,1-2.18,2.67,2.55,2.55,0,0,1-.58.49h-.28l.22.65,1.33-.06Z"/><polygon class="cls-1" points="1248.63 500.89 1248.63 497.8 1247.92 497.8 1247.92 500.89 1246.07 500.89 1246.07 501.58 1247.92 501.58 1247.92 506.29 1248.63 506.29 1248.63 501.58 1250.58 501.58 1250.58 500.89 1248.63 500.89"/><path class="cls-1" d="M1242.61,503.3V506h3.08V503.3Zm.61.59h1.84v1.56h-1.84Z"/><rect class="cls-1" x="1242.6" y="501.92" width="3.08" height="0.58"/><rect class="cls-1" x="1242.6" y="500.58" width="3.08" height="0.59"/><rect class="cls-1" x="1243.22" y="497.88" width="2.46" height="0.59"/><rect class="cls-1" x="1242.19" y="499.23" width="3.5" height="0.58"/><polygon class="cls-1" points="537.08 285.68 477.35 285.68 468.64 285.68 468.64 294.39 468.64 341.67 477.35 341.67 477.35 294.39 537.08 294.39 537.08 285.68"/><rect class="cls-1" x="522.43" y="305.14" width="9.13" height="35.99" transform="translate(123.37 -145.08) rotate(17.72)"/><circle class="cls-1" cx="497.26" cy="330.47" r="11.2"/><path class="cls-1" d="M614.2,330.74v1.32H591.59v-1.32h10.24v-1.31h-8.29v-1.19h8.29v-1.3h-7.68v-1.16h7.68v-1.4H591.64v-1.19h10.19V321.9H594.3v-1.17h7.53v-1.57h1.88v1.57h7.68v2.46h2.74v1.19h-2.74v2.56h-7.68v1.3h8.67v1.19h-8.67v1.31Zm-22.61,9.51H614.2v1.35H591.59Zm19.85-7.07v5.88H594.15v-5.88ZM596,335.56h6v-1.29h-6Zm0,2.41h6v-1.34h-6Zm13.59-3.7h-5.88v1.29h5.88Zm0,2.36h-5.88V338h5.88Zm-5.83-13.44h5.8V321.9h-5.8Zm0,2.59h5.8v-1.4h-5.8Z"/><path class="cls-1" d="M576.68,288.18h-3c.31-1,.42-1.23.68-2.18l-1.72-.32c-.17.85-.42,1.69-.65,2.5h-2v9.58h6.62ZM575,296.29h-3.3v-2.63H575Zm0-4h-3.3v-2.61H575Z"/><path class="cls-1" d="M564,295.2c-.63.76-1.09,1.29-1.54,1.4l.47,1.37,4.92-.78.26,0c.1.49.13.94.18,1.3l1.37-.36a34.28,34.28,0,0,0-.94-4.26l-1.29.33c.15.53.27,1.14.43,1.73l-3.1.4a41.64,41.64,0,0,0,4.69-6.84l-1.39-.76c-.41.83-.86,1.67-1.32,2.51l-2.14.2h0a27.83,27.83,0,0,0,2.58-5l-1.49-.58a22.19,22.19,0,0,1-2.21,4.79,2.24,2.24,0,0,1-.87,1h-.13l.49,1.44,2.89-.44h0C565,293.83,564.28,294.8,564,295.2Z"/><polygon class="cls-1" points="574.3 298.6 572.42 298.6 572.42 299.92 562.1 299.92 562.1 301.51 572.42 301.51 572.42 308.87 574.3 308.87 574.3 301.51 584.61 301.51 584.61 299.92 574.3 299.92 574.3 298.6"/><path class="cls-1" d="M575.91,303.39a46.93,46.93,0,0,1,7.5,4.84l1.17-1.42a54.32,54.32,0,0,0-7.53-4.66Z"/><path class="cls-1" d="M580.23,292.84h0l.53-.07c-.84,1.27-1.57,2.25-1.9,2.66-.59.77-1.07,1.28-1.51,1.4l-.09,0,.24,1.35,3.33-.42,2.19-.27c.1.43.2.81.25,1.17l1.34-.46a39,39,0,0,0-1.16-4l-1.27.38c.15.49.31,1,.48,1.6l-3,.33a43.09,43.09,0,0,0,4.63-6.84l-1.39-.79c-.38.81-.78,1.6-1.24,2.38l-2.46.28a33.52,33.52,0,0,0,2.61-5.3l-1.52-.5a23.16,23.16,0,0,1-2.23,5c-.36.58-.66,1-1,1.07l.45,1.39Z"/><path class="cls-1" d="M569.45,302.32s-2.34,2.78-7.82,4.25l1.19,1.51s5.14-1.46,8.24-5.1Z"/><path class="cls-1" d="M611.59,308.08v-9.64H594.5v9.64Zm-15.19-7.84h13.21v6H596.4Z"/><path class="cls-1" d="M597.38,295.71c2.3-.1,6.33-.28,13.72-.7a17.43,17.43,0,0,1,1.5,2.14l1.6-1.15a41.14,41.14,0,0,0-6.7-7.36l-1.5,1a44.83,44.83,0,0,1,3.68,3.73l-12.83.63a55.82,55.82,0,0,0,6.39-7.46l-1.85-.83a42.37,42.37,0,0,1-5.84,7.15,7.52,7.52,0,0,1-1.56,1.3h-.75l.59,1.74,3.55-.16Z"/><polygon class="cls-1" points="579.23 327.63 579.23 319.36 577.33 319.36 577.33 327.63 572.36 327.63 572.36 329.48 577.33 329.48 577.33 342.05 579.23 342.05 579.23 329.48 584.43 329.48 584.43 327.63 579.23 327.63"/><path class="cls-1" d="M563.12,334.08v7.31h8.23v-7.3Zm1.65,1.57h4.91v4.16h-4.91Z"/><rect class="cls-1" x="563.11" y="330.38" width="8.24" height="1.56"/><rect class="cls-1" x="563.11" y="326.78" width="8.24" height="1.56"/><rect class="cls-1" x="564.77" y="319.58" width="6.58" height="1.56"/><rect class="cls-1" x="561.99" y="323.19" width="9.35" height="1.55"/><polygon class="cls-1" points="1174.86 532.01 1152.29 532.01 1149 532.01 1149 535.3 1149 553.17 1152.29 553.17 1152.29 535.3 1174.86 535.3 1174.86 532.01"/><rect class="cls-1" x="1169.33" y="539.37" width="3.45" height="13.6" transform="translate(221.82 -330.55) rotate(17.72)"/><circle class="cls-1" cx="1159.82" cy="548.94" r="4.23"/><path class="cls-1" d="M1204,549v.5h-8.55V549h3.87v-.5h-3.13v-.45h3.13v-.49h-2.9v-.44h2.9v-.52h-3.85v-.45h3.85v-.49h-2.84v-.44h2.84v-.6h.71v.6h2.9v.93h1v.45h-1v1H1200v.49h3.28v.45H1200v.5Zm-8.55,3.59H1204v.51h-8.55ZM1203,550v2.22h-6.53V550Zm-5.85.9h2.25v-.49h-2.25Zm0,.91h2.25v-.51h-2.25Zm5.13-1.4H1200v.49h2.22Zm0,.89H1200v.51h2.22Zm-2.2-5.07h2.19v-.49H1200Zm0,1h2.19v-.52H1200Z"/><path class="cls-1" d="M1189.82,533h-1.12c.12-.38.16-.46.26-.82l-.65-.13a9.44,9.44,0,0,1-.25,1h-.74v3.62h2.5Zm-.63,3.07h-1.25v-1h1.25Zm0-1.53h-1.25v-1h1.25Z"/><path class="cls-1" d="M1185,535.61c-.24.29-.41.49-.58.53l.18.52,1.85-.29.1,0c0,.18,0,.36.07.49l.52-.13a11,11,0,0,0-.36-1.61l-.48.12c0,.2.1.43.16.65l-1.17.16a16.38,16.38,0,0,0,1.77-2.59l-.53-.29c-.15.32-.32.63-.49,1l-.81.08h0a10.28,10.28,0,0,0,1-1.9l-.57-.22a8.39,8.39,0,0,1-.83,1.81.82.82,0,0,1-.33.37h0l.19.54,1.09-.16h0A11.61,11.61,0,0,1,1185,535.61Z"/><polygon class="cls-1" points="1188.92 536.9 1188.21 536.9 1188.21 537.39 1184.31 537.39 1184.31 538 1188.21 538 1188.21 540.78 1188.92 540.78 1188.92 538 1192.82 538 1192.82 537.39 1188.92 537.39 1188.92 536.9"/><path class="cls-1" d="M1189.53,538.71a16.93,16.93,0,0,1,2.83,1.83l.44-.54a19.79,19.79,0,0,0-2.84-1.76Z"/><path class="cls-1" d="M1191.16,534.72h0l.2,0a10.83,10.83,0,0,1-.72,1,1.4,1.4,0,0,1-.57.53h0l.09.52,1.26-.16.82-.11c0,.17.08.31.1.45l.51-.18c-.09-.4-.28-1-.44-1.49l-.48.14c.06.18.11.4.18.61l-1.14.12a15.86,15.86,0,0,0,1.75-2.59l-.52-.29c-.15.3-.3.6-.47.9l-.93.1a12.4,12.4,0,0,0,1-2l-.57-.19a9.22,9.22,0,0,1-.84,1.89c-.14.22-.25.37-.38.4l.17.53Z"/><path class="cls-1" d="M1187.09,538.3a6.12,6.12,0,0,1-3,1.61l.46.57a7.17,7.17,0,0,0,3.11-1.93Z"/><path class="cls-1" d="M1203,540.48v-3.64h-6.46v3.64Zm-5.74-3h5v2.27h-5Z"/><path class="cls-1" d="M1197.64,535.8c.87,0,2.39-.1,5.18-.26a6.14,6.14,0,0,1,.57.81l.61-.43a15.14,15.14,0,0,0-2.53-2.78l-.57.36a16.89,16.89,0,0,1,1.39,1.41l-4.85.24a20.47,20.47,0,0,0,2.41-2.82l-.7-.32a16,16,0,0,1-2.2,2.71,2.79,2.79,0,0,1-.59.49h-.28l.22.65,1.34-.06Z"/><polygon class="cls-1" points="1190.79 547.87 1190.79 544.74 1190.07 544.74 1190.07 547.87 1188.19 547.87 1188.19 548.56 1190.07 548.56 1190.07 553.31 1190.79 553.31 1190.79 548.56 1192.75 548.56 1192.75 547.87 1190.79 547.87"/><path class="cls-1" d="M1184.7,550.3v2.76h3.11V550.3Zm.62.6h1.85v1.57h-1.85Z"/><rect class="cls-1" x="1184.69" y="548.9" width="3.11" height="0.59"/><rect class="cls-1" x="1184.69" y="547.54" width="3.11" height="0.59"/><rect class="cls-1" x="1185.32" y="544.82" width="2.49" height="0.59"/><rect class="cls-1" x="1184.27" y="546.19" width="3.53" height="0.58"/><path class="cls-1" d="M819.41,502.15v2.75H772.2v-2.75h21.38v-2.76h-17.3v-2.48h17.3v-2.7h-16v-2.43h16v-2.91H772.31v-2.49h21.27v-2.7H777.87v-2.44h15.71V478h3.92v3.28h16v5.14h5.72v2.49h-5.72v5.34h-16v2.7h18.1v2.48H797.5v2.76ZM772.2,522h47.21v2.81H772.2Zm41.44-14.76V519.5H777.56V507.23Zm-32.33,5h12.43v-2.7H781.31Zm0,5h12.43v-2.81H781.31Zm28.36-7.73H797.39v2.7h12.28Zm0,4.92H797.39v2.81h12.28Zm-12.17-28h12.12v-2.7H797.5Zm0,5.4h12.12v-2.91H797.5Z"/><path class="cls-1" d="M681.82,524.8V504.7H646.18v20.1Zm-31.67-16.34H677.7V521H650.15Z"/><path class="cls-1" d="M652.19,499c4.81-.2,13.2-.58,28.61-1.44a34.8,34.8,0,0,1,3.14,4.45l3.33-2.39c-2.75-4.39-8.83-10.85-14-15.34l-3.12,2a95.84,95.84,0,0,1,7.67,7.78l-26.77,1.31a113.84,113.84,0,0,0,13.33-15.55l-3.86-1.74A88.07,88.07,0,0,1,648.38,493a16.51,16.51,0,0,1-3.25,2.71h-1.57l1.24,3.62,7.39-.34Z"/><path class="cls-1" d="M605.83,483.31h-6.16c.64-2.07.87-2.56,1.4-4.55l-3.58-.67c-.36,1.78-.88,3.53-1.36,5.22H592v20h13.81Zm-3.49,16.94h-6.88v-5.51h6.88Zm0-8.42h-6.88v-5.45h6.88Z"/><path class="cls-1" d="M579.27,498c-1.32,1.59-2.28,2.7-3.23,2.91l1,2.88,10.27-1.63.55-.08c.21,1,.27,2,.37,2.7l2.86-.74a66.4,66.4,0,0,0-2-8.9l-2.7.69c.32,1.11.58,2.38.9,3.6l-6.45.85A88.31,88.31,0,0,0,590.64,486l-2.91-1.59c-.84,1.75-1.79,3.5-2.75,5.24l-4.48.42h0a56.59,56.59,0,0,0,5.4-10.47l-3.12-1.22a45.69,45.69,0,0,1-4.6,10,4.71,4.71,0,0,1-1.82,2.07l-.28,0,1,3,6-.92h0C581.44,495.11,580,497.12,579.27,498Z"/><polygon class="cls-1" points="600.86 505.06 596.94 505.06 596.94 507.81 575.4 507.81 575.4 511.15 596.94 511.15 596.94 526.49 600.86 526.49 600.86 511.15 622.4 511.15 622.4 507.81 600.86 507.81 600.86 505.06"/><path class="cls-1" d="M604.22,515.06a96.91,96.91,0,0,1,15.66,10.11l2.44-3a110.36,110.36,0,0,0-15.72-9.74Z"/><path class="cls-1" d="M613.25,493h0l1.11-.15c-1.74,2.65-3.28,4.71-4,5.56-1.24,1.6-2.23,2.68-3.16,2.93l-.19,0,.51,2.84,6.94-.88c1.28-.15,2.78-.33,4.57-.57a24.74,24.74,0,0,1,.53,2.43l2.81-1c-.48-2.22-1.54-5.61-2.44-8.26l-2.64.8c.31,1,.63,2.17,1,3.33l-6.29.69a89.14,89.14,0,0,0,9.68-14.29l-2.91-1.64c-.79,1.69-1.64,3.33-2.59,5l-5.14.58a71.61,71.61,0,0,0,5.45-11.06l-3.17-1.06a48.19,48.19,0,0,1-4.66,10.42c-.74,1.22-1.37,2.07-2.06,2.23l.93,2.91Z"/><path class="cls-1" d="M590.74,512.84s-4.89,5.78-16.32,8.86l2.49,3.15s10.72-3.05,17.2-10.63Z"/><polygon class="cls-1" points="742.68 496.08 742.68 478.83 738.72 478.83 738.72 496.08 728.34 496.08 728.34 499.94 738.72 499.94 738.72 526.19 742.68 526.19 742.68 499.94 753.53 499.94 753.53 496.08 742.68 496.08"/><path class="cls-1" d="M709.05,509.54V524.8h17.18V509.54Zm3.44,3.29h10.24v8.68H712.49Z"/><rect class="cls-1" x="709.03" y="501.81" width="17.2" height="3.25"/><rect class="cls-1" x="709.03" y="494.31" width="17.2" height="3.27"/><rect class="cls-1" x="712.49" y="479.29" width="13.74" height="3.27"/><rect class="cls-1" x="706.7" y="486.82" width="19.53" height="3.23"/><polygon class="cls-1" points="536.82 469.32 477.32 469.32 468.64 469.32 468.64 478 468.64 525.11 477.32 525.11 477.32 478 536.82 478 536.82 469.32"/><rect class="cls-1" x="522.23" y="488.72" width="9.1" height="35.86" transform="translate(179.22 -136.31) rotate(17.72)"/><circle class="cls-1" cx="497.15" cy="513.95" r="11.16"/><path class="cls-1" d="M1218.57,578.05v.55h-9.36v-.55h4.24v-.54H1210V577h3.44v-.54h-3.18V576h3.18v-.58h-4.22v-.49h4.22v-.54h-3.12v-.48h3.12v-.65h.77v.65h3.18v1h1.14v.49h-1.14v1.06h-3.18V577h3.59v.49h-3.59v.54Zm-9.36,3.94h9.36v.56h-9.36Zm8.21-2.93v2.44h-7.15v-2.44Zm-6.41,1h2.47v-.54H1211Zm0,1h2.47v-.56H1211Zm5.63-1.54h-2.44v.54h2.44Zm0,1h-2.44v.56h2.44Zm-2.42-5.56h2.41v-.54h-2.41Zm0,1.07h2.41v-.58h-2.41Z"/><path class="cls-1" d="M1191.28,582.55v-4h-7.07v4Zm-6.28-3.24h5.46v2.48H1185Z"/><path class="cls-1" d="M1185.41,577.43c.95,0,2.61-.12,5.67-.29a7.31,7.31,0,0,1,.62.89l.66-.48a16.52,16.52,0,0,0-2.77-3l-.62.4a18.47,18.47,0,0,1,1.52,1.54l-5.3.26a23.12,23.12,0,0,0,2.64-3.08l-.77-.35a17.23,17.23,0,0,1-2.41,3,3.06,3.06,0,0,1-.65.54h-.31l.25.72,1.47-.07Z"/><path class="cls-1" d="M1176.21,574.32H1175c.13-.41.17-.51.28-.9l-.71-.14c-.07.35-.18.7-.27,1h-.82v4h2.74Zm-.69,3.36h-1.37v-1.09h1.37Zm0-1.67h-1.37v-1.08h1.37Z"/><path class="cls-1" d="M1170.94,577.23c-.26.31-.45.53-.64.57l.2.57,2-.32.11,0c0,.2.06.39.08.54l.56-.15a12.61,12.61,0,0,0-.39-1.76l-.53.14c.06.22.12.47.18.71l-1.28.17a17.94,17.94,0,0,0,1.94-2.84l-.58-.31c-.17.34-.35.69-.54,1l-.89.08h0a11,11,0,0,0,1.07-2.08l-.61-.24a9.34,9.34,0,0,1-.92,2,.94.94,0,0,1-.36.41h0l.2.6,1.2-.19h0C1171.37,576.66,1171.08,577.06,1170.94,577.23Z"/><polygon class="cls-1" points="1175.22 578.63 1174.45 578.63 1174.45 579.18 1170.18 579.18 1170.18 579.84 1174.45 579.84 1174.45 582.88 1175.22 582.88 1175.22 579.84 1179.5 579.84 1179.5 579.18 1175.22 579.18 1175.22 578.63"/><path class="cls-1" d="M1175.89,580.62a18.63,18.63,0,0,1,3.11,2l.48-.59a23,23,0,0,0-3.12-1.93Z"/><path class="cls-1" d="M1177.68,576.25h0l.22,0c-.35.52-.65.93-.79,1.1a1.51,1.51,0,0,1-.62.58h0l.1.56,1.38-.18c.25,0,.55-.06.91-.11,0,.18.08.34.1.48l.56-.19c-.1-.44-.31-1.11-.49-1.63l-.52.15c.06.2.12.44.2.67l-1.25.13a18,18,0,0,0,1.92-2.83l-.58-.33a10.31,10.31,0,0,1-.51,1l-1,.12a13.65,13.65,0,0,0,1.08-2.2l-.63-.21a9.51,9.51,0,0,1-.92,2.07c-.15.24-.27.41-.41.44l.18.58Z"/><path class="cls-1" d="M1173.22,580.17a6.65,6.65,0,0,1-3.24,1.76l.5.63a8,8,0,0,0,3.41-2.11Z"/><polygon class="cls-1" points="1203.35 576.85 1203.35 573.43 1202.57 573.43 1202.57 576.85 1200.51 576.85 1200.51 577.62 1202.57 577.62 1202.57 582.82 1203.35 582.82 1203.35 577.62 1205.5 577.62 1205.5 576.85 1203.35 576.85"/><path class="cls-1" d="M1196.68,579.52v3h3.41v-3Zm.68.65h2v1.72h-2Z"/><rect class="cls-1" x="1196.68" y="577.99" width="3.41" height="0.64"/><rect class="cls-1" x="1196.68" y="576.5" width="3.41" height="0.65"/><rect class="cls-1" x="1197.36" y="573.52" width="2.72" height="0.65"/><rect class="cls-1" x="1196.22" y="575.01" width="3.87" height="0.64"/><polygon class="cls-1" points="1162.52 571.54 1150.72 571.54 1149 571.54 1149 573.26 1149 582.61 1150.72 582.61 1150.72 573.26 1162.52 573.26 1162.52 571.54"/><rect class="cls-1" x="1159.63" y="575.39" width="1.8" height="7.11" transform="translate(231.3 -325.79) rotate(17.72)"/><circle class="cls-1" cx="1154.66" cy="580.39" r="2.21"/><polygon class="cls-1" points="1166.33 604.07 1151.21 604.07 1149 604.07 1149 606.28 1149 618.25 1151.21 618.25 1151.21 606.28 1166.33 606.28 1166.33 604.07"/><rect class="cls-1" x="1162.62" y="609" width="2.31" height="9.11" transform="translate(241.99 -325.13) rotate(17.72)"/><circle class="cls-1" cx="1156.25" cy="615.41" r="2.83"/><polygon class="cls-1" points="537.08 594.06 477.35 594.06 468.64 594.06 468.64 602.77 468.64 650.06 477.35 650.06 477.35 602.77 537.08 602.77 537.08 594.06"/><rect class="cls-1" x="522.43" y="613.53" width="9.13" height="35.99" transform="translate(217.24 -130.45) rotate(17.72)"/><circle class="cls-1" cx="497.26" cy="638.86" r="11.2"/></g><g id="說明文字"><path class="cls-2" d="M1001.38,430.16l2.43,5.6h0l2.42-5.6h1.37v7.14h-1.17v-4.92h0l-2.1,4.92h-1l-2.1-4.92h0v4.92H1000v-7.14Z"/><path class="cls-2" d="M1011.21,430.16v7.14H1010v-7.14Z"/><path class="cls-2" d="M1014.78,430.16l3.53,5.15h0v-5.15h1.18v7.14h-1.14l-3.57-5.22h0v5.22h-1.17v-7.14Z"/><path class="cls-2" d="M1023.1,430.16v7.14h-1.17v-7.14Z"/><path class="cls-2" d="M1026.87,430.16l2.43,5.6h0l2.42-5.6h1.37v7.14H1032v-4.92h0l-2.1,4.92h-1l-2.1-4.92h0v4.92h-1.17v-7.14Z"/><path class="cls-2" d="M1036.7,430.16v4.45a1.89,1.89,0,0,0,.43,1.37,1.85,1.85,0,0,0,1.37.44,1.88,1.88,0,0,0,1.37-.44,1.94,1.94,0,0,0,.43-1.37v-4.45h1.17v4.43a2.79,2.79,0,0,1-.78,2.13,3.11,3.11,0,0,1-2.19.72,3.08,3.08,0,0,1-2.18-.71,2.79,2.79,0,0,1-.79-2.14v-4.43Z"/><path class="cls-2" d="M1045.24,430.16l2.43,5.6h0l2.42-5.6h1.37v7.14h-1.17v-4.92h0l-2.1,4.92h-1l-2.1-4.92h0v4.92h-1.17v-7.14Z"/><path class="cls-2" d="M1062.72,430.54a2.29,2.29,0,0,1,.86,1.73h-1.16a1.56,1.56,0,0,0-.55-.95,1.94,1.94,0,0,0-1.18-.29,2.2,2.2,0,0,0-1,.19.76.76,0,0,0-.44.74.81.81,0,0,0,.5.73,10,10,0,0,0,1.22.44,11.2,11.2,0,0,1,1.87.7,1.71,1.71,0,0,1,.93,1.54,1.79,1.79,0,0,1-.75,1.52,4.39,4.39,0,0,1-4.18,0,2.43,2.43,0,0,1-1-2H1059a1.68,1.68,0,0,0,.58,1.16,2.24,2.24,0,0,0,1.3.31,2.54,2.54,0,0,0,1.24-.26.81.81,0,0,0,.46-.71,1,1,0,0,0-.67-.9,13.44,13.44,0,0,0-1.39-.47,11.64,11.64,0,0,1-1.64-.6,1.58,1.58,0,0,1-.82-1.44,1.69,1.69,0,0,1,.8-1.49,3.86,3.86,0,0,1,3.87,0Z"/><path class="cls-2" d="M1066.91,430.16v7.14h-1.17v-7.14Z"/><path class="cls-2" d="M1074.51,430.16v.93l-4.12,5.21h4.36v1h-5.89v-.92l4.13-5.22h-3.83v-1Z"/><path class="cls-2" d="M1081.85,430.16v1h-4v2h3.74v1h-3.74v2.16H1082v1h-5.32v-7.14Z"/><path class="cls-2" d="M100.81,109.93v1h-3.7v2h3.49v1H97.11v3.16H95.94v-7.14Z"/><path class="cls-2" d="M103.93,109.93v4.45a1.89,1.89,0,0,0,.43,1.37,1.85,1.85,0,0,0,1.37.44,1.88,1.88,0,0,0,1.37-.44,1.94,1.94,0,0,0,.43-1.37v-4.45h1.17v4.43a2.79,2.79,0,0,1-.78,2.13,3.11,3.11,0,0,1-2.19.72,3.08,3.08,0,0,1-2.18-.71,2.79,2.79,0,0,1-.79-2.14v-4.43Z"/><path class="cls-2" d="M112.26,109.93v6.14h3.86v1h-5v-7.14Z"/><path class="cls-2" d="M119.18,109.93v6.14H123v1h-5v-7.14Z"/><path class="cls-2" d="M129.86,111.9l1.24,3.75,1.24-3.75h1.24l-1.91,5.17h-1.14l-1.91-5.17Z"/><path class="cls-2" d="M139.38,112.62a3.45,3.45,0,0,1,.62,2.18h-3.87a1.87,1.87,0,0,0,.39,1.1,1.21,1.21,0,0,0,.95.38,1.4,1.4,0,0,0,.85-.24,1.71,1.71,0,0,0,.46-.63h1.14a2.35,2.35,0,0,1-.72,1.21,2.56,2.56,0,0,1-1.72.59,2.42,2.42,0,0,1-1.83-.71,2.76,2.76,0,0,1-.72-2,2.79,2.79,0,0,1,.68-1.93,2.24,2.24,0,0,1,1.82-.79A2.31,2.31,0,0,1,139.38,112.62Zm-2.81.39a1.68,1.68,0,0,0-.42.93h2.66a1.24,1.24,0,0,0-1.35-1.25A1.19,1.19,0,0,0,136.57,113Z"/><path class="cls-2" d="M145,111.89V113a2.46,2.46,0,0,0-.74-.11,1.11,1.11,0,0,0-.81.35,1.39,1.39,0,0,0-.41,1.06v2.74H141.9V111.9H143v.74a1.76,1.76,0,0,1,.49-.6,1.24,1.24,0,0,1,.82-.28A1.45,1.45,0,0,1,145,111.89Z"/><path class="cls-2" d="M148,115.77a.77.77,0,0,1,0,1.09.77.77,0,0,1-.55.21.78.78,0,0,1-.55-.22.77.77,0,0,1,0-1.08.77.77,0,0,1,.55-.21A.79.79,0,0,1,148,115.77Z"/><path class="cls-2" d="M473.24,110.31a2.29,2.29,0,0,1,.86,1.73h-1.16a1.56,1.56,0,0,0-.55-1,1.94,1.94,0,0,0-1.18-.29,2.2,2.2,0,0,0-1,.19.76.76,0,0,0-.44.74.81.81,0,0,0,.5.73,10,10,0,0,0,1.22.44,11.2,11.2,0,0,1,1.87.7,1.71,1.71,0,0,1,.93,1.54,1.79,1.79,0,0,1-.75,1.52,4.39,4.39,0,0,1-4.18,0,2.43,2.43,0,0,1-1-2h1.16a1.68,1.68,0,0,0,.58,1.16,2.24,2.24,0,0,0,1.3.31,2.54,2.54,0,0,0,1.24-.26.81.81,0,0,0,.46-.71,1,1,0,0,0-.67-.9,13.44,13.44,0,0,0-1.39-.47,11.64,11.64,0,0,1-1.64-.6,1.58,1.58,0,0,1-.82-1.44,1.69,1.69,0,0,1,.8-1.49,3.86,3.86,0,0,1,3.87,0Z"/><path class="cls-2" d="M481.41,109.93v1h-4v2h3.74v1h-3.74v2.16h4.15v1h-5.32v-7.14Z"/><path class="cls-2" d="M488.86,110.45a2.64,2.64,0,0,1,.94,1.72h-1.14a1.66,1.66,0,0,0-.67-1,2.12,2.12,0,0,0-1.23-.32,2,2,0,0,0-1.69.77,3.11,3.11,0,0,0-.52,1.92,3.18,3.18,0,0,0,.51,1.94,2.37,2.37,0,0,0,3,.36,2.21,2.21,0,0,0,.72-1.22h1.14a3.15,3.15,0,0,1-1.12,2,3.07,3.07,0,0,1-2,.66,3.18,3.18,0,0,1-2.66-1.12,4.7,4.7,0,0,1,0-5.17,3.12,3.12,0,0,1,2.61-1.13A3.2,3.2,0,0,1,488.86,110.45Z"/><path class="cls-2" d="M497.75,110.85a4.37,4.37,0,0,1,0,5.31,3.68,3.68,0,0,1-5.16,0,4.38,4.38,0,0,1,0-5.29,3.22,3.22,0,0,1,2.58-1.07A3.27,3.27,0,0,1,497.75,110.85Zm-4.3.72a3.52,3.52,0,0,0,0,3.87,2.39,2.39,0,0,0,3.43,0,3,3,0,0,0,.59-2,3.05,3.05,0,0,0-.59-2,2.38,2.38,0,0,0-3.43,0Z"/><path class="cls-2" d="M501.92,109.93l3.53,5.15h0v-5.15h1.18v7.14h-1.14L502,111.85h0v5.22h-1.17v-7.14Z"/><path class="cls-2" d="M511.68,109.93a3.42,3.42,0,0,1,2.63,1,4.39,4.39,0,0,1,0,5.22,3.42,3.42,0,0,1-2.63,1h-2.61v-7.14Zm-1.44,6.14h1.22a2.67,2.67,0,0,0,1.95-.62,2.74,2.74,0,0,0,.6-2,2.7,2.7,0,0,0-.6-2,2.67,2.67,0,0,0-1.95-.61h-1.22Z"/><path class="cls-2" d="M520.63,109.93l2.73,7.14h-1.25l-.65-1.79h-3l-.65,1.79h-1.25l2.73-7.14Zm.48,4.39L520,111.19h0l-1.13,3.13Z"/><path class="cls-2" d="M528.24,109.93a2.74,2.74,0,0,1,1.73.49,1.91,1.91,0,0,1,.67,1.56,1.7,1.7,0,0,1-.3,1,1.55,1.55,0,0,1-.91.63v0a1.29,1.29,0,0,1,1.05,1.25l.12,1.15a1.74,1.74,0,0,0,.43,1h-1.27a1.79,1.79,0,0,1-.31-.93l-.09-.88a1.22,1.22,0,0,0-.36-.84,1.38,1.38,0,0,0-.92-.26h-1.85v2.91h-1.17v-7.14Zm-2,3.23h1.85a1.66,1.66,0,0,0,1-.29,1.08,1.08,0,0,0,.33-.84,1,1,0,0,0-.33-.84,1.66,1.66,0,0,0-1-.26h-1.85Z"/><path class="cls-2" d="M533.79,109.93l2,3.21,2-3.21h1.41l-2.82,4.3v2.84H535.2v-2.84l-2.82-4.3Z"/><path class="cls-2" d="M545.86,111.9l1.24,3.75,1.24-3.75h1.24l-1.91,5.17h-1.14l-1.91-5.17Z"/><path class="cls-2" d="M555.38,112.62a3.45,3.45,0,0,1,.62,2.18h-3.87a1.87,1.87,0,0,0,.39,1.1,1.21,1.21,0,0,0,1,.38,1.4,1.4,0,0,0,.85-.24,1.71,1.71,0,0,0,.46-.63h1.14a2.35,2.35,0,0,1-.72,1.21,2.56,2.56,0,0,1-1.72.59,2.42,2.42,0,0,1-1.83-.71,2.76,2.76,0,0,1-.72-2,2.79,2.79,0,0,1,.68-1.93,2.24,2.24,0,0,1,1.82-.79A2.31,2.31,0,0,1,555.38,112.62Zm-2.81.39a1.68,1.68,0,0,0-.42.93h2.66a1.24,1.24,0,0,0-1.35-1.25A1.19,1.19,0,0,0,552.57,113Z"/><path class="cls-2" d="M561,111.89V113a2.46,2.46,0,0,0-.74-.11,1.11,1.11,0,0,0-.81.35,1.39,1.39,0,0,0-.41,1.06v2.74H557.9V111.9H559v.74a1.76,1.76,0,0,1,.49-.6,1.24,1.24,0,0,1,.82-.28A1.45,1.45,0,0,1,561,111.89Z"/><path class="cls-2" d="M564,115.77a.77.77,0,0,1,0,1.09.77.77,0,0,1-.55.21.78.78,0,0,1-.55-.22.77.77,0,0,1,0-1.08.77.77,0,0,1,.55-.21A.79.79,0,0,1,564,115.77Z"/><path class="cls-2" d="M473.11,423.54l2.73,7.13h-1.25l-.65-1.79h-3l-.65,1.79h-1.25l2.73-7.13Zm.48,4.39-1.12-3.13h0l-1.13,3.13Z"/><path class="cls-2" d="M480.15,423.54a3.42,3.42,0,0,1,2.63,1,3.65,3.65,0,0,1,.86,2.61,3.7,3.7,0,0,1-.86,2.61,3.46,3.46,0,0,1-2.63.95h-2.61v-7.13Zm-1.44,6.13h1.22a2.63,2.63,0,0,0,1.95-.62,3.47,3.47,0,0,0,0-3.9,2.67,2.67,0,0,0-1.95-.61h-1.22Z"/><path class="cls-2" d="M487.11,423.54l2.43,5.59h0l2.42-5.59h1.37v7.13H492.2v-4.91h0l-2.1,4.91h-1l-2.1-4.91h0v4.91h-1.17v-7.13Z"/><path class="cls-2" d="M496.94,423.54v7.13h-1.17v-7.13Z"/><path class="cls-2" d="M500.51,423.54l3.53,5.15h0v-5.15h1.18v7.13h-1.14l-3.57-5.21h0v5.21h-1.17v-7.13Z"/><path class="cls-2" d="M515,423.54c1.72,0,2.59.73,2.59,2.19s-.87,2.21-2.61,2.21h-1.77v2.73H512v-7.13Zm-1.79,3.4h1.7a1.91,1.91,0,0,0,1.14-.28,1.12,1.12,0,0,0,.36-.93,1.07,1.07,0,0,0-.37-.91,1.83,1.83,0,0,0-1.13-.28h-1.7Z"/><path class="cls-2" d="M522.9,423.54l2.73,7.13h-1.25l-.65-1.79h-3l-.65,1.79h-1.25l2.73-7.13Zm.48,4.39-1.12-3.13h0l-1.13,3.13Z"/><path class="cls-2" d="M528.5,423.54l3.53,5.15h0v-5.15h1.18v7.13h-1.14l-3.57-5.21h0v5.21h-1.17v-7.13Z"/><path class="cls-2" d="M540.8,423.54v1h-4v2h3.74v1h-3.74v2.15H541v1h-5.32v-7.13Z"/><path class="cls-2" d="M544.23,423.54v6.13h3.86v1h-5v-7.13Z"/></g></svg>