<svg id="主體" xmlns="http://www.w3.org/2000/svg" viewBox="0 0 108.12 256.31"><defs><style>.cls-1{fill:#fff;}</style></defs><title>logo</title><polygon class="cls-1" points="87.8 20.28 28.88 20.28 20.28 20.28 20.28 28.87 20.28 75.52 28.88 75.52 28.88 28.87 87.8 28.87 87.8 20.28"/><rect class="cls-1" x="73.35" y="39.49" width="9.01" height="35.5" transform="translate(21.12 -20.98) rotate(17.72)"/><circle class="cls-1" cx="48.52" cy="64.47" r="11.05"/><path class="cls-1" d="M81.77,104.81a18.06,18.06,0,0,0,.2-2.49v-.87h.42v.78a17.32,17.32,0,0,1-.2,2.58H87.5v.42h-5a11.4,11.4,0,0,0,5.22,6.92l-.24.34a11.77,11.77,0,0,1-5.34-7.2,9.72,9.72,0,0,1-5.21,7.25l-.26-.34a9.18,9.18,0,0,0,5.07-7H76.85v-.42Z"/><path class="cls-1" d="M82,119.56v-1H77v-.37h5v-.87h.42v.87h5v.37h-5v1h3.82v3.22H82.39v1.16l3.64-.19c-.22-.23-.46-.46-.68-.68l.3-.2a16.11,16.11,0,0,1,1.7,1.85L87,125c-.2-.27-.43-.57-.69-.86l-1.53.07v1.38h2.75v.38H84.82v1.8a.69.69,0,0,1-.79.76H82.7l-.07-.39,1.28,0a.44.44,0,0,0,.49-.49v-1.71H76.78v-.38H84.4V124.2c-2.21.09-4.53.18-7,.25l-.08-.35L82,124v-1.17H78.14v-3.22ZM82,121v-1.11H78.55V121Zm0,.33H78.55v1.08H82Zm-.57,6.46-.29.3A14.84,14.84,0,0,0,79,126.35l.27-.24A13.78,13.78,0,0,1,81.4,127.81Zm1-6.79h3.42v-1.11H82.39Zm3.42.33H82.39v1.08h3.42Z"/><path class="cls-1" d="M80.43,133.94v.35c-.34,1.2-.77,2.43-1.26,3.69a5.39,5.39,0,0,1,1.17,2.87,1.59,1.59,0,0,1-.4,1.12,2.81,2.81,0,0,1-1.71.41l-.15-.42.25,0a2.63,2.63,0,0,0,1.27-.29,1,1,0,0,0,.32-.84A4.81,4.81,0,0,0,78.74,138,32.89,32.89,0,0,0,80,134.35H77.56v10.13h-.41V133.94Zm7.1,5.17v.42H85.32v3.85a.44.44,0,0,0,.49.5h.72a.92.92,0,0,0,.52-.12c.21-.14.33-.72.38-1.77l.4.14a3.83,3.83,0,0,1-.38,1.87,1,1,0,0,1-.82.29H85.7a.8.8,0,0,1-.59-.24.75.75,0,0,1-.21-.57v-3.95H83.35a6.74,6.74,0,0,1-.7,3.05,5,5,0,0,1-2.14,1.83l-.26-.33a5,5,0,0,0,2-1.67,6.65,6.65,0,0,0,.67-2.88H81v-.42Zm-.2-2.29h-.42V135H81.5v1.81h-.42V134.6h3a7.11,7.11,0,0,0-.52-1.24l.45-.08c.17.39.33.82.5,1.32h2.87Zm-.8.11v.38H81.87v-.38Z"/><path class="cls-1" d="M78.71,151.84v-2.51h.4v2.51h1.46v.41H79.11v1.1c.55.76,1.12,1.63,1.69,2.61l-.23.33c-.56-1.06-1.06-1.9-1.46-2.51v6.59h-.4v-7.09a13.12,13.12,0,0,1-1.94,3.93l-.19-.44a11.68,11.68,0,0,0,2.11-4.52H76.85v-.41Zm7.2,2.71a8.15,8.15,0,0,1-1.4,3.47,9.7,9.7,0,0,0,3.2,2l-.21.35a9.78,9.78,0,0,1-3.26-2,6.83,6.83,0,0,1-3.4,2.07l-.23-.37a6.61,6.61,0,0,0,3.33-2,6.5,6.5,0,0,1-1.62-3.36l.37-.13a6,6,0,0,0,1.51,3.14,7.63,7.63,0,0,0,1.29-3.23ZM83,152.45a13.05,13.05,0,0,1-2,3.07l-.33-.23a12,12,0,0,0,1.94-3ZM84.29,151a14.61,14.61,0,0,0-.82-1.81l.42-.08A11.54,11.54,0,0,1,84.7,151h2.79v.42H81V151Zm3.28,4.15-.34.26a21.53,21.53,0,0,0-2.07-3l.34-.2A22.15,22.15,0,0,1,87.57,155.19Z"/><path class="cls-1" d="M64.89,102.77a7,7,0,0,0-.67-1.34l.44-.07a9.28,9.28,0,0,1,.65,1.41h4.48v.41h-2.1a9.86,9.86,0,0,1-.87,2.4h3.53V106H59.63v-.39h3.42a18.84,18.84,0,0,0-.87-2.4h-2v-.41Zm3.68,9.79h-.4v-.7H61.86v.7h-.4v-5.27h7.11Zm-.4-3.17v-1.7H61.86v1.7Zm0,2.07v-1.68H61.86v1.68Zm-4.7-5.88h2.92a8.19,8.19,0,0,0,.9-2.4H62.64A22.89,22.89,0,0,1,63.47,105.58Z"/><path class="cls-1" d="M64.44,118.72a5.75,5.75,0,0,0,.51-1.36l.4.06a4.37,4.37,0,0,1-.52,1.3H66.6v4.6H65.24v1.35h5.25v.42H65.24v3.39h-.42v-3.39H59.53v-.42h5.29v-1.35H63.47v-4.6Zm-1.26,5.17-.36.1c-.09-.36-.17-.7-.27-1q-1.11.29-2.7.57l-.07-.28a10.77,10.77,0,0,0,1.8-2.65c-.56.11-1.19.22-1.88.33l-.07-.33c.29-.15.81-1.14,1.55-3l.36.13a16,16,0,0,1-1.34,2.76c.58-.1,1.11-.21,1.57-.3.22-.5.44-1,.63-1.56l.33.1a13.84,13.84,0,0,1-2.35,4.35c.66-.12,1.36-.28,2.07-.45a13.51,13.51,0,0,0-.48-1.4l.34-.11A25.25,25.25,0,0,1,63.18,123.89Zm.27,2.27a14.27,14.27,0,0,1-3.53,2.3l-.25-.33a13.45,13.45,0,0,0,3.48-2.24Zm2.76-5.33v-1.74H63.86v1.74Zm0,.37H63.86V123h2.35Zm.41,5,.29-.27a26.8,26.8,0,0,1,3.47,2.24l-.31.3A24,24,0,0,0,66.62,126.16Zm3.81-2.33-.33.08-.27-1c-.7.2-1.56.41-2.57.61l-.07-.27a10.79,10.79,0,0,0,1.67-2.6c-.52.08-1.08.17-1.72.25l-.07-.33q.36-.19,1.32-2.94l.37.13a15.57,15.57,0,0,1-1.18,2.74l1.45-.25c.21-.49.4-1,.59-1.54l.33.09a13.66,13.66,0,0,1-2.17,4.27c.64-.13,1.29-.29,2-.46-.15-.49-.32-1-.49-1.4l.32-.1A22.85,22.85,0,0,1,70.43,123.83Z"/><path class="cls-1" d="M63.32,135.28v-.88H60.54v1.21h-.41V134h4.68a7.62,7.62,0,0,0-.38-.71l.4-.07a4.38,4.38,0,0,1,.41.78h4.63v1.57h-.4V134.4h-2.8v.88H69v.33H66.67v.91h2.1v.32h-2.1v.9h3.61v.35H67.11a7.14,7.14,0,0,0,3.35,1.72l-.14.34a10.41,10.41,0,0,1-1.88-.73v3.4H61.58v-3.33a13.66,13.66,0,0,1-1.86.8l-.21-.33a7.61,7.61,0,0,0,3.4-1.87H59.73v-.35h3.59v-.9H61.23v-.32h2.09v-.91H61v-.33Zm.72,8a13.43,13.43,0,0,1-3.84,1.16l-.19-.33a13.07,13.07,0,0,0,3.8-1.12Zm4-4H62v.86h6.08Zm-6.08,2h6.08v-.81H62Zm0,1.22h6.08v-.9H62ZM67.65,139a4.46,4.46,0,0,1-1-.86H63.32a5.21,5.21,0,0,1-.89.86Zm-3.91-4.55v.88h2.52v-.88Zm2.52,1.21H63.74v.91h2.52Zm0,2.13v-.9H63.74v.9Zm3.61,6.42-.23.3a22.46,22.46,0,0,0-3.78-1.15l.22-.27A26.62,26.62,0,0,1,69.87,144.16Z"/><path class="cls-1" d="M64.78,151.55v-1h-5v-.39h5v-.89h.42v.89h5v.39h-5v1h3.63v2.16H65.2v1H69v1.72h1.52v.38H69v1.61H65.2v1.1a.76.76,0,0,1-.87.85H62.82l-.09-.41c.52,0,1,0,1.45,0a.52.52,0,0,0,.6-.58v-1H60.55v-.37h4.23v-1.24H59.45v-.38h5.33V155.1H60.56v-.38h4.22v-1H61.15v-2.16Zm0,.36H61.57v1.44h3.21Zm3.64,0H65.2v1.44h3.22Zm-3.22,4.53h3.41V155.1H65.2Zm0,.38v1.24h3.41v-1.24Z"/><path class="cls-1" d="M69.9,166v.41H65.15v5.11h5.22v.4H65.15v4.52h-.42v-4.52H59.62v-.4h5.11v-5.11H60.11V166Zm-7.26,4.42-.4.19a21,21,0,0,0-1.37-2.88l.38-.2A27.78,27.78,0,0,1,62.64,170.37Zm6.5-2.8a16.47,16.47,0,0,1-1.58,3l-.37-.2a15.38,15.38,0,0,0,1.56-3Z"/><path class="cls-1" d="M60,185.55c1.33-.64,2.74-2.09,4.25-4.33l.4.14a15.52,15.52,0,0,1-3.82,4.15c2.87-.11,5.47-.28,7.77-.53a25.67,25.67,0,0,0-1.8-2.19l.38-.2a32.84,32.84,0,0,1,3.13,4.08l-.39.2c-.35-.53-.68-1-1-1.5-2.61.25-5.55.43-8.81.57Zm9,6.81h-.42v-.79h-7v.79h-.42v-5h7.88Zm-.42-1.21v-3.33h-7v3.33Z"/><path class="cls-1" d="M42.44,162.42V151.53H23.13v10.89Zm-17.16-8.85H40.2v6.78H25.28Z"/><path class="cls-1" d="M26.38,148.44c2.61-.11,7.15-.31,15.5-.78a18.49,18.49,0,0,1,1.7,2.41l1.81-1.29a46.16,46.16,0,0,0-7.57-8.32l-1.69,1.09a53.68,53.68,0,0,1,4.16,4.22l-14.51.71A61.76,61.76,0,0,0,33,138.05l-2.09-.94a47.7,47.7,0,0,1-6.59,8.08,9,9,0,0,1-1.76,1.47h-.85l.67,2,4-.18Z"/><path class="cls-1" d="M46.32,223.77v1.49H20.77v-1.49H32.35v-1.49H23v-1.35h9.37v-1.46H23.67v-1.32h8.68v-1.57H20.83v-1.35H32.35v-1.46H23.84v-1.32h8.51v-1.77h2.11v1.77h8.68v2.78h3.1v1.35h-3.1v2.89H34.46v1.46h9.8v1.35h-9.8v1.49ZM20.77,234.51H46.32V236H20.77Zm22.43-8v6.64H23.67v-6.64Zm-17.5,2.69h6.73v-1.46H25.7Zm0,2.72h6.73v-1.52H25.7Zm15.35-4.18H34.41v1.46h6.64Zm0,2.66H34.41v1.52h6.64Zm-6.59-15.18H41v-1.46H34.46Zm0,2.92H41v-1.57H34.46Z"/><path class="cls-1" d="M37.29,103.33H34c.35-1.12.47-1.38.76-2.46l-1.94-.36c-.19,1-.48,1.91-.73,2.82H29.81v10.83h7.48ZM35.4,112.5H31.67v-3H35.4Zm0-4.55H31.67v-3H35.4Z"/><path class="cls-1" d="M22.91,111.27c-.72.86-1.23,1.46-1.75,1.57l.53,1.56,5.56-.88.3,0c.11.55.14,1.06.2,1.46l1.55-.4a38.88,38.88,0,0,0-1.06-4.81l-1.46.37c.17.6.31,1.29.48,2l-3.49.46a48.06,48.06,0,0,0,5.3-7.73l-1.58-.86c-.46.94-1,1.89-1.49,2.83l-2.42.23h0a30.49,30.49,0,0,0,2.92-5.67l-1.69-.66a25.26,25.26,0,0,1-2.49,5.42,2.45,2.45,0,0,1-1,1.11l-.15,0,.56,1.63,3.27-.5h0C24.08,109.72,23.28,110.81,22.91,111.27Z"/><polygon class="cls-1" points="34.59 115.11 32.48 115.11 32.48 116.59 20.82 116.59 20.82 118.4 32.48 118.4 32.48 126.7 34.59 126.7 34.59 118.4 46.25 118.4 46.25 116.59 34.59 116.59 34.59 115.11"/><path class="cls-1" d="M36.41,120.52A51.54,51.54,0,0,1,44.89,126l1.32-1.61a61.31,61.31,0,0,0-8.51-5.27Z"/><path class="cls-1" d="M41.3,108.6h0l.6-.08c-.95,1.43-1.78,2.55-2.15,3-.67.86-1.2,1.45-1.71,1.58h-.1l.28,1.54,3.75-.47,2.48-.32c.11.49.22.92.28,1.32l1.52-.51a45.69,45.69,0,0,0-1.32-4.47l-1.43.43c.17.54.34,1.17.54,1.8l-3.4.37a48,48,0,0,0,5.24-7.73l-1.58-.89c-.43.92-.88,1.81-1.4,2.7l-2.78.31a38.39,38.39,0,0,0,3-6l-1.72-.57a26.31,26.31,0,0,1-2.52,5.65c-.4.65-.74,1.11-1.11,1.2l.5,1.57Z"/><path class="cls-1" d="M29.12,119.31s-2.65,3.14-8.84,4.8l1.35,1.71s5.81-1.66,9.31-5.76Z"/><polygon class="cls-1" points="40.35 183.81 40.35 174.47 38.2 174.47 38.2 183.81 32.59 183.81 32.59 185.9 38.2 185.9 38.2 200.1 40.35 200.1 40.35 185.9 46.22 185.9 46.22 183.81 40.35 183.81"/><path class="cls-1" d="M22.15,191.09v8.29h9.29v-8.28ZM24,192.87h5.54v4.73H24Z"/><rect class="cls-1" x="22.14" y="186.91" width="9.31" height="1.76"/><rect class="cls-1" x="22.14" y="182.85" width="9.31" height="1.77"/><rect class="cls-1" x="24.01" y="174.72" width="7.43" height="1.77"/><rect class="cls-1" x="20.88" y="178.8" width="10.57" height="1.75"/></svg>