<svg id="主體" xmlns="http://www.w3.org/2000/svg" viewBox="0 0 318.27 165.98"><defs><style>.cls-1{fill:#00b9e6;}</style></defs><title>logo</title><path class="cls-1" d="M202.09,109a18.19,18.19,0,0,0,.19-2.48v-.87h.42v.77a16.17,16.17,0,0,1-.2,2.58h5.29v.41h-5a11.34,11.34,0,0,0,5.2,6.89l-.24.34a11.69,11.69,0,0,1-5.31-7.17,9.72,9.72,0,0,1-5.19,7.22l-.26-.34a9.14,9.14,0,0,0,5.05-6.94h-4.83V109Z"/><path class="cls-1" d="M218.16,107.81v-1h-4.95v-.37h4.95v-.86h.42v.86h5v.37h-5v1h3.81V111h-3.81v1.15l3.63-.19c-.22-.23-.46-.46-.68-.68l.3-.2a16,16,0,0,1,1.69,1.85l-.31.23c-.2-.27-.43-.56-.69-.85l-1.52.07v1.37h2.74v.37H221v1.8a.69.69,0,0,1-.79.76H218.9l-.08-.39,1.27,0a.44.44,0,0,0,.49-.49v-1.71H213v-.37h7.58v-1.35c-2.2.1-4.5.19-6.92.26l-.09-.35,4.59-.15V111h-3.81v-3.21Zm0,1.45v-1.1h-3.4v1.1Zm0,.33h-3.4v1.08h3.4ZM217.6,116l-.29.3a14.07,14.07,0,0,0-2.11-1.75l.27-.24A14.14,14.14,0,0,1,217.6,116Zm1-6.76H222v-1.1h-3.41Zm3.41.33h-3.41v1.08H222Z"/><path class="cls-1" d="M232.52,106.25v.34c-.34,1.19-.77,2.41-1.26,3.67a5.42,5.42,0,0,1,1.16,2.86,1.56,1.56,0,0,1-.39,1.11,2.81,2.81,0,0,1-1.71.41l-.15-.42.25,0a2.52,2.52,0,0,0,1.27-.29,1,1,0,0,0,.31-.83,4.83,4.83,0,0,0-1.17-2.8,32,32,0,0,0,1.25-3.67h-2.42v10.08h-.41V106.25Zm7,5.14v.41h-2.19v3.83c0,.33.15.5.48.5h.73a.83.83,0,0,0,.51-.12c.21-.13.33-.72.38-1.76l.4.14a3.9,3.9,0,0,1-.38,1.87,1.08,1.08,0,0,1-.82.28h-.92a.83.83,0,0,1-.59-.23.78.78,0,0,1-.21-.58V111.8h-1.54a6.84,6.84,0,0,1-.69,3,5,5,0,0,1-2.14,1.82l-.26-.33a5.06,5.06,0,0,0,2-1.66,6.58,6.58,0,0,0,.66-2.87h-1.92v-.41Zm-.19-2.29H239v-1.79h-5.38v1.79h-.42v-2.21h2.93a6.88,6.88,0,0,0-.51-1.23l.44-.07c.17.39.33.81.5,1.3h2.86Zm-.79.11v.38H234v-.38Z"/><path class="cls-1" d="M246.68,108.17v-2.5h.4v2.5h1.45v.41h-1.45v1.1a29.52,29.52,0,0,1,1.68,2.6l-.23.33c-.56-1.07-1.05-1.9-1.45-2.51v6.56h-.4V109.6a12.81,12.81,0,0,1-1.93,3.92l-.19-.44a11.79,11.79,0,0,0,2.1-4.5h-1.83v-.41Zm7.16,2.7a8,8,0,0,1-1.39,3.46,9.62,9.62,0,0,0,3.19,2l-.21.36a9.89,9.89,0,0,1-3.25-2,6.82,6.82,0,0,1-3.38,2.06l-.23-.37a6.61,6.61,0,0,0,3.32-2,6.31,6.31,0,0,1-1.61-3.34l.36-.13a6,6,0,0,0,1.51,3.13,7.71,7.71,0,0,0,1.28-3.22ZM251,108.79a12.78,12.78,0,0,1-2,3l-.33-.23a12.06,12.06,0,0,0,1.93-3Zm1.24-1.41a12.16,12.16,0,0,0-.82-1.81l.43-.07a13.41,13.41,0,0,1,.81,1.88h2.77v.42H249v-.42Zm3.27,4.13-.34.25a20.69,20.69,0,0,0-2.06-3l.34-.21A22.92,22.92,0,0,1,255.5,111.51Z"/><path class="cls-1" d="M202.39,124.08a6.89,6.89,0,0,0-.67-1.33l.44-.07a10.21,10.21,0,0,1,.65,1.4h4.46v.41h-2.09a10.22,10.22,0,0,1-.87,2.39h3.52v.39H197.16v-.39h3.4a20.38,20.38,0,0,0-.86-2.39h-2v-.41Zm3.67,9.74h-.41v-.69h-6.27v.69H199v-5.24h7.08Zm-.41-3.15V129h-6.27v1.7Zm0,2.06v-1.67h-6.27v1.67ZM201,126.88h2.9a7.84,7.84,0,0,0,.89-2.39h-4.62A22.66,22.66,0,0,1,201,126.88Z"/><path class="cls-1" d="M217.82,124.08a5.34,5.34,0,0,0,.51-1.36l.4.06a4.66,4.66,0,0,1-.52,1.3H220v4.58h-1.35V130h5.22v.42h-5.22v3.37h-.42v-3.37h-5.26V130h5.26v-1.34h-1.34v-4.58Zm-1.26,5.14-.35.1c-.08-.36-.17-.7-.27-1-.73.2-1.63.38-2.68.57l-.08-.28A10.63,10.63,0,0,0,215,126c-.56.11-1.19.22-1.87.33L213,126c.29-.15.8-1.14,1.53-3l.37.13a15.76,15.76,0,0,1-1.34,2.75c.58-.1,1.11-.21,1.56-.31.22-.48.44-1,.64-1.55l.33.1a14,14,0,0,1-2.35,4.34c.66-.13,1.36-.29,2.06-.46-.14-.48-.3-1-.47-1.39l.33-.11A21.43,21.43,0,0,1,216.56,129.22Zm.27,2.26a14.33,14.33,0,0,1-3.5,2.29l-.26-.33a13.63,13.63,0,0,0,3.47-2.23Zm2.75-5.3v-1.73h-2.33v1.73Zm0,.37h-2.33v1.74h2.33Zm.42,4.93.28-.27a27.65,27.65,0,0,1,3.45,2.23l-.3.3A24.35,24.35,0,0,0,220,131.48Zm3.78-2.32-.33.08c-.09-.34-.17-.68-.27-1-.69.2-1.55.4-2.55.6l-.07-.27a10.51,10.51,0,0,0,1.66-2.59c-.52.09-1.08.17-1.71.26l-.08-.33c.25-.14.69-1.11,1.32-2.93l.37.13a15.16,15.16,0,0,1-1.17,2.73l1.44-.25c.21-.49.4-1,.58-1.54l.33.1a13.43,13.43,0,0,1-2.16,4.25c.64-.14,1.28-.29,1.94-.47-.14-.48-.31-1-.48-1.39l.31-.09A20.35,20.35,0,0,1,223.78,129.16Z"/><path class="cls-1" d="M232.59,124.7v-.88h-2.77V125h-.4v-1.56h4.65a5.82,5.82,0,0,0-.38-.71l.4-.07a5.15,5.15,0,0,1,.41.78h4.61V125h-.4v-1.21h-2.79v.88h2.34V125h-2.34v.91H238v.31h-2.09v.89h3.59v.36h-3.15a7.19,7.19,0,0,0,3.34,1.71l-.15.34a11.42,11.42,0,0,1-1.87-.73v3.38h-6.82v-3.31a12.53,12.53,0,0,1-1.86.79l-.21-.33a7.66,7.66,0,0,0,3.39-1.85H229v-.36h3.58v-.89H230.5v-.31h2.09V125h-2.32v-.33Zm.71,8a13.49,13.49,0,0,1-3.82,1.16l-.19-.33a13.79,13.79,0,0,0,3.79-1.11Zm4-4h-6v.85h6Zm-6,2h6v-.81h-6Zm0,1.22h6V131h-6Zm5.65-3.52a4.72,4.72,0,0,1-1-.85h-3.36a5.57,5.57,0,0,1-.89.85ZM233,123.82v.88h2.5v-.88Zm2.5,1.21H233v.91h2.5Zm0,2.11v-.89H233v.89Zm3.6,6.4-.23.29a23.86,23.86,0,0,0-3.76-1.14l.22-.27A26.68,26.68,0,0,1,239.11,133.54Z"/><path class="cls-1" d="M249.92,125v-1h-5v-.39h5v-.88h.42v.88h5V124h-5v1H254v2.15h-3.61v1h3.8v1.71h1.51v.38h-1.51v1.6h-3.8v1.1a.76.76,0,0,1-.87.84H248l-.09-.4c.52,0,1,0,1.44,0a.52.52,0,0,0,.6-.58v-1h-4.21v-.36h4.21v-1.24h-5.31v-.38h5.31v-1.33h-4.2v-.38h4.2v-1h-3.61V125Zm0,.37h-3.2v1.43h3.2Zm3.62,0h-3.2v1.43h3.2Zm-3.2,4.5h3.39v-1.33h-3.39Zm0,.38v1.24h3.39v-1.24Z"/><path class="cls-1" d="M270.89,123.43v.42h-4.72v5.08h5.19v.4h-5.19v4.49h-.42v-4.49h-5.09v-.4h5.09v-5.08h-4.6v-.42Zm-7.22,4.41-.39.18a21.39,21.39,0,0,0-1.37-2.87l.38-.19A27.59,27.59,0,0,1,263.67,127.84Zm6.47-2.8a15.76,15.76,0,0,1-1.58,3l-.36-.19a15.25,15.25,0,0,0,1.55-2.95Z"/><path class="cls-1" d="M276.9,127.06a12.22,12.22,0,0,0,4.22-4.31l.4.14a15.22,15.22,0,0,1-3.81,4.13c2.86-.11,5.45-.28,7.74-.52a23.85,23.85,0,0,0-1.79-2.19l.38-.19a32.49,32.49,0,0,1,3.11,4.06l-.39.2c-.34-.53-.67-1-1-1.49-2.6.24-5.52.42-8.77.56Zm8.91,6.77h-.42v-.78h-7v.78H278v-4.92h7.84Zm-.42-1.19v-3.32h-7v3.32Z"/><polygon class="cls-1" points="254.36 31.12 40.42 31.12 31.12 31.12 31.12 40.42 31.12 86.93 40.42 86.93 40.42 40.42 254.36 40.42 254.36 31.12"/><rect class="cls-1" x="107.42" y="50.41" width="9.79" height="35.87" transform="translate(26.14 -30.94) rotate(17.72)"/><circle class="cls-1" cx="71.43" cy="74.52" r="12.4"/><path class="cls-1" d="M177.28,120.28v1.65H149v-1.65h12.81v-1.65H151.44v-1.49h10.37v-1.62H152.2v-1.46h9.61v-1.74H149.06v-1.49h12.75v-1.62h-9.42v-1.46h9.42v-2h2.35v2h9.6v3.08h3.43v1.49h-3.43v3.2h-9.6v1.62H175v1.49H164.16v1.65ZM149,132.16h28.28v1.69H149Zm24.83-8.84v7.35H152.21v-7.35Zm-19.37,3h7.44v-1.62h-7.44Zm0,3h7.44v-1.68h-7.44Zm17-4.63h-7.36v1.62h7.36Zm0,2.95h-7.36v1.68h7.36Zm-7.29-16.8h7.26v-1.62h-7.26Zm0,3.23h7.26v-1.74h-7.26Z"/><path class="cls-1" d="M94.85,133.85v-12H73.5v12Zm-19-9.79h16.5v7.5H75.88Z"/><path class="cls-1" d="M77.1,118.39c2.88-.12,7.91-.35,17.14-.86a20.85,20.85,0,0,1,1.88,2.66l2-1.43a51,51,0,0,0-8.37-9.19l-1.87,1.2a59.61,59.61,0,0,1,4.59,4.66l-16,.79a69.06,69.06,0,0,0,8-9.31l-2.31-1a52.89,52.89,0,0,1-7.29,8.94,9.69,9.69,0,0,1-1.95,1.62h-.94l.74,2.17,4.43-.2Z"/><path class="cls-1" d="M49.33,109h-3.7c.39-1.24.53-1.54.84-2.73l-2.15-.4c-.21,1.07-.52,2.12-.81,3.13H41.05v12h8.28Zm-2.1,10.15H43.11v-3.3h4.12Zm0-5H43.11v-3.27h4.12Z"/><path class="cls-1" d="M33.41,117.77c-.79,1-1.36,1.62-1.93,1.75l.58,1.72,6.16-1,.33,0c.12.6.15,1.17.22,1.61l1.71-.44a40.84,40.84,0,0,0-1.17-5.33l-1.62.41c.19.67.35,1.43.54,2.16l-3.87.51a53.11,53.11,0,0,0,5.87-8.56l-1.75-1c-.5,1-1.08,2.09-1.65,3.13l-2.68.26h0a34.29,34.29,0,0,0,3.23-6.28L35.5,106a26.85,26.85,0,0,1-2.76,6,2.63,2.63,0,0,1-1.09,1.24l-.16,0,.61,1.8,3.62-.55h0C34.71,116.06,33.82,117.27,33.41,117.77Z"/><polygon class="cls-1" points="46.34 122.02 44 122.02 44 123.67 31.09 123.67 31.09 125.67 44 125.67 44 134.86 46.34 134.86 46.34 125.67 59.25 125.67 59.25 123.67 46.34 123.67 46.34 122.02"/><path class="cls-1" d="M48.36,128a58.72,58.72,0,0,1,9.38,6.06l1.46-1.78a66.8,66.8,0,0,0-9.41-5.83Z"/><path class="cls-1" d="M53.77,114.82h0l.67-.09c-1,1.59-2,2.82-2.38,3.33-.74,1-1.33,1.61-1.89,1.76h-.11l.31,1.7,4.15-.53,2.74-.34c.13.54.26,1,.32,1.46l1.68-.57c-.29-1.33-.92-3.36-1.46-5l-1.58.48c.19.6.38,1.3.6,2l-3.77.42a53.45,53.45,0,0,0,5.8-8.56l-1.75-1c-.47,1-1,2-1.55,3l-3.07.35a43.06,43.06,0,0,0,3.26-6.63l-1.9-.63A29.55,29.55,0,0,1,51,112.26c-.45.73-.83,1.23-1.24,1.33l.56,1.74Z"/><path class="cls-1" d="M40.28,126.68s-2.93,3.47-9.78,5.31l1.5,1.89s6.42-1.83,10.3-6.37Z"/><polygon class="cls-1" points="131.31 116.64 131.31 106.3 128.94 106.3 128.94 116.64 122.72 116.64 122.72 118.95 128.94 118.95 128.94 134.68 131.31 134.68 131.31 118.95 137.81 118.95 137.81 116.64 131.31 116.64"/><path class="cls-1" d="M111.16,124.71v9.14h10.29v-9.13Zm2.06,2h6.14v5.2h-6.14Z"/><rect class="cls-1" x="111.15" y="120.08" width="10.3" height="1.95"/><rect class="cls-1" x="111.15" y="115.58" width="10.3" height="1.96"/><rect class="cls-1" x="113.22" y="106.58" width="8.23" height="1.96"/><rect class="cls-1" x="109.75" y="111.09" width="11.7" height="1.93"/></svg>