<svg id="主體" xmlns="http://www.w3.org/2000/svg" viewBox="0 0 385.07 91.47"><defs><style>.cls-1{fill:#222327;}</style></defs><title>logo</title><path class="cls-1" d="M367.92,50v2.75h-47.2V50H342.1V47.22H324.79V44.74H342.1V42h-16V39.6h16V36.69H320.82V34.21H342.1v-2.7H326.38V29.07H342.1V25.79H346v3.28h16v5.14h5.71v2.48h-5.71V42H346v2.7h18.1v2.48H346V50Zm-47.2,19.84h47.2v2.81h-47.2Zm41.43-14.76V67.33H326.07V55.06Zm-32.32,5h12.42v-2.7H329.83Zm0,5h12.42V62.25H329.83Zm28.35-7.73H345.91V60h12.27Zm0,4.92H345.91v2.81h12.27ZM346,34.21h12.12v-2.7H346Zm0,5.39h12.12V36.69H346Z"/><path class="cls-1" d="M230.34,72.63V52.53H194.69v20.1ZM198.66,56.29h27.55V68.81H198.66Z"/><path class="cls-1" d="M200.71,46.83c4.81-.2,13.19-.58,28.6-1.44a35.47,35.47,0,0,1,3.14,4.44l3.34-2.38C233,43.06,227,36.6,221.82,32.1l-3.13,2a99.3,99.3,0,0,1,7.68,7.78L199.6,43.21a115.15,115.15,0,0,0,13.33-15.55l-3.87-1.75a87.76,87.76,0,0,1-12.17,14.93,16.58,16.58,0,0,1-3.25,2.71h-1.56l1.23,3.62,7.4-.34Z"/><path class="cls-1" d="M154.35,31.14h-6.17c.64-2.07.87-2.56,1.4-4.55L146,25.91c-.35,1.78-.88,3.54-1.35,5.23h-4.12v20h13.82Zm-3.5,16.93H144v-5.5h6.88Zm0-8.41H144V34.21h6.88Z"/><path class="cls-1" d="M127.78,45.8c-1.32,1.59-2.28,2.7-3.23,2.91l1,2.88L135.8,50l.55-.08c.21,1,.27,2,.37,2.7l2.86-.74a65.08,65.08,0,0,0-2-8.89l-2.7.69c.32,1.11.59,2.38.9,3.6l-6.45.84a88.45,88.45,0,0,0,9.79-14.28l-2.91-1.59c-.85,1.75-1.8,3.49-2.75,5.24l-4.48.42h0a57.61,57.61,0,0,0,5.4-10.48l-3.13-1.21a45.93,45.93,0,0,1-4.6,10,4.65,4.65,0,0,1-1.82,2.07l-.27,0,1,3,6-.92h0C130,42.94,128.47,45,127.78,45.8Z"/><polygon class="cls-1" points="149.37 52.89 145.46 52.89 145.46 55.64 123.92 55.64 123.92 58.98 145.46 58.98 145.46 74.32 149.37 74.32 149.37 58.98 170.91 58.98 170.91 55.64 149.37 55.64 149.37 52.89"/><path class="cls-1" d="M152.73,62.89A97.49,97.49,0,0,1,168.4,73l2.43-3a110.36,110.36,0,0,0-15.72-9.74Z"/><path class="cls-1" d="M161.76,40.87h0l1.11-.15c-1.75,2.65-3.28,4.71-4,5.56-1.24,1.59-2.23,2.68-3.16,2.93l-.19,0,.51,2.83,6.94-.87c1.28-.15,2.78-.33,4.58-.58.21.9.42,1.7.53,2.44l2.8-.95c-.48-2.23-1.53-5.61-2.43-8.26l-2.65.79c.32,1,.64,2.17,1,3.34l-6.29.69a88.93,88.93,0,0,0,9.68-14.29l-2.91-1.64c-.79,1.69-1.64,3.33-2.59,5l-5.13.59A73.12,73.12,0,0,0,165,27.22l-3.18-1a48.19,48.19,0,0,1-4.66,10.42c-.74,1.22-1.37,2.06-2.06,2.22l.93,2.91Z"/><path class="cls-1" d="M139.25,60.67s-4.89,5.78-16.32,8.85l2.5,3.16s10.72-3.05,17.2-10.63Z"/><polygon class="cls-1" points="291.2 43.91 291.2 26.65 287.23 26.65 287.23 43.91 276.86 43.91 276.86 47.77 287.23 47.77 287.23 74.02 291.2 74.02 291.2 47.77 302.04 47.77 302.04 43.91 291.2 43.91"/><path class="cls-1" d="M257.56,57.37V72.63h17.18V57.37ZM261,60.65h10.25v8.69H261Z"/><rect class="cls-1" x="257.54" y="49.64" width="17.2" height="3.25"/><rect class="cls-1" x="257.54" y="42.14" width="17.2" height="3.27"/><rect class="cls-1" x="261" y="27.11" width="13.74" height="3.27"/><rect class="cls-1" x="255.21" y="34.65" width="19.53" height="3.23"/><polygon class="cls-1" points="85.33 17.15 25.83 17.15 17.15 17.15 17.15 25.83 17.15 72.94 25.83 72.94 25.83 25.83 85.33 25.83 85.33 17.15"/><rect class="cls-1" x="70.74" y="36.54" width="9.1" height="35.86" transform="translate(20.15 -20.33) rotate(17.72)"/><circle class="cls-1" cx="45.66" cy="61.78" r="11.16"/></svg>