<svg xmlns="http://www.w3.org/2000/svg" viewBox="0 0 318.27 165.98"><defs><style>.cls-1{fill:#fff;}</style></defs><title>logo</title><path class="cls-1" d="M202.09,109a17.94,17.94,0,0,0,.19-2.48v-.87h.42v.77a17.43,17.43,0,0,1-.2,2.58h5.29v.41h-5a11.34,11.34,0,0,0,5.2,6.89l-.24.34a11.69,11.69,0,0,1-5.31-7.16,9.71,9.71,0,0,1-5.19,7.21l-.26-.34a9.13,9.13,0,0,0,5-6.94h-4.82V109Z"/><path class="cls-1" d="M218.16,107.81v-1h-4.95v-.36h4.95v-.87h.42v.87h4.95v.36h-4.95v1h3.81V111h-3.81v1.15l3.62-.18c-.22-.24-.45-.47-.67-.69l.29-.19a15.34,15.34,0,0,1,1.7,1.84l-.32.23a9.36,9.36,0,0,0-.68-.85l-1.53.07v1.37h2.75v.38H221v1.79a.68.68,0,0,1-.78.76h-1.32l-.07-.39,1.27,0a.44.44,0,0,0,.49-.48v-1.71H213v-.38h7.58v-1.34c-2.2.09-4.51.18-6.92.25l-.09-.35,4.59-.15V111h-3.81v-3.21Zm0,1.45v-1.1h-3.4v1.1Zm0,.33h-3.4v1.08h3.4ZM217.6,116l-.29.29a14.59,14.59,0,0,0-2.11-1.75l.26-.24A13.22,13.22,0,0,1,217.6,116Zm1-6.77H222v-1.1h-3.4Zm3.4.33h-3.4v1.08H222Z"/><path class="cls-1" d="M232.52,106.25v.34c-.35,1.2-.77,2.42-1.26,3.67a5.45,5.45,0,0,1,1.16,2.86,1.56,1.56,0,0,1-.39,1.11,2.9,2.9,0,0,1-1.71.42l-.15-.43.25,0a2.52,2.52,0,0,0,1.27-.29,1,1,0,0,0,.31-.83,4.83,4.83,0,0,0-1.17-2.8,34.08,34.08,0,0,0,1.25-3.67h-2.42v10.08h-.42V106.25Zm7,5.14v.41h-2.2v3.84a.44.44,0,0,0,.49.5h.72a.84.84,0,0,0,.52-.13c.2-.13.33-.72.37-1.75l.41.13a4,4,0,0,1-.38,1.87,1.08,1.08,0,0,1-.82.28h-.93a.81.81,0,0,1-.58-.23.77.77,0,0,1-.21-.58V111.8h-1.54a6.84,6.84,0,0,1-.69,3,5,5,0,0,1-2.14,1.82l-.26-.33a5,5,0,0,0,2-1.66,6.72,6.72,0,0,0,.66-2.87h-1.92v-.41Zm-.19-2.29H239v-1.79h-5.38v1.79h-.42v-2.2h2.93a6.69,6.69,0,0,0-.51-1.24l.44-.07c.17.39.33.82.5,1.31h2.86Zm-.8.11v.38h-4.64v-.38Z"/><path class="cls-1" d="M246.67,108.18v-2.51h.41v2.51h1.45v.4h-1.45v1.1c.55.76,1.11,1.62,1.68,2.6l-.23.33c-.56-1.06-1.05-1.89-1.45-2.5v6.55h-.41v-7a12.74,12.74,0,0,1-1.92,3.91l-.19-.44a11.72,11.72,0,0,0,2.1-4.5h-1.83v-.4Zm7.17,2.69a8,8,0,0,1-1.39,3.46,9.75,9.75,0,0,0,3.18,2l-.2.35a9.89,9.89,0,0,1-3.25-2,6.75,6.75,0,0,1-3.38,2.06l-.23-.36a6.55,6.55,0,0,0,3.32-2,6.31,6.31,0,0,1-1.61-3.34l.36-.12a6.08,6.08,0,0,0,1.5,3.12,7.58,7.58,0,0,0,1.29-3.22ZM251,108.79a12.75,12.75,0,0,1-1.95,3l-.33-.23a11.71,11.71,0,0,0,1.93-3Zm1.25-1.41a13.8,13.8,0,0,0-.82-1.8l.43-.08a12.35,12.35,0,0,1,.8,1.88h2.77v.42H249v-.42Zm3.27,4.13-.34.26a21,21,0,0,0-2.06-3l.34-.21A24,24,0,0,1,255.5,111.51Z"/><path class="cls-1" d="M202.39,124.08a6.89,6.89,0,0,0-.67-1.33l.44-.07a10.79,10.79,0,0,1,.65,1.4h4.45v.42h-2.08a10.14,10.14,0,0,1-.87,2.38h3.51v.39H197.16v-.39h3.4a18.49,18.49,0,0,0-.87-2.38h-2v-.42Zm3.66,9.74h-.4v-.69h-6.27v.69H199v-5.23h7.08Zm-.4-3.15V129h-6.27v1.69Zm0,2.07v-1.68h-6.27v1.68ZM201,126.88h2.9a7.88,7.88,0,0,0,.89-2.38h-4.62A22.44,22.44,0,0,1,201,126.88Z"/><path class="cls-1" d="M217.82,124.08a5.84,5.84,0,0,0,.51-1.35l.39.06a4.7,4.7,0,0,1-.51,1.29H220v4.58h-1.36V130h5.23v.42h-5.23v3.37h-.41v-3.37h-5.26V130h5.26v-1.34h-1.34v-4.58Zm-1.26,5.14-.35.1c-.09-.36-.17-.7-.27-1-.73.2-1.64.38-2.69.58l-.07-.28A10.89,10.89,0,0,0,215,126l-1.87.33L213,126c.3-.15.81-1.14,1.54-3l.37.13a16.54,16.54,0,0,1-1.34,2.75c.58-.1,1.11-.21,1.56-.3.22-.49.44-1,.63-1.55l.33.09a13.78,13.78,0,0,1-2.34,4.34c.66-.12,1.35-.28,2.06-.45-.14-.49-.3-1-.47-1.4l.33-.11A25.14,25.14,0,0,1,216.56,129.22Zm.27,2.26a13.77,13.77,0,0,1-3.5,2.29l-.26-.32a13.65,13.65,0,0,0,3.47-2.24Zm2.75-5.3v-1.73h-2.33v1.73Zm0,.37h-2.33v1.74h2.33Zm.41,4.93.28-.27a26.11,26.11,0,0,1,3.46,2.24l-.31.29A23.78,23.78,0,0,0,220,131.48Zm3.79-2.32-.33.09c-.09-.35-.17-.69-.27-1-.7.2-1.55.41-2.55.6l-.08-.27a10.24,10.24,0,0,0,1.67-2.59c-.52.09-1.08.17-1.71.26l-.08-.33c.25-.13.69-1.11,1.32-2.93l.37.13a16.43,16.43,0,0,1-1.17,2.73l1.44-.25c.2-.48.4-1,.58-1.53l.33.09a13.43,13.43,0,0,1-2.16,4.25c.64-.13,1.28-.29,1.94-.46-.14-.49-.32-1-.49-1.4l.32-.09A20.35,20.35,0,0,1,223.78,129.16Z"/><path class="cls-1" d="M232.59,124.7v-.88h-2.77V125h-.41v-1.56h4.66a7.62,7.62,0,0,0-.38-.71l.4-.07a4.37,4.37,0,0,1,.4.78h4.62V125h-.41v-1.21h-2.78v.88h2.33V125h-2.33v.91H238v.31h-2.09v.9h3.59v.35h-3.15a7.2,7.2,0,0,0,3.33,1.71l-.14.34a10.58,10.58,0,0,1-1.87-.73v3.38h-6.82v-3.31a13.66,13.66,0,0,1-1.86.8l-.21-.34a7.42,7.42,0,0,0,3.38-1.85H229v-.35h3.58v-.9H230.5v-.31h2.09V125h-2.32v-.33Zm.71,8a13.49,13.49,0,0,1-3.82,1.16l-.19-.33a13.55,13.55,0,0,0,3.79-1.11Zm4-4h-6v.86h6Zm-6,2h6v-.81h-6Zm0,1.22h6V131h-6Zm5.65-3.52a4.44,4.44,0,0,1-1-.85h-3.36a5.15,5.15,0,0,1-.89.85Zm-3.9-4.53v.88h2.51v-.88Zm2.51,1.21H233v.91h2.51Zm0,2.12v-.9H233v.9Zm3.6,6.39-.23.3a22.75,22.75,0,0,0-3.76-1.15l.22-.27A27.08,27.08,0,0,1,239.11,133.54Z"/><path class="cls-1" d="M249.92,125v-1h-5v-.39h5v-.88h.42v.88h5V124h-5v1H254v2.14h-3.61v1h3.79v1.71h1.52v.37h-1.52v1.6h-3.79v1.1a.76.76,0,0,1-.87.84H248l-.09-.4c.52,0,1,0,1.44,0a.53.53,0,0,0,.6-.58v-1h-4.21v-.36h4.21v-1.24h-5.31v-.37h5.31v-1.33h-4.2v-.38h4.2v-1h-3.61V125Zm0,.36h-3.2v1.43h3.2Zm3.61,0h-3.19v1.43h3.19Zm-3.19,4.51h3.39v-1.33h-3.39Zm0,.37v1.24h3.39v-1.24Z"/><path class="cls-1" d="M270.89,123.43v.42h-4.72v5.08h5.19v.4h-5.19v4.49h-.42v-4.49h-5.09v-.4h5.09v-5.08h-4.6v-.42Zm-7.23,4.41-.39.18a20.1,20.1,0,0,0-1.36-2.86l.37-.2A25.71,25.71,0,0,1,263.66,127.84Zm6.48-2.79a16,16,0,0,1-1.58,3l-.37-.19a14.72,14.72,0,0,0,1.55-2.95Z"/><path class="cls-1" d="M276.9,127.06a12.13,12.13,0,0,0,4.22-4.31l.4.15a15.31,15.31,0,0,1-3.81,4.12c2.86-.11,5.45-.28,7.74-.52a23.85,23.85,0,0,0-1.79-2.19l.38-.19a32.49,32.49,0,0,1,3.11,4.06l-.39.2c-.34-.53-.67-1-1-1.49q-3.9.36-8.77.56Zm8.91,6.78h-.42v-.78h-7v.78H278v-4.92h7.84Zm-.42-1.2v-3.32h-7v3.32Z"/><polygon class="cls-1" points="254.36 31.12 40.42 31.12 31.12 31.12 31.12 40.42 31.12 86.93 40.42 86.93 40.42 40.42 254.36 40.42 254.36 31.12"/><rect class="cls-1" x="107.42" y="50.42" width="9.79" height="35.87" transform="translate(26.14 -30.94) rotate(17.72)"/><circle class="cls-1" cx="71.43" cy="74.53" r="12.4"/><path class="cls-1" d="M177.28,120.28v1.65H149v-1.65h12.81v-1.65H151.44v-1.49h10.37v-1.62H152.2v-1.46h9.61v-1.74H149.06v-1.49h12.75v-1.62h-9.42v-1.46h9.42v-2h2.34v2h9.61v3.08h3.42v1.49h-3.42v3.2h-9.61v1.62H175v1.49H164.15v1.65ZM149,132.17h28.28v1.68H149Zm24.82-8.85v7.36H152.21v-7.36Zm-19.36,3h7.44v-1.61h-7.44Zm0,3h7.44v-1.68h-7.44Zm17-4.62h-7.36v1.61h7.36Zm0,2.94h-7.36v1.68h7.36Zm-7.3-16.8h7.26v-1.62h-7.26Zm0,3.23h7.26v-1.74h-7.26Z"/><path class="cls-1" d="M94.85,133.85v-12H73.5v12Zm-19-9.79H92.38v7.5H75.87Z"/><path class="cls-1" d="M77.1,118.39c2.88-.12,7.91-.34,17.14-.86a21.91,21.91,0,0,1,1.88,2.66l2-1.42a51.06,51.06,0,0,0-8.37-9.2l-1.88,1.21a56.4,56.4,0,0,1,4.6,4.66l-16,.78a68.4,68.4,0,0,0,8-9.31l-2.31-1a52.82,52.82,0,0,1-7.3,8.94,9.51,9.51,0,0,1-1.94,1.63h-.94l.74,2.17,4.43-.21Z"/><path class="cls-1" d="M49.32,109H45.63c.39-1.24.52-1.53.84-2.72l-2.15-.41c-.21,1.07-.52,2.12-.81,3.13H41.05v12h8.27Zm-2.09,10.15H43.11v-3.3h4.12Zm0-5H43.11v-3.27h4.12Z"/><path class="cls-1" d="M33.41,117.78c-.79,1-1.37,1.61-1.94,1.74l.59,1.72,6.15-1,.33,0c.13.6.16,1.17.23,1.61l1.71-.44a39.73,39.73,0,0,0-1.18-5.33l-1.61.42c.19.66.35,1.42.54,2.15l-3.87.51a53.07,53.07,0,0,0,5.86-8.56l-1.74-1c-.51,1-1.08,2.09-1.65,3.14l-2.68.25h0a34.59,34.59,0,0,0,3.23-6.28L35.5,106a27.22,27.22,0,0,1-2.76,6,2.65,2.65,0,0,1-1.09,1.23l-.16,0,.61,1.8,3.62-.55h0C34.71,116.06,33.82,117.27,33.41,117.78Z"/><polygon class="cls-1" points="46.34 122.02 44 122.02 44 123.67 31.09 123.67 31.09 125.67 44 125.67 44 134.86 46.34 134.86 46.34 125.67 59.25 125.67 59.25 123.67 46.34 123.67 46.34 122.02"/><path class="cls-1" d="M48.36,128a58.49,58.49,0,0,1,9.38,6l1.46-1.77a66.36,66.36,0,0,0-9.42-5.84Z"/><path class="cls-1" d="M53.77,114.82h0l.67-.09c-1,1.59-2,2.82-2.38,3.33-.74,1-1.33,1.61-1.89,1.76H50l.31,1.7,4.16-.52c.76-.09,1.66-.2,2.74-.35.13.54.25,1,.32,1.46l1.68-.57c-.29-1.33-.92-3.36-1.46-5l-1.59.48c.19.6.38,1.3.61,2l-3.78.41a53.45,53.45,0,0,0,5.8-8.56l-1.74-1c-.47,1-1,2-1.55,3l-3.08.34a42.51,42.51,0,0,0,3.27-6.62l-1.9-.64A29.83,29.83,0,0,1,51,112.26c-.45.73-.83,1.24-1.24,1.33l.56,1.74Z"/><path class="cls-1" d="M40.28,126.68s-2.93,3.47-9.78,5.31l1.5,1.89s6.42-1.83,10.3-6.37Z"/><polygon class="cls-1" points="131.31 116.64 131.31 106.31 128.94 106.31 128.94 116.64 122.72 116.64 122.72 118.96 128.94 118.96 128.94 134.68 131.31 134.68 131.31 118.96 137.81 118.96 137.81 116.64 131.31 116.64"/><path class="cls-1" d="M111.16,124.71v9.14h10.29v-9.13Zm2.06,2h6.14v5.21h-6.14Z"/><rect class="cls-1" x="111.15" y="120.08" width="10.3" height="1.95"/><rect class="cls-1" x="111.15" y="115.58" width="10.3" height="1.96"/><rect class="cls-1" x="113.22" y="106.58" width="8.23" height="1.96"/><rect class="cls-1" x="109.75" y="111.09" width="11.7" height="1.93"/></svg>