<svg id="主體" xmlns="http://www.w3.org/2000/svg" viewBox="0 0 108.18 256.31"><defs><style>.cls-1{fill:#222327;}</style></defs><title>logo</title><polygon class="cls-1" points="87.79 20.28 28.87 20.28 20.28 20.28 20.28 28.87 20.28 75.52 28.87 75.52 28.87 28.87 87.79 28.87 87.79 20.28"/><rect class="cls-1" x="73.34" y="39.49" width="9.01" height="35.5" transform="translate(21.12 -20.98) rotate(17.72)"/><circle class="cls-1" cx="48.51" cy="64.47" r="11.05"/><path class="cls-1" d="M81.77,104.81a19.77,19.77,0,0,0,.2-2.49v-.87h.41v.78a17.37,17.37,0,0,1-.19,2.58H87.5v.42h-5a11.33,11.33,0,0,0,5.22,6.92l-.24.34a11.77,11.77,0,0,1-5.34-7.2,9.74,9.74,0,0,1-5.21,7.25l-.26-.34a9.18,9.18,0,0,0,5.07-7H76.85v-.42Z"/><path class="cls-1" d="M82,119.56v-1H77v-.37h5v-.87h.41v.87h5v.37h-5v1h3.83v3.22H82.38v1.16l3.65-.19c-.22-.23-.46-.46-.68-.68l.3-.2a17.09,17.09,0,0,1,1.7,1.85L87,125c-.19-.27-.43-.57-.68-.86l-1.54.07v1.38h2.76v.38H84.81v1.8a.69.69,0,0,1-.78.76H82.7l-.07-.39,1.27,0a.45.45,0,0,0,.5-.49v-1.71H76.78v-.38H84.4V124.2c-2.21.09-4.53.18-7,.25l-.09-.35L82,124v-1.17H78.14v-3.22ZM82,121v-1.11H78.54V121Zm0,.33H78.54v1.08H82Zm-.57,6.46-.29.3A14.44,14.44,0,0,0,79,126.35l.27-.24A14.4,14.4,0,0,1,81.4,127.81Zm1-6.79h3.43v-1.11H82.38Zm3.43.33H82.38v1.08h3.43Z"/><path class="cls-1" d="M80.43,133.94v.35c-.34,1.2-.77,2.43-1.26,3.69a5.45,5.45,0,0,1,1.16,2.87,1.55,1.55,0,0,1-.39,1.12,2.85,2.85,0,0,1-1.72.41l-.14-.42.24,0a2.65,2.65,0,0,0,1.28-.29,1,1,0,0,0,.32-.84A4.88,4.88,0,0,0,78.74,138,32.89,32.89,0,0,0,80,134.35H77.56v10.13h-.42V133.94Zm7.09,5.17v.42H85.31v3.85a.44.44,0,0,0,.5.5h.72a.88.88,0,0,0,.51-.12c.21-.14.34-.72.38-1.77l.41.14a3.83,3.83,0,0,1-.38,1.87,1,1,0,0,1-.82.29h-.94a.77.77,0,0,1-.58-.24.75.75,0,0,1-.21-.57v-3.95H83.35a6.74,6.74,0,0,1-.7,3.05,5.06,5.06,0,0,1-2.14,1.83l-.26-.33a5.07,5.07,0,0,0,2-1.67,6.65,6.65,0,0,0,.67-2.88H81v-.42Zm-.19-2.29h-.42V135H81.5v1.81h-.42V134.6h3a7.11,7.11,0,0,0-.52-1.24l.44-.08c.17.39.33.82.51,1.32h2.87Zm-.8.11v.38H81.87v-.38Z"/><path class="cls-1" d="M78.7,151.84v-2.51h.41v2.51h1.46v.41H79.11v1.1c.55.76,1.11,1.63,1.69,2.61l-.23.33c-.57-1.06-1.06-1.9-1.46-2.51v6.59H78.7v-7.09a12.66,12.66,0,0,1-1.94,3.93l-.18-.44a11.68,11.68,0,0,0,2.11-4.52H76.85v-.41Zm7.2,2.71A8,8,0,0,1,84.51,158a9.5,9.5,0,0,0,3.2,2l-.21.35a9.68,9.68,0,0,1-3.26-2,6.83,6.83,0,0,1-3.4,2.07l-.24-.37a6.64,6.64,0,0,0,3.34-2,6.5,6.5,0,0,1-1.62-3.36l.37-.13a6,6,0,0,0,1.51,3.14,7.63,7.63,0,0,0,1.29-3.23ZM83,152.45a12.72,12.72,0,0,1-2,3.07l-.33-.23a12,12,0,0,0,1.94-3ZM84.28,151a12.16,12.16,0,0,0-.82-1.81l.43-.08A11.54,11.54,0,0,1,84.7,151h2.79v.42H81V151Zm3.29,4.15-.34.26a21.53,21.53,0,0,0-2.07-3l.34-.2A23.14,23.14,0,0,1,87.57,155.19Z"/><path class="cls-1" d="M64.89,102.77a7.62,7.62,0,0,0-.67-1.34l.44-.07a10.36,10.36,0,0,1,.65,1.41h4.48v.41h-2.1a10.29,10.29,0,0,1-.87,2.4h3.53V106H59.63v-.39h3.42a18.84,18.84,0,0,0-.87-2.4h-2v-.41Zm3.68,9.79h-.4v-.7H61.86v.7h-.4v-5.27h7.11Zm-.4-3.17v-1.7H61.86v1.7Zm0,2.07v-1.68H61.86v1.68Zm-4.7-5.88h2.92a7.89,7.89,0,0,0,.89-2.4H62.63A20.72,20.72,0,0,1,63.47,105.58Z"/><path class="cls-1" d="M64.44,118.72a5.75,5.75,0,0,0,.51-1.36l.4.06a5,5,0,0,1-.52,1.3H66.6v4.6H65.23v1.35h5.26v.42H65.23v3.39h-.41v-3.39H59.53v-.42h5.29v-1.35H63.47v-4.6Zm-1.27,5.17-.35.1c-.09-.36-.17-.7-.27-1-.74.19-1.65.38-2.7.57l-.07-.28a10.77,10.77,0,0,0,1.8-2.65c-.57.11-1.19.22-1.88.33l-.07-.33c.29-.15.81-1.14,1.54-3l.37.13a15.78,15.78,0,0,1-1.35,2.76c.59-.1,1.12-.21,1.57-.3.22-.5.44-1,.64-1.56l.33.1a13.84,13.84,0,0,1-2.35,4.35c.66-.12,1.36-.28,2.07-.45-.15-.49-.31-1-.48-1.4l.33-.11A23.24,23.24,0,0,1,63.17,123.89Zm.27,2.27a14,14,0,0,1-3.52,2.3l-.26-.33a13.52,13.52,0,0,0,3.49-2.24Zm2.76-5.33v-1.74H63.86v1.74Zm0,.37H63.86V123H66.2Zm.42,5,.28-.27a25.5,25.5,0,0,1,3.47,2.24l-.3.3A24.58,24.58,0,0,0,66.62,126.16Zm3.8-2.33-.33.08q-.12-.51-.27-1c-.7.2-1.55.41-2.56.61l-.07-.27a10.78,10.78,0,0,0,1.66-2.6c-.51.08-1.08.17-1.71.25l-.08-.33c.25-.13.69-1.11,1.33-2.94l.37.13a15.57,15.57,0,0,1-1.18,2.74l1.45-.25c.2-.49.4-1,.58-1.54l.34.09a13.45,13.45,0,0,1-2.18,4.27c.64-.13,1.29-.29,2-.46-.15-.49-.32-1-.5-1.4l.32-.1A19.74,19.74,0,0,1,70.42,123.83Z"/><path class="cls-1" d="M63.32,135.28v-.88H60.54v1.21h-.41V134h4.68a5.81,5.81,0,0,0-.39-.71l.41-.07a4.37,4.37,0,0,1,.4.78h4.64v1.57h-.4V134.4h-2.8v.88H69v.33H66.67v.91h2.1v.32h-2.1v.9h3.61v.35H67.11a7.09,7.09,0,0,0,3.35,1.72l-.15.34a10.58,10.58,0,0,1-1.87-.73v3.4H61.58v-3.33a13.82,13.82,0,0,1-1.87.8L59.5,140a7.5,7.5,0,0,0,3.4-1.87H59.73v-.35h3.59v-.9h-2.1v-.32h2.1v-.91H61v-.33Zm.71,8a13.23,13.23,0,0,1-3.84,1.16l-.18-.33a13.17,13.17,0,0,0,3.8-1.12Zm4-4H62v.86H68Zm-6.07,2H68v-.81H62Zm0,1.22H68v-.9H62ZM67.65,139a4.79,4.79,0,0,1-1-.86H63.32a4.94,4.94,0,0,1-.9.86Zm-3.91-4.55v.88h2.51v-.88Zm2.51,1.21H63.74v.91h2.51Zm0,2.13v-.9H63.74v.9Zm3.62,6.42-.23.3a22.75,22.75,0,0,0-3.78-1.15l.22-.27A26.62,26.62,0,0,1,69.87,144.16Z"/><path class="cls-1" d="M64.78,151.55v-1h-5v-.39h5v-.89h.42v.89h5v.39h-5v1h3.63v2.16H65.2v1H69v1.72h1.52v.38H69v1.61H65.2v1.1a.76.76,0,0,1-.87.85H62.82l-.09-.41c.52,0,1,0,1.45,0a.52.52,0,0,0,.6-.58v-1H60.55v-.37h4.23v-1.24H59.44v-.38h5.34V155.1H60.56v-.38h4.22v-1H61.15v-2.16Zm0,.36H61.57v1.44h3.21Zm3.63,0H65.2v1.44h3.21Zm-3.21,4.53h3.41V155.1H65.2Zm0,.38v1.24h3.41v-1.24Z"/><path class="cls-1" d="M69.9,166v.41H65.15v5.11h5.21v.4H65.15v4.52h-.42v-4.52H59.62v-.4h5.11v-5.11H60.11V166Zm-7.27,4.42-.39.19a21,21,0,0,0-1.37-2.88l.38-.2A27.78,27.78,0,0,1,62.63,170.37Zm6.51-2.8a16.53,16.53,0,0,1-1.59,3l-.36-.2a15.32,15.32,0,0,0,1.55-3Z"/><path class="cls-1" d="M60,185.55c1.33-.64,2.74-2.09,4.25-4.33l.4.14a15.53,15.53,0,0,1-3.83,4.15c2.87-.11,5.48-.28,7.78-.53a25.67,25.67,0,0,0-1.8-2.19l.38-.2a32.84,32.84,0,0,1,3.13,4.08l-.4.2c-.34-.53-.67-1-1-1.5-2.62.25-5.55.43-8.81.57Zm9,6.81h-.42v-.79h-7v.79h-.42v-5h7.88Zm-.42-1.21v-3.33h-7v3.33Z"/><path class="cls-1" d="M42.43,162.42V151.53H23.12v10.89Zm-17.16-8.85H40.2v6.78H25.27Z"/><path class="cls-1" d="M26.38,148.44c2.61-.11,7.15-.31,15.5-.78a19.51,19.51,0,0,1,1.7,2.41l1.81-1.29a46.16,46.16,0,0,0-7.57-8.32l-1.69,1.09a53.6,53.6,0,0,1,4.15,4.22l-14.5.71A61.76,61.76,0,0,0,33,138.05l-2.09-.94a47.14,47.14,0,0,1-6.6,8.08,8.75,8.75,0,0,1-1.76,1.47H21.7l.67,2,4-.18Z"/><path class="cls-1" d="M46.32,223.77v1.49H20.77v-1.49H32.34v-1.49H23v-1.35h9.36v-1.46H23.67v-1.32h8.67v-1.57H20.83v-1.35H32.34v-1.46h-8.5v-1.32h8.5v-1.77h2.12v1.77h8.68v2.78h3.09v1.35H43.14v2.89H34.46v1.46h9.8v1.35h-9.8v1.49ZM20.77,234.51H46.32V236H20.77Zm22.43-8v6.64H23.67v-6.64Zm-17.5,2.69h6.73v-1.46H25.7Zm0,2.72h6.73v-1.52H25.7Zm15.35-4.18H34.4v1.46h6.65Zm0,2.66H34.4v1.52h6.65Zm-6.59-15.18H41v-1.46H34.46Zm0,2.92H41v-1.57H34.46Z"/><path class="cls-1" d="M37.28,103.33H33.94c.35-1.12.48-1.38.77-2.46l-2-.36c-.18,1-.47,1.91-.73,2.82H29.81v10.83h7.47Zm-1.89,9.17H31.67v-3h3.72Zm0-4.55H31.67v-3h3.72Z"/><path class="cls-1" d="M22.91,111.27c-.72.86-1.24,1.46-1.75,1.57l.53,1.56,5.56-.88.3,0c.11.55.14,1.06.2,1.46l1.54-.4a35.54,35.54,0,0,0-1.06-4.81l-1.46.37c.17.6.32,1.29.49,2l-3.5.46a47.42,47.42,0,0,0,5.3-7.73l-1.57-.86c-.46.94-1,1.89-1.49,2.83l-2.42.23h0a31.13,31.13,0,0,0,2.93-5.67l-1.69-.66a25.15,25.15,0,0,1-2.5,5.42,2.39,2.39,0,0,1-1,1.11l-.15,0,.56,1.63,3.26-.5h0C24.08,109.72,23.28,110.81,22.91,111.27Z"/><polygon class="cls-1" points="34.59 115.11 32.47 115.11 32.47 116.59 20.82 116.59 20.82 118.4 32.47 118.4 32.47 126.7 34.59 126.7 34.59 118.4 46.25 118.4 46.25 116.59 34.59 116.59 34.59 115.11"/><path class="cls-1" d="M36.41,120.52A52,52,0,0,1,44.89,126l1.31-1.61a61.16,61.16,0,0,0-8.5-5.27Z"/><path class="cls-1" d="M41.3,108.6h0l.6-.08c-.94,1.43-1.77,2.55-2.14,3-.67.86-1.21,1.45-1.71,1.58h-.11l.28,1.54,3.76-.47,2.47-.32c.12.49.23.92.29,1.32l1.52-.51a45.69,45.69,0,0,0-1.32-4.47l-1.43.43c.17.54.34,1.17.54,1.8l-3.41.37a46.72,46.72,0,0,0,5.24-7.73l-1.57-.89c-.43.92-.89,1.81-1.4,2.7l-2.78.31a38.39,38.39,0,0,0,3-6l-1.72-.57a26.83,26.83,0,0,1-2.52,5.65c-.4.65-.74,1.11-1.12,1.2l.51,1.57Z"/><path class="cls-1" d="M29.12,119.31s-2.65,3.14-8.84,4.8l1.35,1.71s5.8-1.66,9.31-5.76Z"/><polygon class="cls-1" points="40.35 183.81 40.35 174.47 38.2 174.47 38.2 183.81 32.59 183.81 32.59 185.9 38.2 185.9 38.2 200.1 40.35 200.1 40.35 185.9 46.22 185.9 46.22 183.81 40.35 183.81"/><path class="cls-1" d="M22.15,191.09v8.29h9.29v-8.28ZM24,192.87h5.54v4.73H24Z"/><rect class="cls-1" x="22.13" y="186.91" width="9.31" height="1.76"/><rect class="cls-1" x="22.13" y="182.85" width="9.31" height="1.77"/><rect class="cls-1" x="24.01" y="174.72" width="7.43" height="1.77"/><rect class="cls-1" x="20.87" y="178.8" width="10.57" height="1.75"/></svg>