<svg id="主體" xmlns="http://www.w3.org/2000/svg" viewBox="0 0 335.22 90.61"><defs><style>.cls-1{fill:#222327;}</style></defs><title>logo</title><polygon class="cls-1" points="240.98 16.99 26.32 16.99 16.99 16.99 16.99 26.32 16.99 72.99 26.32 72.99 26.32 26.32 240.98 26.32 240.98 16.99"/><rect class="cls-1" x="93.54" y="36.35" width="9.83" height="35.99" transform="translate(21.22 -27.39) rotate(17.72)"/><circle class="cls-1" cx="57.43" cy="60.54" r="12.44"/><path class="cls-1" d="M318.37,62.31v1.32H295.76V62.31H306V61h-8.29V59.8H306V58.5h-7.68V57.34H306v-1.4H295.81V54.75H306V53.46h-7.53V52.29H306V50.72h1.88v1.57h7.68v2.46h2.74v1.19h-2.74V58.5h-7.68v1.3h8.67V61h-8.67v1.32Zm-22.61,9.5h22.61v1.35H295.76Zm19.85-7.07v5.88H298.32V64.74Zm-15.49,2.38h6V65.83h-6Zm0,2.41h6V68.19h-6Zm13.59-3.7h-5.88v1.29h5.88Zm0,2.36h-5.88v1.34h5.88Zm-5.83-13.44h5.8V53.46h-5.8Zm0,2.59h5.8v-1.4h-5.8Z"/><path class="cls-1" d="M280.7,19.57h-2.95c.31-1,.42-1.23.67-2.18l-1.72-.33c-.16.86-.41,1.7-.64,2.51h-2v9.58h6.61ZM279,27.68h-3.3V25H279Zm0-4h-3.3V21H279Z"/><path class="cls-1" d="M268,26.59c-.64.76-1.09,1.29-1.55,1.39l.47,1.38,4.92-.78.26,0c.1.48.13.94.18,1.29l1.37-.35a31,31,0,0,0-.94-4.26l-1.29.33c.15.53.28,1.14.43,1.72l-3.09.41a42.56,42.56,0,0,0,4.69-6.85l-1.4-.76c-.4.84-.86,1.68-1.31,2.51l-2.15.21h0a27.85,27.85,0,0,0,2.59-5l-1.5-.59a21.85,21.85,0,0,1-2.21,4.8,2.24,2.24,0,0,1-.87,1h-.13l.49,1.44,2.89-.44h0C269,25.22,268.31,26.18,268,26.59Z"/><polygon class="cls-1" points="278.32 29.99 276.44 29.99 276.44 31.3 266.13 31.3 266.13 32.9 276.44 32.9 276.44 40.25 278.32 40.25 278.32 32.9 288.64 32.9 288.64 31.3 278.32 31.3 278.32 29.99"/><path class="cls-1" d="M279.93,34.78a45.81,45.81,0,0,1,7.5,4.84l1.17-1.42a52.81,52.81,0,0,0-7.53-4.66Z"/><path class="cls-1" d="M284.26,24.23h0l.53-.07c-.83,1.26-1.57,2.25-1.9,2.66-.59.76-1.06,1.28-1.51,1.4h-.09l.25,1.36,3.32-.42L287,28.9c.1.43.2.81.25,1.16l1.35-.45c-.23-1.07-.74-2.69-1.17-4L286.2,26c.16.48.31,1,.49,1.6l-3,.33a42.13,42.13,0,0,0,4.64-6.85l-1.4-.78c-.38.81-.78,1.59-1.24,2.38l-2.46.28a34,34,0,0,0,2.61-5.3l-1.52-.51a23.31,23.31,0,0,1-2.23,5c-.35.58-.66,1-1,1.06l.45,1.4Z"/><path class="cls-1" d="M273.47,33.71s-2.34,2.77-7.82,4.24l1.2,1.52s5.13-1.46,8.24-5.1Z"/><path class="cls-1" d="M315.61,39.43V29.8H298.52v9.63ZM300.42,31.6h13.21v6H300.42Z"/><path class="cls-1" d="M301.4,27.06c2.31-.09,6.33-.28,13.72-.69a17.58,17.58,0,0,1,1.51,2.13l1.6-1.14a40.8,40.8,0,0,0-6.7-7.36L310,21a48.33,48.33,0,0,1,3.68,3.74l-12.84.62a54.39,54.39,0,0,0,6.39-7.45L305.41,17a41.65,41.65,0,0,1-5.84,7.16,8.15,8.15,0,0,1-1.55,1.3h-.76l.6,1.73,3.54-.16Z"/><polygon class="cls-1" points="283.4 59.19 283.4 50.93 281.5 50.93 281.5 59.19 276.53 59.19 276.53 61.04 281.5 61.04 281.5 73.62 283.4 73.62 283.4 61.04 288.6 61.04 288.6 59.19 283.4 59.19"/><path class="cls-1" d="M267.29,65.64V73h8.23v-7.3Zm1.65,1.57h4.91v4.16h-4.91Z"/><rect class="cls-1" x="267.28" y="61.94" width="8.24" height="1.56"/><rect class="cls-1" x="267.28" y="58.35" width="8.24" height="1.56"/><rect class="cls-1" x="268.94" y="51.15" width="6.58" height="1.56"/><rect class="cls-1" x="266.16" y="54.76" width="9.35" height="1.55"/></svg>