<?xml version="1.0" encoding="utf-8"?>
<!-- Generator: Adobe Illustrator 22.0.1, SVG Export Plug-In . SVG Version: 6.00 Build 0)  -->
<svg version="1.1" id="Layer_1" xmlns="http://www.w3.org/2000/svg" xmlns:xlink="http://www.w3.org/1999/xlink" x="0px" y="0px"
	 viewBox="0 0 511 511" style="enable-background:new 0 0 511 511;" xml:space="preserve">
<style type="text/css">
	.st0{fill:#FFFFFF;}
</style>
<g>
	<path class="st0" d="M273.8,76.5V20c0-6.1-2.8-11.8-7.5-15.6c-4.8-3.8-11-5.2-16.9-3.8L136.8,26.4c-20.9,4.4-36,23.1-36,44.5v180.4
		c-9.1-4.3-19.2-6.8-29.9-6.8C32.3,244.5,1,275.9,1,314.4c0,38.5,31.3,69.9,69.9,69.9c38.1,0,69.1-30.6,69.8-68.5c0-0.2,0-0.4,0-0.7
		V146.9l93.7-21.6C257.3,120.3,273.8,99.9,273.8,76.5z M70.9,344.3c-16.5,0-29.9-13.4-29.9-29.9c0-16.5,13.4-29.9,29.9-29.9
		c16.5,0,29.9,13.4,29.9,29.9C100.8,330.9,87.4,344.3,70.9,344.3z M233.9,76.5c0,4.7-3.3,8.8-7.9,9.8c-0.1,0-0.2,0-0.3,0.1
		l-84.9,19.6V70.9c0-2.6,1.9-4.9,4.5-5.5c0.1,0,0.3-0.1,0.4-0.1L233.9,45V76.5z"/>
</g>
</svg>
